<svg width="967" height="741" viewBox="0 0 967 741" fill="none" xmlns="http://www.w3.org/2000/svg">
<g clip-path="url(#clip0)">
<path d="M924.006 213.876C810.962 56.5328 572.162 -7.29227 337.309 61.4489C213.15 97.7903 93.4374 170.606 34.1108 311.6C-71.9419 563.642 150.729 644.138 296.332 669.793C366.737 682.198 433.047 703.037 493.642 731.408C602.658 782.451 795.622 827.68 941.131 615.063C1046.6 460.958 999.304 318.682 924.006 213.876Z" fill="white"/>
<path d="M262.689 211.14C262.373 208.639 261.733 206.19 260.786 203.854C260.665 203.413 260.454 203.001 260.166 202.646C259.877 202.29 259.517 201.998 259.11 201.79C258.565 201.648 257.995 201.642 257.447 201.771L248.908 203.078C248.193 203.11 247.509 203.376 246.96 203.835C245.848 205.005 246.943 206.889 246.909 208.503C246.87 210.318 245.258 211.791 243.51 212.278C241.725 212.639 239.885 212.616 238.11 212.211L226.17 210.355C229.686 209.232 232.816 207.143 235.202 204.326C236.774 202.464 237.61 198.988 235.339 198.107C234.664 197.921 233.96 197.865 233.265 197.94C227.855 197.982 223.598 193.464 218.534 191.562C215.293 190.423 211.774 190.338 208.482 191.32C205.19 192.301 202.292 194.299 200.203 197.027L206.564 197.334C207.162 197.301 207.756 197.459 208.258 197.786C209.652 198.932 207.919 201.132 208.115 202.926C208.371 205.256 211.464 205.754 213.796 205.99C216.128 206.225 219.087 208.121 217.965 210.179C206.244 214.217 194.316 202.285 182.006 203.754C178.891 204.126 175.949 205.35 172.907 206.12C154.326 210.822 135.116 198.276 116.134 200.933C111.914 201.652 107.767 202.746 103.741 204.202C101.158 205.05 98.4629 205.967 96.5858 207.935C94.7086 209.903 93.9942 213.268 95.7725 215.326C90.8711 215.729 85.9369 215.26 81.1993 213.94C82.4804 214.652 83.5462 215.696 84.2848 216.963C85.0234 218.229 85.4075 219.671 85.3968 221.137C77.7438 222.385 70.2935 224.658 63.2462 227.893C64.5615 230.081 66.0977 232.128 67.8308 234.002L58.1423 240.227C61.4156 241.052 63.1079 245.517 61.2044 248.305C64.5984 246.795 66.7018 242.888 70.3311 242.096C72.7088 241.577 75.1281 242.55 77.3837 243.464C79.6393 244.378 82.1184 245.264 84.4534 244.578C86.7884 243.892 88.5107 240.864 87.027 238.934C97.0074 236.021 107.322 234.41 117.715 234.138C118.517 234.038 119.33 234.192 120.039 234.58C121.392 235.518 121.036 237.546 120.963 239.192C120.89 240.837 122.172 243 123.643 242.258C121.913 243.758 123.392 246.583 125.051 248.16C126.711 249.738 128.711 251.915 127.695 253.967C127.43 254.503 126.98 254.931 126.725 255.472C125.972 257.067 127.167 258.927 128.578 259.986C129.988 261.046 131.716 261.786 132.695 263.253C133.675 264.72 133.23 267.288 131.478 267.493L126.499 261.169C124.798 262.934 123.631 265.144 123.135 267.545C128.415 271.863 129.21 280.651 124.789 285.845C122.53 288.5 119.318 290.113 116.514 292.183C113.71 294.254 111.115 297.203 111.122 300.689C111.135 306.711 110.643 312.307 112.899 317.89C117.06 328.186 121.863 338.211 127.281 347.904C128.704 350.449 130.543 353.239 133.426 353.677C129.783 344.807 126.504 335.799 123.588 326.653C125.487 326.66 127.681 326.811 128.795 328.35C129.717 329.624 129.519 331.357 129.805 332.903C130.169 334.402 130.777 335.83 131.603 337.132L148.999 368.125C150.441 370.695 152.095 373.453 154.851 374.493C156.613 375.158 158.651 375.033 160.273 375.991C161.544 376.741 162.401 378.074 163.697 378.781C167.361 380.781 172.457 376.946 175.881 379.333C176.86 380.016 177.483 381.1 178.386 381.882C181.548 384.621 186.737 382.789 190.388 384.832C192.741 386.149 193.96 388.784 195.215 391.171C198.359 397.15 203.446 403.008 210.184 403.484C212.3 403.634 214.462 403.233 216.531 403.703C218.599 404.174 220.636 405.98 220.304 408.076C219.735 411.67 221.51 415.604 221.033 419.211C220.164 425.781 210.848 428.668 210.047 435.247C209.872 436.687 210.146 438.174 209.803 439.584C209.383 441.312 208.086 442.719 207.625 444.437C206.751 447.691 209.082 450.931 211.644 453.121C214.205 455.31 217.26 457.199 218.66 460.264C220.14 463.504 219.413 467.282 219.895 470.811C220.945 478.517 227.599 484.229 234.447 487.912C236.533 489.034 238.773 490.121 240.123 492.067C241.886 494.608 241.71 497.958 242.299 500.994C243.74 508.429 249.998 514.556 250.176 522.127C250.302 527.509 247.311 532.391 245.524 537.469C243.849 542.335 243.243 547.504 243.747 552.625C244.252 557.746 245.854 562.698 248.445 567.143C249.782 569.4 251.38 571.528 252.326 573.975C254.013 578.342 253.466 583.306 255.021 587.722C257.078 593.559 262.729 598.381 262.188 604.547C264.754 609.876 270.419 612.495 276.116 614.081L286.326 616.924C288.281 617.468 290.324 618.017 292.315 617.623C294.306 617.228 296.206 615.575 296.154 613.546C291.147 612.416 285.98 611.215 281.852 608.164C277.725 605.112 274.898 599.677 276.464 594.788C277.19 592.521 278.735 589.903 277.266 588.03C276.425 586.958 274.887 586.677 273.939 585.699C272.459 584.172 272.968 581.608 274.031 579.768C275.095 577.927 276.632 576.282 277.061 574.2C277.278 573.035 277.133 571.832 276.646 570.752C276.16 569.672 275.355 568.766 274.339 568.157C276.232 567.442 277.954 566.337 279.393 564.913C280.722 563.395 281.335 561.055 280.29 559.329C283.395 559.723 287.06 559.916 289.098 557.54C290.725 555.643 290.613 552.807 289.97 550.392C289.327 547.977 288.24 545.631 288.207 543.131C295.368 543.471 302.546 543.227 309.668 542.403C308.638 538.934 306.298 536.002 303.143 534.23C306.369 533.684 309.307 529.821 310.326 526.712C311.346 523.602 311.086 520.215 310.456 517.004C310.214 516.177 310.181 515.303 310.359 514.461C310.722 513.303 311.86 512.596 312.912 511.992L328.923 502.794C329.878 502.316 330.744 501.676 331.483 500.904C333.161 498.933 332.912 495.958 332.053 493.516C331.194 491.075 329.818 488.779 329.488 486.212C328.498 478.534 336.715 473.025 339.488 465.798C340.576 462.962 340.798 459.879 341.008 456.849C341.235 453.594 341.251 449.813 338.753 447.715C336.358 445.705 332.615 446.153 330.109 444.283C327.811 442.568 327.018 439.238 324.508 437.853C322.228 436.595 319.37 437.395 316.835 436.804C312.37 435.762 309.561 430.616 305.002 430.139C302.43 429.87 299.518 431.128 297.41 429.63C295.552 428.309 295.478 425.656 295.124 423.404C294.505 419.904 292.827 416.678 290.319 414.161C287.81 411.644 284.591 409.956 281.094 409.325C278.441 408.899 275.555 409.061 273.298 407.603C271.013 406.127 269.966 403.363 268.171 401.318C265.279 398.024 260.723 396.853 256.456 395.85L239.098 391.768C236.017 391.043 232.045 390.659 230.391 393.359C229.902 394.387 229.555 395.477 229.361 396.599C228.742 398.629 227.495 400.409 225.8 401.686C224.105 402.962 222.049 403.667 219.928 403.701C218.473 401.219 216.116 399.395 213.349 398.61C211.589 398.119 209.705 398.065 208.026 397.343C207.112 396.896 206.298 396.268 205.635 395.496C204.972 394.725 204.474 393.826 204.17 392.855C203.866 391.883 203.764 390.861 203.869 389.848C203.974 388.836 204.285 387.856 204.782 386.968C205.783 385.186 206.169 383.124 205.882 381.1C205.594 379.077 204.649 377.204 203.191 375.771C200.24 373.12 195.969 372.48 192.011 372.745C190.975 370.482 192.708 367.93 194.576 366.285C196.444 364.641 198.712 363.025 199.119 360.569C199.758 356.707 194.832 353.774 191.091 354.925C187.35 356.077 184.963 359.711 183.384 363.294C182.479 365.349 181.709 367.514 180.281 369.247C178.852 370.98 176.552 372.221 174.376 371.665C171.296 370.877 170.106 367.217 169.425 364.111C168.51 359.944 167.59 355.719 167.782 351.456C167.973 347.194 169.41 342.818 172.552 339.933C177.672 335.231 185.527 335.692 192.437 336.442C190.805 334.602 191.208 331.501 192.955 329.769C193.877 328.95 194.985 328.368 196.183 328.073C197.381 327.779 198.633 327.781 199.829 328.08C201.912 328.514 203.787 329.635 205.155 331.265C207.119 333.66 207.677 336.893 209.161 339.611C210.646 342.329 213.983 344.648 216.715 343.189C219.074 341.93 219.449 338.657 218.862 336.047C218.274 333.437 217.027 330.9 217.24 328.233C217.646 323.145 222.919 320.082 227.573 317.986C232.226 315.891 237.555 313.072 238.292 308.021C238.317 307.032 238.504 306.054 238.844 305.125C239.36 304.305 240.077 303.63 240.928 303.165C254.509 294.188 268.316 285.101 283.839 280.195C284.646 279.94 284.741 280.224 285.564 280.024C286.716 279.358 285.953 277.516 284.848 276.774C283.744 276.032 282.268 275.463 281.988 274.162C281.782 273.206 282.345 272.267 282.491 271.299C282.851 268.923 280.008 266.728 277.801 267.678C276.554 266.027 279.021 264.108 281.016 263.558C287.007 261.909 293.156 260.904 299.36 260.561C300.076 260.447 300.81 260.572 301.448 260.916C302.49 261.638 302.356 263.294 301.618 264.324C300.879 265.355 299.731 266.002 298.811 266.874C297.805 267.853 297.088 269.09 296.738 270.45C296.387 271.809 296.417 273.239 296.823 274.583C300.062 276.231 303.583 277.927 307.17 277.347C310.757 276.766 313.94 272.735 312.254 269.515C310.684 266.517 305.968 265.841 305.157 262.555C304.207 258.708 309.652 255.286 308.426 251.518C307.889 249.867 306.244 248.896 304.982 247.704C303.492 246.243 302.478 244.366 302.074 242.318C301.67 240.27 301.895 238.148 302.718 236.23C300.663 236.592 298.551 236.455 296.559 235.832C294.567 235.208 292.754 234.116 291.271 232.647C288.533 229.883 286.349 225.523 282.461 225.647C278.893 225.761 275.82 229.924 272.484 228.654C271.663 228.341 270.798 227.705 270.002 228.078C269.742 228.247 269.523 228.473 269.363 228.74C269.202 229.006 269.105 229.305 269.077 229.615C268.229 233.669 269.687 238.288 267.478 241.792C265.074 245.604 259.514 246.133 256.599 249.571C255.017 251.437 254.404 253.952 252.95 255.919C251.496 257.887 248.41 259.138 246.664 257.423C247.522 255.659 247.756 253.657 247.329 251.743C246.901 249.829 245.837 248.116 244.311 246.886C242.691 245.828 240.944 244.979 239.112 244.356C237.065 243.49 235.118 242.404 233.305 241.119C232.396 240.571 231.658 239.781 231.173 238.837C230.789 237.656 230.84 236.375 231.318 235.229C232.203 232.691 233.764 230.443 235.833 228.728C237.902 227.013 240.4 225.896 243.057 225.497C245.381 225.181 248.085 225.292 249.623 223.521C250.436 222.584 250.863 221.168 252.044 220.787C252.799 220.635 253.584 220.732 254.28 221.063L262.952 224.116C263.92 224.553 264.985 224.729 266.042 224.627C266.566 224.557 267.044 224.29 267.38 223.882C267.716 223.474 267.885 222.953 267.853 222.425C267.576 220.985 265.36 220.293 265.562 218.84C265.675 218.37 265.928 217.944 266.287 217.62C269.417 214.288 273.245 211.689 277.496 210.01C281.748 208.331 286.318 207.612 290.879 207.906C291.974 209.705 290.243 211.834 288.802 213.369C287.362 214.904 286.204 217.647 287.946 218.829C288.66 219.193 289.454 219.372 290.256 219.349C292.391 219.638 294.466 220.268 296.402 221.214C299.399 222.518 302.338 223.945 305.22 225.496C304.965 223.595 304.722 221.593 305.443 219.816C306.163 218.038 308.21 216.645 309.998 217.337C311.721 218.004 312.605 220.286 314.44 220.495C316.889 220.774 317.855 217.155 316.832 214.912C315.809 212.67 313.784 210.792 313.615 208.332C313.501 206.673 314.133 204.615 312.808 203.611C312.336 203.309 311.801 203.121 311.244 203.062L278.16 196.973C276.195 196.611 273.357 196.888 273.269 198.884C273.221 199.999 274.216 201.101 273.775 202.125C273.305 203.219 271.759 203.119 270.634 203.506C268.888 204.106 268.011 206.18 268.179 208.019C268.486 209.847 269.194 211.584 270.251 213.106C268.099 212.206 264.841 212.04 262.689 211.14Z" fill="#27AE60"/>
<path d="M236.291 183.047C234.204 182.356 231.956 182.324 229.851 182.954C227.746 183.585 225.886 184.848 224.522 186.572C223.977 187.289 223.52 188.278 223.976 189.055C224.63 190.169 226.296 189.729 227.524 189.331C229.33 188.685 231.295 188.638 233.129 189.197C234.282 189.593 235.314 190.293 236.472 190.674C237.036 190.91 237.654 190.988 238.258 190.899C238.863 190.811 239.433 190.56 239.905 190.172C240.7 189.361 240.75 188.1 240.752 186.964C240.807 186.584 240.776 186.197 240.663 185.83C240.549 185.463 240.355 185.126 240.094 184.844C239.631 184.576 239.11 184.421 238.575 184.395C237.376 184.173 236.292 183.539 235.511 182.604" fill="#253C4B"/>
<path d="M248.22 179.723C247.753 179.697 247.288 179.792 246.868 179.999C246.449 180.206 246.09 180.517 245.825 180.902C245.56 181.288 245.399 181.735 245.358 182.201C245.316 182.667 245.394 183.135 245.586 183.562C247.02 183.953 248.518 184.051 249.99 183.849C250.725 183.735 251.409 183.406 251.957 182.904C252.505 182.402 252.892 181.748 253.069 181.026C251.335 181.342 249.546 181 248.051 180.068" fill="#253C4B"/>
<path d="M288.245 174.175C284.343 175.005 280.552 176.293 276.951 178.013C278.649 178.665 280.092 179.846 281.067 181.381C282.043 182.915 282.5 184.723 282.371 186.537C282.219 187.234 282.236 187.957 282.423 188.645C282.837 189.651 284.039 190.028 285.096 190.287C286.994 190.865 288.977 191.118 290.96 191.035C291.952 190.983 292.915 190.685 293.762 190.167C294.61 189.649 295.315 188.928 295.813 188.069C296.101 187.253 296.438 186.456 296.823 185.682C299.356 181.824 306.88 186.489 309.6 182.76C310.558 181.446 310.47 179.469 311.719 178.428C312.365 177.974 313.113 177.688 313.897 177.596C319.366 176.509 324.89 175.722 330.445 175.239C333.077 175.01 336.508 174.064 336.53 171.422C326.616 169.475 316.337 170.858 307.29 175.356C304.031 176.989 299.72 180.424 296.58 178.259C295.405 177.449 295.463 175.266 293.845 174.355C292.191 173.423 290.001 173.802 288.245 174.175Z" fill="#253C4B"/>
<path d="M320.666 180.239L325.319 181.133C324.463 181.095 323.608 181.241 322.812 181.559C322.016 181.878 321.297 182.363 320.703 182.981C320.109 183.6 319.654 184.338 319.368 185.147C319.082 185.955 318.971 186.815 319.044 187.67C323.402 189.126 328.153 187.709 332.743 187.903C337.334 188.096 342.675 191.376 341.891 195.904C341.654 197.274 340.864 198.642 341.275 199.969C341.563 200.9 342.383 201.56 342.846 202.417C343.811 204.202 343.04 206.46 341.822 208.083C340.604 209.706 338.966 211.001 337.897 212.726C335.237 217.016 336.748 222.562 338.333 227.355C338.791 229.165 339.637 230.855 340.812 232.307C343.159 234.803 346.984 235.02 350.41 235.07C352.903 235.107 355.759 234.983 357.336 233.051C359.395 230.528 357.955 226.592 359.31 223.632C360.541 220.943 363.677 219.789 366.519 218.971C371.724 217.472 377.029 216.198 381.95 213.934C388.06 211.123 393.771 206.742 400.487 206.38C402.372 206.278 404.302 206.501 406.117 205.984C407.932 205.468 409.657 203.898 409.519 202.016C409.402 200.407 408.041 199.226 406.978 198.014C405.915 196.801 405.08 194.937 406.057 193.654L423.662 190.365C422.414 186.964 421.442 182.484 424.309 180.269C425.344 179.471 426.729 179.151 427.61 178.186C429.111 176.539 428.356 173.704 426.623 172.304C424.89 170.904 422.547 170.579 420.327 170.395C412.608 169.753 404.844 170.177 397.11 170.601C381.992 171.43 366.873 172.259 351.755 173.088C348.712 173.255 345.198 173 342.406 174.038C340.043 174.918 338.363 176.532 335.66 177.099C330.671 178.146 325.181 177.437 320.666 180.239Z" fill="#253C4B"/>
<path d="M404.033 217.032C403.559 216.957 403.074 217.067 402.679 217.339C402.417 217.627 402.262 217.995 402.238 218.384C401.937 220.097 402.295 221.861 403.24 223.322C403.721 224.039 404.385 224.613 405.163 224.987C405.941 225.36 406.805 225.518 407.665 225.444C409.761 225.177 411.305 223.389 413.231 222.516C416.2 221.173 428.809 219.078 420.087 214.365C417.081 212.741 415.139 214.175 412.77 215.244C410.074 216.624 407.054 217.242 404.033 217.032Z" fill="#253C4B"/>
<path d="M480.43 177.578C479.411 177.994 478.559 178.736 478.007 179.687C477.752 180.171 477.693 180.733 477.842 181.259C477.99 181.784 478.335 182.233 478.805 182.511C479.185 182.649 479.589 182.713 479.993 182.7L484.134 182.823C485.894 182.876 488.091 183.251 488.564 184.947C488.915 186.206 488.129 187.824 489.077 188.724C489.484 189.039 489.973 189.23 490.486 189.273C491.85 189.624 493.275 189.67 494.659 189.408C497.672 188.599 496.089 186.76 497.038 185.122C498.49 182.616 498.238 184.133 500.797 182.697C502.686 181.636 505.128 179.712 503.551 177.008C500.808 172.307 484.477 175.558 480.43 177.578Z" fill="#253C4B"/>
<path d="M562.167 175.215L559.763 175.536C554.34 176.26 548.887 176.991 543.664 178.619C545.925 179.513 548.296 180.096 550.714 180.35C552.045 180.415 553.367 180.603 554.664 180.911C556.97 181.598 559.295 183.372 561.523 182.463C562.905 181.9 563.356 180.461 564.501 179.698C565.291 179.171 568.289 178.319 568.624 177.787C571.333 173.49 564.25 174.937 562.167 175.215Z" fill="#253C4B"/>
<path d="M572.726 186.149C569.514 187.945 566.534 190.128 563.852 192.649C562.722 193.711 561.568 195.033 561.671 196.58C561.807 198.637 563.998 199.83 565.896 200.634L573.583 203.89C574.515 202.575 573.662 200.76 572.698 199.468C571.734 198.176 570.589 196.681 571.015 195.127C571.501 193.352 573.664 192.748 575.477 192.442C578.432 191.944 586.403 191.984 585.445 187.221C584.317 181.608 575.693 184.49 572.726 186.149Z" fill="#253C4B"/>
<path d="M571.18 503.767C570.449 505.886 570.379 508.383 571.645 510.233C573.066 512.309 575.908 513.083 578.368 512.557C580.817 511.905 583 510.501 584.61 508.543C586.082 506.902 587.292 505.045 588.2 503.036C589.466 499.905 590.359 496.636 590.861 493.297L593.248 480.762C593.781 477.961 593.76 469.372 588.613 472.17C587.207 472.935 583.951 478.97 582.477 480.682C579.821 483.767 579.469 486.76 578.071 490.497C576.32 495.178 572.8 499.079 571.18 503.767Z" fill="#253C4B"/>
<path d="M843.062 567.911C841.378 567.254 839.743 566.475 838.171 565.582C836.594 569.917 835.756 574.487 835.691 579.099L847.217 572.576C848.951 571.595 850.916 570.231 850.879 568.239C850.894 567.993 850.843 567.747 850.731 567.527C850.619 567.308 850.45 567.123 850.241 566.991C849.985 566.888 849.706 566.855 849.433 566.896C847.724 567.039 846.166 567.88 844.554 568.465C842.941 569.05 841.056 569.359 839.577 568.491" fill="#253C4B"/>
<path d="M903.863 571.784C902.598 572.129 901.362 572.572 900.167 573.111C897.522 574.457 895.723 577.014 893.343 578.787C891.065 580.484 888.323 581.415 885.631 582.321C884.84 583.021 885.203 584.431 886.063 585.046C886.987 585.572 888.047 585.81 889.107 585.73C891.903 585.792 894.85 585.819 897.299 584.468C898.679 583.572 899.97 582.547 901.156 581.406C904.019 579.016 907.459 577.439 910.863 575.915C912.102 575.447 913.248 574.762 914.246 573.892C916.385 571.784 916.536 568.532 913.451 567.814C910.959 567.234 906.236 571.016 903.863 571.784Z" fill="#253C4B"/>
<path d="M930.728 554.232C930.867 552.781 930.674 551.318 930.164 549.953C929.655 548.588 928.841 547.356 927.786 546.352C927.755 549.254 927.667 552.346 926.035 554.745C924.872 556.455 923.049 557.61 921.775 559.239C920.501 560.868 919.936 563.45 921.43 564.879C922.385 565.606 923.548 566.007 924.749 566.022C927.723 566.372 931.166 566.568 933.252 564.418C934.391 563.245 934.944 561.508 936.333 560.645C936.851 560.428 937.312 560.097 937.685 559.677C938.258 558.766 937.347 557.564 936.322 557.236C935.296 556.907 934.166 557.061 933.135 556.749C932.105 556.437 931.159 555.278 931.688 554.34" fill="#253C4B"/>
<path d="M882.981 447.827C881.421 448.207 879.805 448.302 878.21 448.109C875.562 447.622 873.501 445.626 871.364 443.989C866.282 440.118 860.104 437.959 853.718 437.822C847.909 437.712 842.045 439.287 836.34 438.188C836.713 440.262 838.487 441.817 840.38 442.742C842.273 443.666 844.362 444.132 846.264 445.037C849.31 446.502 851.726 449.016 853.069 452.119C853.682 453.549 854.067 455.105 854.995 456.354C856.892 458.907 860.487 459.468 863.66 459.259C867.796 458.987 872.117 457.797 875.965 459.338C878.909 460.517 881.016 463.095 883.474 465.099C885.933 467.103 889.395 468.59 892.218 467.144C889.286 466.195 886.734 464.333 884.935 461.83C883.136 459.328 882.183 456.315 882.217 453.233C884.985 453.488 892.959 453.389 892.53 448.684C892.166 444.697 885.358 447.397 882.981 447.827Z" fill="#253C4B"/>
<path d="M846.765 480.27C847.257 477.574 849.945 475.193 849.108 472.583C848.529 470.778 846.436 469.886 844.542 469.842C842.647 469.797 840.786 470.362 838.891 470.415C837.658 470.35 836.422 470.367 835.192 470.468C831.431 471.086 829.113 475.029 825.569 476.43C823.414 477.283 820.993 477.12 818.752 477.709C813.665 479.047 810.446 483.855 806.89 487.732C801.143 493.968 793.658 498.335 785.402 500.266C782.509 500.936 779.4 501.365 777.101 503.244C774.056 505.732 773.306 509.998 772.629 513.872C770.757 524.571 767.897 535.073 764.085 545.243L776.165 546.786C778.462 547.079 780.842 547.366 783.055 546.686C784.663 546.079 786.186 545.268 787.586 544.271C792.966 540.93 798.988 538.756 805.261 537.89C808.424 537.456 811.741 537.376 814.709 538.552C817.678 539.728 820.225 542.395 820.474 545.579C821.757 545.18 823.126 545.137 824.432 545.455C825.738 545.772 826.934 546.439 827.891 547.384C829.782 549.312 831.021 551.785 831.432 554.455C831.75 556.108 832.069 558.088 833.602 558.782C834.853 559.348 836.288 558.738 837.657 558.629C842.301 558.257 846.155 563.674 850.72 562.741C855.616 561.741 856.818 554.407 861.594 552.938C864.337 552.094 868.185 553.12 869.499 550.568C870.656 548.318 868.346 545.722 868.585 543.203C868.878 540.102 872.536 538.785 875.355 537.462C885.077 532.899 889.69 519.812 884.979 510.16C882.188 504.441 876.696 499.94 875.682 493.657C874.902 488.824 876.807 483.187 873.726 479.382C872.158 477.447 869.504 476.379 868.572 474.069C867.985 472.615 868.221 470.966 867.905 469.43C867.589 467.895 866.249 466.288 864.733 466.686C860.332 467.842 858.928 481.44 856.572 484.744C852.99 489.766 845.637 486.458 846.765 480.27Z" fill="#253C4B"/>
<path d="M765.421 452.967C763.917 452.545 762.275 452.129 760.834 452.732C759.393 453.335 758.551 455.451 759.708 456.501C768.756 456.148 777.859 455.798 786.83 457.027C797.166 458.443 807.395 461.951 817.776 460.919C811.846 459.169 805.818 457.77 799.724 456.729L789.561 454.787C786.834 454.216 784.08 453.79 781.308 453.512C775.51 453.033 771.122 454.565 765.421 452.967Z" fill="#253C4B"/>
<path d="M774.479 421.447C773.728 421.384 772.797 421.33 772.409 421.976C772.038 422.594 772.463 423.409 772.263 424.101C771.99 425.047 770.752 425.288 769.777 425.159C768.802 425.031 767.747 424.722 766.882 425.193C766.444 425.492 766.115 425.926 765.944 426.428C765.773 426.931 765.769 427.475 765.934 427.98C766.287 428.982 766.859 429.893 767.607 430.648C768.885 432.258 770.341 433.719 771.948 435.002C775.057 437.298 779.27 438.405 781.229 441.738C781.505 442.384 781.93 442.955 782.468 443.406C783.409 444.002 784.635 443.549 785.647 443.086L789.196 441.464C789.835 441.234 790.405 440.846 790.854 440.336C791.665 439.236 791.167 437.671 790.487 436.486C789.806 435.301 788.935 434.074 789.081 432.715C789.342 430.292 792.456 429.365 793.737 427.292C795.028 425.202 794.188 422.51 794.336 420.058C794.51 417.19 796.312 413.46 793.414 411.318C790.95 409.497 788.596 411.179 786.827 413.19C783.098 417.429 781.335 422.02 774.479 421.447Z" fill="#253C4B"/>
<path d="M796.019 378.599C797.23 380.919 799.756 382.304 801.077 384.563C802.509 387.012 802.346 390.177 803.899 392.551C805.493 394.986 808.7 396.279 809.594 399.05C810.57 402.074 808.356 405.75 810.121 408.392C810.45 408.824 810.865 409.183 811.34 409.446C811.815 409.709 812.34 409.871 812.881 409.92C813.421 409.97 813.966 409.907 814.481 409.735C814.996 409.563 815.47 409.286 815.872 408.921C816.617 408.111 817.015 407.042 816.982 405.942C816.95 404.842 816.489 403.798 815.698 403.033C814.653 402.08 813.153 401.669 812.28 400.555C811.826 399.913 811.523 399.176 811.395 398.4C810.92 396.16 810.996 393.838 811.617 391.635C811.851 391.076 811.91 390.459 811.787 389.866C811.394 388.724 809.848 388.643 808.763 388.113C806.299 386.91 806.359 383.431 806.79 380.722C806.503 382.526 800.08 379.458 799.408 378.437C798.072 376.407 798.799 372.493 798.534 370.25C795.65 371.64 794.538 375.762 796.019 378.599Z" fill="#253C4B"/>
<path d="M731.315 414.3C730.129 412.972 728.344 411.584 726.755 412.384C725.542 412.995 725.209 414.673 725.684 415.945C726.263 417.18 727.154 418.243 728.27 419.029C731.582 421.761 735.148 424.227 738.038 427.403C743.208 433.086 745.947 440.755 751.571 445.991C752.701 447.205 754.198 448.016 755.832 448.298C757.47 448.451 759.31 447.402 759.498 445.767C759.654 444.42 758.715 443.214 757.798 442.216C755.613 439.84 753.222 437.652 751.159 435.169C750.207 434.215 749.608 432.965 749.463 431.624C749.452 430.287 750.671 428.888 751.966 429.219C750.391 428.816 749.223 426.191 746.911 425.698C744.979 425.285 744.512 426.482 742.212 425.495C737.827 423.614 734.386 417.738 731.315 414.3Z" fill="#253C4B"/>
<path d="M834.361 285.052C833.103 284.678 831.866 284.236 830.656 283.728C827.4 282.751 823.092 285.145 823.526 288.517C823.814 290.758 825.899 292.269 827.051 294.213C828.758 297.095 828.303 300.751 827.406 303.979C827.185 304.979 826.766 305.924 826.174 306.758C825.345 307.639 824.354 308.352 823.256 308.858C818.859 311.324 814.981 314.619 811.837 318.561C811.495 318.925 811.257 319.374 811.147 319.861C810.992 321 812.136 321.83 812.783 322.779C814.22 324.889 813.182 327.728 813.324 330.277C813.302 330.637 813.372 330.997 813.529 331.323C813.685 331.648 813.922 331.929 814.217 332.137C815.083 332.577 816.109 331.829 816.579 330.978C818.137 328.155 816.963 323.623 819.886 322.262C820.439 322.004 821.109 321.895 821.478 321.41C822.063 320.639 821.499 319.498 821.795 318.577C822.241 317.194 824.132 317.131 825.583 317.193C828.083 317.297 830.582 316.965 832.968 316.209C833.904 315.987 834.754 315.495 835.413 314.793C836.287 313.703 836.209 312.152 836.035 310.765C835.16 303.852 832.971 297.17 829.585 291.08C832.152 291.408 834.946 291.692 837.161 290.353C838.402 289.604 839.89 287.363 839.274 285.837C838.301 283.425 836.543 285.455 834.361 285.052Z" fill="#27AE60"/>
<path d="M505.2 323.075C505.507 324.723 505.809 326.459 505.269 328.046C504.729 329.633 503.03 330.96 501.426 330.473C500.18 330.096 499.461 328.844 498.577 327.889C493.661 322.58 482.568 325.654 479.531 319.086C478.291 316.405 479.133 313.193 478.288 310.364C477.755 308.728 476.693 307.316 475.271 306.349C473.848 305.383 472.145 304.916 470.428 305.023C468.862 305.249 467.338 305.704 465.905 306.373C456.302 310.22 446.22 312.742 435.938 313.87C433.984 313.989 432.051 314.341 430.18 314.918C425.957 316.449 423.073 320.364 421.02 324.36C418.966 328.355 417.451 332.68 414.698 336.23C411.805 339.96 407.752 342.573 403.97 345.398C402.514 346.337 401.301 347.609 400.432 349.108C399.612 350.792 399.658 352.75 399.722 354.621L400.494 377.35C400.594 380.273 400.719 383.301 402.027 385.917C403.66 389.184 406.887 391.324 409.126 394.21C411.411 397.176 412.601 400.84 412.495 404.583C412.447 406.087 412.298 407.867 413.469 408.812C414.182 409.274 415.016 409.514 415.865 409.501L446.603 412.017C452.01 412.46 458.002 413.188 461.532 417.308C463.198 419.253 464.537 422.049 467.089 422.258C468.183 422.348 469.248 421.898 470.343 421.811C473.105 421.593 475.532 423.69 477.063 425.999C479.381 429.52 480.433 433.724 480.047 437.921C479.796 440.556 478.979 443.117 478.803 445.758C478.133 455.807 486.649 464.537 486.814 474.606C486.912 480.529 484.1 486.063 481.36 491.315C485.783 498.017 482.161 506.942 483.922 514.778C485.593 522.211 491.789 528.031 493.334 535.492C494.04 538.908 494.081 543.111 497.093 544.87C498.414 545.514 499.879 545.808 501.346 545.722C510.197 545.827 518.947 543.834 526.881 539.907C530.604 538.059 534.463 535.3 535.113 531.194C535.638 527.882 533.959 524.178 535.668 521.293C537.681 517.894 542.84 518.163 545.803 515.549C550.61 511.309 546.862 503.221 548.81 497.114C550.56 491.624 556.587 488.707 559.574 483.78C560.75 481.66 561.593 479.373 562.075 476.998C563.444 471.322 564.296 465.533 564.62 459.703C564.7 456.161 564.961 452.625 565.403 449.11C568.624 429.096 588.405 415.694 594.827 396.467C595.441 394.631 595.729 392.185 594.096 391.146C593.127 390.684 592.029 390.569 590.985 390.82L576.816 392.607C575.056 392.829 573.19 393.037 571.574 392.305C569.958 391.574 568.8 389.529 569.657 387.976C572.063 383.616 567.113 378.106 564.914 373.637C558.991 361.605 551.937 350.164 543.849 339.467C543.331 338.917 543.007 338.213 542.925 337.461L546.947 337.595C545.589 332.723 543.349 327.391 538.617 325.609C535.95 324.605 532.997 324.952 530.152 325.108C522.002 325.553 513.265 324.322 505.2 323.075Z" fill="#253C4B"/>
<path d="M530.158 213.279C532.291 215.544 534.68 217.945 537.766 218.34C543.216 219.038 547.134 213.401 549.629 208.504C549.721 209.753 550.297 210.916 551.233 211.746C552.169 212.576 553.393 213.008 554.643 212.951C555.988 212.724 557.272 212.222 558.414 211.476C569.212 205.574 581.306 202.446 593.611 202.375C593.492 201.443 593.724 200.5 594.26 199.728C594.796 198.956 595.598 198.41 596.513 198.195C599.015 197.699 601.269 199.863 602.475 202.11C603.682 204.358 604.435 206.962 606.352 208.645C608.27 210.327 611.982 210.254 612.739 207.818C613.466 205.479 611.03 203.485 609.007 202.106C606.983 200.727 604.85 198.175 606.213 196.14C616.551 193.851 626.954 191.553 637.533 191.098C639.334 191.161 641.129 190.852 642.805 190.19C644.419 189.398 645.701 187.601 645.267 185.856C642.959 186.399 640.541 186.242 638.322 185.405C636.103 184.567 634.183 183.088 632.808 181.156C647.487 179.944 663.1 178.911 676.109 185.82C677.671 189.172 669.714 191.961 671.843 194.985C672.522 195.949 673.882 196.062 675.061 196.084C684.101 196.252 693.194 196.416 702.132 195.051C705.398 194.552 708.698 193.848 711.977 194.252C717.439 194.926 722.111 198.572 727.485 199.76C729.672 200.244 732.125 200.26 733.968 198.988C735.812 197.716 736.605 194.818 735.094 193.164C740.153 188.204 748.551 189.433 755.226 191.808C761.901 194.183 768.224 198.012 775.289 198.541C780.355 198.921 785.492 197.558 790.497 198.424C793.643 198.969 796.571 200.368 799.645 201.228C805.46 202.855 811.611 202.512 817.649 202.59C833.053 202.797 848.29 205.826 862.603 211.525C864.465 212.131 866.171 213.139 867.601 214.478C868.933 215.905 869.612 218.121 868.717 219.856L853.926 217.694C855.32 220.438 858.925 220.906 861.853 221.852C864.78 222.799 867.816 226.033 866.057 228.558C862.884 227.548 860.01 230.72 858.407 233.639C856.805 236.558 854.852 240.054 851.527 240.231C848.55 240.391 844.95 237.855 843.009 240.119C845.69 243.502 847.986 247.173 849.854 251.064C851.771 255.059 853.136 260.092 850.545 263.687C850.138 264.328 849.519 264.808 848.796 265.043C846.68 265.579 845.305 262.99 843.788 261.42C841.875 259.442 838.983 258.882 836.394 257.955C833.804 257.027 831.076 255.202 830.873 252.459C830.747 250.751 831.648 249.164 832.312 247.586C833.428 244.927 833.915 242.046 833.738 239.167C833.592 236.851 832.943 234.442 831.28 232.824C829.618 231.206 826.747 230.693 824.962 232.175C824.129 232.866 823.461 233.972 822.379 234.014C820.468 234.087 819.001 230.754 817.463 231.892C817.643 233.104 817.392 234.341 816.753 235.387C812.164 239.378 805.115 237.69 799.2 239.1C796.387 239.905 793.694 241.081 791.191 242.598C790.255 242.998 789.459 243.667 788.902 244.52C788.164 245.955 788.978 247.793 790.279 248.748C791.66 249.594 793.211 250.124 794.821 250.298C802.032 251.664 809.349 253.779 815.043 258.412C820.737 263.046 824.47 270.705 822.669 277.822L808.447 264.229C808.987 269.936 809.294 275.659 809.366 281.398C809.458 282.519 809.305 283.646 808.916 284.7C807.902 286.94 805.154 287.694 802.746 288.189C802.076 288.316 801.441 288.583 800.882 288.974C800.323 289.364 799.853 289.868 799.502 290.453C799.152 291.038 798.929 291.69 798.849 292.368C798.768 293.045 798.832 293.731 799.036 294.382C799.891 297.171 802.025 299.346 803.978 301.513C805.931 303.68 807.853 306.143 808.109 309.049C808.365 311.955 806.172 315.231 803.262 315.029C801.057 314.876 799.42 312.901 798.479 310.899C797.538 308.898 796.978 306.668 795.565 304.967C791.286 299.82 781.674 302.025 777.841 296.537C776.864 297.646 776.186 298.986 775.872 300.43C775.559 301.875 775.619 303.375 776.048 304.789C777.832 303.673 780.273 304.71 781.613 306.333C782.953 307.955 783.585 310.036 784.637 311.858C786.057 314.317 788.317 316.497 788.515 319.33C788.462 320.401 788.48 321.474 788.569 322.543C788.921 324.26 790.371 325.492 791.377 326.927C793.717 330.265 793.601 334.851 792.093 338.639C790.585 342.427 787.875 345.592 785.191 348.66C780.504 354.02 775.72 359.348 770.163 363.799C768.577 365.069 766.885 366.318 765.897 368.093C764.909 369.869 764.859 372.361 766.376 373.712C765.29 373.766 763.343 374.301 762.257 374.355C761.875 369.998 761.792 365.619 762.009 361.251C757.723 359.192 753.109 364.704 753.662 369.427C754.215 374.15 757.63 377.94 760.061 382.026C761.839 385.014 763.161 388.498 762.567 391.924C761.974 395.35 758.916 398.511 755.453 398.209C749.944 397.728 747.64 389.818 742.185 388.913C741.703 388.8 741.198 388.85 740.749 389.055C739.939 389.5 739.798 390.584 739.753 391.506C739.53 396.036 739.337 400.745 741.104 404.92C743.69 411.029 750.37 416.16 748.969 422.644C741.42 419.134 737.495 410.667 735.713 402.533C733.931 394.399 733.634 385.861 730.439 378.171C728.014 381.281 722.915 378.71 720.699 375.448C718.598 372.355 717.304 368.777 715.266 365.643C713.227 362.508 710.104 359.702 706.37 359.529C702.454 359.348 699.059 362.036 696.072 364.575C693.617 366.664 691.096 368.834 689.66 371.72C687.571 375.921 688.118 380.873 688.017 385.563C687.908 390.633 686.834 395.983 683.379 399.695C679.924 403.407 673.546 404.7 669.735 401.355C667.746 399.608 666.783 396.999 665.925 394.494C661.788 382.42 658.344 370.119 655.607 357.653C654.967 360.498 652.469 364.166 650.083 362.49C649.547 362.039 649.114 361.48 648.81 360.849C644.359 353.303 636.116 348.777 627.787 346.063C619.458 343.35 610.696 342.084 602.459 339.101C597.844 337.429 593.436 335.233 589.321 332.555C588.272 334.096 587.659 335.893 587.548 337.754C587.437 339.615 587.831 341.472 588.689 343.127C590.516 346.363 594.651 348.235 598.19 347.104C600.018 346.52 601.563 345.25 603.377 344.623C605.192 343.996 607.628 344.304 608.421 346.052C609.181 347.726 608.033 349.751 608.602 351.499C609.47 354.16 613.483 354.365 614.887 356.788C615.931 358.59 615.072 360.983 613.581 362.437C612.09 363.891 610.1 364.689 608.28 365.701C602.375 368.986 598.176 374.593 593.015 378.955C587.854 383.318 580.572 386.503 574.422 383.704C575.888 376.279 567.044 370.827 565.417 363.435C564.882 361.002 565.16 358.417 564.395 356.046C563.288 352.613 560.243 350.253 557.745 347.651C554.715 344.462 552.355 340.697 550.803 336.581C549.252 332.464 548.54 328.078 548.711 323.681C548.846 320.626 549.407 317.521 548.711 314.543C548.015 311.566 545.55 308.683 542.496 308.818C535.52 309.127 526.731 309.646 523.071 303.697C521.765 301.574 521.197 298.465 523.085 296.839C524.418 295.691 526.384 295.799 528.134 295.972L543.852 297.518C547.528 297.88 551.502 298.178 554.657 296.256C557.812 294.334 559.178 289.231 556.257 286.969C554.123 285.317 550.299 285.406 549.679 282.779C549.162 280.591 551.583 278.108 550.276 276.279C549.338 274.968 547.23 275.332 545.952 276.315C544.675 277.298 543.748 278.735 542.318 279.479C539.81 280.785 536.813 279.543 534.114 278.698C531.416 277.854 527.799 277.782 526.49 280.289C525.026 283.092 527.788 286.766 526.335 289.575C524.415 293.29 517.91 291.175 515.213 294.37C512.118 298.036 517.319 303.503 516.275 308.186C514.943 308.846 513.462 309.149 511.977 309.066C510.492 308.983 509.054 308.515 507.804 307.71C506.574 306.873 505.594 305.719 504.968 304.37C504.342 303.02 504.093 301.527 504.248 300.047C504.507 297.94 505.605 295.79 504.869 293.799C504.274 292.189 502.658 291.23 501.156 290.4L485.882 281.958C484.464 284.589 486.257 287.851 488.499 289.828C490.741 291.804 493.55 293.293 495.023 295.894C495.954 297.696 496.163 299.786 495.606 301.737C495.05 303.687 493.77 305.352 492.027 306.391C491.809 306.542 491.56 306.643 491.299 306.689C491.038 306.734 490.77 306.723 490.513 306.655C490.269 306.512 490.057 306.321 489.888 306.094C489.72 305.867 489.598 305.609 489.531 305.334C486.836 298.436 482.79 291.634 476.321 288.031C469.852 284.427 460.556 285.168 456.314 291.239C455.307 292.68 454.63 294.324 453.753 295.848C449.089 303.947 439.092 307.782 429.751 307.532C428.837 307.582 427.928 307.369 427.133 306.917C425.623 305.874 425.691 303.661 425.922 301.84L426.903 294.115C427.1 292.563 427.385 290.849 428.612 289.88C430.343 288.515 432.839 289.377 435.043 289.345C436.712 289.267 438.317 288.677 439.64 287.656C440.964 286.634 441.941 285.231 442.439 283.635C442.885 282.024 442.882 280.322 442.431 278.712C441.981 277.102 441.099 275.646 439.883 274.5C438.873 273.551 437.517 272.359 438.05 271.08C438.263 270.726 438.551 270.423 438.893 270.193C439.236 269.962 439.625 269.809 440.033 269.745C443.991 268.595 448.173 268.294 452.066 266.937C455.958 265.58 459.733 262.805 460.654 258.786C460.937 257.555 461.066 256.063 462.171 255.453C462.726 255.218 463.322 255.097 463.925 255.094C466.035 254.794 467.956 253.715 469.31 252.068C470.665 250.422 471.354 248.328 471.242 246.199C473.107 244.895 475.721 245.854 477.525 247.241C479.33 248.628 480.923 250.46 483.119 251.058C487.211 252.172 491.166 248.548 495.407 248.531C497.19 248.524 499.036 249.155 500.714 248.55C502.415 247.937 503.431 246.243 504.736 244.992C506.042 243.741 508.332 242.978 509.538 244.325L508.511 236.72C510.578 237.243 512.733 237.317 514.832 236.937C516.93 236.558 518.922 235.734 520.676 234.521L507.41 230.037C506.948 229.922 506.521 229.694 506.169 229.374C505.204 228.335 506.162 226.716 506.947 225.535C508.823 222.71 509.138 218.057 506.053 216.65C503.947 215.69 501.529 216.843 499.508 217.97L489.825 223.37C489.517 225.211 491.768 226.254 493.163 227.495C494.007 228.245 494.604 229.233 494.876 230.329C495.148 231.425 495.083 232.577 494.688 233.635C494.293 234.693 493.588 235.607 492.664 236.257C491.741 236.907 490.642 237.262 489.513 237.275C490.151 238.105 490.594 239.067 490.81 240.09C491.025 241.114 491.008 242.173 490.759 243.189L484.244 243.657C483.513 243.805 482.753 243.656 482.131 243.245C481.434 242.626 481.529 241.541 481.367 240.623C480.977 238.407 478.808 236.855 476.594 236.456C474.381 236.058 472.116 236.569 469.924 237.073C468.993 237.408 467.971 237.384 467.057 237.006C466.532 236.666 466.134 236.163 465.922 235.574C464.961 233.243 465.859 230.504 467.403 228.511C468.946 226.517 471.059 225.06 472.957 223.401C477.495 219.418 480.829 214.245 482.583 208.467C486.169 206.964 489.882 204.922 493.469 203.419C498.998 200.619 505.199 199.417 511.373 199.949L523.519 200.181C527.115 200.25 530.808 200.338 534.133 201.709C537.458 203.08 540.38 206.046 540.61 209.636C540.679 210.043 540.644 210.46 540.508 210.849C540.371 211.238 540.138 211.586 539.831 211.861C539.361 212.117 538.829 212.237 538.295 212.207C534.942 212.325 533.512 213.161 530.158 213.279Z" fill="#27AE60"/>
<path d="M433.349 251.353C433.824 250.904 434.165 250.333 434.336 249.702C434.507 249.071 434.501 248.405 434.319 247.778C433.164 247.332 431.908 247.218 430.692 247.448C429.475 247.677 428.347 248.242 427.435 249.078C426.715 249.806 426.095 250.626 425.591 251.517C423.995 254.121 422.583 257.232 423.508 260.143C423.583 260.461 423.721 260.76 423.914 261.024C424.106 261.287 424.35 261.509 424.629 261.677C425.044 261.844 425.491 261.914 425.936 261.882C427.694 261.88 429.451 261.772 431.196 261.558C432.268 261.427 433.513 261.125 433.927 260.127C434.471 258.816 433.154 257.332 433.538 255.966C433.79 255.355 434.173 254.806 434.66 254.358C434.901 254.133 435.087 253.854 435.202 253.544C435.317 253.235 435.358 252.902 435.322 252.574C435.167 251.933 434.185 251.569 433.832 252.126" fill="#253C4B"/>
<path d="M442.466 239.53C440.905 239.171 439.295 239.07 437.7 239.23C437.347 239.22 436.998 239.299 436.684 239.461C436.381 239.685 436.16 240.004 436.059 240.368C435.722 241.449 435.805 242.617 436.29 243.64C436.776 244.663 437.629 245.465 438.68 245.887C439.253 246.019 439.801 246.239 440.306 246.54C441.654 247.587 440.794 249.725 441.05 251.412C441.336 253.307 443.17 254.898 442.834 256.784C442.569 258.271 440.982 259.448 441.237 260.936C441.505 262.494 443.482 262.963 445.058 263.087C445.971 263.247 446.912 263.14 447.765 262.777C448.621 262.192 449.229 261.311 449.473 260.303C450.118 258.382 450.389 256.355 450.272 254.332C450.265 253.412 450.034 252.507 449.599 251.697C449.124 251.054 448.598 250.452 448.026 249.895C445.006 246.382 448.185 241.142 442.466 239.53Z" fill="#253C4B"/>
<path opacity="0.8" d="M218.772 265.815C218.772 265.815 198.678 249.456 155.073 263.483" stroke="#253C4B" stroke-width="2" stroke-miterlimit="10"/>
<path opacity="0.8" d="M235.829 267.45C235.829 267.45 211.529 230.057 155.073 263.482" stroke="#253C4B" stroke-width="2" stroke-miterlimit="10"/>
<path opacity="0.8" d="M266.437 277.968C266.437 277.968 254.287 262.544 235.361 267.218" stroke="#253C4B" stroke-width="2" stroke-miterlimit="10"/>
<path opacity="0.8" d="M219.007 265.348C219.007 265.348 210.127 267.451 215.735 276.799" stroke="#253C4B" stroke-width="2" stroke-miterlimit="10"/>
<path opacity="0.8" d="M226.95 271.424C226.95 271.424 218.071 267.684 215.736 276.799" stroke="#253C4B" stroke-width="2" stroke-miterlimit="10"/>
<path opacity="0.8" d="M227.184 281.472C227.184 281.472 225.315 273.526 215.736 276.798" stroke="#253C4B" stroke-width="2" stroke-miterlimit="10"/>
<path opacity="0.8" d="M124.144 314.193C124.144 314.193 148.21 263.479 215.736 276.8" stroke="#253C4B" stroke-width="2" stroke-miterlimit="10"/>
<path opacity="0.8" d="M124.144 314.191C124.144 314.191 203.819 303.441 227.184 359.063" stroke="#253C4B" stroke-width="2" stroke-miterlimit="10"/>
<path opacity="0.8" d="M233.025 404.638C233.025 404.638 270.877 278.437 443.779 299.47" stroke="#253C4B" stroke-width="2" stroke-miterlimit="10"/>
<path opacity="0.8" d="M443.311 299.469C443.311 299.469 384.899 213.465 266.67 277.033" stroke="#253C4B" stroke-width="2" stroke-miterlimit="10"/>
<path opacity="0.8" d="M483.032 222.345C483.032 222.345 332.795 172.098 266.204 277.5" stroke="#253C4B" stroke-width="2" stroke-miterlimit="10"/>
<path opacity="0.8" d="M443.312 299.467C443.312 299.467 453.125 254.595 504.061 266.748" stroke="#253C4B" stroke-width="2" stroke-miterlimit="10"/>
<path opacity="0.8" d="M756.405 329.385C756.405 329.385 697.992 175.138 504.061 266.751" stroke="#253C4B" stroke-width="2" stroke-miterlimit="10"/>
<path opacity="0.8" d="M828.369 311.152C828.369 311.152 697.992 175.135 504.061 266.748" stroke="#253C4B" stroke-width="2" stroke-miterlimit="10"/>
<path d="M218.839 268.554C220.503 268.554 221.852 267.205 221.852 265.541C221.852 263.876 220.503 262.527 218.839 262.527C217.175 262.527 215.827 263.876 215.827 265.541C215.827 267.205 217.175 268.554 218.839 268.554Z" fill="#F3B13D"/>
<path d="M226.808 274.577C228.472 274.577 229.821 273.228 229.821 271.564C229.821 269.9 228.472 268.551 226.808 268.551C225.144 268.551 223.796 269.9 223.796 271.564C223.796 273.228 225.144 274.577 226.808 274.577Z" fill="#F3B13D"/>
<path d="M235.297 270.323C236.961 270.323 238.31 268.974 238.31 267.31C238.31 265.646 236.961 264.297 235.297 264.297C233.633 264.297 232.285 265.646 232.285 267.31C232.285 268.974 233.633 270.323 235.297 270.323Z" fill="#F3B13D"/>
<path d="M266.123 280.605C267.787 280.605 269.136 279.255 269.136 277.591C269.136 275.927 267.787 274.578 266.123 274.578C264.46 274.578 263.111 275.927 263.111 277.591C263.111 279.255 264.46 280.605 266.123 280.605Z" fill="#F3B13D"/>
<path d="M226.808 283.62C228.472 283.62 229.821 282.271 229.821 280.607C229.821 278.943 228.472 277.594 226.808 277.594C225.144 277.594 223.796 278.943 223.796 280.607C223.796 282.271 225.144 283.62 226.808 283.62Z" fill="#F3B13D"/>
<path d="M828.474 313.917C830.137 313.917 831.486 312.568 831.486 310.904C831.486 309.24 830.137 307.891 828.474 307.891C826.81 307.891 825.461 309.24 825.461 310.904C825.461 312.568 826.81 313.917 828.474 313.917Z" fill="#F3B13D"/>
<path d="M504.057 270.323C505.72 270.323 507.069 268.974 507.069 267.31C507.069 265.646 505.72 264.297 504.057 264.297C502.393 264.297 501.044 265.646 501.044 267.31C501.044 268.974 502.393 270.323 504.057 270.323Z" fill="#F3B13D"/>
<path d="M232.833 407.007C234.497 407.007 235.845 405.658 235.845 403.994C235.845 402.33 234.497 400.98 232.833 400.98C231.169 400.98 229.82 402.33 229.82 403.994C229.82 405.658 231.169 407.007 232.833 407.007Z" fill="#F3B13D"/>
<path d="M124.419 316.929C126.082 316.929 127.431 315.58 127.431 313.916C127.431 312.251 126.082 310.902 124.419 310.902C122.755 310.902 121.406 312.251 121.406 313.916C121.406 315.58 122.755 316.929 124.419 316.929Z" fill="#F3B13D"/>
<path d="M155.074 267.308C156.737 267.308 158.086 265.959 158.086 264.294C158.086 262.63 156.737 261.281 155.074 261.281C153.41 261.281 152.061 262.63 152.061 264.294C152.061 265.959 153.41 267.308 155.074 267.308Z" fill="#F3B13D"/>
<path d="M756.503 332.269C758.167 332.269 759.515 330.92 759.515 329.255C759.515 327.591 758.167 326.242 756.503 326.242C754.839 326.242 753.49 327.591 753.49 329.255C753.49 330.92 754.839 332.269 756.503 332.269Z" fill="#F3B13D"/>
<path d="M443.076 301.46C444.74 301.46 446.089 300.111 446.089 298.447C446.089 296.783 444.74 295.434 443.076 295.434C441.412 295.434 440.064 296.783 440.064 298.447C440.064 300.111 441.412 301.46 443.076 301.46Z" fill="#F3B13D"/>
<path d="M483.264 225.464C484.928 225.464 486.277 224.115 486.277 222.451C486.277 220.787 484.928 219.438 483.264 219.438C481.601 219.438 480.252 220.787 480.252 222.451C480.252 224.115 481.601 225.464 483.264 225.464Z" fill="#F3B13D"/>
<path d="M226.808 361.519C228.472 361.519 229.821 360.17 229.821 358.505C229.821 356.841 228.472 355.492 226.808 355.492C225.144 355.492 223.796 356.841 223.796 358.505C223.796 360.17 225.144 361.519 226.808 361.519Z" fill="#F3B13D"/>
<path d="M215.827 280.605C217.49 280.605 218.839 279.255 218.839 277.591C218.839 275.927 217.49 274.578 215.827 274.578C214.163 274.578 212.814 275.927 212.814 277.591C212.814 279.255 214.163 280.605 215.827 280.605Z" fill="#F3B13D"/>
</g>
<defs>
<clipPath id="clip0">
<rect width="996" height="740" fill="white" transform="translate(0.5 0.125)"/>
</clipPath>
</defs>
</svg>
