<svg width="1440" height="23992" viewBox="0 0 1440 23992" fill="none" xmlns="http://www.w3.org/2000/svg">
<g clip-path="url(#clip0)">
<rect width="1440" height="23992" fill="white"/>
<path d="M295.541 1363L284.994 1322.86H215.414L204.574 1363H141L210.873 1147.96H288.07L358.822 1363H295.541ZM272.982 1275.4L263.754 1240.25C261.605 1232.43 258.969 1222.33 255.844 1209.92C252.816 1197.52 250.814 1188.63 249.838 1183.26C248.959 1188.24 247.201 1196.45 244.564 1207.87C242.025 1219.3 236.313 1241.81 227.426 1275.4H272.982ZM259.506 1602.22C245.736 1602.22 234.994 1607.89 227.279 1619.22C219.564 1630.45 215.707 1645.97 215.707 1665.8C215.707 1707.01 231.381 1727.62 262.729 1727.62C272.201 1727.62 281.381 1726.3 290.268 1723.66C299.154 1721.02 308.09 1717.85 317.074 1714.14V1763.06C299.203 1770.97 278.988 1774.93 256.43 1774.93C224.105 1774.93 199.301 1765.55 182.016 1746.8C164.828 1728.05 156.234 1700.96 156.234 1665.51C156.234 1643.34 160.385 1623.86 168.686 1607.06C177.084 1590.26 189.096 1577.37 204.721 1568.39C220.443 1559.3 238.9 1554.76 260.092 1554.76C283.236 1554.76 305.355 1559.79 326.449 1569.85L308.725 1615.41C300.814 1611.7 292.904 1608.57 284.994 1606.03C277.084 1603.49 268.588 1602.22 259.506 1602.22ZM259.506 2011.22C245.736 2011.22 234.994 2016.89 227.279 2028.22C219.564 2039.45 215.707 2054.97 215.707 2074.8C215.707 2116.01 231.381 2136.62 262.729 2136.62C272.201 2136.62 281.381 2135.3 290.268 2132.66C299.154 2130.02 308.09 2126.85 317.074 2123.14V2172.06C299.203 2179.97 278.988 2183.93 256.43 2183.93C224.105 2183.93 199.301 2174.55 182.016 2155.8C164.828 2137.05 156.234 2109.96 156.234 2074.51C156.234 2052.34 160.385 2032.86 168.686 2016.06C177.084 1999.26 189.096 1986.37 204.721 1977.39C220.443 1968.3 238.9 1963.76 260.092 1963.76C283.236 1963.76 305.355 1968.79 326.449 1978.85L308.725 2024.41C300.814 2020.7 292.904 2017.57 284.994 2015.03C277.084 2012.49 268.588 2011.22 259.506 2011.22ZM291.293 2590H164.145L164.145 2375.84H291.293V2422.28H222.006V2455.97H286.166V2502.4H222.006V2542.83H291.293V2590ZM304.184 2933.96C304.184 2947.24 300.814 2959.06 294.076 2969.41C287.338 2979.66 277.621 2987.67 264.926 2993.43C252.23 2999.1 237.338 3001.93 220.248 3001.93C205.99 3001.93 194.027 3000.95 184.359 2999C174.691 2996.95 164.633 2993.43 154.184 2988.45V2936.89C165.219 2942.55 176.693 2947 188.607 2950.22C200.521 2953.35 211.459 2954.91 221.42 2954.91C230.014 2954.91 236.313 2953.44 240.316 2950.51C244.32 2947.49 246.322 2943.63 246.322 2938.94C246.322 2936.01 245.492 2933.47 243.832 2931.32C242.27 2929.08 239.682 2926.83 236.068 2924.59C232.553 2922.34 223.08 2917.75 207.65 2910.82C193.686 2904.47 183.188 2898.32 176.156 2892.36C169.223 2886.4 164.047 2879.57 160.629 2871.85C157.309 2864.14 155.648 2855.01 155.648 2844.46C155.648 2824.73 162.826 2809.35 177.182 2798.32C191.537 2787.28 211.264 2781.76 236.361 2781.76C258.529 2781.76 281.137 2786.89 304.184 2797.14L286.459 2841.82C266.439 2832.64 249.154 2828.05 234.604 2828.05C227.084 2828.05 221.615 2829.37 218.197 2832.01C214.779 2834.64 213.07 2837.92 213.07 2841.82C213.07 2846.02 215.219 2849.78 219.516 2853.1C223.91 2856.42 235.727 2862.48 254.965 2871.27C273.422 2879.57 286.215 2888.5 293.344 2898.07C300.57 2907.54 304.184 2919.51 304.184 2933.96ZM304.184 3342.96C304.184 3356.24 300.814 3368.06 294.076 3378.41C287.338 3388.66 277.621 3396.67 264.926 3402.43C252.23 3408.1 237.338 3410.93 220.248 3410.93C205.99 3410.93 194.027 3409.95 184.359 3408C174.691 3405.95 164.633 3402.43 154.184 3397.45V3345.89C165.219 3351.55 176.693 3356 188.607 3359.22C200.521 3362.35 211.459 3363.91 221.42 3363.91C230.014 3363.91 236.313 3362.44 240.316 3359.51C244.32 3356.49 246.322 3352.63 246.322 3347.94C246.322 3345.01 245.492 3342.47 243.832 3340.32C242.27 3338.08 239.682 3335.83 236.068 3333.59C232.553 3331.34 223.08 3326.75 207.65 3319.82C193.686 3313.47 183.188 3307.32 176.156 3301.36C169.223 3295.4 164.047 3288.57 160.629 3280.85C157.309 3273.14 155.648 3264.01 155.648 3253.46C155.648 3233.73 162.826 3218.35 177.182 3207.32C191.537 3196.28 211.264 3190.76 236.361 3190.76C258.529 3190.76 281.137 3195.89 304.184 3206.14L286.459 3250.82C266.439 3241.64 249.154 3237.05 234.604 3237.05C227.084 3237.05 221.615 3238.37 218.197 3241.01C214.779 3243.64 213.07 3246.92 213.07 3250.82C213.07 3255.02 215.219 3258.78 219.516 3262.1C223.91 3265.42 235.727 3271.48 254.965 3280.27C273.422 3288.57 286.215 3297.5 293.344 3307.07C300.57 3316.54 304.184 3328.51 304.184 3342.96Z" fill="#3F78BD" fill-opacity="0.15"/>
<path d="M1165.54 4818L1154.99 4777.86H1085.41L1074.57 4818H1011L1080.87 4602.96H1158.07L1228.82 4818H1165.54ZM1142.98 4730.4L1133.75 4695.25C1131.61 4687.43 1128.97 4677.33 1125.84 4664.92C1122.82 4652.52 1120.81 4643.63 1119.84 4638.26C1118.96 4643.24 1117.2 4651.45 1114.56 4662.87C1112.03 4674.3 1106.31 4696.81 1097.43 4730.4H1142.98ZM1129.51 5057.22C1115.74 5057.22 1104.99 5062.89 1097.28 5074.22C1089.56 5085.45 1085.71 5100.97 1085.71 5120.8C1085.71 5162.01 1101.38 5182.62 1132.73 5182.62C1142.2 5182.62 1151.38 5181.3 1160.27 5178.66C1169.15 5176.02 1178.09 5172.85 1187.07 5169.14V5218.06C1169.2 5225.97 1148.99 5229.93 1126.43 5229.93C1094.11 5229.93 1069.3 5220.55 1052.02 5201.8C1034.83 5183.05 1026.23 5155.96 1026.23 5120.51C1026.23 5098.34 1030.38 5078.86 1038.69 5062.06C1047.08 5045.26 1059.1 5032.37 1074.72 5023.39C1090.44 5014.3 1108.9 5009.76 1130.09 5009.76C1153.24 5009.76 1175.36 5014.79 1196.45 5024.85L1178.72 5070.41C1170.81 5066.7 1162.9 5063.57 1154.99 5061.03C1147.08 5058.49 1138.59 5057.22 1129.51 5057.22ZM1129.51 5466.22C1115.74 5466.22 1104.99 5471.89 1097.28 5483.22C1089.56 5494.45 1085.71 5509.97 1085.71 5529.8C1085.71 5571.01 1101.38 5591.62 1132.73 5591.62C1142.2 5591.62 1151.38 5590.3 1160.27 5587.66C1169.15 5585.02 1178.09 5581.85 1187.07 5578.14V5627.06C1169.2 5634.97 1148.99 5638.93 1126.43 5638.93C1094.11 5638.93 1069.3 5629.55 1052.02 5610.8C1034.83 5592.05 1026.23 5564.96 1026.23 5529.51C1026.23 5507.34 1030.38 5487.86 1038.69 5471.06C1047.08 5454.26 1059.1 5441.37 1074.72 5432.39C1090.44 5423.3 1108.9 5418.76 1130.09 5418.76C1153.24 5418.76 1175.36 5423.79 1196.45 5433.85L1178.72 5479.41C1170.81 5475.7 1162.9 5472.57 1154.99 5470.03C1147.08 5467.49 1138.59 5466.22 1129.51 5466.22ZM1161.29 6045H1034.14V5830.84H1161.29V5877.28H1092.01V5910.97H1156.17V5957.4H1092.01V5997.83H1161.29V6045ZM1174.18 6388.96C1174.18 6402.24 1170.81 6414.06 1164.08 6424.41C1157.34 6434.66 1147.62 6442.67 1134.93 6448.43C1122.23 6454.1 1107.34 6456.93 1090.25 6456.93C1075.99 6456.93 1064.03 6455.95 1054.36 6454C1044.69 6451.95 1034.63 6448.43 1024.18 6443.45V6391.89C1035.22 6397.55 1046.69 6402 1058.61 6405.22C1070.52 6408.35 1081.46 6409.91 1091.42 6409.91C1100.01 6409.91 1106.31 6408.44 1110.32 6405.51C1114.32 6402.49 1116.32 6398.63 1116.32 6393.94C1116.32 6391.01 1115.49 6388.47 1113.83 6386.32C1112.27 6384.08 1109.68 6381.83 1106.07 6379.59C1102.55 6377.34 1093.08 6372.75 1077.65 6365.82C1063.69 6359.47 1053.19 6353.32 1046.16 6347.36C1039.22 6341.4 1034.05 6334.57 1030.63 6326.85C1027.31 6319.14 1025.65 6310.01 1025.65 6299.46C1025.65 6279.73 1032.83 6264.35 1047.18 6253.32C1061.54 6242.28 1081.26 6236.76 1106.36 6236.76C1128.53 6236.76 1151.14 6241.89 1174.18 6252.14L1156.46 6296.82C1136.44 6287.64 1119.15 6283.05 1104.6 6283.05C1097.08 6283.05 1091.62 6284.37 1088.2 6287.01C1084.78 6289.64 1083.07 6292.92 1083.07 6296.82C1083.07 6301.02 1085.22 6304.78 1089.52 6308.1C1093.91 6311.42 1105.73 6317.48 1124.96 6326.27C1143.42 6334.57 1156.21 6343.5 1163.34 6353.07C1170.57 6362.54 1174.18 6374.51 1174.18 6388.96ZM1174.18 6797.96C1174.18 6811.24 1170.81 6823.06 1164.08 6833.41C1157.34 6843.66 1147.62 6851.67 1134.93 6857.43C1122.23 6863.1 1107.34 6865.93 1090.25 6865.93C1075.99 6865.93 1064.03 6864.95 1054.36 6863C1044.69 6860.95 1034.63 6857.43 1024.18 6852.45V6800.89C1035.22 6806.55 1046.69 6811 1058.61 6814.22C1070.52 6817.35 1081.46 6818.91 1091.42 6818.91C1100.01 6818.91 1106.31 6817.44 1110.32 6814.51C1114.32 6811.49 1116.32 6807.63 1116.32 6802.94C1116.32 6800.01 1115.49 6797.47 1113.83 6795.32C1112.27 6793.08 1109.68 6790.83 1106.07 6788.59C1102.55 6786.34 1093.08 6781.75 1077.65 6774.82C1063.69 6768.47 1053.19 6762.32 1046.16 6756.36C1039.22 6750.4 1034.05 6743.57 1030.63 6735.85C1027.31 6728.14 1025.65 6719.01 1025.65 6708.46C1025.65 6688.73 1032.83 6673.35 1047.18 6662.32C1061.54 6651.28 1081.26 6645.76 1106.36 6645.76C1128.53 6645.76 1151.14 6650.89 1174.18 6661.14L1156.46 6705.82C1136.44 6696.64 1119.15 6692.05 1104.6 6692.05C1097.08 6692.05 1091.62 6693.37 1088.2 6696.01C1084.78 6698.64 1083.07 6701.92 1083.07 6705.82C1083.07 6710.02 1085.22 6713.78 1089.52 6717.1C1093.91 6720.42 1105.73 6726.48 1124.96 6735.27C1143.42 6743.57 1156.21 6752.5 1163.34 6762.07C1170.57 6771.54 1174.18 6783.51 1174.18 6797.96Z" fill="#3F78BD" fill-opacity="0.15"/>
<path d="M340.541 9717L329.994 9676.86H260.414L249.574 9717H186L255.873 9501.96H333.07L403.822 9717H340.541ZM317.982 9629.4L308.754 9594.25C306.605 9586.43 303.969 9576.33 300.844 9563.92C297.816 9551.52 295.814 9542.63 294.838 9537.26C293.959 9542.24 292.201 9550.45 289.564 9561.87C287.025 9573.3 281.312 9595.81 272.426 9629.4H317.982ZM304.506 9956.22C290.736 9956.22 279.994 9961.89 272.279 9973.22C264.564 9984.45 260.707 9999.97 260.707 10019.8C260.707 10061 276.381 10081.6 307.729 10081.6C317.201 10081.6 326.381 10080.3 335.268 10077.7C344.154 10075 353.09 10071.8 362.074 10068.1V10117.1C344.203 10125 323.988 10128.9 301.43 10128.9C269.105 10128.9 244.301 10119.6 227.016 10100.8C209.828 10082.1 201.234 10055 201.234 10019.5C201.234 9997.34 205.385 9977.86 213.686 9961.06C222.084 9944.26 234.096 9931.37 249.721 9922.39C265.443 9913.3 283.9 9908.76 305.092 9908.76C328.236 9908.76 350.355 9913.79 371.449 9923.85L353.725 9969.41C345.814 9965.7 337.904 9962.57 329.994 9960.03C322.084 9957.49 313.588 9956.22 304.506 9956.22ZM304.506 10365.2C290.736 10365.2 279.994 10370.9 272.279 10382.2C264.564 10393.4 260.707 10409 260.707 10428.8C260.707 10470 276.381 10490.6 307.729 10490.6C317.201 10490.6 326.381 10489.3 335.268 10486.7C344.154 10484 353.09 10480.8 362.074 10477.1V10526.1C344.203 10534 323.988 10537.9 301.43 10537.9C269.105 10537.9 244.301 10528.6 227.016 10509.8C209.828 10491.1 201.234 10464 201.234 10428.5C201.234 10406.3 205.385 10386.9 213.686 10370.1C222.084 10353.3 234.096 10340.4 249.721 10331.4C265.443 10322.3 283.9 10317.8 305.092 10317.8C328.236 10317.8 350.355 10322.8 371.449 10332.9L353.725 10378.4C345.814 10374.7 337.904 10371.6 329.994 10369C322.084 10366.5 313.588 10365.2 304.506 10365.2ZM336.293 10944H209.145L209.145 10729.8H336.293V10776.3H267.006V10810H331.166V10856.4H267.006V10896.8H336.293V10944ZM349.184 11288C349.184 11301.2 345.814 11313.1 339.076 11323.4C332.338 11333.7 322.621 11341.7 309.926 11347.4C297.23 11353.1 282.338 11355.9 265.248 11355.9C250.99 11355.9 239.027 11355 229.359 11353C219.691 11350.9 209.633 11347.4 199.184 11342.5V11290.9C210.219 11296.6 221.693 11301 233.607 11304.2C245.521 11307.3 256.459 11308.9 266.42 11308.9C275.014 11308.9 281.313 11307.4 285.316 11304.5C289.32 11301.5 291.322 11297.6 291.322 11292.9C291.322 11290 290.492 11287.5 288.832 11285.3C287.27 11283.1 284.682 11280.8 281.068 11278.6C277.553 11276.3 268.08 11271.8 252.65 11264.8C238.686 11258.5 228.188 11252.3 221.156 11246.4C214.223 11240.4 209.047 11233.6 205.629 11225.9C202.309 11218.1 200.648 11209 200.648 11198.5C200.648 11178.7 207.826 11163.4 222.182 11152.3C236.537 11141.3 256.264 11135.8 281.361 11135.8C303.529 11135.8 326.137 11140.9 349.184 11151.1L331.459 11195.8C311.439 11186.6 294.154 11182.1 279.604 11182.1C272.084 11182.1 266.615 11183.4 263.197 11186C259.779 11188.6 258.07 11191.9 258.07 11195.8C258.07 11200 260.219 11203.8 264.516 11207.1C268.91 11210.4 280.727 11216.5 299.965 11225.3C318.422 11233.6 331.215 11242.5 338.344 11252.1C345.57 11261.5 349.184 11273.5 349.184 11288ZM349.184 11697C349.184 11710.2 345.814 11722.1 339.076 11732.4C332.338 11742.7 322.621 11750.7 309.926 11756.4C297.23 11762.1 282.338 11764.9 265.248 11764.9C250.99 11764.9 239.027 11764 229.359 11762C219.691 11759.9 209.633 11756.4 199.184 11751.5V11699.9C210.219 11705.6 221.693 11710 233.607 11713.2C245.521 11716.3 256.459 11717.9 266.42 11717.9C275.014 11717.9 281.313 11716.4 285.316 11713.5C289.32 11710.5 291.322 11706.6 291.322 11701.9C291.322 11699 290.492 11696.5 288.832 11694.3C287.27 11692.1 284.682 11689.8 281.068 11687.6C277.553 11685.3 268.08 11680.8 252.65 11673.8C238.686 11667.5 228.188 11661.3 221.156 11655.4C214.223 11649.4 209.047 11642.6 205.629 11634.9C202.309 11627.1 200.648 11618 200.648 11607.5C200.648 11587.7 207.826 11572.4 222.182 11561.3C236.537 11550.3 256.264 11544.8 281.361 11544.8C303.529 11544.8 326.137 11549.9 349.184 11560.1L331.459 11604.8C311.439 11595.6 294.154 11591.1 279.604 11591.1C272.084 11591.1 266.615 11592.4 263.197 11595C259.779 11597.6 258.07 11600.9 258.07 11604.8C258.07 11609 260.219 11612.8 264.516 11616.1C268.91 11619.4 280.727 11625.5 299.965 11634.3C318.422 11642.6 331.215 11651.5 338.344 11661.1C345.57 11670.5 349.184 11682.5 349.184 11697Z" fill="#3F78BD" fill-opacity="0.15"/>
<path d="M1105.54 15113L1094.99 15072.9H1025.41L1014.57 15113H951L1020.87 14898H1098.07L1168.82 15113H1105.54ZM1082.98 15025.4L1073.75 14990.2C1071.61 14982.4 1068.97 14972.3 1065.84 14959.9C1062.82 14947.5 1060.81 14938.6 1059.84 14933.3C1058.96 14938.2 1057.2 14946.4 1054.56 14957.9C1052.03 14969.3 1046.31 14991.8 1037.43 15025.4H1082.98ZM1069.51 15352.2C1055.74 15352.2 1044.99 15357.9 1037.28 15369.2C1029.56 15380.4 1025.71 15396 1025.71 15415.8C1025.71 15457 1041.38 15477.6 1072.73 15477.6C1082.2 15477.6 1091.38 15476.3 1100.27 15473.7C1109.15 15471 1118.09 15467.8 1127.07 15464.1V15513.1C1109.2 15521 1088.99 15524.9 1066.43 15524.9C1034.11 15524.9 1009.3 15515.6 992.016 15496.8C974.828 15478.1 966.234 15451 966.234 15415.5C966.234 15393.3 970.385 15373.9 978.686 15357.1C987.084 15340.3 999.096 15327.4 1014.72 15318.4C1030.44 15309.3 1048.9 15304.8 1070.09 15304.8C1093.24 15304.8 1115.36 15309.8 1136.45 15319.9L1118.72 15365.4C1110.81 15361.7 1102.9 15358.6 1094.99 15356C1087.08 15353.5 1078.59 15352.2 1069.51 15352.2ZM1069.51 15761.2C1055.74 15761.2 1044.99 15766.9 1037.28 15778.2C1029.56 15789.4 1025.71 15805 1025.71 15824.8C1025.71 15866 1041.38 15886.6 1072.73 15886.6C1082.2 15886.6 1091.38 15885.3 1100.27 15882.7C1109.15 15880 1118.09 15876.8 1127.07 15873.1V15922.1C1109.2 15930 1088.99 15933.9 1066.43 15933.9C1034.11 15933.9 1009.3 15924.6 992.016 15905.8C974.828 15887.1 966.234 15860 966.234 15824.5C966.234 15802.3 970.385 15782.9 978.686 15766.1C987.084 15749.3 999.096 15736.4 1014.72 15727.4C1030.44 15718.3 1048.9 15713.8 1070.09 15713.8C1093.24 15713.8 1115.36 15718.8 1136.45 15728.9L1118.72 15774.4C1110.81 15770.7 1102.9 15767.6 1094.99 15765C1087.08 15762.5 1078.59 15761.2 1069.51 15761.2ZM1101.29 16340H974.145V16125.8H1101.29V16172.3H1032.01V16206H1096.17V16252.4H1032.01V16292.8H1101.29V16340ZM1114.18 16684C1114.18 16697.2 1110.81 16709.1 1104.08 16719.4C1097.34 16729.7 1087.62 16737.7 1074.93 16743.4C1062.23 16749.1 1047.34 16751.9 1030.25 16751.9C1015.99 16751.9 1004.03 16751 994.359 16749C984.691 16746.9 974.633 16743.4 964.184 16738.5V16686.9C975.219 16692.6 986.693 16697 998.607 16700.2C1010.52 16703.3 1021.46 16704.9 1031.42 16704.9C1040.01 16704.9 1046.31 16703.4 1050.32 16700.5C1054.32 16697.5 1056.32 16693.6 1056.32 16688.9C1056.32 16686 1055.49 16683.5 1053.83 16681.3C1052.27 16679.1 1049.68 16676.8 1046.07 16674.6C1042.55 16672.3 1033.08 16667.8 1017.65 16660.8C1003.69 16654.5 993.188 16648.3 986.156 16642.4C979.223 16636.4 974.047 16629.6 970.629 16621.9C967.309 16614.1 965.648 16605 965.648 16594.5C965.648 16574.7 972.826 16559.4 987.182 16548.3C1001.54 16537.3 1021.26 16531.8 1046.36 16531.8C1068.53 16531.8 1091.14 16536.9 1114.18 16547.1L1096.46 16591.8C1076.44 16582.6 1059.15 16578.1 1044.6 16578.1C1037.08 16578.1 1031.62 16579.4 1028.2 16582C1024.78 16584.6 1023.07 16587.9 1023.07 16591.8C1023.07 16596 1025.22 16599.8 1029.52 16603.1C1033.91 16606.4 1045.73 16612.5 1064.96 16621.3C1083.42 16629.6 1096.21 16638.5 1103.34 16648.1C1110.57 16657.5 1114.18 16669.5 1114.18 16684ZM1114.18 17093C1114.18 17106.2 1110.81 17118.1 1104.08 17128.4C1097.34 17138.7 1087.62 17146.7 1074.93 17152.4C1062.23 17158.1 1047.34 17160.9 1030.25 17160.9C1015.99 17160.9 1004.03 17160 994.359 17158C984.691 17155.9 974.633 17152.4 964.184 17147.5V17095.9C975.219 17101.6 986.693 17106 998.607 17109.2C1010.52 17112.3 1021.46 17113.9 1031.42 17113.9C1040.01 17113.9 1046.31 17112.4 1050.32 17109.5C1054.32 17106.5 1056.32 17102.6 1056.32 17097.9C1056.32 17095 1055.49 17092.5 1053.83 17090.3C1052.27 17088.1 1049.68 17085.8 1046.07 17083.6C1042.55 17081.3 1033.08 17076.8 1017.65 17069.8C1003.69 17063.5 993.188 17057.3 986.156 17051.4C979.223 17045.4 974.047 17038.6 970.629 17030.9C967.309 17023.1 965.648 17014 965.648 17003.5C965.648 16983.7 972.826 16968.4 987.182 16957.3C1001.54 16946.3 1021.26 16940.8 1046.36 16940.8C1068.53 16940.8 1091.14 16945.9 1114.18 16956.1L1096.46 17000.8C1076.44 16991.6 1059.15 16987.1 1044.6 16987.1C1037.08 16987.1 1031.62 16988.4 1028.2 16991C1024.78 16993.6 1023.07 16996.9 1023.07 17000.8C1023.07 17005 1025.22 17008.8 1029.52 17012.1C1033.91 17015.4 1045.73 17021.5 1064.96 17030.3C1083.42 17038.6 1096.21 17047.5 1103.34 17057.1C1110.57 17066.5 1114.18 17078.5 1114.18 17093Z" fill="#3F78BD" fill-opacity="0.15"/>
<path d="M449.541 19723L438.994 19682.9H369.414L358.574 19723H295L364.873 19508H442.07L512.822 19723H449.541ZM426.982 19635.4L417.754 19600.2C415.605 19592.4 412.969 19582.3 409.844 19569.9C406.816 19557.5 404.814 19548.6 403.838 19543.3C402.959 19548.2 401.201 19556.4 398.564 19567.9C396.025 19579.3 390.312 19601.8 381.426 19635.4H426.982ZM413.506 19962.2C399.736 19962.2 388.994 19967.9 381.279 19979.2C373.564 19990.4 369.707 20006 369.707 20025.8C369.707 20067 385.381 20087.6 416.729 20087.6C426.201 20087.6 435.381 20086.3 444.268 20083.7C453.154 20081 462.09 20077.8 471.074 20074.1V20123.1C453.203 20131 432.988 20134.9 410.43 20134.9C378.105 20134.9 353.301 20125.6 336.016 20106.8C318.828 20088.1 310.234 20061 310.234 20025.5C310.234 20003.3 314.385 19983.9 322.686 19967.1C331.084 19950.3 343.096 19937.4 358.721 19928.4C374.443 19919.3 392.9 19914.8 414.092 19914.8C437.236 19914.8 459.355 19919.8 480.449 19929.9L462.725 19975.4C454.814 19971.7 446.904 19968.6 438.994 19966C431.084 19963.5 422.588 19962.2 413.506 19962.2ZM413.506 20371.2C399.736 20371.2 388.994 20376.9 381.279 20388.2C373.564 20399.4 369.707 20415 369.707 20434.8C369.707 20476 385.381 20496.6 416.729 20496.6C426.201 20496.6 435.381 20495.3 444.268 20492.7C453.154 20490 462.09 20486.8 471.074 20483.1V20532.1C453.203 20540 432.988 20543.9 410.43 20543.9C378.105 20543.9 353.301 20534.6 336.016 20515.8C318.828 20497.1 310.234 20470 310.234 20434.5C310.234 20412.3 314.385 20392.9 322.686 20376.1C331.084 20359.3 343.096 20346.4 358.721 20337.4C374.443 20328.3 392.9 20323.8 414.092 20323.8C437.236 20323.8 459.355 20328.8 480.449 20338.9L462.725 20384.4C454.814 20380.7 446.904 20377.6 438.994 20375C431.084 20372.5 422.588 20371.2 413.506 20371.2ZM445.293 20950H318.145V20735.8H445.293V20782.3H376.006V20816H440.166V20862.4H376.006V20902.8H445.293V20950ZM458.184 21294C458.184 21307.2 454.814 21319.1 448.076 21329.4C441.338 21339.7 431.621 21347.7 418.926 21353.4C406.23 21359.1 391.338 21361.9 374.248 21361.9C359.99 21361.9 348.027 21361 338.359 21359C328.691 21356.9 318.633 21353.4 308.184 21348.5L308.184 21296.9C319.219 21302.6 330.693 21307 342.607 21310.2C354.521 21313.3 365.459 21314.9 375.42 21314.9C384.014 21314.9 390.313 21313.4 394.316 21310.5C398.32 21307.5 400.322 21303.6 400.322 21298.9C400.322 21296 399.492 21293.5 397.832 21291.3C396.27 21289.1 393.682 21286.8 390.068 21284.6C386.553 21282.3 377.08 21277.8 361.65 21270.8C347.686 21264.5 337.188 21258.3 330.156 21252.4C323.223 21246.4 318.047 21239.6 314.629 21231.9C311.309 21224.1 309.648 21215 309.648 21204.5C309.648 21184.7 316.826 21169.4 331.182 21158.3C345.537 21147.3 365.264 21141.8 390.361 21141.8C412.529 21141.8 435.137 21146.9 458.184 21157.1L440.459 21201.8C420.439 21192.6 403.154 21188.1 388.604 21188.1C381.084 21188.1 375.615 21189.4 372.197 21192C368.779 21194.6 367.07 21197.9 367.07 21201.8C367.07 21206 369.219 21209.8 373.516 21213.1C377.91 21216.4 389.727 21222.5 408.965 21231.3C427.422 21239.6 440.215 21248.5 447.344 21258.1C454.57 21267.5 458.184 21279.5 458.184 21294ZM458.184 21703C458.184 21716.2 454.814 21728.1 448.076 21738.4C441.338 21748.7 431.621 21756.7 418.926 21762.4C406.23 21768.1 391.338 21770.9 374.248 21770.9C359.99 21770.9 348.027 21770 338.359 21768C328.691 21765.9 318.633 21762.4 308.184 21757.5V21705.9C319.219 21711.6 330.693 21716 342.607 21719.2C354.521 21722.3 365.459 21723.9 375.42 21723.9C384.014 21723.9 390.313 21722.4 394.316 21719.5C398.32 21716.5 400.322 21712.6 400.322 21707.9C400.322 21705 399.492 21702.5 397.832 21700.3C396.27 21698.1 393.682 21695.8 390.068 21693.6C386.553 21691.3 377.08 21686.8 361.65 21679.8C347.686 21673.5 337.188 21667.3 330.156 21661.4C323.223 21655.4 318.047 21648.6 314.629 21640.9C311.309 21633.1 309.648 21624 309.648 21613.5C309.648 21593.7 316.826 21578.4 331.182 21567.3C345.537 21556.3 365.264 21550.8 390.361 21550.8C412.529 21550.8 435.137 21555.9 458.184 21566.1L440.459 21610.8C420.439 21601.6 403.154 21597.1 388.604 21597.1C381.084 21597.1 375.615 21598.4 372.197 21601C368.779 21603.6 367.07 21606.9 367.07 21610.8C367.07 21615 369.219 21618.8 373.516 21622.1C377.91 21625.4 389.727 21631.5 408.965 21640.3C427.422 21648.6 440.215 21657.5 447.344 21667.1C454.57 21676.5 458.184 21688.5 458.184 21703Z" fill="#3F78BD" fill-opacity="0.15"/>
<rect width="1440" height="24000" fill="#3F78BD" fill-opacity="0.3"/>
<g opacity="0.5">
<path d="M-40.5 664V-90.5H1505V1193L-40.5 664Z" fill="#3F78BD" fill-opacity="0.6"/>
<path d="M-40.5 754.5V0H1505V1283.5L-40.5 754.5Z" fill="#3F78BD" fill-opacity="0.7"/>
</g>
<g opacity="0.5">
<path d="M-40.5 3164.5V2410H1505V3693.5L-40.5 3164.5Z" fill="white"/>
<path d="M-40.5 3255V2500.5H1505V3784L-40.5 3255Z" fill="white"/>
</g>
<g opacity="0.5">
<path d="M-41 5932.5V6687H1504.5V5403.5L-41 5932.5Z" fill="white"/>
<path d="M-41 5842V6596.5H1504.5V5313L-41 5842Z" fill="white"/>
</g>
<g opacity="0.5">
<path d="M1504 7441.5V6687H-41.5V7970.5L1504 7441.5Z" fill="white"/>
<path d="M1504 7532V6777.5H-41.5V8061L1504 7532Z" fill="white"/>
</g>
<g opacity="0.5">
<path d="M1439.5 11097.5V11852H-106V10568.5L1439.5 11097.5Z" fill="white"/>
<path d="M1439.5 11007V11761.5H-106V10478L1439.5 11007Z" fill="white"/>
</g>
<g opacity="0.5">
<path d="M1439.5 12606.5V11852H-106V13135.5L1439.5 12606.5Z" fill="white"/>
<path d="M1439.5 12697V11942.5H-106V13226L1439.5 12697Z" fill="white"/>
</g>
<g opacity="0.5">
<path d="M1430.32 4100.03C1426.98 4077.68 1370.2 4064.2 1365.66 4084.47C1359.16 4113.51 1383.38 4124.63 1395.88 4130.83C1408.38 4137.03 1433.67 4122.37 1430.32 4100.03Z" fill="#3F78BD" fill-opacity="0.6"/>
<path d="M1424.01 4123C1436.63 4104.26 1403.85 4055.98 1386.81 4067.87C1362.42 4084.9 1372.77 4109.46 1377.8 4122.47C1382.84 4135.48 1411.4 4141.74 1424.01 4123Z" fill="#3F78BD" fill-opacity="0.7"/>
</g>
<g opacity="0.5">
<path d="M1290.52 3275.5C1308.52 3261.85 1293.14 3205.56 1273.17 3211.3C1244.57 3219.52 1246.42 3246.1 1246.97 3260.04C1247.52 3273.98 1272.52 3289.15 1290.52 3275.5Z" fill="#3F78BD" fill-opacity="0.6"/>
<path d="M1267.33 3280.98C1289.83 3283.06 1316.48 3231.15 1297.88 3221.9C1271.24 3208.66 1254.65 3229.51 1245.65 3240.17C1236.64 3250.82 1244.84 3278.89 1267.33 3280.98Z" fill="#3F78BD" fill-opacity="0.7"/>
</g>
<g opacity="0.5">
<path d="M1075.47 4012.71C1072.12 3990.36 1015.34 3976.88 1010.81 3997.15C1004.31 4026.19 1028.52 4037.31 1041.02 4043.51C1053.52 4049.71 1078.82 4035.05 1075.47 4012.71Z" fill="#3F78BD" fill-opacity="0.6"/>
<path d="M1069.16 4035.68C1081.77 4016.94 1048.99 3968.66 1031.96 3980.55C1007.56 3997.58 1017.91 4022.14 1022.95 4035.15C1027.98 4048.16 1056.54 4054.42 1069.16 4035.68Z" fill="#3F78BD" fill-opacity="0.7"/>
</g>
<g opacity="0.5">
<path d="M1197.04 2922.22C1215.04 2908.57 1199.65 2852.28 1179.68 2858.02C1151.09 2866.24 1152.94 2892.82 1153.49 2906.76C1154.04 2920.7 1179.03 2935.87 1197.04 2922.22Z" fill="#3F78BD" fill-opacity="0.6"/>
<path d="M1173.85 2927.7C1196.34 2929.78 1223 2877.87 1204.39 2868.62C1177.75 2855.38 1161.17 2876.23 1152.16 2886.89C1143.15 2897.54 1151.35 2925.61 1173.85 2927.7Z" fill="#3F78BD" fill-opacity="0.7"/>
</g>
<g opacity="0.5">
<path d="M1378.3 3590.58C1374.96 3568.24 1318.18 3554.76 1313.64 3575.03C1307.14 3604.06 1331.36 3615.19 1343.86 3621.39C1356.36 3627.59 1381.65 3612.92 1378.3 3590.58Z" fill="#3F78BD" fill-opacity="0.6"/>
<path d="M1371.99 3613.56C1384.61 3594.82 1351.83 3546.53 1334.79 3558.43C1310.4 3575.46 1320.75 3600.01 1325.78 3613.02C1330.82 3626.04 1359.38 3632.3 1371.99 3613.56Z" fill="#3F78BD" fill-opacity="0.7"/>
</g>
<g opacity="0.5">
<path d="M1023.45 3503.26C1020.1 3480.92 963.321 3467.44 958.785 3487.71C952.289 3516.74 976.501 3527.87 989.001 3534.07C1001.5 3540.27 1026.79 3525.6 1023.45 3503.26Z" fill="#3F78BD" fill-opacity="0.6"/>
<path d="M1017.14 3526.24C1029.75 3507.5 996.97 3459.21 979.935 3471.11C955.54 3488.14 965.892 3512.69 970.926 3525.7C975.96 3538.72 1004.52 3544.98 1017.14 3526.24Z" fill="#3F78BD" fill-opacity="0.7"/>
</g>
<g opacity="0.5">
<path d="M1486.56 3927.73C1480.73 3888.82 1381.85 3865.34 1373.95 3900.65C1362.64 3951.21 1404.81 3970.57 1426.57 3981.37C1448.34 3992.17 1492.39 3966.63 1486.56 3927.73Z" fill="#3F78BD" fill-opacity="0.6"/>
<path d="M1475.57 3967.74C1497.54 3935.1 1440.45 3851.03 1410.79 3871.74C1368.3 3901.4 1386.33 3944.15 1395.1 3966.81C1403.86 3989.47 1453.6 4000.37 1475.57 3967.74Z" fill="#3F78BD" fill-opacity="0.7"/>
</g>
<g opacity="0.5">
<path d="M1468.69 3242.25C1500.04 3218.49 1473.24 3120.46 1438.47 3130.45C1388.68 3144.76 1391.89 3191.05 1392.85 3215.33C1393.81 3239.6 1437.34 3266.02 1468.69 3242.25Z" fill="#3F78BD" fill-opacity="0.6"/>
<path d="M1428.31 3251.79C1467.48 3255.42 1513.9 3165.02 1481.5 3148.91C1435.11 3125.85 1406.23 3162.17 1390.54 3180.72C1374.86 3199.28 1389.13 3248.15 1428.31 3251.79Z" fill="#3F78BD" fill-opacity="0.7"/>
</g>
<g opacity="0.5">
<path d="M1131.7 3840.41C1125.88 3801.5 1027 3778.02 1019.1 3813.33C1007.79 3863.89 1049.95 3883.25 1071.72 3894.05C1093.48 3904.85 1137.53 3879.31 1131.7 3840.41Z" fill="#3F78BD" fill-opacity="0.6"/>
<path d="M1120.71 3880.42C1142.68 3847.78 1085.59 3763.71 1055.93 3784.42C1013.45 3814.08 1031.48 3856.83 1040.24 3879.49C1049.01 3902.15 1098.74 3913.05 1120.71 3880.42Z" fill="#3F78BD" fill-opacity="0.7"/>
</g>
<g opacity="0.5">
<path d="M1375.2 2888.97C1406.55 2865.21 1379.76 2767.17 1344.99 2777.17C1295.19 2791.48 1298.41 2837.77 1299.37 2862.04C1300.33 2886.32 1343.85 2912.74 1375.2 2888.97Z" fill="#3F78BD" fill-opacity="0.6"/>
<path d="M1334.82 2898.51C1373.99 2902.14 1420.41 2811.74 1388.01 2795.63C1341.62 2772.57 1312.74 2808.88 1297.06 2827.44C1281.37 2846 1295.65 2894.87 1334.82 2898.51Z" fill="#3F78BD" fill-opacity="0.7"/>
</g>
<g opacity="0.5">
<path d="M1434.54 3418.28C1428.71 3379.38 1329.83 3355.9 1321.93 3391.2C1310.62 3441.76 1352.78 3461.13 1374.55 3471.93C1396.32 3482.72 1440.37 3457.19 1434.54 3418.28Z" fill="#3F78BD" fill-opacity="0.6"/>
<path d="M1423.55 3458.29C1445.52 3425.66 1388.43 3341.58 1358.76 3362.29C1316.28 3391.95 1334.31 3434.7 1343.08 3457.37C1351.84 3480.03 1401.58 3490.93 1423.55 3458.29Z" fill="#3F78BD" fill-opacity="0.7"/>
</g>
<g opacity="0.5">
<path d="M1079.68 3330.96C1073.86 3292.06 974.978 3268.57 967.079 3303.88C955.767 3354.44 997.929 3373.81 1019.7 3384.61C1041.46 3395.4 1085.51 3369.87 1079.68 3330.96Z" fill="#3F78BD" fill-opacity="0.6"/>
<path d="M1068.69 3370.97C1090.66 3338.34 1033.57 3254.26 1003.91 3274.97C961.429 3304.63 979.455 3347.38 988.221 3370.05C996.988 3392.71 1046.72 3403.61 1068.69 3370.97Z" fill="#3F78BD" fill-opacity="0.7"/>
</g>
<g opacity="0.5">
<path d="M1284.01 4008.06C1282.08 3995.19 1249.36 3987.41 1246.74 3999.1C1243 4015.83 1256.95 4022.24 1264.16 4025.82C1271.36 4029.39 1285.94 4020.94 1284.01 4008.06Z" fill="#3F78BD" fill-opacity="0.6"/>
<path d="M1280.37 4021.3C1287.64 4010.5 1268.75 3982.68 1258.93 3989.53C1244.87 3999.35 1250.84 4013.5 1253.74 4021C1256.64 4028.5 1273.1 4032.11 1280.37 4021.3Z" fill="#3F78BD" fill-opacity="0.7"/>
</g>
<g opacity="0.5">
<path d="M1301.09 3103.01C1311.46 3095.14 1302.59 3062.7 1291.09 3066.01C1274.6 3070.74 1275.67 3086.06 1275.99 3094.1C1276.3 3102.13 1290.71 3110.88 1301.09 3103.01Z" fill="#3F78BD" fill-opacity="0.6"/>
<path d="M1287.72 3106.17C1300.68 3107.37 1316.05 3077.45 1305.33 3072.12C1289.97 3064.48 1280.41 3076.5 1275.22 3082.65C1270.03 3088.79 1274.76 3104.96 1287.72 3106.17Z" fill="#3F78BD" fill-opacity="0.7"/>
</g>
<g opacity="0.5">
<path d="M929.156 3920.74C927.227 3907.87 894.502 3900.09 891.888 3911.78C888.144 3928.51 902.098 3934.92 909.302 3938.5C916.506 3942.07 931.085 3933.62 929.156 3920.74Z" fill="#3F78BD" fill-opacity="0.6"/>
<path d="M925.518 3933.98C932.789 3923.18 913.895 3895.36 904.077 3902.21C890.017 3912.03 895.983 3926.18 898.885 3933.68C901.786 3941.18 918.247 3944.79 925.518 3933.98Z" fill="#3F78BD" fill-opacity="0.7"/>
</g>
<g opacity="0.5">
<path d="M1207.6 2749.73C1217.98 2741.86 1209.11 2709.42 1197.6 2712.73C1181.12 2717.46 1182.18 2732.78 1182.5 2740.82C1182.82 2748.85 1197.22 2757.59 1207.6 2749.73Z" fill="#3F78BD" fill-opacity="0.6"/>
<path d="M1194.23 2752.88C1207.2 2754.09 1222.56 2724.17 1211.84 2718.84C1196.49 2711.2 1186.93 2723.22 1181.74 2729.36C1176.55 2735.51 1181.27 2751.68 1194.23 2752.88Z" fill="#3F78BD" fill-opacity="0.7"/>
</g>
<g opacity="0.5">
<path d="M1231.99 3498.62C1230.06 3485.74 1197.34 3477.97 1194.72 3489.65C1190.98 3506.39 1204.93 3512.8 1212.14 3516.37C1219.34 3519.95 1233.92 3511.49 1231.99 3498.62Z" fill="#3F78BD" fill-opacity="0.6"/>
<path d="M1228.35 3511.86C1235.62 3501.06 1216.73 3473.23 1206.91 3480.09C1192.85 3489.9 1198.82 3504.05 1201.72 3511.55C1204.62 3519.05 1221.08 3522.66 1228.35 3511.86Z" fill="#3F78BD" fill-opacity="0.7"/>
</g>
<g opacity="0.5">
<path d="M877.136 3411.3C875.207 3398.42 842.481 3390.65 839.867 3402.33C836.123 3419.07 850.078 3425.48 857.282 3429.05C864.486 3432.63 879.064 3424.17 877.136 3411.3Z" fill="#3F78BD" fill-opacity="0.6"/>
<path d="M873.497 3424.54C880.768 3413.74 861.875 3385.91 852.057 3392.77C837.997 3402.58 843.963 3416.73 846.864 3424.23C849.766 3431.73 866.226 3435.34 873.497 3424.54Z" fill="#3F78BD" fill-opacity="0.7"/>
</g>
<g opacity="0.5">
<path d="M349.324 8151.03C345.978 8128.68 289.197 8115.2 284.661 8135.47C278.165 8164.51 302.377 8175.63 314.876 8181.83C327.376 8188.03 352.67 8173.37 349.324 8151.03Z" fill="#3F78BD" fill-opacity="0.6"/>
<path d="M343.012 8174C355.628 8155.26 322.846 8106.98 305.811 8118.87C281.416 8135.9 291.768 8160.46 296.802 8173.47C301.836 8186.48 330.396 8192.74 343.012 8174Z" fill="#3F78BD" fill-opacity="0.7"/>
</g>
<g opacity="0.5">
<path d="M209.522 7326.5C227.524 7312.85 212.137 7256.56 192.169 7262.3C163.575 7270.52 165.421 7297.1 165.972 7311.04C166.523 7324.98 191.519 7340.15 209.522 7326.5Z" fill="#3F78BD" fill-opacity="0.6"/>
<path d="M186.331 7331.98C208.825 7334.06 235.483 7282.15 216.878 7272.9C190.236 7259.66 173.653 7280.51 164.646 7291.17C155.639 7301.82 163.837 7329.89 186.331 7331.98Z" fill="#3F78BD" fill-opacity="0.7"/>
</g>
<g opacity="0.5">
<path d="M-11.8433 8086.68C0.772419 8067.94 -32.0094 8019.66 -49.0444 8031.55C-73.439 8048.58 -63.0876 8073.14 -58.0534 8086.15C-53.0192 8099.16 -24.4591 8105.42 -11.8433 8086.68Z" fill="#3F78BD" fill-opacity="0.7"/>
</g>
<g opacity="0.5">
<path d="M116.036 6973.22C134.039 6959.57 118.652 6903.28 98.684 6909.02C70.0893 6917.24 71.9361 6943.82 72.4868 6957.76C73.0375 6971.7 98.0335 6986.87 116.036 6973.22Z" fill="#3F78BD" fill-opacity="0.6"/>
<path d="M92.8458 6978.7C115.34 6980.78 141.997 6928.87 123.393 6919.62C96.7506 6906.38 80.1673 6927.23 71.1603 6937.89C62.1534 6948.54 70.3514 6976.61 92.8458 6978.7Z" fill="#3F78BD" fill-opacity="0.7"/>
</g>
<g opacity="0.5">
<path d="M596.422 7706.61C593.076 7684.26 536.295 7670.78 531.759 7691.06C525.263 7720.09 549.475 7731.21 561.974 7737.41C574.474 7743.61 599.768 7728.95 596.422 7706.61Z" fill="#3F78BD" fill-opacity="0.6"/>
<path d="M590.11 7729.58C602.726 7710.84 569.944 7662.56 552.909 7674.45C528.514 7691.49 538.866 7716.04 543.9 7729.05C548.934 7742.06 577.494 7748.32 590.11 7729.58Z" fill="#3F78BD" fill-opacity="0.7"/>
</g>
<g opacity="0.5">
<path d="M718.001 7330.3C736.004 7316.65 720.616 7260.36 700.649 7266.1C672.054 7274.31 673.901 7300.89 674.451 7314.84C675.002 7328.78 699.998 7343.95 718.001 7330.3Z" fill="#3F78BD" fill-opacity="0.6"/>
<path d="M694.81 7335.77C717.305 7337.86 743.962 7285.95 725.357 7276.7C698.715 7263.45 682.132 7284.31 673.125 7294.97C664.118 7305.62 672.316 7333.69 694.81 7335.77Z" fill="#3F78BD" fill-opacity="0.7"/>
</g>
<g opacity="0.5">
<path d="M297.303 7641.58C293.957 7619.24 237.176 7605.76 232.64 7626.03C226.144 7655.06 250.356 7666.19 262.856 7672.39C275.355 7678.59 300.65 7663.92 297.303 7641.58Z" fill="#3F78BD" fill-opacity="0.6"/>
<path d="M290.991 7664.56C303.607 7645.82 270.825 7597.53 253.79 7609.43C229.395 7626.46 239.747 7651.01 244.781 7664.02C249.815 7677.04 278.375 7683.3 290.991 7664.56Z" fill="#3F78BD" fill-opacity="0.7"/>
</g>
<g opacity="0.5">
<path d="M631.67 7036.62C649.673 7022.97 634.285 6966.68 614.318 6972.42C585.723 6980.64 587.57 7007.22 588.12 7021.16C588.671 7035.1 613.667 7050.27 631.67 7036.62Z" fill="#3F78BD" fill-opacity="0.6"/>
<path d="M608.479 7042.1C630.974 7044.18 657.631 6992.27 639.026 6983.02C612.384 6969.78 595.801 6990.63 586.794 7001.29C577.787 7011.94 585.985 7040.01 608.479 7042.1Z" fill="#3F78BD" fill-opacity="0.7"/>
</g>
<g opacity="0.5">
<path d="M538.184 6683.34C556.187 6669.69 540.8 6613.4 520.832 6619.14C492.238 6627.35 494.084 6653.93 494.635 6667.88C495.186 6681.82 520.182 6696.99 538.184 6683.34Z" fill="#3F78BD" fill-opacity="0.6"/>
<path d="M514.994 6688.82C537.488 6690.9 564.145 6638.99 545.541 6629.74C518.899 6616.5 502.315 6637.35 493.309 6648.01C484.302 6658.66 492.5 6686.73 514.994 6688.82Z" fill="#3F78BD" fill-opacity="0.7"/>
</g>
<g opacity="0.5">
<path d="M405.559 7978.73C399.731 7939.82 300.854 7916.34 292.955 7951.65C281.643 8002.21 323.805 8021.57 345.572 8032.37C367.338 8043.17 411.386 8017.63 405.559 7978.73Z" fill="#3F78BD" fill-opacity="0.6"/>
<path d="M394.567 8018.74C416.536 7986.1 359.45 7902.03 329.785 7922.74C287.304 7952.4 305.33 7995.15 314.097 8017.81C322.863 8040.47 372.598 8051.37 394.567 8018.74Z" fill="#3F78BD" fill-opacity="0.7"/>
</g>
<g opacity="0.5">
<path d="M387.689 7293.25C419.039 7269.49 392.244 7171.46 357.472 7181.45C307.677 7195.76 310.893 7242.05 311.852 7266.33C312.811 7290.6 356.339 7317.02 387.689 7293.25Z" fill="#3F78BD" fill-opacity="0.6"/>
<path d="M347.305 7302.79C386.477 7306.42 432.897 7216.02 400.5 7199.91C354.105 7176.85 325.227 7213.17 309.542 7231.72C293.858 7250.28 308.134 7299.15 347.305 7302.79Z" fill="#3F78BD" fill-opacity="0.7"/>
</g>
<g opacity="0.5">
<path d="M50.7037 7891.41C44.8764 7852.5 -54.0013 7829.02 -61.9004 7864.33C-73.2122 7914.89 -31.0499 7934.25 -9.28324 7945.05C12.4835 7955.85 56.531 7930.31 50.7037 7891.41Z" fill="#3F78BD" fill-opacity="0.6"/>
<path d="M39.7117 7931.42C61.6807 7898.78 4.59454 7814.71 -25.07 7835.42C-67.5507 7865.08 -49.5248 7907.83 -40.7583 7930.49C-31.9918 7953.15 17.7427 7964.05 39.7117 7931.42Z" fill="#3F78BD" fill-opacity="0.7"/>
</g>
<g opacity="0.5">
<path d="M294.204 6939.97C325.554 6916.21 298.758 6818.17 263.987 6828.17C214.192 6842.48 217.408 6888.77 218.367 6913.04C219.326 6937.32 262.854 6963.74 294.204 6939.97Z" fill="#3F78BD" fill-opacity="0.6"/>
<path d="M253.82 6949.51C292.991 6953.14 339.412 6862.74 307.014 6846.63C260.62 6823.57 231.742 6859.88 216.057 6878.44C200.372 6897 214.648 6945.87 253.82 6949.51Z" fill="#3F78BD" fill-opacity="0.7"/>
</g>
<g opacity="0.5">
<path d="M652.657 7534.31C646.829 7495.4 547.952 7471.92 540.053 7507.23C528.741 7557.79 570.903 7577.16 592.67 7587.95C614.436 7598.75 658.484 7573.21 652.657 7534.31Z" fill="#3F78BD" fill-opacity="0.6"/>
<path d="M641.665 7574.32C663.634 7541.69 606.548 7457.61 576.883 7478.32C534.402 7507.98 552.428 7550.73 561.195 7573.39C569.961 7596.05 619.696 7606.95 641.665 7574.32Z" fill="#3F78BD" fill-opacity="0.7"/>
</g>
<g opacity="0.5">
<path d="M896.169 7297.05C927.519 7273.29 900.723 7175.25 865.951 7185.25C816.157 7199.56 819.373 7245.85 820.332 7270.12C821.291 7294.4 864.819 7320.82 896.169 7297.05Z" fill="#3F78BD" fill-opacity="0.6"/>
<path d="M855.785 7306.59C894.956 7310.22 941.377 7219.82 908.979 7203.71C862.585 7180.65 833.706 7216.96 818.022 7235.52C802.337 7254.08 816.613 7302.95 855.785 7306.59Z" fill="#3F78BD" fill-opacity="0.7"/>
</g>
<g opacity="0.5">
<path d="M353.538 7469.28C347.711 7430.38 248.833 7406.9 240.934 7442.2C229.622 7492.76 271.784 7512.13 293.551 7522.93C315.318 7533.72 359.365 7508.19 353.538 7469.28Z" fill="#3F78BD" fill-opacity="0.6"/>
<path d="M342.546 7509.29C364.515 7476.66 307.429 7392.58 277.764 7413.29C235.284 7442.95 253.31 7485.7 262.076 7508.37C270.843 7531.03 320.577 7541.93 342.546 7509.29Z" fill="#3F78BD" fill-opacity="0.7"/>
</g>
<g opacity="0.5">
<path d="M809.838 7003.37C841.188 6979.61 814.392 6881.57 779.62 6891.57C729.826 6905.88 733.042 6952.17 734.001 6976.44C734.96 7000.72 778.488 7027.14 809.838 7003.37Z" fill="#3F78BD" fill-opacity="0.6"/>
<path d="M769.454 7012.91C808.625 7016.54 855.046 6926.14 822.648 6910.03C776.253 6886.97 747.375 6923.28 731.691 6941.84C716.006 6960.4 730.282 7009.27 769.454 7012.91Z" fill="#3F78BD" fill-opacity="0.7"/>
</g>
<g opacity="0.5">
<path d="M-1.31705 7381.96C-7.14435 7343.06 -106.022 7319.57 -113.921 7354.88C-125.233 7405.44 -83.0707 7424.81 -61.304 7435.61C-39.5373 7446.4 4.51026 7420.87 -1.31705 7381.96Z" fill="#3F78BD" fill-opacity="0.6"/>
<path d="M-12.3091 7421.97C9.65991 7389.34 -47.4262 7305.26 -77.0907 7325.97C-119.571 7355.63 -101.546 7398.38 -92.7791 7421.05C-84.0125 7443.71 -34.2781 7454.61 -12.3091 7421.97Z" fill="#3F78BD" fill-opacity="0.7"/>
</g>
<g opacity="0.5">
<path d="M716.352 6650.09C747.702 6626.33 720.906 6528.29 686.135 6538.29C636.34 6552.6 639.556 6598.89 640.515 6623.16C641.474 6647.44 685.002 6673.86 716.352 6650.09Z" fill="#3F78BD" fill-opacity="0.6"/>
<path d="M675.968 6659.63C715.139 6663.26 761.56 6572.86 729.162 6556.75C682.768 6533.69 653.89 6570 638.205 6588.56C622.52 6607.12 636.796 6655.99 675.968 6659.63Z" fill="#3F78BD" fill-opacity="0.7"/>
</g>
<g opacity="0.5">
<path d="M203.011 8059.06C201.082 8046.19 168.357 8038.41 165.743 8050.1C161.999 8066.83 175.953 8073.24 183.157 8076.82C190.361 8080.39 204.94 8071.94 203.011 8059.06Z" fill="#3F78BD" fill-opacity="0.6"/>
<path d="M199.373 8072.31C206.644 8061.5 187.75 8033.68 177.932 8040.53C163.872 8050.35 169.838 8064.5 172.74 8072C175.641 8079.5 192.102 8083.11 199.373 8072.31Z" fill="#3F78BD" fill-opacity="0.7"/>
</g>
<g opacity="0.5">
<path d="M220.086 7154.01C230.462 7146.15 221.594 7113.7 210.085 7117.01C193.605 7121.74 194.669 7137.06 194.987 7145.1C195.304 7153.13 209.71 7161.88 220.086 7154.01Z" fill="#3F78BD" fill-opacity="0.6"/>
<path d="M206.72 7157.17C219.685 7158.37 235.048 7128.45 224.326 7123.12C208.971 7115.48 199.413 7127.5 194.222 7133.65C189.031 7139.79 193.756 7155.96 206.72 7157.17Z" fill="#3F78BD" fill-opacity="0.7"/>
</g>
<g opacity="0.5">
<path d="M804.964 7701.96C803.035 7689.09 770.31 7681.32 767.695 7693C763.952 7709.73 777.906 7716.14 785.11 7719.72C792.314 7723.29 806.893 7714.84 804.964 7701.96Z" fill="#3F78BD" fill-opacity="0.6"/>
<path d="M801.326 7715.21C808.597 7704.41 789.703 7676.58 779.885 7683.43C765.825 7693.25 771.791 7707.4 774.693 7714.9C777.594 7722.4 794.055 7726.01 801.326 7715.21Z" fill="#3F78BD" fill-opacity="0.7"/>
</g>
<g opacity="0.5">
<path d="M822.051 7511.09C832.427 7503.22 823.558 7470.78 812.05 7474.09C795.569 7478.82 796.634 7494.14 796.951 7502.18C797.269 7510.21 811.675 7518.96 822.051 7511.09Z" fill="#3F78BD" fill-opacity="0.6"/>
<path d="M808.685 7514.25C821.649 7515.45 837.013 7485.53 826.29 7480.2C810.935 7472.56 801.378 7484.58 796.186 7490.72C790.995 7496.87 795.72 7513.04 808.685 7514.25Z" fill="#3F78BD" fill-opacity="0.7"/>
</g>
<g opacity="0.5">
<path d="M126.601 6800.73C136.976 6792.86 128.108 6760.42 116.6 6763.73C100.119 6768.46 101.184 6783.78 101.501 6791.82C101.818 6799.85 116.225 6808.6 126.601 6800.73Z" fill="#3F78BD" fill-opacity="0.6"/>
<path d="M113.235 6803.88C126.199 6805.09 141.563 6775.17 130.84 6769.84C115.485 6762.2 105.927 6774.22 100.736 6780.36C95.5451 6786.51 100.27 6802.68 113.235 6803.88Z" fill="#3F78BD" fill-opacity="0.7"/>
</g>
<g opacity="0.5">
<path d="M450.109 7614.64C448.18 7601.77 415.455 7594 412.841 7605.68C409.097 7622.41 423.051 7628.82 430.255 7632.4C437.459 7635.97 452.038 7627.52 450.109 7614.64Z" fill="#3F78BD" fill-opacity="0.6"/>
<path d="M446.471 7627.89C453.742 7617.09 434.848 7589.26 425.03 7596.11C410.971 7605.93 416.937 7620.08 419.838 7627.58C422.739 7635.08 439.2 7638.69 446.471 7627.89Z" fill="#3F78BD" fill-opacity="0.7"/>
</g>
<g opacity="0.5">
<path d="M728.565 7157.81C738.941 7149.94 730.073 7117.5 718.564 7120.8C702.084 7125.54 703.148 7140.86 703.466 7148.9C703.783 7156.93 718.19 7165.67 728.565 7157.81Z" fill="#3F78BD" fill-opacity="0.6"/>
<path d="M715.199 7160.96C728.164 7162.17 743.528 7132.25 732.805 7126.91C717.45 7119.28 707.892 7131.3 702.701 7137.44C697.51 7143.59 702.235 7159.76 715.199 7160.96Z" fill="#3F78BD" fill-opacity="0.7"/>
</g>
<g opacity="0.5">
<path d="M150.99 7549.62C149.062 7536.74 116.336 7528.97 113.722 7540.66C109.978 7557.39 123.933 7563.8 131.137 7567.37C138.341 7570.95 152.919 7562.49 150.99 7549.62Z" fill="#3F78BD" fill-opacity="0.6"/>
<path d="M147.352 7562.86C154.623 7552.06 135.73 7524.23 125.912 7531.09C111.852 7540.9 117.818 7555.05 120.719 7562.55C123.621 7570.05 140.081 7573.66 147.352 7562.86Z" fill="#3F78BD" fill-opacity="0.7"/>
</g>
<g opacity="0.5">
<path d="M642.234 6864.13C652.61 6856.26 643.741 6823.82 632.233 6827.13C615.753 6831.86 616.817 6847.18 617.134 6855.22C617.452 6863.25 631.858 6871.99 642.234 6864.13Z" fill="#3F78BD" fill-opacity="0.6"/>
<path d="M628.868 6867.28C641.833 6868.49 657.196 6838.57 646.474 6833.24C631.119 6825.6 621.561 6837.62 616.37 6843.76C611.179 6849.91 615.904 6866.08 628.868 6867.28Z" fill="#3F78BD" fill-opacity="0.7"/>
</g>
<g opacity="0.5">
<path d="M548.749 6510.85C559.125 6502.98 550.256 6470.54 538.748 6473.85C522.268 6478.58 523.332 6493.9 523.649 6501.94C523.967 6509.97 538.373 6518.71 548.749 6510.85Z" fill="#3F78BD" fill-opacity="0.6"/>
<path d="M535.383 6514C548.347 6515.21 563.711 6485.29 552.989 6479.96C537.634 6472.32 528.076 6484.34 522.885 6490.48C517.694 6496.63 522.418 6512.8 535.383 6514Z" fill="#3F78BD" fill-opacity="0.7"/>
</g>
<g opacity="0.5">
<path d="M1425.32 13179C1421.98 13156.7 1365.2 13143.2 1360.66 13163.5C1354.16 13192.5 1378.38 13203.6 1390.88 13209.8C1403.38 13216 1428.67 13201.4 1425.32 13179Z" fill="#3F78BD" fill-opacity="0.6"/>
<path d="M1419.01 13202C1431.63 13183.3 1398.85 13135 1381.81 13146.9C1357.42 13163.9 1367.77 13188.5 1372.8 13201.5C1377.84 13214.5 1406.4 13220.7 1419.01 13202Z" fill="#3F78BD" fill-opacity="0.7"/>
</g>
<g opacity="0.5">
<path d="M1285.52 12354.5C1303.52 12340.9 1288.14 12284.6 1268.17 12290.3C1239.57 12298.5 1241.42 12325.1 1241.97 12339C1242.52 12353 1267.52 12368.1 1285.52 12354.5Z" fill="#3F78BD" fill-opacity="0.6"/>
<path d="M1262.33 12360C1284.83 12362.1 1311.48 12310.1 1292.88 12300.9C1266.24 12287.7 1249.65 12308.5 1240.65 12319.2C1231.64 12329.8 1239.84 12357.9 1262.33 12360Z" fill="#3F78BD" fill-opacity="0.7"/>
</g>
<g opacity="0.5">
<path d="M1070.47 13091.7C1067.12 13069.4 1010.34 13055.9 1005.81 13076.2C999.31 13105.2 1023.52 13116.3 1036.02 13122.5C1048.52 13128.7 1073.82 13114 1070.47 13091.7Z" fill="#3F78BD" fill-opacity="0.6"/>
<path d="M1064.16 13114.7C1076.77 13095.9 1043.99 13047.7 1026.96 13059.6C1002.56 13076.6 1012.91 13101.1 1017.95 13114.1C1022.98 13127.2 1051.54 13133.4 1064.16 13114.7Z" fill="#3F78BD" fill-opacity="0.7"/>
</g>
<g opacity="0.5">
<path d="M1192.04 12001.2C1210.04 11987.6 1194.65 11931.3 1174.68 11937C1146.09 11945.2 1147.94 11971.8 1148.49 11985.8C1149.04 11999.7 1174.03 12014.9 1192.04 12001.2Z" fill="#3F78BD" fill-opacity="0.6"/>
<path d="M1168.85 12006.7C1191.34 12008.8 1218 11956.9 1199.39 11947.6C1172.75 11934.4 1156.17 11955.2 1147.16 11965.9C1138.15 11976.5 1146.35 12004.6 1168.85 12006.7Z" fill="#3F78BD" fill-opacity="0.7"/>
</g>
<g opacity="0.5">
<path d="M1373.3 12669.6C1369.96 12647.2 1313.18 12633.8 1308.64 12654C1302.14 12683.1 1326.36 12694.2 1338.86 12700.4C1351.36 12706.6 1376.65 12691.9 1373.3 12669.6Z" fill="#3F78BD" fill-opacity="0.6"/>
<path d="M1366.99 12692.6C1379.61 12673.8 1346.83 12625.5 1329.79 12637.4C1305.4 12654.5 1315.75 12679 1320.78 12692C1325.82 12705 1354.38 12711.3 1366.99 12692.6Z" fill="#3F78BD" fill-opacity="0.7"/>
</g>
<g opacity="0.5">
<path d="M1018.45 12582.3C1015.1 12559.9 958.321 12546.4 953.785 12566.7C947.289 12595.7 971.501 12606.9 984.001 12613.1C996.5 12619.3 1021.79 12604.6 1018.45 12582.3Z" fill="#3F78BD" fill-opacity="0.6"/>
<path d="M1012.14 12605.2C1024.75 12586.5 991.97 12538.2 974.935 12550.1C950.54 12567.1 960.892 12591.7 965.926 12604.7C970.96 12617.7 999.52 12624 1012.14 12605.2Z" fill="#3F78BD" fill-opacity="0.7"/>
</g>
<g opacity="0.5">
<path d="M1481.56 13006.7C1475.73 12967.8 1376.85 12944.3 1368.95 12979.6C1357.64 13030.2 1399.81 13049.6 1421.57 13060.4C1443.34 13071.2 1487.39 13045.6 1481.56 13006.7Z" fill="#3F78BD" fill-opacity="0.6"/>
<path d="M1470.57 13046.7C1492.54 13014.1 1435.45 12930 1405.79 12950.7C1363.3 12980.4 1381.33 13023.1 1390.1 13045.8C1398.86 13068.5 1448.6 13079.4 1470.57 13046.7Z" fill="#3F78BD" fill-opacity="0.7"/>
</g>
<g opacity="0.5">
<path d="M1463.69 12321.3C1495.04 12297.5 1468.24 12199.5 1433.47 12209.4C1383.68 12223.8 1386.89 12270 1387.85 12294.3C1388.81 12318.6 1432.34 12345 1463.69 12321.3Z" fill="#3F78BD" fill-opacity="0.6"/>
<path d="M1423.31 12330.8C1462.48 12334.4 1508.9 12244 1476.5 12227.9C1430.11 12204.9 1401.23 12241.2 1385.54 12259.7C1369.86 12278.3 1384.13 12327.2 1423.31 12330.8Z" fill="#3F78BD" fill-opacity="0.7"/>
</g>
<g opacity="0.5">
<path d="M1126.7 12919.4C1120.88 12880.5 1022 12857 1014.1 12892.3C1002.79 12942.9 1044.95 12962.3 1066.72 12973.1C1088.48 12983.8 1132.53 12958.3 1126.7 12919.4Z" fill="#3F78BD" fill-opacity="0.6"/>
<path d="M1115.71 12959.4C1137.68 12926.8 1080.59 12842.7 1050.93 12863.4C1008.45 12893.1 1026.48 12935.8 1035.24 12958.5C1044.01 12981.2 1093.74 12992.1 1115.71 12959.4Z" fill="#3F78BD" fill-opacity="0.7"/>
</g>
<g opacity="0.5">
<path d="M1370.2 11968C1401.55 11944.2 1374.76 11846.2 1339.99 11856.2C1290.19 11870.5 1293.41 11916.8 1294.37 11941C1295.33 11965.3 1338.85 11991.7 1370.2 11968Z" fill="#3F78BD" fill-opacity="0.6"/>
<path d="M1329.82 11977.5C1368.99 11981.1 1415.41 11890.7 1383.01 11874.6C1336.62 11851.6 1307.74 11887.9 1292.06 11906.4C1276.37 11925 1290.65 11973.9 1329.82 11977.5Z" fill="#3F78BD" fill-opacity="0.7"/>
</g>
<g opacity="0.5">
<path d="M1429.54 12497.3C1423.71 12458.4 1324.83 12434.9 1316.93 12470.2C1305.62 12520.8 1347.78 12540.1 1369.55 12550.9C1391.32 12561.7 1435.37 12536.2 1429.54 12497.3Z" fill="#3F78BD" fill-opacity="0.6"/>
<path d="M1418.55 12537.3C1440.52 12504.7 1383.43 12420.6 1353.76 12441.3C1311.28 12471 1329.31 12513.7 1338.08 12536.4C1346.84 12559 1396.58 12569.9 1418.55 12537.3Z" fill="#3F78BD" fill-opacity="0.7"/>
</g>
<g opacity="0.5">
<path d="M1074.68 12410C1068.86 12371.1 969.978 12347.6 962.079 12382.9C950.767 12433.4 992.929 12452.8 1014.7 12463.6C1036.46 12474.4 1080.51 12448.9 1074.68 12410Z" fill="#3F78BD" fill-opacity="0.6"/>
<path d="M1063.69 12450C1085.66 12417.3 1028.57 12333.3 998.909 12354C956.429 12383.6 974.455 12426.4 983.221 12449C991.988 12471.7 1041.72 12482.6 1063.69 12450Z" fill="#3F78BD" fill-opacity="0.7"/>
</g>
<g opacity="0.5">
<path d="M1279.01 13087.1C1277.08 13074.2 1244.36 13066.4 1241.74 13078.1C1238 13094.8 1251.95 13101.2 1259.16 13104.8C1266.36 13108.4 1280.94 13099.9 1279.01 13087.1Z" fill="#3F78BD" fill-opacity="0.6"/>
<path d="M1275.37 13100.3C1282.64 13089.5 1263.75 13061.7 1253.93 13068.5C1239.87 13078.3 1245.84 13092.5 1248.74 13100C1251.64 13107.5 1268.1 13111.1 1275.37 13100.3Z" fill="#3F78BD" fill-opacity="0.7"/>
</g>
<g opacity="0.5">
<path d="M1296.09 12182C1306.46 12174.1 1297.59 12141.7 1286.09 12145C1269.6 12149.7 1270.67 12165.1 1270.99 12173.1C1271.3 12181.1 1285.71 12189.9 1296.09 12182Z" fill="#3F78BD" fill-opacity="0.6"/>
<path d="M1282.72 12185.2C1295.68 12186.4 1311.05 12156.4 1300.33 12151.1C1284.97 12143.5 1275.41 12155.5 1270.22 12161.6C1265.03 12167.8 1269.76 12184 1282.72 12185.2Z" fill="#3F78BD" fill-opacity="0.7"/>
</g>
<g opacity="0.5">
<path d="M924.156 12999.7C922.227 12986.9 889.502 12979.1 886.888 12990.8C883.144 13007.5 897.098 13013.9 904.302 13017.5C911.506 13021.1 926.085 13012.6 924.156 12999.7Z" fill="#3F78BD" fill-opacity="0.6"/>
<path d="M920.518 13013C927.789 13002.2 908.895 12974.4 899.077 12981.2C885.017 12991 890.983 13005.2 893.885 13012.7C896.786 13020.2 913.247 13023.8 920.518 13013Z" fill="#3F78BD" fill-opacity="0.7"/>
</g>
<g opacity="0.5">
<path d="M1202.6 11828.7C1212.98 11820.9 1204.11 11788.4 1192.6 11791.7C1176.12 11796.5 1177.18 11811.8 1177.5 11819.8C1177.82 11827.9 1192.22 11836.6 1202.6 11828.7Z" fill="#3F78BD" fill-opacity="0.6"/>
<path d="M1189.23 11831.9C1202.2 11833.1 1217.56 11803.2 1206.84 11797.8C1191.49 11790.2 1181.93 11802.2 1176.74 11808.4C1171.55 11814.5 1176.27 11830.7 1189.23 11831.9Z" fill="#3F78BD" fill-opacity="0.7"/>
</g>
<g opacity="0.5">
<path d="M1226.99 12577.6C1225.06 12564.7 1192.34 12557 1189.72 12568.7C1185.98 12585.4 1199.93 12591.8 1207.14 12595.4C1214.34 12598.9 1228.92 12590.5 1226.99 12577.6Z" fill="#3F78BD" fill-opacity="0.6"/>
<path d="M1223.35 12590.9C1230.62 12580.1 1211.73 12552.2 1201.91 12559.1C1187.85 12568.9 1193.82 12583.1 1196.72 12590.6C1199.62 12598.1 1216.08 12601.7 1223.35 12590.9Z" fill="#3F78BD" fill-opacity="0.7"/>
</g>
<g opacity="0.5">
<path d="M872.136 12490.3C870.207 12477.4 837.481 12469.6 834.867 12481.3C831.123 12498.1 845.078 12504.5 852.282 12508.1C859.486 12511.6 874.064 12503.2 872.136 12490.3Z" fill="#3F78BD" fill-opacity="0.6"/>
<path d="M868.497 12503.5C875.768 12492.7 856.875 12464.9 847.057 12471.8C832.997 12481.6 838.963 12495.7 841.864 12503.2C844.766 12510.7 861.226 12514.3 868.497 12503.5Z" fill="#3F78BD" fill-opacity="0.7"/>
</g>
<g opacity="0.5">
<path d="M217.422 17762.6C214.076 17740.3 157.295 17726.8 152.759 17747.1C146.263 17776.1 170.475 17787.2 182.974 17793.4C195.474 17799.6 220.768 17784.9 217.422 17762.6Z" fill="#3F78BD" fill-opacity="0.6"/>
<path d="M211.11 17785.6C223.726 17766.8 190.944 17718.6 173.909 17730.5C149.514 17747.5 159.866 17772 164.9 17785.1C169.934 17798.1 198.494 17804.3 211.11 17785.6Z" fill="#3F78BD" fill-opacity="0.7"/>
</g>
<g opacity="0.5">
<path d="M339.001 17386.3C357.004 17372.7 341.616 17316.4 321.649 17322.1C293.054 17330.3 294.901 17356.9 295.451 17370.8C296.002 17384.8 320.998 17399.9 339.001 17386.3Z" fill="#3F78BD" fill-opacity="0.6"/>
<path d="M315.81 17391.8C338.305 17393.9 364.962 17341.9 346.357 17332.7C319.715 17319.5 303.132 17340.3 294.125 17351C285.118 17361.6 293.316 17389.7 315.81 17391.8Z" fill="#3F78BD" fill-opacity="0.7"/>
</g>
<g opacity="0.5">
<path d="M252.67 17092.6C270.673 17079 255.285 17022.7 235.318 17028.4C206.723 17036.6 208.57 17063.2 209.12 17077.2C209.671 17091.1 234.667 17106.3 252.67 17092.6Z" fill="#3F78BD" fill-opacity="0.6"/>
<path d="M229.479 17098.1C251.974 17100.2 278.631 17048.3 260.026 17039C233.384 17025.8 216.801 17046.6 207.794 17057.3C198.787 17067.9 206.985 17096 229.479 17098.1Z" fill="#3F78BD" fill-opacity="0.7"/>
</g>
<g opacity="0.5">
<path d="M159.184 16739.3C177.187 16725.7 161.8 16669.4 141.832 16675.1C113.238 16683.4 115.084 16709.9 115.635 16723.9C116.186 16737.8 141.182 16753 159.184 16739.3Z" fill="#3F78BD" fill-opacity="0.6"/>
<path d="M135.994 16744.8C158.488 16746.9 185.145 16695 166.541 16685.7C139.899 16672.5 123.315 16693.3 114.309 16704C105.302 16714.7 113.5 16742.7 135.994 16744.8Z" fill="#3F78BD" fill-opacity="0.7"/>
</g>
<g opacity="0.5">
<path d="M26.5587 18034.7C20.7314 17995.8 -78.1463 17972.3 -86.0454 18007.6C-97.3572 18058.2 -55.195 18077.6 -33.4283 18088.4C-11.6616 18099.2 32.386 18073.6 26.5587 18034.7Z" fill="#3F78BD" fill-opacity="0.6"/>
<path d="M15.5668 18074.7C37.5358 18042.1 -19.5504 17958 -49.2149 17978.7C-91.6956 18008.4 -73.6697 18051.1 -64.9032 18073.8C-56.1367 18096.5 -6.40224 18107.4 15.5668 18074.7Z" fill="#3F78BD" fill-opacity="0.7"/>
</g>
<g opacity="0.5">
<path d="M8.68939 17349.3C40.0394 17325.5 13.2439 17227.5 -21.5279 17237.4C-71.3224 17251.8 -68.1064 17298 -67.1475 17322.3C-66.1885 17346.6 -22.6606 17373 8.68939 17349.3Z" fill="#3F78BD" fill-opacity="0.6"/>
<path d="M-31.6951 17358.8C7.47645 17362.4 53.8972 17272 21.4997 17255.9C-24.8948 17232.8 -53.7732 17269.2 -69.4579 17287.7C-85.1425 17306.3 -70.8666 17355.2 -31.6951 17358.8Z" fill="#3F78BD" fill-opacity="0.7"/>
</g>
<g opacity="0.5">
<path d="M273.657 17590.3C267.829 17551.4 168.952 17527.9 161.053 17563.2C149.741 17613.8 191.903 17633.2 213.67 17644C235.436 17654.7 279.484 17629.2 273.657 17590.3Z" fill="#3F78BD" fill-opacity="0.6"/>
<path d="M262.665 17630.3C284.634 17597.7 227.548 17513.6 197.883 17534.3C155.402 17564 173.428 17606.7 182.195 17629.4C190.961 17652.1 240.696 17663 262.665 17630.3Z" fill="#3F78BD" fill-opacity="0.7"/>
</g>
<g opacity="0.5">
<path d="M517.169 17353.1C548.519 17329.3 521.723 17231.3 486.951 17241.2C437.157 17255.6 440.373 17301.8 441.332 17326.1C442.291 17350.4 485.819 17376.8 517.169 17353.1Z" fill="#3F78BD" fill-opacity="0.6"/>
<path d="M476.784 17362.6C515.956 17366.2 562.377 17275.8 529.979 17259.7C483.585 17236.6 454.706 17273 439.022 17291.5C423.337 17310.1 437.613 17359 476.784 17362.6Z" fill="#3F78BD" fill-opacity="0.7"/>
</g>
<g opacity="0.5">
<path d="M-36.454 17565.3C-14.485 17532.7 -71.5711 17448.6 -101.236 17469.3C-143.716 17499 -125.69 17541.7 -116.924 17564.4C-108.157 17587 -58.423 17597.9 -36.454 17565.3Z" fill="#3F78BD" fill-opacity="0.7"/>
</g>
<g opacity="0.5">
<path d="M430.838 17059.4C462.188 17035.6 435.392 16937.6 400.62 16947.6C350.826 16961.9 354.042 17008.2 355.001 17032.4C355.96 17056.7 399.488 17083.1 430.838 17059.4Z" fill="#3F78BD" fill-opacity="0.6"/>
<path d="M390.453 17068.9C429.625 17072.5 476.046 16982.1 443.648 16966C397.253 16943 368.375 16979.3 352.69 16997.8C337.006 17016.4 351.282 17065.3 390.453 17068.9Z" fill="#3F78BD" fill-opacity="0.7"/>
</g>
<g opacity="0.5">
<path d="M337.352 16706.1C368.702 16682.3 341.906 16584.3 307.135 16594.3C257.34 16608.6 260.556 16654.9 261.515 16679.2C262.474 16703.4 306.002 16729.9 337.352 16706.1Z" fill="#3F78BD" fill-opacity="0.6"/>
<path d="M296.968 16715.6C336.139 16719.3 382.56 16628.9 350.162 16612.8C303.768 16589.7 274.89 16626 259.205 16644.6C243.52 16663.1 257.796 16712 296.968 16715.6Z" fill="#3F78BD" fill-opacity="0.7"/>
</g>
<g opacity="0.5">
<path d="M425.964 17758C424.035 17745.1 391.31 17737.3 388.695 17749C384.952 17765.7 398.906 17772.1 406.11 17775.7C413.314 17779.3 427.893 17770.8 425.964 17758Z" fill="#3F78BD" fill-opacity="0.6"/>
<path d="M422.326 17771.2C429.597 17760.4 410.703 17732.6 400.885 17739.4C386.825 17749.2 392.791 17763.4 395.693 17770.9C398.594 17778.4 415.055 17782 422.326 17771.2Z" fill="#3F78BD" fill-opacity="0.7"/>
</g>
<g opacity="0.5">
<path d="M443.051 17567.1C453.427 17559.2 444.558 17526.8 433.05 17530.1C416.569 17534.8 417.634 17550.1 417.951 17558.2C418.269 17566.2 432.675 17575 443.051 17567.1Z" fill="#3F78BD" fill-opacity="0.6"/>
<path d="M429.685 17570.2C442.649 17571.4 458.013 17541.5 447.29 17536.2C431.935 17528.6 422.378 17540.6 417.186 17546.7C411.995 17552.9 416.72 17569 429.685 17570.2Z" fill="#3F78BD" fill-opacity="0.7"/>
</g>
<g opacity="0.5">
<path d="M71.109 17670.6C69.1804 17657.8 36.455 17650 33.8406 17661.7C30.0968 17678.4 44.0511 17684.8 51.2552 17688.4C58.4593 17692 73.0377 17683.5 71.109 17670.6Z" fill="#3F78BD" fill-opacity="0.6"/>
<path d="M67.471 17683.9C74.742 17673.1 55.8483 17645.3 46.0303 17652.1C31.9705 17661.9 37.9365 17676.1 40.838 17683.6C43.7394 17691.1 60.1999 17694.7 67.471 17683.9Z" fill="#3F78BD" fill-opacity="0.7"/>
</g>
<g opacity="0.5">
<path d="M349.565 17213.8C359.941 17205.9 351.073 17173.5 339.564 17176.8C323.084 17181.5 324.148 17196.9 324.466 17204.9C324.783 17212.9 339.19 17221.7 349.565 17213.8Z" fill="#3F78BD" fill-opacity="0.6"/>
<path d="M336.199 17217C349.164 17218.2 364.528 17188.2 353.805 17182.9C338.45 17175.3 328.892 17187.3 323.701 17193.4C318.51 17199.6 323.234 17215.8 336.199 17217Z" fill="#3F78BD" fill-opacity="0.7"/>
</g>
<g opacity="0.5">
<path d="M263.234 16920.1C273.61 16912.3 264.741 16879.8 253.233 16883.1C236.753 16887.9 237.817 16903.2 238.134 16911.2C238.452 16919.3 252.858 16928 263.234 16920.1Z" fill="#3F78BD" fill-opacity="0.6"/>
<path d="M249.868 16923.3C262.833 16924.5 278.196 16894.6 267.474 16889.2C252.119 16881.6 242.561 16893.6 237.37 16899.8C232.179 16905.9 236.904 16922.1 249.868 16923.3Z" fill="#3F78BD" fill-opacity="0.7"/>
</g>
<g opacity="0.5">
<path d="M169.749 16566.8C180.125 16559 171.256 16526.5 159.748 16529.8C143.268 16534.6 144.332 16549.9 144.649 16557.9C144.967 16566 159.373 16574.7 169.749 16566.8Z" fill="#3F78BD" fill-opacity="0.6"/>
<path d="M156.383 16570C169.347 16571.2 184.711 16541.3 173.989 16536C158.634 16528.3 149.076 16540.3 143.885 16546.5C138.694 16552.6 143.418 16568.8 156.383 16570Z" fill="#3F78BD" fill-opacity="0.7"/>
</g>
</g>
<defs>
<clipPath id="clip0">
<rect width="1440" height="23992" fill="white"/>
</clipPath>
</defs>
</svg>
