<svg width="2600" height="4366" viewBox="0 0 2600 4366" fill="none" xmlns="http://www.w3.org/2000/svg">
<g clip-path="url(#clip0)">
<rect width="2600" height="4366" fill="white"/>
<rect width="1440" height="24000" fill="white"/>
<g opacity="0.5">
<g opacity="0.5">
<path d="M2334.86 2259.6C2332.99 2247.11 2301.25 2239.58 2298.72 2250.91C2295.09 2267.14 2308.62 2273.35 2315.61 2276.82C2322.59 2280.28 2336.73 2272.09 2334.86 2259.6Z" fill="#3F78BD" fill-opacity="0.6"/>
<path d="M2331.33 2272.44C2338.38 2261.97 2320.06 2234.98 2310.54 2241.63C2296.91 2251.15 2302.69 2264.87 2305.5 2272.15C2308.32 2279.42 2324.28 2282.92 2331.33 2272.44Z" fill="#3F78BD" fill-opacity="0.7"/>
</g>
<g opacity="0.5">
<path d="M2256.72 1798.75C2266.78 1791.12 2258.18 1759.66 2247.02 1762.87C2231.04 1767.46 2232.07 1782.32 2232.38 1790.11C2232.69 1797.9 2246.66 1806.38 2256.72 1798.75Z" fill="#3F78BD" fill-opacity="0.6"/>
<path d="M2243.76 1801.81C2256.33 1802.98 2271.23 1773.96 2260.83 1768.79C2245.94 1761.39 2236.67 1773.05 2231.64 1779C2226.6 1784.96 2231.19 1800.65 2243.76 1801.81Z" fill="#3F78BD" fill-opacity="0.7"/>
</g>
<g opacity="0.5">
<path d="M2136.52 2210.8C2134.65 2198.31 2102.92 2190.77 2100.38 2202.1C2096.75 2218.33 2110.28 2224.55 2117.27 2228.01C2124.25 2231.48 2138.39 2223.28 2136.52 2210.8Z" fill="#3F78BD" fill-opacity="0.6"/>
<path d="M2132.99 2223.64C2140.05 2213.16 2121.72 2186.18 2112.2 2192.82C2098.57 2202.34 2104.35 2216.07 2107.17 2223.34C2109.98 2230.61 2125.94 2234.11 2132.99 2223.64Z" fill="#3F78BD" fill-opacity="0.7"/>
</g>
<g opacity="0.5">
<path d="M2204.47 1601.29C2214.53 1593.67 2205.93 1562.2 2194.77 1565.41C2178.79 1570 2179.82 1584.86 2180.13 1592.65C2180.44 1600.44 2194.41 1608.92 2204.47 1601.29Z" fill="#3F78BD" fill-opacity="0.6"/>
<path d="M2191.51 1604.35C2204.08 1605.52 2218.98 1576.5 2208.58 1571.34C2193.69 1563.93 2184.42 1575.59 2179.39 1581.55C2174.35 1587.5 2178.94 1603.19 2191.51 1604.35Z" fill="#3F78BD" fill-opacity="0.7"/>
</g>
<g opacity="0.5">
<path d="M2472.97 2011.2C2471.1 1998.72 2439.36 1991.18 2436.83 2002.51C2433.2 2018.74 2446.73 2024.96 2453.72 2028.42C2460.7 2031.89 2474.84 2023.69 2472.97 2011.2Z" fill="#3F78BD" fill-opacity="0.6"/>
<path d="M2469.44 2024.05C2476.49 2013.57 2458.17 1986.58 2448.65 1993.23C2435.01 2002.75 2440.8 2016.47 2443.61 2023.75C2446.43 2031.02 2462.39 2034.52 2469.44 2024.05Z" fill="#3F78BD" fill-opacity="0.7"/>
</g>
<g opacity="0.5">
<path d="M2540.92 1800.87C2550.99 1793.25 2542.39 1761.78 2531.23 1764.99C2515.24 1769.58 2516.28 1784.44 2516.58 1792.23C2516.89 1800.02 2530.86 1808.5 2540.92 1800.87Z" fill="#3F78BD" fill-opacity="0.6"/>
<path d="M2527.96 1803.94C2540.54 1805.1 2555.43 1776.08 2545.04 1770.92C2530.14 1763.51 2520.88 1775.17 2515.84 1781.13C2510.81 1787.08 2515.39 1802.77 2527.96 1803.94Z" fill="#3F78BD" fill-opacity="0.7"/>
</g>
<g opacity="0.5">
<path d="M2305.78 1974.86C2303.91 1962.37 2272.18 1954.83 2269.64 1966.17C2266.01 1982.4 2279.54 1988.61 2286.53 1992.08C2293.52 1995.54 2307.66 1987.35 2305.78 1974.86Z" fill="#3F78BD" fill-opacity="0.6"/>
<path d="M2302.26 1987.7C2309.31 1977.23 2290.99 1950.24 2281.46 1956.89C2267.83 1966.41 2273.61 1980.13 2276.43 1987.4C2279.24 1994.68 2295.21 1998.18 2302.26 1987.7Z" fill="#3F78BD" fill-opacity="0.7"/>
</g>
<g opacity="0.5">
<path d="M2492.67 1636.73C2502.73 1629.1 2494.13 1597.64 2482.97 1600.84C2466.99 1605.44 2468.02 1620.29 2468.33 1628.09C2468.64 1635.88 2482.61 1644.36 2492.67 1636.73Z" fill="#3F78BD" fill-opacity="0.6"/>
<path d="M2479.71 1639.79C2492.28 1640.96 2507.18 1611.94 2496.78 1606.77C2481.89 1599.37 2472.62 1611.02 2467.59 1616.98C2462.55 1622.94 2467.14 1638.62 2479.71 1639.79Z" fill="#3F78BD" fill-opacity="0.7"/>
</g>
<g opacity="0.5">
<path d="M2107.45 1926.05C2105.58 1913.57 2073.84 1906.03 2071.3 1917.36C2067.67 1933.59 2081.21 1939.81 2088.19 1943.27C2095.18 1946.74 2109.32 1938.54 2107.45 1926.05Z" fill="#3F78BD" fill-opacity="0.6"/>
<path d="M2103.92 1938.9C2110.97 1928.42 2092.65 1901.43 2083.13 1908.08C2069.49 1917.6 2075.28 1931.32 2078.09 1938.6C2080.9 1945.87 2096.87 1949.37 2103.92 1938.9Z" fill="#3F78BD" fill-opacity="0.7"/>
</g>
<g opacity="0.5">
<path d="M2440.42 1439.27C2450.48 1431.64 2441.88 1400.18 2430.72 1403.39C2414.74 1407.98 2415.77 1422.84 2416.08 1430.63C2416.39 1438.42 2430.36 1446.9 2440.42 1439.27Z" fill="#3F78BD" fill-opacity="0.6"/>
<path d="M2427.46 1442.33C2440.03 1443.5 2454.93 1414.48 2444.53 1409.31C2429.64 1401.91 2420.37 1413.57 2415.34 1419.52C2410.3 1425.48 2414.89 1441.17 2427.46 1442.33Z" fill="#3F78BD" fill-opacity="0.7"/>
</g>
<g opacity="0.5">
<path d="M2366.29 2163.3C2363.03 2141.55 2307.77 2128.43 2303.35 2148.16C2297.03 2176.42 2320.6 2187.25 2332.76 2193.28C2344.93 2199.32 2369.55 2185.04 2366.29 2163.3Z" fill="#3F78BD" fill-opacity="0.6"/>
<path d="M2360.15 2185.66C2372.43 2167.42 2340.52 2120.43 2323.94 2132C2300.2 2148.58 2310.27 2172.48 2315.17 2185.14C2320.07 2197.81 2347.87 2203.9 2360.15 2185.66Z" fill="#3F78BD" fill-opacity="0.7"/>
</g>
<g opacity="0.5">
<path d="M2356.3 1780.17C2373.83 1766.89 2358.85 1712.09 2339.41 1717.68C2311.58 1725.68 2313.38 1751.55 2313.92 1765.12C2314.45 1778.69 2338.78 1793.45 2356.3 1780.17Z" fill="#3F78BD" fill-opacity="0.6"/>
<path d="M2333.73 1785.5C2355.63 1787.53 2381.57 1737 2363.46 1728C2337.53 1715.11 2321.39 1735.41 2312.63 1745.78C2303.86 1756.15 2311.84 1783.47 2333.73 1785.5Z" fill="#3F78BD" fill-opacity="0.7"/>
</g>
<g opacity="0.5">
<path d="M2167.95 2114.49C2164.7 2092.75 2109.43 2079.62 2105.02 2099.36C2098.69 2127.62 2122.26 2138.44 2134.42 2144.48C2146.59 2150.51 2171.21 2136.24 2167.95 2114.49Z" fill="#3F78BD" fill-opacity="0.6"/>
<path d="M2161.81 2136.86C2174.09 2118.62 2142.18 2071.62 2125.6 2083.2C2101.86 2099.78 2111.93 2123.67 2116.83 2136.34C2121.73 2149 2149.53 2155.1 2161.81 2136.86Z" fill="#3F78BD" fill-opacity="0.7"/>
</g>
<g opacity="0.5">
<path d="M2304.05 1582.71C2321.57 1569.43 2306.6 1514.63 2287.16 1520.22C2259.33 1528.22 2261.13 1554.09 2261.67 1567.66C2262.2 1581.23 2286.53 1595.99 2304.05 1582.71Z" fill="#3F78BD" fill-opacity="0.6"/>
<path d="M2281.48 1588.04C2303.37 1590.07 2329.32 1539.54 2311.21 1530.54C2285.28 1517.65 2269.14 1537.95 2260.37 1548.32C2251.61 1558.69 2259.59 1586.01 2281.48 1588.04Z" fill="#3F78BD" fill-opacity="0.7"/>
</g>
<g opacity="0.5">
<path d="M2504.4 1914.9C2501.14 1893.16 2445.88 1880.03 2441.46 1899.77C2435.14 1928.02 2458.71 1938.85 2470.87 1944.88C2483.04 1950.92 2507.66 1936.65 2504.4 1914.9Z" fill="#3F78BD" fill-opacity="0.6"/>
<path d="M2498.26 1937.26C2510.54 1919.02 2478.63 1872.03 2462.05 1883.61C2438.31 1900.18 2448.38 1924.08 2453.28 1936.75C2458.18 1949.41 2485.98 1955.5 2498.26 1937.26Z" fill="#3F78BD" fill-opacity="0.7"/>
</g>
<g opacity="0.5">
<path d="M2640.51 1782.29C2658.03 1769.01 2643.05 1714.22 2623.62 1719.8C2595.79 1727.8 2597.58 1753.67 2598.12 1767.24C2598.66 1780.81 2622.99 1795.57 2640.51 1782.29Z" fill="#3F78BD" fill-opacity="0.6"/>
<path d="M2617.94 1787.62C2639.83 1789.65 2665.78 1739.12 2647.67 1730.12C2621.74 1717.23 2605.6 1737.53 2596.83 1747.9C2588.06 1758.27 2596.04 1785.59 2617.94 1787.62Z" fill="#3F78BD" fill-opacity="0.7"/>
</g>
<g opacity="0.5">
<path d="M2337.22 1878.56C2333.96 1856.81 2278.69 1843.69 2274.28 1863.42C2267.96 1891.68 2291.52 1902.5 2303.69 1908.54C2315.85 1914.57 2340.47 1900.3 2337.22 1878.56Z" fill="#3F78BD" fill-opacity="0.6"/>
<path d="M2331.07 1900.92C2343.35 1882.68 2311.44 1835.69 2294.86 1847.26C2271.12 1863.84 2281.2 1887.74 2286.1 1900.4C2291 1913.07 2318.79 1919.16 2331.07 1900.92Z" fill="#3F78BD" fill-opacity="0.7"/>
</g>
<g opacity="0.5">
<path d="M2592.25 1618.15C2609.78 1604.86 2594.8 1550.07 2575.37 1555.66C2547.53 1563.66 2549.33 1589.53 2549.87 1603.1C2550.4 1616.67 2574.73 1631.43 2592.25 1618.15Z" fill="#3F78BD" fill-opacity="0.6"/>
<path d="M2569.68 1623.48C2591.58 1625.51 2617.52 1574.98 2599.41 1565.98C2573.48 1553.09 2557.34 1573.38 2548.58 1583.76C2539.81 1594.13 2547.79 1621.44 2569.68 1623.48Z" fill="#3F78BD" fill-opacity="0.7"/>
</g>
<g opacity="0.5">
<path d="M2138.88 1829.75C2135.62 1808 2080.36 1794.88 2075.94 1814.61C2069.62 1842.87 2093.18 1853.7 2105.35 1859.73C2117.52 1865.77 2142.13 1851.5 2138.88 1829.75Z" fill="#3F78BD" fill-opacity="0.6"/>
<path d="M2132.73 1852.11C2145.01 1833.87 2113.11 1786.88 2096.53 1798.46C2072.78 1815.03 2082.86 1838.93 2087.76 1851.6C2092.66 1864.26 2120.46 1870.35 2132.73 1852.11Z" fill="#3F78BD" fill-opacity="0.7"/>
</g>
<g opacity="0.5">
<path d="M2540 1420.69C2557.52 1407.4 2542.55 1352.61 2523.11 1358.2C2495.28 1366.2 2497.08 1392.07 2497.62 1405.64C2498.15 1419.21 2522.48 1433.97 2540 1420.69Z" fill="#3F78BD" fill-opacity="0.6"/>
<path d="M2517.43 1426.02C2539.32 1428.05 2565.27 1377.52 2547.16 1368.52C2521.23 1355.63 2505.09 1375.93 2496.32 1386.3C2487.56 1396.67 2495.54 1423.99 2517.43 1426.02Z" fill="#3F78BD" fill-opacity="0.7"/>
</g>
<g opacity="0.5">
<path d="M2253.08 2208.2C2252 2201 2233.71 2196.66 2232.25 2203.19C2230.16 2212.54 2237.96 2216.13 2241.99 2218.12C2246.01 2220.12 2254.16 2215.4 2253.08 2208.2Z" fill="#3F78BD" fill-opacity="0.6"/>
<path d="M2251.05 2215.6C2255.11 2209.56 2244.55 2194.01 2239.06 2197.84C2231.21 2203.33 2234.54 2211.24 2236.16 2215.43C2237.78 2219.62 2246.98 2221.64 2251.05 2215.6Z" fill="#3F78BD" fill-opacity="0.7"/>
</g>
<g opacity="0.5">
<path d="M2262.63 1702.34C2268.43 1697.95 2263.47 1679.81 2257.04 1681.66C2247.83 1684.31 2248.42 1692.87 2248.6 1697.36C2248.78 1701.85 2256.83 1706.74 2262.63 1702.34Z" fill="#3F78BD" fill-opacity="0.6"/>
<path d="M2255.16 1704.11C2262.4 1704.78 2270.99 1688.05 2265 1685.08C2256.41 1680.81 2251.07 1687.53 2248.17 1690.96C2245.27 1694.39 2247.91 1703.43 2255.16 1704.11Z" fill="#3F78BD" fill-opacity="0.7"/>
</g>
<g opacity="0.5">
<path d="M2589.53 2008.61C2588.45 2001.41 2570.16 1997.07 2568.7 2003.6C2566.61 2012.95 2574.41 2016.53 2578.43 2018.53C2582.46 2020.53 2590.61 2015.81 2589.53 2008.61Z" fill="#3F78BD" fill-opacity="0.6"/>
<path d="M2587.5 2016.01C2591.56 2009.97 2581 1994.42 2575.51 1998.25C2567.65 2003.74 2570.99 2011.65 2572.61 2015.84C2574.23 2020.03 2583.43 2022.05 2587.5 2016.01Z" fill="#3F78BD" fill-opacity="0.7"/>
</g>
<g opacity="0.5">
<path d="M2599.08 1901.92C2604.88 1897.53 2599.92 1879.39 2593.49 1881.24C2584.28 1883.89 2584.87 1892.45 2585.05 1896.94C2585.23 1901.43 2593.28 1906.32 2599.08 1901.92Z" fill="#3F78BD" fill-opacity="0.6"/>
<path d="M2591.61 1903.69C2598.86 1904.36 2607.44 1887.64 2601.45 1884.66C2592.87 1880.39 2587.53 1887.11 2584.62 1890.54C2581.72 1893.97 2584.36 1903.01 2591.61 1903.69Z" fill="#3F78BD" fill-opacity="0.7"/>
</g>
<g opacity="0.5">
<path d="M2054.74 2159.39C2053.67 2152.2 2035.37 2147.85 2033.91 2154.39C2031.82 2163.74 2039.62 2167.32 2043.65 2169.32C2047.67 2171.32 2055.82 2166.59 2054.74 2159.39Z" fill="#3F78BD" fill-opacity="0.6"/>
<path d="M2052.71 2166.8C2056.77 2160.76 2046.21 2145.21 2040.73 2149.04C2032.87 2154.52 2036.2 2162.43 2037.82 2166.62C2039.45 2170.82 2048.65 2172.83 2052.71 2166.8Z" fill="#3F78BD" fill-opacity="0.7"/>
</g>
<g opacity="0.5">
<path d="M2210.37 1504.88C2216.17 1500.49 2211.22 1482.35 2204.78 1484.2C2195.57 1486.85 2196.17 1495.41 2196.34 1499.9C2196.52 1504.39 2204.57 1509.28 2210.37 1504.88Z" fill="#3F78BD" fill-opacity="0.6"/>
<path d="M2202.9 1506.65C2210.15 1507.32 2218.74 1490.6 2212.74 1487.62C2204.16 1483.35 2198.82 1490.07 2195.92 1493.5C2193.02 1496.93 2195.66 1505.98 2202.9 1506.65Z" fill="#3F78BD" fill-opacity="0.7"/>
</g>
<g opacity="0.5">
<path d="M2391.19 1959.8C2390.11 1952.61 2371.82 1948.26 2370.36 1954.79C2368.27 1964.15 2376.07 1967.73 2380.1 1969.73C2384.12 1971.72 2392.27 1967 2391.19 1959.8Z" fill="#3F78BD" fill-opacity="0.6"/>
<path d="M2389.16 1967.2C2393.22 1961.17 2382.66 1945.61 2377.17 1949.45C2369.32 1954.93 2372.65 1962.84 2374.27 1967.03C2375.89 1971.22 2385.09 1973.24 2389.16 1967.2Z" fill="#3F78BD" fill-opacity="0.7"/>
</g>
<g opacity="0.5">
<path d="M2546.83 1704.46C2552.63 1700.07 2547.67 1681.93 2541.24 1683.78C2532.03 1686.43 2532.62 1694.99 2532.8 1699.48C2532.98 1703.97 2541.03 1708.86 2546.83 1704.46Z" fill="#3F78BD" fill-opacity="0.6"/>
<path d="M2539.36 1706.23C2546.6 1706.9 2555.19 1690.18 2549.2 1687.2C2540.62 1682.93 2535.27 1689.65 2532.37 1693.08C2529.47 1696.52 2532.11 1705.56 2539.36 1706.23Z" fill="#3F78BD" fill-opacity="0.7"/>
</g>
<g opacity="0.5">
<path d="M2224.01 1923.46C2222.93 1916.26 2204.64 1911.92 2203.18 1918.45C2201.08 1927.8 2208.88 1931.38 2212.91 1933.38C2216.94 1935.38 2225.08 1930.65 2224.01 1923.46Z" fill="#3F78BD" fill-opacity="0.6"/>
<path d="M2221.97 1930.86C2226.04 1924.82 2215.48 1909.27 2209.99 1913.1C2202.13 1918.59 2205.47 1926.5 2207.09 1930.69C2208.71 1934.88 2217.91 1936.9 2221.97 1930.86Z" fill="#3F78BD" fill-opacity="0.7"/>
</g>
<g opacity="0.5">
<path d="M2498.58 1540.32C2504.38 1535.92 2499.42 1517.79 2492.99 1519.64C2483.78 1522.29 2484.37 1530.85 2484.55 1535.34C2484.73 1539.83 2492.78 1544.72 2498.58 1540.32Z" fill="#3F78BD" fill-opacity="0.6"/>
<path d="M2491.11 1542.08C2498.35 1542.76 2506.94 1526.03 2500.95 1523.05C2492.36 1518.79 2487.02 1525.5 2484.12 1528.94C2481.22 1532.37 2483.86 1541.41 2491.11 1542.08Z" fill="#3F78BD" fill-opacity="0.7"/>
</g>
<g opacity="0.5">
<path d="M2025.67 1874.65C2024.59 1867.45 2006.3 1863.11 2004.84 1869.64C2002.75 1879 2010.55 1882.58 2014.57 1884.58C2018.6 1886.57 2026.75 1881.85 2025.67 1874.65Z" fill="#3F78BD" fill-opacity="0.6"/>
<path d="M2023.64 1882.05C2027.7 1876.02 2017.14 1860.46 2011.65 1864.29C2003.79 1869.78 2007.13 1877.69 2008.75 1881.88C2010.37 1886.07 2019.57 1888.09 2023.64 1882.05Z" fill="#3F78BD" fill-opacity="0.7"/>
</g>
<g opacity="0.5">
<path d="M2446.32 1342.86C2452.12 1338.47 2447.17 1320.33 2440.74 1322.18C2431.52 1324.83 2432.12 1333.39 2432.3 1337.88C2432.47 1342.37 2440.53 1347.26 2446.32 1342.86Z" fill="#3F78BD" fill-opacity="0.6"/>
<path d="M2438.85 1344.63C2446.1 1345.3 2454.69 1328.57 2448.69 1325.59C2440.11 1321.33 2434.77 1328.05 2431.87 1331.48C2428.97 1334.91 2431.61 1343.95 2438.85 1344.63Z" fill="#3F78BD" fill-opacity="0.7"/>
</g>
</g>
<g opacity="0.5">
<g opacity="0.5">
<path d="M2276.86 572.601C2274.99 560.114 2243.25 552.577 2240.72 563.909C2237.09 580.138 2250.62 586.354 2257.61 589.819C2264.59 593.285 2278.73 585.088 2276.86 572.601Z" fill="#3F78BD" fill-opacity="0.6"/>
<path d="M2273.33 585.443C2280.38 574.969 2262.06 547.982 2252.54 554.63C2238.91 564.15 2244.69 577.872 2247.5 585.145C2250.32 592.419 2266.28 595.918 2273.33 585.443Z" fill="#3F78BD" fill-opacity="0.7"/>
</g>
<g opacity="0.5">
<path d="M2198.72 111.752C2208.78 104.124 2200.18 72.659 2189.02 75.8666C2173.04 80.4601 2174.07 95.3163 2174.38 103.109C2174.69 110.902 2188.66 119.379 2198.72 111.752Z" fill="#3F78BD" fill-opacity="0.6"/>
<path d="M2185.76 114.812C2198.33 115.979 2213.23 86.9617 2202.83 81.7928C2187.94 74.3906 2178.67 86.0465 2173.64 92.0028C2168.6 97.959 2173.19 113.645 2185.76 114.812Z" fill="#3F78BD" fill-opacity="0.7"/>
</g>
<g opacity="0.5">
<path d="M2078.52 523.795C2076.65 511.308 2044.92 503.772 2042.38 515.104C2038.75 531.332 2052.28 537.548 2059.27 541.014C2066.25 544.479 2080.39 536.283 2078.52 523.795Z" fill="#3F78BD" fill-opacity="0.6"/>
<path d="M2074.99 536.638C2082.05 526.163 2063.72 499.177 2054.2 505.824C2040.57 515.344 2046.35 529.066 2049.17 536.34C2051.98 543.613 2067.94 547.112 2074.99 536.638Z" fill="#3F78BD" fill-opacity="0.7"/>
</g>
<g opacity="0.5">
<path d="M2414.97 324.203C2413.1 311.716 2381.36 304.179 2378.83 315.512C2375.2 331.74 2388.73 337.956 2395.72 341.422C2402.7 344.887 2416.84 336.691 2414.97 324.203Z" fill="#3F78BD" fill-opacity="0.6"/>
<path d="M2411.44 337.046C2418.49 326.571 2400.17 299.585 2390.65 306.232C2377.01 315.752 2382.8 329.474 2385.61 336.748C2388.43 344.021 2404.39 347.52 2411.44 337.046Z" fill="#3F78BD" fill-opacity="0.7"/>
</g>
<g opacity="0.5">
<path d="M2482.92 113.874C2492.99 106.247 2484.39 74.782 2473.23 77.9896C2457.24 82.5831 2458.28 97.4393 2458.58 105.232C2458.89 113.025 2472.86 121.502 2482.92 113.874Z" fill="#3F78BD" fill-opacity="0.6"/>
<path d="M2469.96 116.935C2482.54 118.102 2497.43 89.0847 2487.04 83.9157C2472.14 76.5136 2462.88 88.1695 2457.84 94.1258C2452.81 100.082 2457.39 115.768 2469.96 116.935Z" fill="#3F78BD" fill-opacity="0.7"/>
</g>
<g opacity="0.5">
<path d="M2247.78 287.859C2245.91 275.371 2214.18 267.835 2211.64 279.167C2208.01 295.395 2221.54 301.611 2228.53 305.077C2235.52 308.543 2249.66 300.346 2247.78 287.859Z" fill="#3F78BD" fill-opacity="0.6"/>
<path d="M2244.26 300.701C2251.31 290.227 2232.99 263.24 2223.46 269.888C2209.83 279.408 2215.61 293.13 2218.43 300.403C2221.24 307.677 2237.21 311.175 2244.26 300.701Z" fill="#3F78BD" fill-opacity="0.7"/>
</g>
<g opacity="0.5">
<path d="M2049.45 239.053C2047.58 226.566 2015.84 219.029 2013.3 230.361C2009.67 246.589 2023.21 252.806 2030.19 256.271C2037.18 259.737 2051.32 251.54 2049.45 239.053Z" fill="#3F78BD" fill-opacity="0.6"/>
<path d="M2045.92 251.895C2052.97 241.421 2034.65 214.434 2025.13 221.082C2011.49 230.602 2017.28 244.324 2020.09 251.597C2022.9 258.871 2038.87 262.37 2045.92 251.895Z" fill="#3F78BD" fill-opacity="0.7"/>
</g>
<g opacity="0.5">
<path d="M2308.29 476.298C2305.03 454.553 2249.77 441.429 2245.35 461.163C2239.03 489.422 2262.6 500.247 2274.76 506.282C2286.93 512.317 2311.55 498.044 2308.29 476.298Z" fill="#3F78BD" fill-opacity="0.6"/>
<path d="M2302.15 498.662C2314.43 480.422 2282.52 433.428 2265.94 445.005C2242.2 461.582 2252.27 485.478 2257.17 498.144C2262.07 510.81 2289.87 516.903 2302.15 498.662Z" fill="#3F78BD" fill-opacity="0.7"/>
</g>
<g opacity="0.5">
<path d="M2298.3 93.1685C2315.83 79.8853 2300.85 25.093 2281.41 30.6787C2253.58 38.6778 2255.38 64.5484 2255.92 78.1184C2256.45 91.6885 2280.78 106.452 2298.3 93.1685Z" fill="#3F78BD" fill-opacity="0.6"/>
<path d="M2275.73 98.498C2297.63 100.53 2323.57 49.9993 2305.46 40.9981C2279.53 28.1081 2263.39 48.4057 2254.63 58.7778C2245.86 69.1499 2253.84 96.4662 2275.73 98.498Z" fill="#3F78BD" fill-opacity="0.7"/>
</g>
<g opacity="0.5">
<path d="M2109.95 427.493C2106.7 405.747 2051.43 392.623 2047.02 412.357C2040.69 440.617 2064.26 451.441 2076.42 457.477C2088.59 463.512 2113.21 449.238 2109.95 427.493Z" fill="#3F78BD" fill-opacity="0.6"/>
<path d="M2103.81 449.857C2116.09 431.617 2084.18 384.623 2067.6 396.199C2043.86 412.776 2053.93 436.672 2058.83 449.338C2063.73 462.004 2091.53 468.097 2103.81 449.857Z" fill="#3F78BD" fill-opacity="0.7"/>
</g>
<g opacity="0.5">
<path d="M2446.4 227.901C2443.14 206.155 2387.88 193.031 2383.46 212.765C2377.14 241.025 2400.71 251.85 2412.87 257.885C2425.04 263.92 2449.66 249.646 2446.4 227.901Z" fill="#3F78BD" fill-opacity="0.6"/>
<path d="M2440.26 250.265C2452.54 232.025 2420.63 185.031 2404.05 196.607C2380.31 213.184 2390.38 237.08 2395.28 249.746C2400.18 262.412 2427.98 268.505 2440.26 250.265Z" fill="#3F78BD" fill-opacity="0.7"/>
</g>
<g opacity="0.5">
<path d="M2582.51 95.2916C2600.03 82.0085 2585.05 27.2161 2565.62 32.8019C2537.79 40.801 2539.58 66.6715 2540.12 80.2416C2540.66 93.8116 2564.99 108.575 2582.51 95.2916Z" fill="#3F78BD" fill-opacity="0.6"/>
<path d="M2559.94 100.621C2581.83 102.653 2607.78 52.1225 2589.67 43.1213C2563.74 30.2313 2547.6 50.5288 2538.83 60.901C2530.06 71.2731 2538.04 98.5894 2559.94 100.621Z" fill="#3F78BD" fill-opacity="0.7"/>
</g>
<g opacity="0.5">
<path d="M2279.22 191.556C2275.96 169.81 2220.69 156.687 2216.28 176.42C2209.96 204.68 2233.52 215.505 2245.69 221.54C2257.85 227.575 2282.47 213.301 2279.22 191.556Z" fill="#3F78BD" fill-opacity="0.6"/>
<path d="M2273.07 213.92C2285.35 195.68 2253.44 148.686 2236.86 160.262C2213.12 176.84 2223.2 200.735 2228.1 213.401C2233 226.067 2260.79 232.16 2273.07 213.92Z" fill="#3F78BD" fill-opacity="0.7"/>
</g>
<g opacity="0.5">
<path d="M2080.88 142.75C2077.62 121.005 2022.36 107.881 2017.94 127.615C2011.62 155.874 2035.18 166.699 2047.35 172.734C2059.52 178.769 2084.13 164.496 2080.88 142.75Z" fill="#3F78BD" fill-opacity="0.6"/>
<path d="M2074.73 165.114C2087.01 146.874 2055.11 99.8802 2038.53 111.456C2014.78 128.034 2024.86 151.93 2029.76 164.596C2034.66 177.262 2062.46 183.354 2074.73 165.114Z" fill="#3F78BD" fill-opacity="0.7"/>
</g>
<g opacity="0.5">
<path d="M2195.08 521.2C2194 514.003 2175.71 509.66 2174.25 516.191C2172.16 525.544 2179.96 529.127 2183.99 531.124C2188.01 533.121 2196.16 528.397 2195.08 521.2Z" fill="#3F78BD" fill-opacity="0.6"/>
<path d="M2193.05 528.602C2197.11 522.565 2186.55 507.011 2181.06 510.843C2173.21 516.329 2176.54 524.238 2178.16 528.43C2179.78 532.622 2188.98 534.639 2193.05 528.602Z" fill="#3F78BD" fill-opacity="0.7"/>
</g>
<g opacity="0.5">
<path d="M2204.63 15.3421C2210.43 10.9458 2205.47 -7.18871 2199.04 -5.33999C2189.83 -2.69256 2190.42 5.86978 2190.6 10.361C2190.78 14.8523 2198.83 19.7384 2204.63 15.3421Z" fill="#3F78BD" fill-opacity="0.6"/>
<path d="M2197.16 17.1059C2204.4 17.7784 2212.99 1.0544 2207 -1.9247C2198.41 -6.1909 2193.07 0.526956 2190.17 3.9598C2187.27 7.39265 2189.91 16.4335 2197.16 17.1059Z" fill="#3F78BD" fill-opacity="0.7"/>
</g>
<g opacity="0.5">
<path d="M2531.53 321.608C2530.45 314.411 2512.16 310.067 2510.7 316.599C2508.61 325.952 2516.41 329.534 2520.43 331.532C2524.46 333.529 2532.61 328.805 2531.53 321.608Z" fill="#3F78BD" fill-opacity="0.6"/>
<path d="M2529.5 329.01C2533.56 322.973 2523 307.419 2517.51 311.251C2509.65 316.737 2512.99 324.646 2514.61 328.838C2516.23 333.03 2525.43 335.047 2529.5 329.01Z" fill="#3F78BD" fill-opacity="0.7"/>
</g>
<g opacity="0.5">
<path d="M2541.08 214.924C2546.88 210.527 2541.92 192.393 2535.49 194.241C2526.28 196.889 2526.87 205.451 2527.05 209.942C2527.23 214.434 2535.28 219.32 2541.08 214.924Z" fill="#3F78BD" fill-opacity="0.6"/>
<path d="M2533.61 216.687C2540.86 217.36 2549.44 200.636 2543.45 197.657C2534.87 193.391 2529.53 200.108 2526.62 203.541C2523.72 206.974 2526.36 216.015 2533.61 216.687Z" fill="#3F78BD" fill-opacity="0.7"/>
</g>
<g opacity="0.5">
<path d="M1996.74 472.395C1995.67 465.197 1977.37 460.854 1975.91 467.385C1973.82 476.738 1981.62 480.321 1985.65 482.318C1989.67 484.316 1997.82 479.592 1996.74 472.395Z" fill="#3F78BD" fill-opacity="0.6"/>
<path d="M1994.71 479.796C1998.77 473.759 1988.21 458.206 1982.73 462.037C1974.87 467.524 1978.2 475.433 1979.82 479.625C1981.45 483.817 1990.65 485.833 1994.71 479.796Z" fill="#3F78BD" fill-opacity="0.7"/>
</g>
<g opacity="0.5">
<path d="M2333.19 272.802C2332.11 265.605 2313.82 261.262 2312.36 267.793C2310.27 277.146 2318.07 280.729 2322.1 282.726C2326.12 284.724 2334.27 280 2333.19 272.802Z" fill="#3F78BD" fill-opacity="0.6"/>
<path d="M2331.16 280.204C2335.22 274.167 2324.66 258.614 2319.17 262.445C2311.32 267.932 2314.65 275.841 2316.27 280.033C2317.89 284.225 2327.09 286.241 2331.16 280.204Z" fill="#3F78BD" fill-opacity="0.7"/>
</g>
<g opacity="0.5">
<path d="M2488.83 17.4647C2494.63 13.0684 2489.67 -5.06615 2483.24 -3.21744C2474.03 -0.57 2474.62 7.99234 2474.8 12.4836C2474.98 16.9749 2483.03 21.861 2488.83 17.4647Z" fill="#3F78BD" fill-opacity="0.6"/>
<path d="M2481.36 19.2285C2488.6 19.901 2497.19 3.17699 2491.2 0.197888C2482.62 -4.06831 2477.27 2.64954 2474.37 6.08239C2471.47 9.51524 2474.11 18.5561 2481.36 19.2285Z" fill="#3F78BD" fill-opacity="0.7"/>
</g>
<g opacity="0.5">
<path d="M2166.01 236.458C2164.93 229.261 2146.64 224.917 2145.18 231.448C2143.08 240.801 2150.88 244.384 2154.91 246.382C2158.94 248.379 2167.08 243.655 2166.01 236.458Z" fill="#3F78BD" fill-opacity="0.6"/>
<path d="M2163.97 243.859C2168.04 237.823 2157.48 222.269 2151.99 226.1C2144.13 231.587 2147.47 239.496 2149.09 243.688C2150.71 247.88 2159.91 249.896 2163.97 243.859Z" fill="#3F78BD" fill-opacity="0.7"/>
</g>
<g opacity="0.5">
<path d="M1967.67 187.652C1966.59 180.455 1948.3 176.111 1946.84 182.643C1944.75 191.996 1952.55 195.578 1956.57 197.576C1960.6 199.573 1968.75 194.849 1967.67 187.652Z" fill="#3F78BD" fill-opacity="0.6"/>
<path d="M1965.64 195.054C1969.7 189.017 1959.14 173.463 1953.65 177.295C1945.79 182.781 1949.13 190.69 1950.75 194.882C1952.37 199.074 1961.57 201.091 1965.64 195.054Z" fill="#3F78BD" fill-opacity="0.7"/>
</g>
</g>
<g opacity="0.5">
<g opacity="0.5">
<path d="M86.8605 3868.6C84.9902 3856.11 53.2539 3848.58 50.7185 3859.91C47.0878 3876.14 60.6205 3882.35 67.6068 3885.82C74.5932 3889.28 88.7309 3881.09 86.8605 3868.6Z" fill="#3F78BD" fill-opacity="0.6"/>
<path d="M83.3323 3881.44C90.3836 3870.97 72.0609 3843.98 62.5396 3850.63C48.9048 3860.15 54.6905 3873.87 57.5042 3881.15C60.318 3888.42 76.281 3891.92 83.3323 3881.44Z" fill="#3F78BD" fill-opacity="0.7"/>
</g>
<g opacity="0.5">
<path d="M8.72136 3407.75C18.7836 3400.12 10.1832 3368.66 -0.97733 3371.87C-16.9597 3376.46 -15.9274 3391.32 -15.6196 3399.11C-15.3118 3406.9 -1.3409 3415.38 8.72136 3407.75Z" fill="#3F78BD" fill-opacity="0.6"/>
<path d="M-4.24067 3410.81C8.33202 3411.98 23.2314 3382.96 12.8329 3377.79C-2.05813 3370.39 -11.327 3382.05 -16.3613 3388C-21.3955 3393.96 -16.8134 3409.65 -4.24067 3410.81Z" fill="#3F78BD" fill-opacity="0.7"/>
</g>
<g opacity="0.5">
<path d="M224.97 3620.2C223.1 3607.72 191.364 3600.18 188.828 3611.51C185.198 3627.74 198.73 3633.96 205.717 3637.42C212.703 3640.89 226.841 3632.69 224.97 3620.2Z" fill="#3F78BD" fill-opacity="0.6"/>
<path d="M221.442 3633.05C228.493 3622.57 210.171 3595.58 200.649 3602.23C187.015 3611.75 192.8 3625.47 195.614 3632.75C198.428 3640.02 214.391 3643.52 221.442 3633.05Z" fill="#3F78BD" fill-opacity="0.7"/>
</g>
<g opacity="0.5">
<path d="M292.924 3409.87C302.987 3402.25 294.386 3370.78 283.226 3373.99C267.243 3378.58 268.276 3393.44 268.583 3401.23C268.891 3409.02 282.862 3417.5 292.924 3409.87Z" fill="#3F78BD" fill-opacity="0.6"/>
<path d="M279.962 3412.94C292.535 3414.1 307.435 3385.08 297.036 3379.92C282.145 3372.51 272.876 3384.17 267.842 3390.13C262.808 3396.08 267.39 3411.77 279.962 3412.94Z" fill="#3F78BD" fill-opacity="0.7"/>
</g>
<g opacity="0.5">
<path d="M57.7849 3583.86C55.9145 3571.37 24.1782 3563.83 21.6429 3575.17C18.0122 3591.4 31.5448 3597.61 38.5311 3601.08C45.5175 3604.54 59.6552 3596.35 57.7849 3583.86Z" fill="#3F78BD" fill-opacity="0.6"/>
<path d="M54.2566 3596.7C61.3079 3586.23 42.9852 3559.24 33.464 3565.89C19.8291 3575.41 25.6148 3589.13 28.4285 3596.4C31.2423 3603.68 47.2053 3607.18 54.2566 3596.7Z" fill="#3F78BD" fill-opacity="0.7"/>
</g>
<g opacity="0.5">
<path d="M244.672 3245.73C254.734 3238.1 246.134 3206.64 234.973 3209.84C218.991 3214.44 220.023 3229.29 220.331 3237.09C220.639 3244.88 234.61 3253.36 244.672 3245.73Z" fill="#3F78BD" fill-opacity="0.6"/>
<path d="M231.71 3248.79C244.283 3249.96 259.182 3220.94 248.784 3215.77C233.893 3208.37 224.624 3220.02 219.589 3225.98C214.555 3231.94 219.137 3247.62 231.71 3248.79Z" fill="#3F78BD" fill-opacity="0.7"/>
</g>
<g opacity="0.5">
<path d="M192.42 3048.27C202.482 3040.64 193.882 3009.18 182.721 3012.39C166.739 3016.98 167.771 3031.84 168.079 3039.63C168.387 3047.42 182.358 3055.9 192.42 3048.27Z" fill="#3F78BD" fill-opacity="0.6"/>
<path d="M179.458 3051.33C192.031 3052.5 206.93 3023.48 196.532 3018.31C181.641 3010.91 172.372 3022.57 167.337 3028.52C162.303 3034.48 166.885 3050.17 179.458 3051.33Z" fill="#3F78BD" fill-opacity="0.7"/>
</g>
<g opacity="0.5">
<path d="M118.292 3772.3C115.035 3750.55 59.7692 3737.43 55.3541 3757.16C49.0317 3785.42 72.5973 3796.25 84.7633 3802.28C96.9293 3808.32 121.549 3794.04 118.292 3772.3Z" fill="#3F78BD" fill-opacity="0.6"/>
<path d="M112.148 3794.66C124.427 3776.42 92.5198 3729.43 75.9395 3741C52.1958 3757.58 62.271 3781.48 67.1709 3794.14C72.0707 3806.81 99.8686 3812.9 112.148 3794.66Z" fill="#3F78BD" fill-opacity="0.7"/>
</g>
<g opacity="0.5">
<path d="M108.304 3389.17C125.826 3375.89 110.85 3321.09 91.4146 3326.68C63.5831 3334.68 65.3806 3360.55 65.9166 3374.12C66.4526 3387.69 90.7815 3402.45 108.304 3389.17Z" fill="#3F78BD" fill-opacity="0.6"/>
<path d="M85.7322 3394.5C107.626 3396.53 133.572 3346 115.464 3337C89.5329 3324.11 73.3921 3344.41 64.6255 3354.78C55.859 3365.15 63.8382 3392.47 85.7322 3394.5Z" fill="#3F78BD" fill-opacity="0.7"/>
</g>
<g opacity="0.5">
<path d="M56.0524 3191.71C73.5748 3178.43 58.598 3123.63 39.1632 3129.22C11.3316 3137.22 13.1291 3163.09 13.6651 3176.66C14.2011 3190.23 38.53 3204.99 56.0524 3191.71Z" fill="#3F78BD" fill-opacity="0.6"/>
<path d="M33.4808 3197.04C55.3748 3199.07 81.3204 3148.54 63.2126 3139.54C37.2814 3126.65 21.1406 3146.95 12.3741 3157.32C3.6075 3167.69 11.5868 3195.01 33.4808 3197.04Z" fill="#3F78BD" fill-opacity="0.7"/>
</g>
<g opacity="0.5">
<path d="M256.401 3523.9C253.144 3502.16 197.879 3489.03 193.464 3508.77C187.142 3537.02 210.707 3547.85 222.873 3553.88C235.039 3559.92 259.659 3545.65 256.401 3523.9Z" fill="#3F78BD" fill-opacity="0.6"/>
<path d="M250.258 3546.26C262.537 3528.02 230.63 3481.03 214.049 3492.61C190.306 3509.18 200.381 3533.08 205.281 3545.75C210.181 3558.41 237.978 3564.5 250.258 3546.26Z" fill="#3F78BD" fill-opacity="0.7"/>
</g>
<g opacity="0.5">
<path d="M392.507 3391.29C410.029 3378.01 395.053 3323.22 375.618 3328.8C347.786 3336.8 349.584 3362.67 350.12 3376.24C350.656 3389.81 374.985 3404.57 392.507 3391.29Z" fill="#3F78BD" fill-opacity="0.6"/>
<path d="M369.935 3396.62C391.829 3398.65 417.775 3348.12 399.667 3339.12C373.736 3326.23 357.595 3346.53 348.829 3356.9C340.062 3367.27 348.041 3394.59 369.935 3396.62Z" fill="#3F78BD" fill-opacity="0.7"/>
</g>
<g opacity="0.5">
<path d="M89.2159 3487.56C85.9589 3465.81 30.6935 3452.69 26.2785 3472.42C19.956 3500.68 43.5216 3511.5 55.6876 3517.54C67.8536 3523.57 92.473 3509.3 89.2159 3487.56Z" fill="#3F78BD" fill-opacity="0.6"/>
<path d="M83.072 3509.92C95.3511 3491.68 63.4441 3444.69 46.8638 3456.26C23.1202 3472.84 33.1953 3496.74 38.0952 3509.4C42.995 3522.07 70.793 3528.16 83.072 3509.92Z" fill="#3F78BD" fill-opacity="0.7"/>
</g>
<g opacity="0.5">
<path d="M344.255 3227.15C361.777 3213.86 346.8 3159.07 327.365 3164.66C299.534 3172.66 301.331 3198.53 301.867 3212.1C302.403 3225.67 326.732 3240.43 344.255 3227.15Z" fill="#3F78BD" fill-opacity="0.6"/>
<path d="M321.683 3232.48C343.577 3234.51 369.523 3183.98 351.415 3174.98C325.484 3162.09 309.343 3182.38 300.576 3192.76C291.81 3203.13 299.789 3230.44 321.683 3232.48Z" fill="#3F78BD" fill-opacity="0.7"/>
</g>
<g opacity="0.5">
<path d="M292.003 3029.69C309.525 3016.4 294.549 2961.61 275.114 2967.2C247.282 2975.2 249.08 3001.07 249.616 3014.64C250.152 3028.21 274.481 3042.97 292.003 3029.69Z" fill="#3F78BD" fill-opacity="0.6"/>
<path d="M269.431 3035.02C291.325 3037.05 317.271 2986.52 299.163 2977.52C273.232 2964.63 257.091 2984.93 248.325 2995.3C239.558 3005.67 247.537 3032.99 269.431 3035.02Z" fill="#3F78BD" fill-opacity="0.7"/>
</g>
<g opacity="0.5">
<path d="M5.08192 3817.2C4.00395 3810 -14.2872 3805.66 -15.7484 3812.19C-17.8409 3821.54 -10.0415 3825.13 -6.01489 3827.12C-1.98833 3829.12 6.1599 3824.4 5.08192 3817.2Z" fill="#3F78BD" fill-opacity="0.6"/>
<path d="M3.04868 3824.6C7.11266 3818.56 -3.44754 3803.01 -8.93509 3806.84C-16.7935 3812.33 -13.4589 3820.24 -11.8372 3824.43C-10.2155 3828.62 -1.01531 3830.64 3.04868 3824.6Z" fill="#3F78BD" fill-opacity="0.7"/>
</g>
<g opacity="0.5">
<path d="M14.6262 3311.34C20.4255 3306.95 15.4687 3288.81 9.03635 3290.66C-0.175007 3293.31 0.419905 3301.87 0.597301 3306.36C0.774699 3310.85 8.8268 3315.74 14.6262 3311.34Z" fill="#3F78BD" fill-opacity="0.6"/>
<path d="M7.1556 3313.11C14.4018 3313.78 22.989 3297.05 16.9959 3294.08C8.4135 3289.81 3.0714 3296.53 0.169943 3299.96C-2.73151 3303.39 -0.090629 3312.43 7.1556 3313.11Z" fill="#3F78BD" fill-opacity="0.7"/>
</g>
<g opacity="0.5">
<path d="M341.53 3617.61C340.452 3610.41 322.161 3606.07 320.699 3612.6C318.607 3621.95 326.406 3625.53 330.433 3627.53C334.459 3629.53 342.608 3624.81 341.53 3617.61Z" fill="#3F78BD" fill-opacity="0.6"/>
<path d="M339.496 3625.01C343.56 3618.97 333 3603.42 327.512 3607.25C319.654 3612.74 322.988 3620.65 324.61 3624.84C326.232 3629.03 335.432 3631.05 339.496 3625.01Z" fill="#3F78BD" fill-opacity="0.7"/>
</g>
<g opacity="0.5">
<path d="M351.081 3510.92C356.88 3506.53 351.923 3488.39 345.491 3490.24C336.28 3492.89 336.874 3501.45 337.052 3505.94C337.229 3510.43 345.281 3515.32 351.081 3510.92Z" fill="#3F78BD" fill-opacity="0.6"/>
<path d="M343.61 3512.69C350.856 3513.36 359.443 3496.64 353.45 3493.66C344.868 3489.39 339.526 3496.11 336.624 3499.54C333.723 3502.97 336.363 3512.01 343.61 3512.69Z" fill="#3F78BD" fill-opacity="0.7"/>
</g>
<g opacity="0.5">
<path d="M143.192 3568.8C142.114 3561.61 123.823 3557.26 122.361 3563.79C120.269 3573.15 128.068 3576.73 132.095 3578.73C136.122 3580.72 144.27 3576 143.192 3568.8Z" fill="#3F78BD" fill-opacity="0.6"/>
<path d="M141.159 3576.2C145.223 3570.17 134.662 3554.61 129.175 3558.45C121.316 3563.93 124.651 3571.84 126.273 3576.03C127.894 3580.22 137.095 3582.24 141.159 3576.2Z" fill="#3F78BD" fill-opacity="0.7"/>
</g>
<g opacity="0.5">
<path d="M298.829 3313.46C304.628 3309.07 299.671 3290.93 293.239 3292.78C284.028 3295.43 284.623 3303.99 284.8 3308.48C284.977 3312.97 293.029 3317.86 298.829 3313.46Z" fill="#3F78BD" fill-opacity="0.6"/>
<path d="M291.358 3315.23C298.604 3315.9 307.191 3299.18 301.198 3296.2C292.616 3291.93 287.274 3298.65 284.372 3302.08C281.471 3305.52 284.112 3314.56 291.358 3315.23Z" fill="#3F78BD" fill-opacity="0.7"/>
</g>
<g opacity="0.5">
<path d="M250.576 3149.32C256.376 3144.92 251.419 3126.79 244.987 3128.64C235.775 3131.29 236.37 3139.85 236.547 3144.34C236.725 3148.83 244.777 3153.72 250.576 3149.32Z" fill="#3F78BD" fill-opacity="0.6"/>
<path d="M243.106 3151.08C250.352 3151.76 258.939 3135.03 252.946 3132.05C244.364 3127.79 239.022 3134.5 236.12 3137.94C233.219 3141.37 235.86 3150.41 243.106 3151.08Z" fill="#3F78BD" fill-opacity="0.7"/>
</g>
<g opacity="0.5">
<path d="M198.324 2951.86C204.124 2947.47 199.167 2929.33 192.735 2931.18C183.523 2933.83 184.118 2942.39 184.296 2946.88C184.473 2951.37 192.525 2956.26 198.324 2951.86Z" fill="#3F78BD" fill-opacity="0.6"/>
<path d="M190.854 2953.63C198.1 2954.3 206.687 2937.57 200.694 2934.59C192.112 2930.33 186.77 2937.05 183.868 2940.48C180.967 2943.91 183.608 2952.95 190.854 2953.63Z" fill="#3F78BD" fill-opacity="0.7"/>
</g>
</g>
<g opacity="0.5">
<g opacity="0.5">
<path d="M716.721 4321.75C726.784 4314.12 718.183 4282.66 707.023 4285.87C691.04 4290.46 692.073 4305.32 692.38 4313.11C692.688 4320.9 706.659 4329.38 716.721 4321.75Z" fill="#3F78BD" fill-opacity="0.6"/>
<path d="M703.759 4324.81C716.332 4325.98 731.231 4296.96 720.833 4291.79C705.942 4284.39 696.673 4296.05 691.639 4302C686.605 4307.96 691.187 4323.65 703.759 4324.81Z" fill="#3F78BD" fill-opacity="0.7"/>
</g>
<g opacity="0.5">
<path d="M664.47 4124.29C674.532 4116.67 665.932 4085.2 654.771 4088.41C638.789 4093 639.821 4107.86 640.129 4115.65C640.437 4123.44 654.408 4131.92 664.47 4124.29Z" fill="#3F78BD" fill-opacity="0.6"/>
<path d="M651.508 4127.35C664.081 4128.52 678.98 4099.5 668.581 4094.34C653.69 4086.93 644.422 4098.59 639.387 4104.55C634.353 4110.5 638.935 4126.19 651.508 4127.35Z" fill="#3F78BD" fill-opacity="0.7"/>
</g>
<g opacity="0.5">
<path d="M1000.92 4323.87C1010.99 4316.25 1002.39 4284.78 991.226 4287.99C975.243 4292.58 976.276 4307.44 976.583 4315.23C976.891 4323.02 990.862 4331.5 1000.92 4323.87Z" fill="#3F78BD" fill-opacity="0.6"/>
<path d="M987.962 4326.94C1000.54 4328.1 1015.43 4299.08 1005.04 4293.92C990.145 4286.51 980.876 4298.17 975.842 4304.13C970.808 4310.08 975.39 4325.77 987.962 4326.94Z" fill="#3F78BD" fill-opacity="0.7"/>
</g>
<g opacity="0.5">
<path d="M952.672 4159.73C962.734 4152.1 954.134 4120.64 942.973 4123.84C926.991 4128.44 928.023 4143.29 928.331 4151.09C928.639 4158.88 942.61 4167.36 952.672 4159.73Z" fill="#3F78BD" fill-opacity="0.6"/>
<path d="M939.71 4162.79C952.283 4163.96 967.182 4134.94 956.784 4129.77C941.893 4122.37 932.624 4134.02 927.589 4139.98C922.555 4145.94 927.137 4161.62 939.71 4162.79Z" fill="#3F78BD" fill-opacity="0.7"/>
</g>
<g opacity="0.5">
<path d="M900.42 3962.27C910.482 3954.64 901.882 3923.18 890.721 3926.39C874.739 3930.98 875.771 3945.84 876.079 3953.63C876.387 3961.42 890.358 3969.9 900.42 3962.27Z" fill="#3F78BD" fill-opacity="0.6"/>
<path d="M887.458 3965.33C900.031 3966.5 914.93 3937.48 904.532 3932.31C889.641 3924.91 880.372 3936.57 875.337 3942.52C870.303 3948.48 874.885 3964.17 887.458 3965.33Z" fill="#3F78BD" fill-opacity="0.7"/>
</g>
<g opacity="0.5">
<path d="M816.304 4303.17C833.826 4289.89 818.85 4235.09 799.415 4240.68C771.583 4248.68 773.381 4274.55 773.917 4288.12C774.453 4301.69 798.782 4316.45 816.304 4303.17Z" fill="#3F78BD" fill-opacity="0.6"/>
<path d="M793.732 4308.5C815.626 4310.53 841.572 4260 823.464 4251C797.533 4238.11 781.392 4258.41 772.626 4268.78C763.859 4279.15 771.838 4306.47 793.732 4308.5Z" fill="#3F78BD" fill-opacity="0.7"/>
</g>
<g opacity="0.5">
<path d="M764.052 4105.71C781.575 4092.43 766.598 4037.63 747.163 4043.22C719.332 4051.22 721.129 4077.09 721.665 4090.66C722.201 4104.23 746.53 4118.99 764.052 4105.71Z" fill="#3F78BD" fill-opacity="0.6"/>
<path d="M741.481 4111.04C763.375 4113.07 789.32 4062.54 771.213 4053.54C745.281 4040.65 729.141 4060.95 720.374 4071.32C711.607 4081.69 719.587 4109.01 741.481 4111.04Z" fill="#3F78BD" fill-opacity="0.7"/>
</g>
<g opacity="0.5">
<path d="M1100.51 4305.29C1118.03 4292.01 1103.05 4237.22 1083.62 4242.8C1055.79 4250.8 1057.58 4276.67 1058.12 4290.24C1058.66 4303.81 1082.98 4318.57 1100.51 4305.29Z" fill="#3F78BD" fill-opacity="0.6"/>
<path d="M1077.94 4310.62C1099.83 4312.65 1125.78 4262.12 1107.67 4253.12C1081.74 4240.23 1065.6 4260.53 1056.83 4270.9C1048.06 4281.27 1056.04 4308.59 1077.94 4310.62Z" fill="#3F78BD" fill-opacity="0.7"/>
</g>
<g opacity="0.5">
<path d="M791.072 4423.92C803.351 4405.68 771.444 4358.69 754.864 4370.26C731.12 4386.84 741.195 4410.74 746.095 4423.4C750.995 4436.07 778.793 4442.16 791.072 4423.92Z" fill="#3F78BD" fill-opacity="0.7"/>
</g>
<g opacity="0.5">
<path d="M1052.25 4141.15C1069.78 4127.86 1054.8 4073.07 1035.37 4078.66C1007.53 4086.66 1009.33 4112.53 1009.87 4126.1C1010.4 4139.67 1034.73 4154.43 1052.25 4141.15Z" fill="#3F78BD" fill-opacity="0.6"/>
<path d="M1029.68 4146.48C1051.58 4148.51 1077.52 4097.98 1059.41 4088.98C1033.48 4076.09 1017.34 4096.38 1008.58 4106.76C999.81 4117.13 1007.79 4144.44 1029.68 4146.48Z" fill="#3F78BD" fill-opacity="0.7"/>
</g>
<g opacity="0.5">
<path d="M598.878 4352.75C595.621 4331 540.356 4317.88 535.941 4337.61C529.618 4365.87 553.184 4376.7 565.35 4382.73C577.516 4388.77 602.135 4374.5 598.878 4352.75Z" fill="#3F78BD" fill-opacity="0.6"/>
<path d="M592.734 4375.11C605.013 4356.87 573.106 4309.88 556.526 4321.46C532.782 4338.03 542.857 4361.93 547.757 4374.6C552.657 4387.26 580.455 4393.35 592.734 4375.11Z" fill="#3F78BD" fill-opacity="0.7"/>
</g>
<g opacity="0.5">
<path d="M1000 3943.69C1017.53 3930.4 1002.55 3875.61 983.114 3881.2C955.282 3889.2 957.08 3915.07 957.616 3928.64C958.152 3942.21 982.481 3956.97 1000 3943.69Z" fill="#3F78BD" fill-opacity="0.6"/>
<path d="M977.431 3949.02C999.325 3951.05 1025.27 3900.52 1007.16 3891.52C981.232 3878.63 965.091 3898.93 956.325 3909.3C947.558 3919.67 955.537 3946.99 977.431 3949.02Z" fill="#3F78BD" fill-opacity="0.7"/>
</g>
<g opacity="0.5">
<path d="M722.626 4225.34C728.426 4220.95 723.469 4202.81 717.036 4204.66C707.825 4207.31 708.42 4215.87 708.597 4220.36C708.775 4224.85 716.827 4229.74 722.626 4225.34Z" fill="#3F78BD" fill-opacity="0.6"/>
<path d="M715.156 4227.11C722.402 4227.78 730.989 4211.05 724.996 4208.08C716.413 4203.81 711.071 4210.53 708.17 4213.96C705.268 4217.39 707.909 4226.43 715.156 4227.11Z" fill="#3F78BD" fill-opacity="0.7"/>
</g>
<g opacity="0.5">
<path d="M670.374 4027.88C676.174 4023.49 671.217 4005.35 664.784 4007.2C655.573 4009.85 656.168 4018.41 656.345 4022.9C656.523 4027.39 664.575 4032.28 670.374 4027.88Z" fill="#3F78BD" fill-opacity="0.6"/>
<path d="M662.904 4029.65C670.15 4030.32 678.737 4013.6 672.744 4010.62C664.162 4006.35 658.819 4013.07 655.918 4016.5C653.017 4019.93 655.657 4028.98 662.904 4029.65Z" fill="#3F78BD" fill-opacity="0.7"/>
</g>
<g opacity="0.5">
<path d="M1006.83 4227.46C1012.63 4223.07 1007.67 4204.93 1001.24 4206.78C992.028 4209.43 992.623 4217.99 992.8 4222.48C992.977 4226.97 1001.03 4231.86 1006.83 4227.46Z" fill="#3F78BD" fill-opacity="0.6"/>
<path d="M999.358 4229.23C1006.6 4229.9 1015.19 4213.18 1009.2 4210.2C1000.62 4205.93 995.274 4212.65 992.372 4216.08C989.471 4219.52 992.112 4228.56 999.358 4229.23Z" fill="#3F78BD" fill-opacity="0.7"/>
</g>
<g opacity="0.5">
<path d="M958.576 4063.32C964.376 4058.92 959.419 4040.79 952.987 4042.64C943.775 4045.29 944.37 4053.85 944.547 4058.34C944.725 4062.83 952.777 4067.72 958.576 4063.32Z" fill="#3F78BD" fill-opacity="0.6"/>
<path d="M951.106 4065.08C958.352 4065.76 966.939 4049.03 960.946 4046.05C952.364 4041.79 947.022 4048.5 944.12 4051.94C941.219 4055.37 943.86 4064.41 951.106 4065.08Z" fill="#3F78BD" fill-opacity="0.7"/>
</g>
<g opacity="0.5">
<path d="M906.324 3865.86C912.124 3861.47 907.167 3843.33 900.735 3845.18C891.523 3847.83 892.118 3856.39 892.296 3860.88C892.473 3865.37 900.525 3870.26 906.324 3865.86Z" fill="#3F78BD" fill-opacity="0.6"/>
<path d="M898.854 3867.63C906.1 3868.3 914.687 3851.57 908.694 3848.59C900.112 3844.33 894.77 3851.05 891.868 3854.48C888.967 3857.91 891.608 3866.95 898.854 3867.63Z" fill="#3F78BD" fill-opacity="0.7"/>
</g>
</g>
<rect y="-2604" width="2598" height="24000" fill="#3F78BD" fill-opacity="0.3"/>
<path d="M280.371 1256L273.34 1229.24H226.953L219.727 1256H177.344L223.926 1112.64H275.391L322.559 1256H280.371ZM265.332 1197.6L259.18 1174.16C257.747 1168.96 255.99 1162.22 253.906 1153.95C251.888 1145.68 250.553 1139.76 249.902 1136.18C249.316 1139.5 248.145 1144.96 246.387 1152.58C244.694 1160.2 240.885 1175.21 234.961 1197.6H265.332ZM264.063 1414.82C254.883 1414.82 247.721 1418.59 242.578 1426.14C237.435 1433.63 234.863 1443.98 234.863 1457.2C234.863 1484.67 245.313 1498.41 266.211 1498.41C272.526 1498.41 278.646 1497.53 284.57 1495.77C290.495 1494.02 296.452 1491.9 302.441 1489.43V1522.04C290.527 1527.32 277.051 1529.95 262.012 1529.95C240.462 1529.95 223.926 1523.7 212.402 1511.2C200.944 1498.7 195.215 1480.64 195.215 1457C195.215 1442.23 197.982 1429.24 203.516 1418.04C209.115 1406.84 217.122 1398.25 227.539 1392.26C238.021 1386.2 250.326 1383.18 264.453 1383.18C279.883 1383.18 294.629 1386.53 308.691 1393.23L296.875 1423.61C291.602 1421.13 286.328 1419.05 281.055 1417.36C275.781 1415.66 270.117 1414.82 264.063 1414.82ZM264.063 1686.82C254.883 1686.82 247.721 1690.59 242.578 1698.14C237.435 1705.63 234.863 1715.98 234.863 1729.2C234.863 1756.67 245.313 1770.41 266.211 1770.41C272.526 1770.41 278.646 1769.53 284.57 1767.77C290.495 1766.02 296.452 1763.9 302.441 1761.43V1794.04C290.527 1799.32 277.051 1801.95 262.012 1801.95C240.462 1801.95 223.926 1795.7 212.402 1783.2C200.944 1770.7 195.215 1752.64 195.215 1729C195.215 1714.23 197.982 1701.24 203.516 1690.04C209.115 1678.84 217.122 1670.25 227.539 1664.26C238.021 1658.2 250.326 1655.18 264.453 1655.18C279.883 1655.18 294.629 1658.53 308.691 1665.23L296.875 1695.61C291.602 1693.13 286.328 1691.05 281.055 1689.36C275.781 1687.66 270.117 1686.82 264.063 1686.82ZM295.313 2072H210.547L210.547 1929.23H295.313V1960.18H249.121L249.121 1982.64H291.895V2013.6H249.121V2040.55H295.313V2072ZM301.074 2300.64C301.074 2309.49 298.828 2317.37 294.336 2324.27C289.844 2331.11 283.366 2336.45 274.902 2340.29C266.439 2344.07 256.51 2345.95 245.117 2345.95C235.612 2345.95 227.637 2345.3 221.191 2344C214.746 2342.63 208.04 2340.29 201.074 2336.97V2302.59C208.431 2306.37 216.081 2309.33 224.023 2311.48C231.966 2313.56 239.258 2314.61 245.898 2314.61C251.628 2314.61 255.827 2313.63 258.496 2311.68C261.165 2309.66 262.5 2307.09 262.5 2303.96C262.5 2302.01 261.947 2300.32 260.84 2298.88C259.798 2297.39 258.073 2295.89 255.664 2294.39C253.32 2292.89 247.005 2289.83 236.719 2285.21C227.409 2280.98 220.41 2276.88 215.723 2272.91C211.1 2268.93 207.65 2264.38 205.371 2259.23C203.158 2254.09 202.051 2248 202.051 2240.97C202.051 2227.82 206.836 2217.57 216.406 2210.21C225.977 2202.85 239.128 2199.18 255.859 2199.18C270.638 2199.18 285.71 2202.59 301.074 2209.43L289.258 2239.21C275.911 2233.1 264.388 2230.04 254.688 2230.04C249.674 2230.04 246.029 2230.91 243.75 2232.67C241.471 2234.43 240.332 2236.61 240.332 2239.21C240.332 2242.01 241.764 2244.52 244.629 2246.73C247.559 2248.95 255.436 2252.98 268.262 2258.84C280.566 2264.38 289.095 2270.33 293.848 2276.71C298.665 2283.03 301.074 2291.01 301.074 2300.64ZM301.074 2572.64C301.074 2581.49 298.828 2589.37 294.336 2596.27C289.844 2603.11 283.366 2608.45 274.902 2612.29C266.439 2616.07 256.51 2617.95 245.117 2617.95C235.612 2617.95 227.637 2617.3 221.191 2616C214.746 2614.63 208.04 2612.29 201.074 2608.97V2574.59C208.431 2578.37 216.081 2581.33 224.023 2583.48C231.966 2585.56 239.258 2586.61 245.898 2586.61C251.628 2586.61 255.827 2585.63 258.496 2583.68C261.165 2581.66 262.5 2579.09 262.5 2575.96C262.5 2574.01 261.947 2572.32 260.84 2570.88C259.798 2569.39 258.073 2567.89 255.664 2566.39C253.32 2564.89 247.005 2561.83 236.719 2557.21C227.409 2552.98 220.41 2548.88 215.723 2544.91C211.1 2540.93 207.65 2536.38 205.371 2531.23C203.158 2526.09 202.051 2520 202.051 2512.97C202.051 2499.82 206.836 2489.57 216.406 2482.21C225.977 2474.85 239.128 2471.18 255.859 2471.18C270.638 2471.18 285.71 2474.59 301.074 2481.43L289.258 2511.21C275.911 2505.1 264.388 2502.04 254.688 2502.04C249.674 2502.04 246.029 2502.91 243.75 2504.67C241.471 2506.43 240.332 2508.61 240.332 2511.21C240.332 2514.01 241.764 2516.52 244.629 2518.73C247.559 2520.95 255.436 2524.98 268.262 2530.84C280.566 2536.38 289.095 2542.33 293.848 2548.71C298.665 2555.03 301.074 2563.01 301.074 2572.64Z" fill="#3F78BD" fill-opacity="0.15"/>
<path d="M2267.37 2944L2260.34 2917.24H2213.95L2206.73 2944H2164.34L2210.93 2800.64H2262.39L2309.56 2944H2267.37ZM2252.33 2885.6L2246.18 2862.16C2244.75 2856.96 2242.99 2850.22 2240.91 2841.95C2238.89 2833.68 2237.55 2827.76 2236.9 2824.18C2236.32 2827.5 2235.14 2832.96 2233.39 2840.58C2231.69 2848.2 2227.89 2863.21 2221.96 2885.6H2252.33ZM2251.06 3102.82C2241.88 3102.82 2234.72 3106.59 2229.58 3114.14C2224.43 3121.63 2221.86 3131.98 2221.86 3145.2C2221.86 3172.67 2232.31 3186.41 2253.21 3186.41C2259.53 3186.41 2265.65 3185.53 2271.57 3183.77C2277.49 3182.02 2283.45 3179.9 2289.44 3177.43V3210.04C2277.53 3215.32 2264.05 3217.95 2249.01 3217.95C2227.46 3217.95 2210.93 3211.7 2199.4 3199.2C2187.94 3186.7 2182.21 3168.64 2182.21 3145C2182.21 3130.23 2184.98 3117.24 2190.52 3106.04C2196.11 3094.84 2204.12 3086.25 2214.54 3080.26C2225.02 3074.2 2237.33 3071.18 2251.45 3071.18C2266.88 3071.18 2281.63 3074.53 2295.69 3081.23L2283.88 3111.61C2278.6 3109.13 2273.33 3107.05 2268.05 3105.36C2262.78 3103.66 2257.12 3102.82 2251.06 3102.82ZM2251.06 3374.82C2241.88 3374.82 2234.72 3378.59 2229.58 3386.14C2224.43 3393.63 2221.86 3403.98 2221.86 3417.2C2221.86 3444.67 2232.31 3458.41 2253.21 3458.41C2259.53 3458.41 2265.65 3457.53 2271.57 3455.77C2277.49 3454.02 2283.45 3451.9 2289.44 3449.43V3482.04C2277.53 3487.32 2264.05 3489.95 2249.01 3489.95C2227.46 3489.95 2210.93 3483.7 2199.4 3471.2C2187.94 3458.7 2182.21 3440.64 2182.21 3417C2182.21 3402.23 2184.98 3389.24 2190.52 3378.04C2196.11 3366.84 2204.12 3358.25 2214.54 3352.26C2225.02 3346.2 2237.33 3343.18 2251.45 3343.18C2266.88 3343.18 2281.63 3346.53 2295.69 3353.23L2283.88 3383.61C2278.6 3381.13 2273.33 3379.05 2268.05 3377.36C2262.78 3375.66 2257.12 3374.82 2251.06 3374.82ZM2282.31 3760H2197.55V3617.23H2282.31V3648.18H2236.12V3670.64H2278.89V3701.6H2236.12V3728.55H2282.31V3760ZM2288.07 3988.64C2288.07 3997.49 2285.83 4005.37 2281.34 4012.27C2276.84 4019.11 2270.37 4024.45 2261.9 4028.29C2253.44 4032.07 2243.51 4033.95 2232.12 4033.95C2222.61 4033.95 2214.64 4033.3 2208.19 4032C2201.75 4030.63 2195.04 4028.29 2188.07 4024.97V3990.59C2195.43 3994.37 2203.08 3997.33 2211.02 3999.48C2218.97 4001.56 2226.26 4002.61 2232.9 4002.61C2238.63 4002.61 2242.83 4001.63 2245.5 3999.68C2248.17 3997.66 2249.5 3995.09 2249.5 3991.96C2249.5 3990.01 2248.95 3988.32 2247.84 3986.88C2246.8 3985.39 2245.07 3983.89 2242.66 3982.39C2240.32 3980.89 2234.01 3977.83 2223.72 3973.21C2214.41 3968.98 2207.41 3964.88 2202.72 3960.91C2198.1 3956.93 2194.65 3952.38 2192.37 3947.23C2190.16 3942.09 2189.05 3936 2189.05 3928.97C2189.05 3915.82 2193.84 3905.57 2203.41 3898.21C2212.98 3890.85 2226.13 3887.18 2242.86 3887.18C2257.64 3887.18 2272.71 3890.59 2288.07 3897.43L2276.26 3927.21C2262.91 3921.1 2251.39 3918.04 2241.69 3918.04C2236.67 3918.04 2233.03 3918.91 2230.75 3920.67C2228.47 3922.43 2227.33 3924.61 2227.33 3927.21C2227.33 3930.01 2228.76 3932.52 2231.63 3934.73C2234.56 3936.95 2242.44 3940.98 2255.26 3946.84C2267.57 3952.38 2276.1 3958.33 2280.85 3964.71C2285.67 3971.03 2288.07 3979.01 2288.07 3988.64ZM2288.07 4260.64C2288.07 4269.49 2285.83 4277.37 2281.34 4284.27C2276.84 4291.11 2270.37 4296.45 2261.9 4300.29C2253.44 4304.07 2243.51 4305.95 2232.12 4305.95C2222.61 4305.95 2214.64 4305.3 2208.19 4304C2201.75 4302.63 2195.04 4300.29 2188.07 4296.97V4262.59C2195.43 4266.37 2203.08 4269.33 2211.02 4271.48C2218.97 4273.56 2226.26 4274.61 2232.9 4274.61C2238.63 4274.61 2242.83 4273.63 2245.5 4271.68C2248.17 4269.66 2249.5 4267.09 2249.5 4263.96C2249.5 4262.01 2248.95 4260.32 2247.84 4258.88C2246.8 4257.39 2245.07 4255.89 2242.66 4254.39C2240.32 4252.89 2234.01 4249.83 2223.72 4245.21C2214.41 4240.98 2207.41 4236.88 2202.72 4232.91C2198.1 4228.93 2194.65 4224.38 2192.37 4219.23C2190.16 4214.09 2189.05 4208 2189.05 4200.97C2189.05 4187.82 2193.84 4177.57 2203.41 4170.21C2212.98 4162.85 2226.13 4159.18 2242.86 4159.18C2257.64 4159.18 2272.71 4162.59 2288.07 4169.43L2276.26 4199.21C2262.91 4193.1 2251.39 4190.04 2241.69 4190.04C2236.67 4190.04 2233.03 4190.91 2230.75 4192.67C2228.47 4194.43 2227.33 4196.61 2227.33 4199.21C2227.33 4202.01 2228.76 4204.52 2231.63 4206.73C2234.56 4208.95 2242.44 4212.98 2255.26 4218.84C2267.57 4224.38 2276.1 4230.33 2280.85 4236.71C2285.67 4243.03 2288.07 4251.01 2288.07 4260.64Z" fill="#3F78BD" fill-opacity="0.15"/>
<g opacity="0.5">
<path d="M-40.5 3164.5V2410H2598V3693.5L-40.5 3164.5Z" fill="white"/>
<path d="M-40.5 3255V2500.5H2598V3784L-40.5 3255Z" fill="white"/>
</g>
<g opacity="0.5">
<g opacity="0.5">
<path d="M801.861 423.601C799.99 411.114 768.254 403.577 765.719 414.909C762.088 431.138 775.62 437.354 782.607 440.819C789.593 444.285 803.731 436.088 801.861 423.601Z" fill="#3F78BD" fill-opacity="0.6"/>
<path d="M798.332 436.443C805.384 425.969 787.061 398.982 777.54 405.63C763.905 415.15 769.69 428.872 772.504 436.145C775.318 443.419 791.281 446.918 798.332 436.443Z" fill="#3F78BD" fill-opacity="0.7"/>
</g>
<g opacity="0.5">
<path d="M603.523 374.795C601.652 362.308 569.916 354.772 567.381 366.104C563.75 382.332 577.283 388.548 584.269 392.014C591.255 395.479 605.393 387.283 603.523 374.795Z" fill="#3F78BD" fill-opacity="0.6"/>
<path d="M599.994 387.638C607.046 377.163 588.723 350.177 579.202 356.824C565.567 366.344 571.353 380.066 574.166 387.34C576.98 394.613 592.943 398.112 599.994 387.638Z" fill="#3F78BD" fill-opacity="0.7"/>
</g>
<g opacity="0.5">
<path d="M939.97 175.203C938.1 162.716 906.364 155.179 903.828 166.512C900.198 182.74 913.73 188.956 920.717 192.422C927.703 195.887 941.841 187.691 939.97 175.203Z" fill="#3F78BD" fill-opacity="0.6"/>
<path d="M936.442 188.046C943.493 177.571 925.171 150.585 915.649 157.232C902.015 166.752 907.8 180.474 910.614 187.748C913.428 195.021 929.391 198.52 936.442 188.046Z" fill="#3F78BD" fill-opacity="0.7"/>
</g>
<g opacity="0.5">
<path d="M772.785 138.859C770.914 126.371 739.178 118.835 736.643 130.167C733.012 146.395 746.545 152.611 753.531 156.077C760.517 159.543 774.655 151.346 772.785 138.859Z" fill="#3F78BD" fill-opacity="0.6"/>
<path d="M769.257 151.701C776.308 141.227 757.985 114.24 748.464 120.888C734.829 130.408 740.615 144.13 743.429 151.403C746.242 158.677 762.205 162.175 769.257 151.701Z" fill="#3F78BD" fill-opacity="0.7"/>
</g>
<g opacity="0.5">
<path d="M574.447 90.053C572.577 77.5655 540.84 70.0291 538.305 81.3613C534.674 97.5894 548.207 103.806 555.193 107.271C562.18 110.737 576.317 102.54 574.447 90.053Z" fill="#3F78BD" fill-opacity="0.6"/>
<path d="M570.919 102.895C577.97 92.4208 559.647 65.4344 550.126 72.082C536.491 81.6018 542.277 95.324 545.091 102.597C547.904 109.871 563.867 113.37 570.919 102.895Z" fill="#3F78BD" fill-opacity="0.7"/>
</g>
<g opacity="0.5">
<path d="M833.292 327.298C830.035 305.553 774.769 292.429 770.354 312.163C764.032 340.422 787.597 351.247 799.763 357.282C811.929 363.317 836.549 349.044 833.292 327.298Z" fill="#3F78BD" fill-opacity="0.6"/>
<path d="M827.148 349.662C839.427 331.422 807.52 284.428 790.939 296.005C767.196 312.582 777.271 336.478 782.171 349.144C787.071 361.81 814.869 367.903 827.148 349.662Z" fill="#3F78BD" fill-opacity="0.7"/>
</g>
<g opacity="0.5">
<path d="M634.954 278.493C631.697 256.747 576.431 243.623 572.016 263.357C565.694 291.617 589.259 302.441 601.425 308.477C613.591 314.512 638.211 300.238 634.954 278.493Z" fill="#3F78BD" fill-opacity="0.6"/>
<path d="M628.81 300.857C641.089 282.617 609.182 235.623 592.602 247.199C568.858 263.776 578.933 287.672 583.833 300.338C588.733 313.004 616.531 319.097 628.81 300.857Z" fill="#3F78BD" fill-opacity="0.7"/>
</g>
<g opacity="0.5">
<path d="M971.401 78.9007C968.144 57.1552 912.879 44.0312 908.464 63.765C902.142 92.0246 925.707 102.85 937.873 108.885C950.039 114.92 974.659 100.646 971.401 78.9007Z" fill="#3F78BD" fill-opacity="0.6"/>
<path d="M965.258 101.265C977.537 83.0247 945.63 36.0306 929.049 47.6068C905.306 64.1844 915.381 88.0802 920.281 100.746C925.181 113.412 952.978 119.505 965.258 101.265Z" fill="#3F78BD" fill-opacity="0.7"/>
</g>
<g opacity="0.5">
<path d="M804.216 42.5559C800.959 20.8104 745.693 7.68651 741.278 27.4203C734.956 55.6799 758.522 66.5048 770.688 72.5399C782.854 78.575 807.473 64.3015 804.216 42.5559Z" fill="#3F78BD" fill-opacity="0.6"/>
<path d="M798.072 64.92C810.351 46.68 778.444 -0.314148 761.864 11.2621C738.12 27.8397 748.195 51.7354 753.095 64.4014C757.995 77.0673 785.793 83.1601 798.072 64.92Z" fill="#3F78BD" fill-opacity="0.7"/>
</g>
<g opacity="0.5">
<path d="M605.878 -6.24975C602.621 -27.9953 547.356 -41.1192 542.941 -21.3854C536.618 6.8742 560.184 17.6991 572.35 23.7342C584.516 29.7693 609.135 15.4958 605.878 -6.24975Z" fill="#3F78BD" fill-opacity="0.6"/>
<path d="M599.734 16.1143C612.013 -2.12573 580.106 -49.1198 563.526 -37.5436C539.782 -20.966 549.857 2.92975 554.757 15.5957C559.657 28.2616 587.455 34.3544 599.734 16.1143Z" fill="#3F78BD" fill-opacity="0.7"/>
</g>
<g opacity="0.5">
<path d="M720.082 372.2C719.004 365.003 700.713 360.66 699.252 367.191C697.159 376.544 704.959 380.127 708.985 382.124C713.012 384.121 721.16 379.397 720.082 372.2Z" fill="#3F78BD" fill-opacity="0.6"/>
<path d="M718.049 379.602C722.113 373.565 711.552 358.011 706.065 361.843C698.207 367.329 701.541 375.238 703.163 379.43C704.784 383.622 713.985 385.639 718.049 379.602Z" fill="#3F78BD" fill-opacity="0.7"/>
</g>
<g opacity="0.5">
<path d="M1056.53 172.608C1055.45 165.411 1037.16 161.067 1035.7 167.599C1033.61 176.952 1041.41 180.534 1045.43 182.532C1049.46 184.529 1057.61 179.805 1056.53 172.608Z" fill="#3F78BD" fill-opacity="0.6"/>
<path d="M1054.5 180.01C1058.56 173.973 1048 158.419 1042.51 162.251C1034.65 167.737 1037.99 175.646 1039.61 179.838C1041.23 184.03 1050.43 186.047 1054.5 180.01Z" fill="#3F78BD" fill-opacity="0.7"/>
</g>
<g opacity="0.5">
<path d="M1066.08 65.9235C1071.88 61.5272 1066.92 43.3927 1060.49 45.2414C1051.28 47.8888 1051.87 56.4512 1052.05 60.9424C1052.23 65.4337 1060.28 70.3198 1066.08 65.9235Z" fill="#3F78BD" fill-opacity="0.6"/>
<path d="M1058.61 67.6873C1065.86 68.3598 1074.44 51.6358 1068.45 48.6567C1059.87 44.3905 1054.53 51.1084 1051.62 54.5412C1048.72 57.9741 1051.36 67.0149 1058.61 67.6873Z" fill="#3F78BD" fill-opacity="0.7"/>
</g>
<g opacity="0.5">
<path d="M521.744 323.395C520.666 316.197 502.375 311.854 500.914 318.385C498.821 327.738 506.621 331.321 510.647 333.318C514.674 335.316 522.822 330.592 521.744 323.395Z" fill="#3F78BD" fill-opacity="0.6"/>
<path d="M519.711 330.796C523.775 324.759 513.215 309.206 507.727 313.037C499.869 318.524 503.203 326.433 504.825 330.625C506.447 334.817 515.647 336.833 519.711 330.796Z" fill="#3F78BD" fill-opacity="0.7"/>
</g>
<g opacity="0.5">
<path d="M858.192 123.802C857.114 116.605 838.823 112.262 837.361 118.793C835.269 128.146 843.068 131.729 847.095 133.726C851.122 135.724 859.27 131 858.192 123.802Z" fill="#3F78BD" fill-opacity="0.6"/>
<path d="M856.159 131.204C860.223 125.167 849.662 109.614 844.175 113.445C836.316 118.932 839.651 126.841 841.273 131.033C842.894 135.225 852.095 137.241 856.159 131.204Z" fill="#3F78BD" fill-opacity="0.7"/>
</g>
<g opacity="0.5">
<path d="M691.006 87.4578C689.928 80.2607 671.637 75.9171 670.176 82.4483C668.083 91.8014 675.883 95.3841 679.909 97.3815C683.936 99.3789 692.084 94.6548 691.006 87.4578Z" fill="#3F78BD" fill-opacity="0.6"/>
<path d="M688.973 94.8595C693.037 88.8226 682.477 73.269 676.989 77.1004C669.131 82.587 672.465 90.4958 674.087 94.6878C675.709 98.8798 684.909 100.896 688.973 94.8595Z" fill="#3F78BD" fill-opacity="0.7"/>
</g>
<g opacity="0.5">
<path d="M492.668 38.6521C491.59 31.455 473.299 27.1114 471.838 33.6427C469.745 42.9957 477.545 46.5784 481.572 48.5758C485.598 50.5732 493.746 45.8492 492.668 38.6521Z" fill="#3F78BD" fill-opacity="0.6"/>
<path d="M490.635 46.0538C494.699 40.0169 484.139 24.4633 478.651 28.2947C470.793 33.7814 474.127 41.6901 475.749 45.8821C477.371 50.0741 486.571 52.0907 490.635 46.0538Z" fill="#3F78BD" fill-opacity="0.7"/>
</g>
</g>
<g clip-path="url(#clip1)">
<path d="M457.935 972.33C457.92 972.015 457.895 971.702 457.856 971.391L450.357 907.325C449.927 903.64 448.052 900.276 445.151 897.967L415.253 874.186L409.605 836.4C409.078 832.883 407.241 829.7 404.458 827.484L374.558 803.7L368.912 765.917C368.386 762.403 366.547 759.216 363.766 757.004L342.054 739.73C367.569 703.614 370.124 655.9 347.496 616.707C315.955 562.076 245.847 543.289 191.215 574.832C136.582 606.374 117.798 676.482 149.339 731.113C172.919 771.955 217.984 793.672 263.884 787.295L383.394 994.292C394.414 1013.38 418.91 1019.94 437.999 1008.92C451.039 1001.39 458.68 987.371 457.935 972.33V972.33ZM407.718 980.25L283.253 764.67C280.162 759.316 273.933 756.614 267.913 758.011C230.671 766.66 192.795 750.207 173.663 717.07C149.865 675.851 164.04 622.955 205.259 599.157C246.478 575.359 299.373 589.532 323.171 630.751C342.164 663.649 337.646 704.5 311.927 732.405C309.284 735.275 307.951 739.114 308.251 743.004C308.55 746.897 310.457 750.488 313.509 752.914L341.95 775.539L347.596 813.322C348.121 816.837 349.961 820.023 352.743 822.237L382.643 846.021L388.291 883.808C388.817 887.324 390.658 890.508 393.438 892.723L423.132 916.343L429.892 974.101C429.97 978.428 427.719 982.427 423.952 984.602C418.276 987.876 410.994 985.925 407.718 980.25V980.25Z" fill="#3F78BD" fill-opacity="0.15"/>
<path d="M268.834 636.093C258.746 618.62 236.324 612.612 218.852 622.7C201.38 632.788 195.372 655.209 205.459 672.682C215.547 690.154 237.969 696.162 255.441 686.074C272.914 675.986 278.92 653.563 268.834 636.093V636.093ZM229.785 658.637C227.441 654.579 228.837 649.369 232.896 647.025C236.955 644.682 242.165 646.078 244.508 650.137C246.852 654.196 245.456 659.406 241.397 661.749C237.338 664.092 232.128 662.696 229.785 658.637Z" fill="#3F78BD" fill-opacity="0.15"/>
</g>
<g clip-path="url(#clip2)">
<path d="M1964.94 3767.33C1964.92 3767.01 1964.9 3766.7 1964.86 3766.39L1957.36 3702.33C1956.93 3698.64 1955.05 3695.28 1952.15 3692.97L1922.25 3669.19L1916.61 3631.4C1916.08 3627.88 1914.24 3624.7 1911.46 3622.48L1881.56 3598.7L1875.91 3560.92C1875.39 3557.4 1873.55 3554.22 1870.77 3552L1849.06 3534.73C1874.57 3498.61 1877.12 3450.9 1854.5 3411.71C1822.96 3357.08 1752.85 3338.29 1698.22 3369.83C1643.58 3401.37 1624.8 3471.48 1656.34 3526.11C1679.92 3566.95 1724.99 3588.67 1770.88 3582.29L1890.39 3789.29C1901.42 3808.38 1925.91 3814.94 1945 3803.92C1958.04 3796.39 1965.68 3782.37 1964.94 3767.33V3767.33ZM1914.72 3775.25L1790.25 3559.67C1787.16 3554.32 1780.93 3551.61 1774.91 3553.01C1737.67 3561.66 1699.8 3545.21 1680.66 3512.07C1656.87 3470.85 1671.04 3417.95 1712.26 3394.16C1753.48 3370.36 1806.37 3384.53 1830.17 3425.75C1849.17 3458.65 1844.65 3499.5 1818.93 3527.41C1816.28 3530.27 1814.95 3534.11 1815.25 3538C1815.55 3541.9 1817.46 3545.49 1820.51 3547.91L1848.95 3570.54L1854.6 3608.32C1855.12 3611.84 1856.96 3615.02 1859.74 3617.24L1889.64 3641.02L1895.29 3678.81C1895.82 3682.32 1897.66 3685.51 1900.44 3687.72L1930.13 3711.34L1936.89 3769.1C1936.97 3773.43 1934.72 3777.43 1930.95 3779.6C1925.28 3782.88 1918 3780.92 1914.72 3775.25V3775.25Z" fill="#3F78BD" fill-opacity="0.15"/>
<path d="M1775.83 3431.09C1765.75 3413.62 1743.33 3407.61 1725.85 3417.7C1708.38 3427.79 1702.37 3450.21 1712.46 3467.68C1722.55 3485.15 1744.97 3491.16 1762.44 3481.07C1779.91 3470.99 1785.92 3448.56 1775.83 3431.09V3431.09ZM1736.79 3453.64C1734.44 3449.58 1735.84 3444.37 1739.9 3442.03C1743.96 3439.68 1749.17 3441.08 1751.51 3445.14C1753.85 3449.2 1752.46 3454.41 1748.4 3456.75C1744.34 3459.09 1739.13 3457.7 1736.79 3453.64Z" fill="#3F78BD" fill-opacity="0.15"/>
</g>
</g>
<defs>
<clipPath id="clip0">
<rect width="2600" height="4366" fill="white"/>
</clipPath>
<clipPath id="clip1">
<rect width="499.326" height="499.326" fill="white" transform="translate(407.429 450) rotate(60)"/>
</clipPath>
<clipPath id="clip2">
<rect width="499.326" height="499.326" fill="white" transform="translate(1914.43 3245) rotate(60)"/>
</clipPath>
</defs>
</svg>
