<svg width="2600" height="4366" viewBox="0 0 2600 4366" fill="none" xmlns="http://www.w3.org/2000/svg">
<g clip-path="url(#clip0)">
<rect width="2600" height="4366" fill="white"/>
<rect width="1440" height="24000" fill="white"/>
<g opacity="0.5">
<g opacity="0.5">
<path d="M2334.86 2259.6C2332.99 2247.11 2301.25 2239.58 2298.72 2250.91C2295.09 2267.14 2308.62 2273.35 2315.61 2276.82C2322.59 2280.28 2336.73 2272.09 2334.86 2259.6Z" fill="#D9C404" fill-opacity="0.6"/>
<path d="M2331.33 2272.44C2338.38 2261.97 2320.06 2234.98 2310.54 2241.63C2296.91 2251.15 2302.69 2264.87 2305.5 2272.15C2308.32 2279.42 2324.28 2282.92 2331.33 2272.44Z" fill="#D9C404" fill-opacity="0.7"/>
</g>
<g opacity="0.5">
<path d="M2256.72 1798.75C2266.78 1791.12 2258.18 1759.66 2247.02 1762.87C2231.04 1767.46 2232.07 1782.32 2232.38 1790.11C2232.69 1797.9 2246.66 1806.38 2256.72 1798.75Z" fill="#D9C404" fill-opacity="0.6"/>
<path d="M2243.76 1801.81C2256.33 1802.98 2271.23 1773.96 2260.83 1768.79C2245.94 1761.39 2236.67 1773.05 2231.64 1779C2226.6 1784.96 2231.19 1800.65 2243.76 1801.81Z" fill="#D9C404" fill-opacity="0.7"/>
</g>
<g opacity="0.5">
<path d="M2136.52 2210.8C2134.65 2198.31 2102.92 2190.77 2100.38 2202.1C2096.75 2218.33 2110.28 2224.55 2117.27 2228.01C2124.25 2231.48 2138.39 2223.28 2136.52 2210.8Z" fill="#D9C404" fill-opacity="0.6"/>
<path d="M2132.99 2223.64C2140.05 2213.16 2121.72 2186.18 2112.2 2192.82C2098.57 2202.34 2104.35 2216.07 2107.17 2223.34C2109.98 2230.61 2125.94 2234.11 2132.99 2223.64Z" fill="#D9C404" fill-opacity="0.7"/>
</g>
<g opacity="0.5">
<path d="M2204.47 1601.29C2214.53 1593.67 2205.93 1562.2 2194.77 1565.41C2178.79 1570 2179.82 1584.86 2180.13 1592.65C2180.44 1600.44 2194.41 1608.92 2204.47 1601.29Z" fill="#D9C404" fill-opacity="0.6"/>
<path d="M2191.51 1604.35C2204.08 1605.52 2218.98 1576.5 2208.58 1571.34C2193.69 1563.93 2184.42 1575.59 2179.39 1581.55C2174.35 1587.5 2178.94 1603.19 2191.51 1604.35Z" fill="#D9C404" fill-opacity="0.7"/>
</g>
<g opacity="0.5">
<path d="M2472.97 2011.2C2471.1 1998.72 2439.36 1991.18 2436.83 2002.51C2433.2 2018.74 2446.73 2024.96 2453.72 2028.42C2460.7 2031.89 2474.84 2023.69 2472.97 2011.2Z" fill="#D9C404" fill-opacity="0.6"/>
<path d="M2469.44 2024.05C2476.49 2013.57 2458.17 1986.58 2448.65 1993.23C2435.01 2002.75 2440.8 2016.47 2443.61 2023.75C2446.43 2031.02 2462.39 2034.52 2469.44 2024.05Z" fill="#D9C404" fill-opacity="0.7"/>
</g>
<g opacity="0.5">
<path d="M2540.92 1800.87C2550.99 1793.25 2542.39 1761.78 2531.23 1764.99C2515.24 1769.58 2516.28 1784.44 2516.58 1792.23C2516.89 1800.02 2530.86 1808.5 2540.92 1800.87Z" fill="#D9C404" fill-opacity="0.6"/>
<path d="M2527.96 1803.94C2540.54 1805.1 2555.43 1776.08 2545.04 1770.92C2530.14 1763.51 2520.88 1775.17 2515.84 1781.13C2510.81 1787.08 2515.39 1802.77 2527.96 1803.94Z" fill="#D9C404" fill-opacity="0.7"/>
</g>
<g opacity="0.5">
<path d="M2305.78 1974.86C2303.91 1962.37 2272.18 1954.83 2269.64 1966.17C2266.01 1982.4 2279.54 1988.61 2286.53 1992.08C2293.52 1995.54 2307.66 1987.35 2305.78 1974.86Z" fill="#D9C404" fill-opacity="0.6"/>
<path d="M2302.26 1987.7C2309.31 1977.23 2290.99 1950.24 2281.46 1956.89C2267.83 1966.41 2273.61 1980.13 2276.43 1987.4C2279.24 1994.68 2295.21 1998.18 2302.26 1987.7Z" fill="#D9C404" fill-opacity="0.7"/>
</g>
<g opacity="0.5">
<path d="M2492.67 1636.73C2502.73 1629.1 2494.13 1597.64 2482.97 1600.84C2466.99 1605.44 2468.02 1620.29 2468.33 1628.09C2468.64 1635.88 2482.61 1644.36 2492.67 1636.73Z" fill="#D9C404" fill-opacity="0.6"/>
<path d="M2479.71 1639.79C2492.28 1640.96 2507.18 1611.94 2496.78 1606.77C2481.89 1599.37 2472.62 1611.02 2467.59 1616.98C2462.56 1622.94 2467.14 1638.62 2479.71 1639.79Z" fill="#D9C404" fill-opacity="0.7"/>
</g>
<g opacity="0.5">
<path d="M2107.45 1926.05C2105.58 1913.57 2073.84 1906.03 2071.3 1917.36C2067.67 1933.59 2081.21 1939.81 2088.19 1943.27C2095.18 1946.74 2109.32 1938.54 2107.45 1926.05Z" fill="#D9C404" fill-opacity="0.6"/>
<path d="M2103.92 1938.9C2110.97 1928.42 2092.65 1901.43 2083.13 1908.08C2069.49 1917.6 2075.28 1931.32 2078.09 1938.6C2080.9 1945.87 2096.87 1949.37 2103.92 1938.9Z" fill="#D9C404" fill-opacity="0.7"/>
</g>
<g opacity="0.5">
<path d="M2440.42 1439.27C2450.48 1431.64 2441.88 1400.18 2430.72 1403.39C2414.74 1407.98 2415.77 1422.84 2416.08 1430.63C2416.39 1438.42 2430.36 1446.9 2440.42 1439.27Z" fill="#D9C404" fill-opacity="0.6"/>
<path d="M2427.46 1442.33C2440.03 1443.5 2454.93 1414.48 2444.53 1409.31C2429.64 1401.91 2420.37 1413.57 2415.34 1419.52C2410.3 1425.48 2414.89 1441.17 2427.46 1442.33Z" fill="#D9C404" fill-opacity="0.7"/>
</g>
<g opacity="0.5">
<path d="M2366.29 2163.3C2363.03 2141.55 2307.77 2128.43 2303.35 2148.16C2297.03 2176.42 2320.6 2187.25 2332.76 2193.28C2344.93 2199.32 2369.55 2185.04 2366.29 2163.3Z" fill="#D9C404" fill-opacity="0.6"/>
<path d="M2360.15 2185.66C2372.43 2167.42 2340.52 2120.43 2323.94 2132C2300.2 2148.58 2310.27 2172.48 2315.17 2185.14C2320.07 2197.81 2347.87 2203.9 2360.15 2185.66Z" fill="#D9C404" fill-opacity="0.7"/>
</g>
<g opacity="0.5">
<path d="M2356.3 1780.17C2373.83 1766.89 2358.85 1712.09 2339.41 1717.68C2311.58 1725.68 2313.38 1751.55 2313.92 1765.12C2314.45 1778.69 2338.78 1793.45 2356.3 1780.17Z" fill="#D9C404" fill-opacity="0.6"/>
<path d="M2333.73 1785.5C2355.63 1787.53 2381.57 1737 2363.46 1728C2337.53 1715.11 2321.39 1735.41 2312.63 1745.78C2303.86 1756.15 2311.84 1783.47 2333.73 1785.5Z" fill="#D9C404" fill-opacity="0.7"/>
</g>
<g opacity="0.5">
<path d="M2167.95 2114.49C2164.7 2092.75 2109.43 2079.62 2105.02 2099.36C2098.69 2127.62 2122.26 2138.44 2134.42 2144.48C2146.59 2150.51 2171.21 2136.24 2167.95 2114.49Z" fill="#D9C404" fill-opacity="0.6"/>
<path d="M2161.81 2136.86C2174.09 2118.62 2142.18 2071.62 2125.6 2083.2C2101.86 2099.78 2111.93 2123.67 2116.83 2136.34C2121.73 2149 2149.53 2155.1 2161.81 2136.86Z" fill="#D9C404" fill-opacity="0.7"/>
</g>
<g opacity="0.5">
<path d="M2304.05 1582.71C2321.57 1569.43 2306.6 1514.63 2287.16 1520.22C2259.33 1528.22 2261.13 1554.09 2261.67 1567.66C2262.2 1581.23 2286.53 1595.99 2304.05 1582.71Z" fill="#D9C404" fill-opacity="0.6"/>
<path d="M2281.48 1588.04C2303.37 1590.07 2329.32 1539.54 2311.21 1530.54C2285.28 1517.65 2269.14 1537.95 2260.37 1548.32C2251.61 1558.69 2259.59 1586.01 2281.48 1588.04Z" fill="#D9C404" fill-opacity="0.7"/>
</g>
<g opacity="0.5">
<path d="M2504.4 1914.9C2501.14 1893.16 2445.88 1880.03 2441.46 1899.77C2435.14 1928.02 2458.71 1938.85 2470.87 1944.88C2483.04 1950.92 2507.66 1936.65 2504.4 1914.9Z" fill="#D9C404" fill-opacity="0.6"/>
<path d="M2498.26 1937.26C2510.54 1919.02 2478.63 1872.03 2462.05 1883.61C2438.31 1900.18 2448.38 1924.08 2453.28 1936.75C2458.18 1949.41 2485.98 1955.5 2498.26 1937.26Z" fill="#D9C404" fill-opacity="0.7"/>
</g>
<g opacity="0.5">
<path d="M2640.51 1782.29C2658.03 1769.01 2643.05 1714.22 2623.62 1719.8C2595.79 1727.8 2597.58 1753.67 2598.12 1767.24C2598.66 1780.81 2622.99 1795.57 2640.51 1782.29Z" fill="#D9C404" fill-opacity="0.6"/>
<path d="M2617.94 1787.62C2639.83 1789.65 2665.78 1739.12 2647.67 1730.12C2621.74 1717.23 2605.6 1737.53 2596.83 1747.9C2588.06 1758.27 2596.04 1785.59 2617.94 1787.62Z" fill="#D9C404" fill-opacity="0.7"/>
</g>
<g opacity="0.5">
<path d="M2337.22 1878.56C2333.96 1856.81 2278.69 1843.69 2274.28 1863.42C2267.96 1891.68 2291.52 1902.5 2303.69 1908.54C2315.85 1914.57 2340.47 1900.3 2337.22 1878.56Z" fill="#D9C404" fill-opacity="0.6"/>
<path d="M2331.07 1900.92C2343.35 1882.68 2311.44 1835.69 2294.86 1847.26C2271.12 1863.84 2281.2 1887.74 2286.1 1900.4C2291 1913.07 2318.79 1919.16 2331.07 1900.92Z" fill="#D9C404" fill-opacity="0.7"/>
</g>
<g opacity="0.5">
<path d="M2592.25 1618.15C2609.78 1604.86 2594.8 1550.07 2575.37 1555.66C2547.53 1563.66 2549.33 1589.53 2549.87 1603.1C2550.4 1616.67 2574.73 1631.43 2592.25 1618.15Z" fill="#D9C404" fill-opacity="0.6"/>
<path d="M2569.68 1623.48C2591.58 1625.51 2617.52 1574.98 2599.41 1565.98C2573.48 1553.09 2557.34 1573.38 2548.58 1583.76C2539.81 1594.13 2547.79 1621.44 2569.68 1623.48Z" fill="#D9C404" fill-opacity="0.7"/>
</g>
<g opacity="0.5">
<path d="M2138.88 1829.75C2135.62 1808 2080.36 1794.88 2075.94 1814.61C2069.62 1842.87 2093.18 1853.7 2105.35 1859.73C2117.52 1865.77 2142.13 1851.5 2138.88 1829.75Z" fill="#D9C404" fill-opacity="0.6"/>
<path d="M2132.73 1852.11C2145.01 1833.87 2113.11 1786.88 2096.53 1798.46C2072.78 1815.03 2082.86 1838.93 2087.76 1851.6C2092.66 1864.26 2120.46 1870.35 2132.73 1852.11Z" fill="#D9C404" fill-opacity="0.7"/>
</g>
<g opacity="0.5">
<path d="M2540 1420.69C2557.52 1407.4 2542.55 1352.61 2523.11 1358.2C2495.28 1366.2 2497.08 1392.07 2497.62 1405.64C2498.15 1419.21 2522.48 1433.97 2540 1420.69Z" fill="#D9C404" fill-opacity="0.6"/>
<path d="M2517.43 1426.02C2539.32 1428.05 2565.27 1377.52 2547.16 1368.52C2521.23 1355.63 2505.09 1375.93 2496.32 1386.3C2487.56 1396.67 2495.54 1423.99 2517.43 1426.02Z" fill="#D9C404" fill-opacity="0.7"/>
</g>
<g opacity="0.5">
<path d="M2253.08 2208.2C2252 2201 2233.71 2196.66 2232.25 2203.19C2230.16 2212.54 2237.96 2216.13 2241.99 2218.12C2246.01 2220.12 2254.16 2215.4 2253.08 2208.2Z" fill="#D9C404" fill-opacity="0.6"/>
<path d="M2251.05 2215.6C2255.11 2209.56 2244.55 2194.01 2239.06 2197.84C2231.21 2203.33 2234.54 2211.24 2236.16 2215.43C2237.78 2219.62 2246.98 2221.64 2251.05 2215.6Z" fill="#D9C404" fill-opacity="0.7"/>
</g>
<g opacity="0.5">
<path d="M2262.63 1702.34C2268.43 1697.95 2263.47 1679.81 2257.04 1681.66C2247.83 1684.31 2248.42 1692.87 2248.6 1697.36C2248.78 1701.85 2256.83 1706.74 2262.63 1702.34Z" fill="#D9C404" fill-opacity="0.6"/>
<path d="M2255.16 1704.11C2262.4 1704.78 2270.99 1688.05 2265 1685.08C2256.41 1680.81 2251.07 1687.53 2248.17 1690.96C2245.27 1694.39 2247.91 1703.43 2255.16 1704.11Z" fill="#D9C404" fill-opacity="0.7"/>
</g>
<g opacity="0.5">
<path d="M2589.53 2008.61C2588.45 2001.41 2570.16 1997.07 2568.7 2003.6C2566.61 2012.95 2574.41 2016.53 2578.43 2018.53C2582.46 2020.53 2590.61 2015.81 2589.53 2008.61Z" fill="#D9C404" fill-opacity="0.6"/>
<path d="M2587.5 2016.01C2591.56 2009.97 2581 1994.42 2575.51 1998.25C2567.65 2003.74 2570.99 2011.65 2572.61 2015.84C2574.23 2020.03 2583.43 2022.05 2587.5 2016.01Z" fill="#D9C404" fill-opacity="0.7"/>
</g>
<g opacity="0.5">
<path d="M2599.08 1901.92C2604.88 1897.53 2599.92 1879.39 2593.49 1881.24C2584.28 1883.89 2584.87 1892.45 2585.05 1896.94C2585.23 1901.43 2593.28 1906.32 2599.08 1901.92Z" fill="#D9C404" fill-opacity="0.6"/>
<path d="M2591.61 1903.69C2598.86 1904.36 2607.44 1887.64 2601.45 1884.66C2592.87 1880.39 2587.53 1887.11 2584.62 1890.54C2581.72 1893.97 2584.36 1903.01 2591.61 1903.69Z" fill="#D9C404" fill-opacity="0.7"/>
</g>
<g opacity="0.5">
<path d="M2054.74 2159.39C2053.67 2152.2 2035.37 2147.85 2033.91 2154.39C2031.82 2163.74 2039.62 2167.32 2043.65 2169.32C2047.67 2171.32 2055.82 2166.59 2054.74 2159.39Z" fill="#D9C404" fill-opacity="0.6"/>
<path d="M2052.71 2166.8C2056.77 2160.76 2046.21 2145.21 2040.73 2149.04C2032.87 2154.52 2036.2 2162.43 2037.82 2166.62C2039.45 2170.82 2048.65 2172.83 2052.71 2166.8Z" fill="#D9C404" fill-opacity="0.7"/>
</g>
<g opacity="0.5">
<path d="M2210.37 1504.88C2216.17 1500.49 2211.22 1482.35 2204.78 1484.2C2195.57 1486.85 2196.17 1495.41 2196.34 1499.9C2196.52 1504.39 2204.57 1509.28 2210.37 1504.88Z" fill="#D9C404" fill-opacity="0.6"/>
<path d="M2202.9 1506.65C2210.15 1507.32 2218.74 1490.6 2212.74 1487.62C2204.16 1483.35 2198.82 1490.07 2195.92 1493.5C2193.02 1496.93 2195.66 1505.98 2202.9 1506.65Z" fill="#D9C404" fill-opacity="0.7"/>
</g>
<g opacity="0.5">
<path d="M2391.19 1959.8C2390.11 1952.61 2371.82 1948.26 2370.36 1954.79C2368.27 1964.15 2376.07 1967.73 2380.1 1969.73C2384.12 1971.72 2392.27 1967 2391.19 1959.8Z" fill="#D9C404" fill-opacity="0.6"/>
<path d="M2389.16 1967.2C2393.22 1961.17 2382.66 1945.61 2377.17 1949.45C2369.32 1954.93 2372.65 1962.84 2374.27 1967.03C2375.89 1971.22 2385.09 1973.24 2389.16 1967.2Z" fill="#D9C404" fill-opacity="0.7"/>
</g>
<g opacity="0.5">
<path d="M2546.83 1704.46C2552.63 1700.07 2547.67 1681.93 2541.24 1683.78C2532.03 1686.43 2532.62 1694.99 2532.8 1699.48C2532.98 1703.97 2541.03 1708.86 2546.83 1704.46Z" fill="#D9C404" fill-opacity="0.6"/>
<path d="M2539.36 1706.23C2546.6 1706.9 2555.19 1690.18 2549.2 1687.2C2540.62 1682.93 2535.27 1689.65 2532.37 1693.08C2529.47 1696.52 2532.11 1705.56 2539.36 1706.23Z" fill="#D9C404" fill-opacity="0.7"/>
</g>
<g opacity="0.5">
<path d="M2224.01 1923.46C2222.93 1916.26 2204.64 1911.92 2203.18 1918.45C2201.08 1927.8 2208.88 1931.38 2212.91 1933.38C2216.94 1935.38 2225.08 1930.65 2224.01 1923.46Z" fill="#D9C404" fill-opacity="0.6"/>
<path d="M2221.97 1930.86C2226.04 1924.82 2215.48 1909.27 2209.99 1913.1C2202.13 1918.59 2205.47 1926.5 2207.09 1930.69C2208.71 1934.88 2217.91 1936.9 2221.97 1930.86Z" fill="#D9C404" fill-opacity="0.7"/>
</g>
<g opacity="0.5">
<path d="M2498.58 1540.32C2504.38 1535.92 2499.42 1517.79 2492.99 1519.64C2483.78 1522.29 2484.37 1530.85 2484.55 1535.34C2484.73 1539.83 2492.78 1544.72 2498.58 1540.32Z" fill="#D9C404" fill-opacity="0.6"/>
<path d="M2491.11 1542.08C2498.35 1542.76 2506.94 1526.03 2500.95 1523.05C2492.36 1518.79 2487.02 1525.5 2484.12 1528.94C2481.22 1532.37 2483.86 1541.41 2491.11 1542.08Z" fill="#D9C404" fill-opacity="0.7"/>
</g>
<g opacity="0.5">
<path d="M2025.67 1874.65C2024.59 1867.45 2006.3 1863.11 2004.84 1869.64C2002.75 1879 2010.55 1882.58 2014.57 1884.58C2018.6 1886.57 2026.75 1881.85 2025.67 1874.65Z" fill="#D9C404" fill-opacity="0.6"/>
<path d="M2023.64 1882.05C2027.7 1876.02 2017.14 1860.46 2011.65 1864.29C2003.79 1869.78 2007.13 1877.69 2008.75 1881.88C2010.37 1886.07 2019.57 1888.09 2023.64 1882.05Z" fill="#D9C404" fill-opacity="0.7"/>
</g>
<g opacity="0.5">
<path d="M2446.32 1342.86C2452.12 1338.47 2447.17 1320.33 2440.74 1322.18C2431.52 1324.83 2432.12 1333.39 2432.3 1337.88C2432.47 1342.37 2440.53 1347.26 2446.32 1342.86Z" fill="#D9C404" fill-opacity="0.6"/>
<path d="M2438.85 1344.63C2446.1 1345.3 2454.69 1328.57 2448.69 1325.59C2440.11 1321.33 2434.77 1328.05 2431.87 1331.48C2428.97 1334.91 2431.61 1343.95 2438.85 1344.63Z" fill="#D9C404" fill-opacity="0.7"/>
</g>
</g>
<g opacity="0.5">
<g opacity="0.5">
<path d="M2581.72 111.752C2591.78 104.124 2583.18 72.659 2572.02 75.8666C2556.04 80.4601 2557.07 95.3163 2557.38 103.109C2557.69 110.902 2571.66 119.379 2581.72 111.752Z" fill="#D9C404" fill-opacity="0.6"/>
<path d="M2568.76 114.812C2581.33 115.979 2596.23 86.9617 2585.83 81.7928C2570.94 74.3906 2561.67 86.0465 2556.64 92.0028C2551.6 97.959 2556.19 113.645 2568.76 114.812Z" fill="#D9C404" fill-opacity="0.7"/>
</g>
<g opacity="0.5">
<path d="M2461.52 523.795C2459.65 511.308 2427.92 503.772 2425.38 515.104C2421.75 531.332 2435.28 537.548 2442.27 541.014C2449.25 544.479 2463.39 536.283 2461.52 523.795Z" fill="#D9C404" fill-opacity="0.6"/>
<path d="M2457.99 536.638C2465.05 526.163 2446.72 499.177 2437.2 505.824C2423.57 515.344 2429.35 529.066 2432.17 536.34C2434.98 543.613 2450.94 547.112 2457.99 536.638Z" fill="#D9C404" fill-opacity="0.7"/>
</g>
<g opacity="0.5">
<path d="M2630.78 287.859C2628.91 275.371 2597.18 267.835 2594.64 279.167C2591.01 295.395 2604.54 301.611 2611.53 305.077C2618.52 308.543 2632.66 300.346 2630.78 287.859Z" fill="#D9C404" fill-opacity="0.6"/>
<path d="M2627.26 300.701C2634.31 290.227 2615.99 263.24 2606.46 269.888C2592.83 279.408 2598.61 293.13 2601.43 300.403C2604.24 307.677 2620.21 311.175 2627.26 300.701Z" fill="#D9C404" fill-opacity="0.7"/>
</g>
<g opacity="0.5">
<path d="M2432.45 239.053C2430.58 226.566 2398.84 219.029 2396.3 230.361C2392.67 246.589 2406.21 252.806 2413.19 256.271C2420.18 259.737 2434.32 251.54 2432.45 239.053Z" fill="#D9C404" fill-opacity="0.6"/>
<path d="M2428.92 251.895C2435.97 241.421 2417.65 214.434 2408.13 221.082C2394.49 230.602 2400.28 244.324 2403.09 251.597C2405.9 258.871 2421.87 262.37 2428.92 251.895Z" fill="#D9C404" fill-opacity="0.7"/>
</g>
<g opacity="0.5">
<path d="M2492.95 427.493C2489.7 405.747 2434.43 392.623 2430.02 412.357C2423.69 440.617 2447.26 451.441 2459.42 457.477C2471.59 463.512 2496.21 449.238 2492.95 427.493Z" fill="#D9C404" fill-opacity="0.6"/>
<path d="M2486.81 449.857C2499.09 431.617 2467.18 384.623 2450.6 396.199C2426.86 412.776 2436.93 436.672 2441.83 449.338C2446.73 462.004 2474.53 468.097 2486.81 449.857Z" fill="#D9C404" fill-opacity="0.7"/>
</g>
<g opacity="0.5">
<path d="M2662.22 191.556C2658.96 169.81 2603.69 156.687 2599.28 176.42C2592.96 204.68 2616.52 215.505 2628.69 221.54C2640.85 227.575 2665.47 213.301 2662.22 191.556Z" fill="#D9C404" fill-opacity="0.6"/>
<path d="M2656.07 213.92C2668.35 195.68 2636.44 148.686 2619.86 160.262C2596.12 176.84 2606.2 200.735 2611.1 213.401C2616 226.067 2643.79 232.16 2656.07 213.92Z" fill="#D9C404" fill-opacity="0.7"/>
</g>
<g opacity="0.5">
<path d="M2463.88 142.75C2460.62 121.005 2405.36 107.881 2400.94 127.615C2394.62 155.874 2418.18 166.699 2430.35 172.734C2442.52 178.769 2467.13 164.496 2463.88 142.75Z" fill="#D9C404" fill-opacity="0.6"/>
<path d="M2457.73 165.114C2470.01 146.874 2438.11 99.8802 2421.53 111.456C2397.78 128.034 2407.86 151.93 2412.76 164.596C2417.66 177.262 2445.46 183.354 2457.73 165.114Z" fill="#D9C404" fill-opacity="0.7"/>
</g>
<g opacity="0.5">
<path d="M2578.08 521.2C2577 514.003 2558.71 509.66 2557.25 516.191C2555.16 525.544 2562.96 529.127 2566.99 531.124C2571.01 533.121 2579.16 528.397 2578.08 521.2Z" fill="#D9C404" fill-opacity="0.6"/>
<path d="M2576.05 528.602C2580.11 522.565 2569.55 507.011 2564.06 510.843C2556.21 516.329 2559.54 524.238 2561.16 528.43C2562.78 532.622 2571.98 534.639 2576.05 528.602Z" fill="#D9C404" fill-opacity="0.7"/>
</g>
<g opacity="0.5">
<path d="M2587.63 15.3421C2593.43 10.9458 2588.47 -7.18871 2582.04 -5.33999C2572.83 -2.69256 2573.42 5.86978 2573.6 10.361C2573.78 14.8523 2581.83 19.7384 2587.63 15.3421Z" fill="#D9C404" fill-opacity="0.6"/>
<path d="M2580.16 17.1059C2587.4 17.7784 2595.99 1.0544 2590 -1.9247C2581.41 -6.1909 2576.07 0.526956 2573.17 3.9598C2570.27 7.39265 2572.91 16.4335 2580.16 17.1059Z" fill="#D9C404" fill-opacity="0.7"/>
</g>
<g opacity="0.5">
<path d="M2379.74 472.395C2378.67 465.197 2360.37 460.854 2358.91 467.385C2356.82 476.738 2364.62 480.321 2368.65 482.318C2372.67 484.316 2380.82 479.592 2379.74 472.395Z" fill="#D9C404" fill-opacity="0.6"/>
<path d="M2377.71 479.796C2381.77 473.759 2371.21 458.206 2365.73 462.037C2357.87 467.524 2361.2 475.433 2362.82 479.625C2364.45 483.817 2373.65 485.833 2377.71 479.796Z" fill="#D9C404" fill-opacity="0.7"/>
</g>
<g opacity="0.5">
<path d="M2549.01 236.458C2547.93 229.261 2529.64 224.917 2528.18 231.448C2526.08 240.801 2533.88 244.384 2537.91 246.382C2541.94 248.379 2550.08 243.655 2549.01 236.458Z" fill="#D9C404" fill-opacity="0.6"/>
<path d="M2546.97 243.859C2551.04 237.823 2540.48 222.269 2534.99 226.1C2527.13 231.587 2530.47 239.496 2532.09 243.688C2533.71 247.88 2542.91 249.896 2546.97 243.859Z" fill="#D9C404" fill-opacity="0.7"/>
</g>
<g opacity="0.5">
<path d="M2350.67 187.652C2349.59 180.455 2331.3 176.111 2329.84 182.643C2327.75 191.996 2335.55 195.578 2339.57 197.576C2343.6 199.573 2351.75 194.849 2350.67 187.652Z" fill="#D9C404" fill-opacity="0.6"/>
<path d="M2348.64 195.054C2352.7 189.017 2342.14 173.463 2336.65 177.295C2328.79 182.781 2332.13 190.69 2333.75 194.882C2335.37 199.074 2344.57 201.091 2348.64 195.054Z" fill="#D9C404" fill-opacity="0.7"/>
</g>
</g>
<g opacity="0.5">
<g opacity="0.5">
<path d="M716.721 4321.75C726.784 4314.12 718.183 4282.66 707.023 4285.87C691.04 4290.46 692.073 4305.32 692.38 4313.11C692.688 4320.9 706.659 4329.38 716.721 4321.75Z" fill="#D9C404" fill-opacity="0.6"/>
<path d="M703.759 4324.81C716.332 4325.98 731.231 4296.96 720.833 4291.79C705.942 4284.39 696.673 4296.05 691.639 4302C686.605 4307.96 691.187 4323.65 703.759 4324.81Z" fill="#D9C404" fill-opacity="0.7"/>
</g>
<g opacity="0.5">
<path d="M664.47 4124.29C674.533 4116.67 665.932 4085.2 654.772 4088.41C638.789 4093 639.822 4107.86 640.129 4115.65C640.437 4123.44 654.408 4131.92 664.47 4124.29Z" fill="#D9C404" fill-opacity="0.6"/>
<path d="M651.508 4127.35C664.081 4128.52 678.98 4099.5 668.582 4094.34C653.691 4086.93 644.422 4098.59 639.388 4104.55C634.354 4110.5 638.936 4126.19 651.508 4127.35Z" fill="#D9C404" fill-opacity="0.7"/>
</g>
<g opacity="0.5">
<path d="M1000.92 4323.87C1010.99 4316.25 1002.39 4284.78 991.226 4287.99C975.243 4292.58 976.276 4307.44 976.583 4315.23C976.891 4323.02 990.862 4331.5 1000.92 4323.87Z" fill="#D9C404" fill-opacity="0.6"/>
<path d="M987.962 4326.94C1000.54 4328.1 1015.43 4299.08 1005.04 4293.92C990.145 4286.51 980.876 4298.17 975.842 4304.13C970.808 4310.08 975.39 4325.77 987.962 4326.94Z" fill="#D9C404" fill-opacity="0.7"/>
</g>
<g opacity="0.5">
<path d="M952.673 4159.73C962.735 4152.1 954.134 4120.64 942.974 4123.85C926.992 4128.44 928.024 4143.29 928.332 4151.09C928.639 4158.88 942.61 4167.36 952.673 4159.73Z" fill="#D9C404" fill-opacity="0.6"/>
<path d="M939.71 4162.79C952.283 4163.96 967.183 4134.94 956.784 4129.77C941.893 4122.37 932.624 4134.03 927.59 4139.98C922.556 4145.94 927.138 4161.62 939.71 4162.79Z" fill="#D9C404" fill-opacity="0.7"/>
</g>
<g opacity="0.5">
<path d="M900.421 3962.27C910.483 3954.64 901.882 3923.18 890.722 3926.39C874.74 3930.98 875.772 3945.84 876.08 3953.63C876.387 3961.42 890.358 3969.9 900.421 3962.27Z" fill="#D9C404" fill-opacity="0.6"/>
<path d="M887.459 3965.33C900.031 3966.5 914.931 3937.48 904.532 3932.31C889.641 3924.91 880.372 3936.57 875.338 3942.52C870.304 3948.48 874.886 3964.17 887.459 3965.33Z" fill="#D9C404" fill-opacity="0.7"/>
</g>
<g opacity="0.5">
<path d="M816.303 4303.17C833.826 4289.89 818.849 4235.09 799.414 4240.68C771.583 4248.68 773.38 4274.55 773.916 4288.12C774.452 4301.69 798.781 4316.45 816.303 4303.17Z" fill="#D9C404" fill-opacity="0.6"/>
<path d="M793.732 4308.5C815.626 4310.53 841.571 4260 823.464 4251C797.532 4238.11 781.392 4258.41 772.625 4268.78C763.858 4279.15 771.838 4306.47 793.732 4308.5Z" fill="#D9C404" fill-opacity="0.7"/>
</g>
<g opacity="0.5">
<path d="M764.052 4105.71C781.575 4092.43 766.598 4037.63 747.163 4043.22C719.332 4051.22 721.129 4077.09 721.665 4090.66C722.201 4104.23 746.53 4118.99 764.052 4105.71Z" fill="#D9C404" fill-opacity="0.6"/>
<path d="M741.481 4111.04C763.375 4113.07 789.32 4062.54 771.213 4053.54C745.281 4040.65 729.141 4060.95 720.374 4071.32C711.607 4081.69 719.587 4109.01 741.481 4111.04Z" fill="#D9C404" fill-opacity="0.7"/>
</g>
<g opacity="0.5">
<path d="M1100.51 4305.29C1118.03 4292.01 1103.05 4237.22 1083.62 4242.8C1055.79 4250.8 1057.58 4276.67 1058.12 4290.24C1058.66 4303.81 1082.99 4318.57 1100.51 4305.29Z" fill="#D9C404" fill-opacity="0.6"/>
<path d="M1077.94 4310.62C1099.83 4312.65 1125.78 4262.12 1107.67 4253.12C1081.74 4240.23 1065.6 4260.53 1056.83 4270.9C1048.06 4281.27 1056.04 4308.59 1077.94 4310.62Z" fill="#D9C404" fill-opacity="0.7"/>
</g>
<g opacity="0.5">
<path d="M791.073 4423.92C803.352 4405.68 771.445 4358.69 754.864 4370.26C731.121 4386.84 741.196 4410.74 746.096 4423.4C750.996 4436.07 778.793 4442.16 791.073 4423.92Z" fill="#D9C404" fill-opacity="0.7"/>
</g>
<g opacity="0.5">
<path d="M1052.25 4141.15C1069.78 4127.86 1054.8 4073.07 1035.37 4078.66C1007.53 4086.66 1009.33 4112.53 1009.87 4126.1C1010.4 4139.67 1034.73 4154.43 1052.25 4141.15Z" fill="#D9C404" fill-opacity="0.6"/>
<path d="M1029.68 4146.48C1051.58 4148.51 1077.52 4097.98 1059.41 4088.98C1033.48 4076.09 1017.34 4096.38 1008.58 4106.76C999.81 4117.13 1007.79 4144.44 1029.68 4146.48Z" fill="#D9C404" fill-opacity="0.7"/>
</g>
<g opacity="0.5">
<path d="M598.878 4352.75C595.621 4331 540.355 4317.88 535.94 4337.61C529.618 4365.87 553.183 4376.7 565.349 4382.73C577.515 4388.77 602.135 4374.5 598.878 4352.75Z" fill="#D9C404" fill-opacity="0.6"/>
<path d="M592.735 4375.11C605.014 4356.87 573.107 4309.88 556.526 4321.46C532.783 4338.03 542.858 4361.93 547.758 4374.6C552.658 4387.26 580.456 4393.35 592.735 4375.11Z" fill="#D9C404" fill-opacity="0.7"/>
</g>
<g opacity="0.5">
<path d="M1000 3943.69C1017.52 3930.4 1002.55 3875.61 983.113 3881.2C955.282 3889.2 957.079 3915.07 957.615 3928.64C958.151 3942.21 982.48 3956.97 1000 3943.69Z" fill="#D9C404" fill-opacity="0.6"/>
<path d="M977.431 3949.02C999.325 3951.05 1025.27 3900.52 1007.16 3891.52C981.232 3878.63 965.091 3898.93 956.324 3909.3C947.558 3919.67 955.537 3946.99 977.431 3949.02Z" fill="#D9C404" fill-opacity="0.7"/>
</g>
<g opacity="0.5">
<path d="M722.627 4225.34C728.426 4220.95 723.469 4202.81 717.037 4204.66C707.825 4207.31 708.42 4215.87 708.598 4220.36C708.775 4224.85 716.827 4229.74 722.627 4225.34Z" fill="#D9C404" fill-opacity="0.6"/>
<path d="M715.156 4227.11C722.402 4227.78 730.99 4211.05 724.996 4208.08C716.414 4203.81 711.072 4210.53 708.17 4213.96C705.269 4217.39 707.91 4226.43 715.156 4227.11Z" fill="#D9C404" fill-opacity="0.7"/>
</g>
<g opacity="0.5">
<path d="M670.374 4027.88C676.173 4023.49 671.216 4005.35 664.784 4007.2C655.573 4009.85 656.167 4018.41 656.345 4022.9C656.522 4027.39 664.574 4032.28 670.374 4027.88Z" fill="#D9C404" fill-opacity="0.6"/>
<path d="M662.904 4029.65C670.15 4030.32 678.738 4013.6 672.744 4010.62C664.162 4006.35 658.82 4013.07 655.918 4016.5C653.017 4019.93 655.658 4028.98 662.904 4029.65Z" fill="#D9C404" fill-opacity="0.7"/>
</g>
<g opacity="0.5">
<path d="M1006.83 4227.46C1012.63 4223.07 1007.67 4204.93 1001.24 4206.78C992.028 4209.43 992.623 4217.99 992.8 4222.48C992.977 4226.97 1001.03 4231.86 1006.83 4227.46Z" fill="#D9C404" fill-opacity="0.6"/>
<path d="M999.358 4229.23C1006.6 4229.9 1015.19 4213.18 1009.2 4210.2C1000.62 4205.93 995.274 4212.65 992.373 4216.08C989.471 4219.52 992.112 4228.56 999.358 4229.23Z" fill="#D9C404" fill-opacity="0.7"/>
</g>
<g opacity="0.5">
<path d="M958.577 4063.32C964.376 4058.92 959.419 4040.79 952.987 4042.64C943.776 4045.29 944.371 4053.85 944.548 4058.34C944.725 4062.83 952.777 4067.72 958.577 4063.32Z" fill="#D9C404" fill-opacity="0.6"/>
<path d="M951.106 4065.08C958.353 4065.76 966.94 4049.03 960.947 4046.05C952.364 4041.79 947.022 4048.5 944.121 4051.94C941.219 4055.37 943.86 4064.41 951.106 4065.08Z" fill="#D9C404" fill-opacity="0.7"/>
</g>
<g opacity="0.5">
<path d="M906.325 3865.86C912.124 3861.47 907.167 3843.33 900.735 3845.18C891.524 3847.83 892.119 3856.39 892.296 3860.88C892.473 3865.37 900.526 3870.26 906.325 3865.86Z" fill="#D9C404" fill-opacity="0.6"/>
<path d="M898.854 3867.63C906.101 3868.3 914.688 3851.57 908.695 3848.59C900.112 3844.33 894.77 3851.05 891.869 3854.48C888.967 3857.91 891.608 3866.95 898.854 3867.63Z" fill="#D9C404" fill-opacity="0.7"/>
</g>
</g>
<rect y="-2604" width="2598" height="24000" fill="#D9C404" fill-opacity="0.3"/>
<path d="M280.371 1256L273.34 1229.24H226.953L219.727 1256H177.344L223.926 1112.64H275.391L322.559 1256H280.371ZM265.332 1197.6L259.18 1174.16C257.747 1168.96 255.99 1162.22 253.906 1153.95C251.888 1145.68 250.553 1139.76 249.902 1136.18C249.316 1139.5 248.145 1144.96 246.387 1152.58C244.694 1160.2 240.885 1175.21 234.961 1197.6H265.332ZM207.227 1528L207.227 1385.23H245.801V1496.85H300.781V1528H207.227ZM230.566 1800V1657.23H269.336V1800H230.566ZM248.73 1988.41H310.352L310.352 2065.36C293.62 2071.09 275.228 2073.95 255.176 2073.95C233.171 2073.95 216.146 2067.57 204.102 2054.81C192.122 2042.05 186.133 2023.86 186.133 2000.22C186.133 1977.18 192.708 1959.24 205.859 1946.41C219.01 1933.59 237.435 1927.18 261.133 1927.18C270.117 1927.18 278.581 1928.02 286.523 1929.71C294.531 1931.41 301.497 1933.56 307.422 1936.16L295.215 1966.43C284.928 1961.36 273.633 1958.82 261.328 1958.82C250.065 1958.82 241.341 1962.49 235.156 1969.85C229.036 1977.14 225.977 1987.59 225.977 2001.2C225.977 2014.55 228.743 2024.73 234.277 2031.77C239.876 2038.73 247.917 2042.21 258.398 2042.21C264.128 2042.21 269.401 2041.66 274.219 2040.55V2018.19H248.73V1988.41ZM317.969 2344H267.383L215.234 2243.41H214.355C215.592 2259.23 216.211 2271.31 216.211 2279.64V2344H182.031L182.031 2201.23H232.422L284.375 2300.45H284.961C284.049 2286.06 283.594 2274.5 283.594 2265.78V2201.23H317.969V2344ZM230.957 2616L201.758 2513.17H200.879C202.246 2530.68 202.93 2544.29 202.93 2553.99L202.93 2616H168.75L168.75 2473.23H220.117L249.902 2574.59H250.684L279.883 2473.23H331.348V2616H295.898V2553.4C295.898 2550.15 295.931 2546.53 295.996 2542.56C296.126 2538.59 296.582 2528.86 297.363 2513.36H296.484L267.676 2616H230.957ZM295.313 2888H210.547V2745.23H295.313V2776.18H249.121V2798.64H291.895V2829.6H249.121V2856.55H295.313V2888ZM317.969 3160H267.383L215.234 3059.41H214.355C215.592 3075.23 216.211 3087.31 216.211 3095.64V3160H182.031L182.031 3017.23H232.422L284.375 3116.45H284.961C284.049 3102.06 283.594 3090.5 283.594 3081.78V3017.23H317.969V3160ZM269.336 3432H230.762L230.762 3320.77H195.898V3289.23H304.102V3320.77H269.336L269.336 3432Z" fill="#D9C404" fill-opacity="0.15"/>
<path d="M2267.37 2944L2260.34 2917.24H2213.95L2206.73 2944H2164.34L2210.93 2800.64H2262.39L2309.56 2944H2267.37ZM2252.33 2885.6L2246.18 2862.16C2244.75 2856.96 2242.99 2850.22 2240.91 2841.95C2238.89 2833.68 2237.55 2827.76 2236.9 2824.18C2236.32 2827.5 2235.14 2832.96 2233.39 2840.58C2231.69 2848.2 2227.89 2863.21 2221.96 2885.6H2252.33ZM2194.23 3216V3073.23H2232.8V3184.85H2287.78V3216H2194.23ZM2217.57 3488V3345.23H2256.34V3488H2217.57ZM2235.73 3676.41H2297.35V3753.36C2280.62 3759.09 2262.23 3761.95 2242.18 3761.95C2220.17 3761.95 2203.15 3755.57 2191.1 3742.81C2179.12 3730.05 2173.13 3711.86 2173.13 3688.22C2173.13 3665.18 2179.71 3647.24 2192.86 3634.41C2206.01 3621.59 2224.43 3615.18 2248.13 3615.18C2257.12 3615.18 2265.58 3616.02 2273.52 3617.71C2281.53 3619.41 2288.5 3621.56 2294.42 3624.16L2282.21 3654.43C2271.93 3649.36 2260.63 3646.82 2248.33 3646.82C2237.07 3646.82 2228.34 3650.49 2222.16 3657.85C2216.04 3665.14 2212.98 3675.59 2212.98 3689.2C2212.98 3702.55 2215.74 3712.73 2221.28 3719.77C2226.88 3726.73 2234.92 3730.21 2245.4 3730.21C2251.13 3730.21 2256.4 3729.66 2261.22 3728.55V3706.19H2235.73V3676.41ZM2304.97 4032H2254.38L2202.23 3931.41H2201.36C2202.59 3947.23 2203.21 3959.31 2203.21 3967.64V4032H2169.03V3889.23H2219.42L2271.38 3988.45H2271.96C2271.05 3974.06 2270.59 3962.5 2270.59 3953.78V3889.23H2304.97V4032ZM2217.96 4304L2188.76 4201.17H2187.88C2189.25 4218.68 2189.93 4232.29 2189.93 4241.99V4304H2155.75V4161.23H2207.12L2236.9 4262.59H2237.68L2266.88 4161.23H2318.35L2318.35 4304H2282.9V4241.4C2282.9 4238.15 2282.93 4234.53 2283 4230.56C2283.13 4226.59 2283.58 4216.86 2284.36 4201.36H2283.48L2254.68 4304H2217.96ZM2282.31 4576H2197.55V4433.23H2282.31V4464.18H2236.12V4486.64H2278.89V4517.6H2236.12V4544.55H2282.31V4576ZM2304.97 4848H2254.38L2202.23 4747.41H2201.36C2202.59 4763.23 2203.21 4775.31 2203.21 4783.64V4848H2169.03V4705.23H2219.42L2271.38 4804.45H2271.96C2271.05 4790.06 2270.59 4778.5 2270.59 4769.78V4705.23H2304.97V4848ZM2256.34 5120H2217.76V5008.77H2182.9V4977.23H2291.1V5008.77H2256.34V5120Z" fill="#D9C404" fill-opacity="0.15"/>
<g opacity="0.5">
<path d="M-40.5 3164.5V2410H2598V3693.5L-40.5 3164.5Z" fill="white"/>
<path d="M-40.5 3255V2500.5H2598V3784L-40.5 3255Z" fill="white"/>
</g>
<g opacity="0.5">
<g opacity="0.5">
<path d="M801.861 423.601C799.991 411.114 768.254 403.577 765.719 414.909C762.088 431.138 775.621 437.354 782.607 440.819C789.594 444.285 803.731 436.088 801.861 423.601Z" fill="#D9C404" fill-opacity="0.6"/>
<path d="M798.333 436.443C805.384 425.969 787.061 398.982 777.54 405.63C763.905 415.15 769.691 428.872 772.505 436.145C775.318 443.419 791.281 446.918 798.333 436.443Z" fill="#D9C404" fill-opacity="0.7"/>
</g>
<g opacity="0.5">
<path d="M603.522 374.795C601.652 362.308 569.915 354.772 567.38 366.104C563.749 382.332 577.282 388.548 584.268 392.014C591.255 395.479 605.393 387.283 603.522 374.795Z" fill="#D9C404" fill-opacity="0.6"/>
<path d="M599.994 387.638C607.045 377.163 588.723 350.177 579.201 356.824C565.566 366.344 571.352 380.066 574.166 387.34C576.98 394.613 592.943 398.112 599.994 387.638Z" fill="#D9C404" fill-opacity="0.7"/>
</g>
<g opacity="0.5">
<path d="M939.97 175.203C938.1 162.716 906.364 155.179 903.828 166.512C900.198 182.74 913.73 188.956 920.717 192.422C927.703 195.887 941.841 187.691 939.97 175.203Z" fill="#D9C404" fill-opacity="0.6"/>
<path d="M936.442 188.046C943.493 177.571 925.171 150.585 915.649 157.232C902.015 166.752 907.8 180.474 910.614 187.748C913.428 195.021 929.391 198.52 936.442 188.046Z" fill="#D9C404" fill-opacity="0.7"/>
</g>
<g opacity="0.5">
<path d="M772.785 138.859C770.914 126.371 739.178 118.835 736.643 130.167C733.012 146.395 746.545 152.611 753.531 156.077C760.517 159.543 774.655 151.346 772.785 138.859Z" fill="#D9C404" fill-opacity="0.6"/>
<path d="M769.257 151.701C776.308 141.227 757.985 114.24 748.464 120.888C734.829 130.408 740.615 144.13 743.429 151.403C746.242 158.677 762.205 162.175 769.257 151.701Z" fill="#D9C404" fill-opacity="0.7"/>
</g>
<g opacity="0.5">
<path d="M574.447 90.053C572.577 77.5655 540.84 70.0291 538.305 81.3613C534.674 97.5894 548.207 103.806 555.193 107.271C562.18 110.737 576.317 102.54 574.447 90.053Z" fill="#D9C404" fill-opacity="0.6"/>
<path d="M570.919 102.895C577.97 92.4208 559.647 65.4344 550.126 72.082C536.491 81.6018 542.277 95.324 545.091 102.597C547.904 109.871 563.867 113.37 570.919 102.895Z" fill="#D9C404" fill-opacity="0.7"/>
</g>
<g opacity="0.5">
<path d="M833.292 327.298C830.035 305.553 774.769 292.429 770.354 312.163C764.032 340.422 787.597 351.247 799.763 357.282C811.929 363.317 836.549 349.044 833.292 327.298Z" fill="#D9C404" fill-opacity="0.6"/>
<path d="M827.149 349.662C839.428 331.422 807.521 284.428 790.94 296.005C767.197 312.582 777.272 336.478 782.172 349.144C787.072 361.81 814.87 367.903 827.149 349.662Z" fill="#D9C404" fill-opacity="0.7"/>
</g>
<g opacity="0.5">
<path d="M634.953 278.493C631.696 256.747 576.43 243.623 572.015 263.357C565.693 291.617 589.258 302.441 601.424 308.477C613.59 314.512 638.21 300.238 634.953 278.493Z" fill="#D9C404" fill-opacity="0.6"/>
<path d="M628.81 300.857C641.089 282.617 609.182 235.623 592.602 247.199C568.858 263.776 578.933 287.672 583.833 300.338C588.733 313.004 616.531 319.097 628.81 300.857Z" fill="#D9C404" fill-opacity="0.7"/>
</g>
<g opacity="0.5">
<path d="M971.401 78.9007C968.144 57.1552 912.879 44.0312 908.464 63.765C902.141 92.0246 925.707 102.85 937.873 108.885C950.039 114.92 974.658 100.646 971.401 78.9007Z" fill="#D9C404" fill-opacity="0.6"/>
<path d="M965.258 101.265C977.537 83.0247 945.63 36.0306 929.05 47.6068C905.306 64.1844 915.381 88.0802 920.281 100.746C925.181 113.412 952.979 119.505 965.258 101.265Z" fill="#D9C404" fill-opacity="0.7"/>
</g>
<g opacity="0.5">
<path d="M804.215 42.5559C800.958 20.8104 745.693 7.68651 741.278 27.4203C734.955 55.6799 758.521 66.5048 770.687 72.5399C782.853 78.575 807.472 64.3015 804.215 42.5559Z" fill="#D9C404" fill-opacity="0.6"/>
<path d="M798.073 64.92C810.352 46.68 778.445 -0.314148 761.864 11.2621C738.121 27.8397 748.196 51.7354 753.096 64.4014C757.996 77.0673 785.793 83.1601 798.073 64.92Z" fill="#D9C404" fill-opacity="0.7"/>
</g>
<g opacity="0.5">
<path d="M605.878 -6.24975C602.621 -27.9953 547.355 -41.1192 542.94 -21.3854C536.618 6.8742 560.183 17.6991 572.349 23.7342C584.515 29.7693 609.135 15.4958 605.878 -6.24975Z" fill="#D9C404" fill-opacity="0.6"/>
<path d="M599.735 16.1143C612.014 -2.12573 580.107 -49.1198 563.526 -37.5436C539.783 -20.966 549.858 2.92975 554.758 15.5957C559.658 28.2616 587.456 34.3544 599.735 16.1143Z" fill="#D9C404" fill-opacity="0.7"/>
</g>
<g opacity="0.5">
<path d="M720.082 372.2C719.004 365.003 700.713 360.66 699.252 367.191C697.159 376.544 704.959 380.127 708.985 382.124C713.012 384.121 721.16 379.397 720.082 372.2Z" fill="#D9C404" fill-opacity="0.6"/>
<path d="M718.048 379.602C722.112 373.565 711.552 358.011 706.064 361.843C698.206 367.329 701.541 375.238 703.162 379.43C704.784 383.622 713.984 385.639 718.048 379.602Z" fill="#D9C404" fill-opacity="0.7"/>
</g>
<g opacity="0.5">
<path d="M1056.53 172.608C1055.45 165.411 1037.16 161.067 1035.7 167.599C1033.61 176.952 1041.41 180.534 1045.43 182.532C1049.46 184.529 1057.61 179.805 1056.53 172.608Z" fill="#D9C404" fill-opacity="0.6"/>
<path d="M1054.5 180.01C1058.56 173.973 1048 158.419 1042.51 162.251C1034.65 167.737 1037.99 175.646 1039.61 179.838C1041.23 184.03 1050.43 186.047 1054.5 180.01Z" fill="#D9C404" fill-opacity="0.7"/>
</g>
<g opacity="0.5">
<path d="M1066.08 65.9235C1071.88 61.5272 1066.92 43.3927 1060.49 45.2414C1051.28 47.8888 1051.87 56.4512 1052.05 60.9424C1052.23 65.4337 1060.28 70.3198 1066.08 65.9235Z" fill="#D9C404" fill-opacity="0.6"/>
<path d="M1058.61 67.6873C1065.86 68.3598 1074.44 51.6358 1068.45 48.6567C1059.87 44.3905 1054.53 51.1084 1051.62 54.5412C1048.72 57.9741 1051.36 67.0149 1058.61 67.6873Z" fill="#D9C404" fill-opacity="0.7"/>
</g>
<g opacity="0.5">
<path d="M521.744 323.395C520.666 316.197 502.375 311.854 500.914 318.385C498.821 327.738 506.621 331.321 510.647 333.318C514.674 335.316 522.822 330.592 521.744 323.395Z" fill="#D9C404" fill-opacity="0.6"/>
<path d="M519.71 330.796C523.774 324.759 513.214 309.206 507.727 313.037C499.868 318.524 503.203 326.433 504.824 330.625C506.446 334.817 515.646 336.833 519.71 330.796Z" fill="#D9C404" fill-opacity="0.7"/>
</g>
<g opacity="0.5">
<path d="M858.192 123.802C857.114 116.605 838.823 112.262 837.362 118.793C835.269 128.146 843.069 131.729 847.095 133.726C851.122 135.724 859.27 131 858.192 123.802Z" fill="#D9C404" fill-opacity="0.6"/>
<path d="M856.159 131.204C860.223 125.167 849.662 109.614 844.175 113.445C836.316 118.932 839.651 126.841 841.273 131.033C842.894 135.225 852.095 137.241 856.159 131.204Z" fill="#D9C404" fill-opacity="0.7"/>
</g>
<g opacity="0.5">
<path d="M691.007 87.4578C689.929 80.2607 671.638 75.9171 670.176 82.4483C668.084 91.8014 675.883 95.3841 679.91 97.3815C683.936 99.3789 692.085 94.6548 691.007 87.4578Z" fill="#D9C404" fill-opacity="0.6"/>
<path d="M688.973 94.8595C693.037 88.8226 682.477 73.269 676.989 77.1004C669.131 82.587 672.465 90.4958 674.087 94.6878C675.709 98.8798 684.909 100.896 688.973 94.8595Z" fill="#D9C404" fill-opacity="0.7"/>
</g>
<g opacity="0.5">
<path d="M492.669 38.6521C491.591 31.455 473.3 27.1114 471.839 33.6427C469.746 42.9957 477.545 46.5784 481.572 48.5758C485.599 50.5732 493.747 45.8492 492.669 38.6521Z" fill="#D9C404" fill-opacity="0.6"/>
<path d="M490.635 46.0538C494.699 40.0169 484.139 24.4633 478.651 28.2947C470.793 33.7814 474.127 41.6901 475.749 45.8821C477.371 50.0741 486.571 52.0907 490.635 46.0538Z" fill="#D9C404" fill-opacity="0.7"/>
</g>
</g>
<g clip-path="url(#clip1)">
<path d="M343.732 663.85C332.567 674.788 326.33 689.419 326.169 705.049C326.009 720.678 331.944 735.434 342.924 746.641L402.079 806.657C409.641 814.329 421.991 814.419 429.662 806.857C437.334 799.295 437.424 786.946 429.862 779.274L375.658 724.28L497.613 725.531C508.385 725.642 517.207 717 517.317 706.228C517.428 695.456 508.785 686.634 498.013 686.523L377.569 685.287L431.438 632.31C439.119 624.757 439.223 612.408 431.669 604.727C424.115 597.046 411.766 596.944 404.086 604.497L343.732 663.85Z" fill="#D9C404" fill-opacity="0.15"/>
<path d="M191.582 745.045C202.747 734.107 208.985 719.476 209.145 703.847C209.305 688.219 203.37 673.462 192.458 662.324L133.309 601.717C125.786 594.008 113.437 593.857 105.727 601.381C101.862 605.152 99.8974 610.135 99.8461 615.14C99.795 620.119 101.639 625.119 105.391 628.964L158.161 683.035L37.7176 681.798C26.9455 681.688 18.1239 690.33 18.0133 701.102C17.9028 711.874 26.5451 720.696 37.3172 720.807L159.272 722.058L103.95 775.927C96.2312 783.441 96.0694 795.791 103.583 803.509C111.098 811.227 123.447 811.391 131.165 803.875L191.582 745.045Z" fill="#D9C404" fill-opacity="0.15"/>
<path d="M283.832 934.003L288.557 473.707C288.667 462.935 280.025 454.114 269.253 454.003C258.481 453.893 249.659 462.535 249.549 473.307L244.824 933.603C244.713 944.375 253.355 953.196 264.127 953.307C274.9 953.417 283.721 944.775 283.832 934.003Z" fill="#D9C404" fill-opacity="0.15"/>
</g>
<g clip-path="url(#clip2)">
<path d="M1865.28 3468.4C1854.12 3479.34 1847.88 3493.97 1847.72 3509.6C1847.56 3525.23 1853.49 3539.98 1864.47 3551.19L1923.63 3611.21C1931.19 3618.88 1943.54 3618.97 1951.21 3611.41C1958.88 3603.84 1958.97 3591.5 1951.41 3583.82L1897.21 3528.83L2019.16 3530.08C2029.93 3530.19 2038.76 3521.55 2038.87 3510.78C2038.98 3500 2030.33 3491.18 2019.56 3491.07L1899.12 3489.84L1952.99 3436.86C1960.67 3429.31 1960.77 3416.96 1953.22 3409.28C1945.66 3401.6 1933.31 3401.49 1925.63 3409.05L1865.28 3468.4Z" fill="#D9C404" fill-opacity="0.15"/>
<path d="M1713.13 3549.6C1724.3 3538.66 1730.53 3524.03 1730.69 3508.4C1730.85 3492.77 1724.92 3478.01 1714.01 3466.87L1654.86 3406.27C1647.33 3398.56 1634.99 3398.41 1627.28 3405.93C1623.41 3409.7 1621.45 3414.68 1621.39 3419.69C1621.34 3424.67 1623.19 3429.67 1626.94 3433.51L1679.71 3487.58L1559.27 3486.35C1548.49 3486.24 1539.67 3494.88 1539.56 3505.65C1539.45 3516.42 1548.09 3525.25 1558.87 3525.36L1680.82 3526.61L1625.5 3580.48C1617.78 3587.99 1617.62 3600.34 1625.13 3608.06C1632.65 3615.78 1645 3615.94 1652.71 3608.42L1713.13 3549.6Z" fill="#D9C404" fill-opacity="0.15"/>
<path d="M1805.38 3738.55L1810.11 3278.26C1810.22 3267.48 1801.57 3258.66 1790.8 3258.55C1780.03 3258.44 1771.21 3267.08 1771.1 3277.86L1766.37 3738.15C1766.26 3748.92 1774.9 3757.75 1785.68 3757.86C1796.45 3757.97 1805.27 3749.32 1805.38 3738.55Z" fill="#D9C404" fill-opacity="0.15"/>
</g>
<path d="M2267.37 -1432L2260.34 -1458.76H2213.95L2206.73 -1432H2164.34L2210.93 -1575.36H2262.39L2309.56 -1432H2267.37ZM2252.33 -1490.4L2246.18 -1513.84C2244.75 -1519.04 2242.99 -1525.78 2240.91 -1534.05C2238.89 -1542.32 2237.55 -1548.24 2236.9 -1551.82C2236.32 -1548.5 2235.14 -1543.04 2233.39 -1535.42C2231.69 -1527.8 2227.89 -1512.79 2221.96 -1490.4H2252.33ZM2194.23 -1160V-1302.77H2232.8V-1191.15H2287.78V-1160H2194.23ZM2217.57 -888V-1030.77H2256.34V-888H2217.57ZM2235.73 -699.594H2297.35V-622.641C2280.62 -616.911 2262.23 -614.047 2242.18 -614.047C2220.17 -614.047 2203.15 -620.427 2191.1 -633.188C2179.12 -645.948 2173.13 -664.145 2173.13 -687.777C2173.13 -710.824 2179.71 -728.76 2192.86 -741.586C2206.01 -754.411 2224.43 -760.824 2248.13 -760.824C2257.12 -760.824 2265.58 -759.978 2273.52 -758.285C2281.53 -756.592 2288.5 -754.444 2294.42 -751.84L2282.21 -721.566C2271.93 -726.645 2260.63 -729.184 2248.33 -729.184C2237.07 -729.184 2228.34 -725.505 2222.16 -718.148C2216.04 -710.857 2212.98 -700.408 2212.98 -686.801C2212.98 -673.454 2215.74 -663.266 2221.28 -656.234C2226.88 -649.268 2234.92 -645.785 2245.4 -645.785C2251.13 -645.785 2256.4 -646.339 2261.22 -647.445V-669.809H2235.73V-699.594ZM2304.97 -344H2254.38L2202.23 -444.586H2201.36C2202.59 -428.766 2203.21 -416.689 2203.21 -408.355V-344H2169.03V-486.773H2219.42L2271.38 -387.555H2271.96C2271.05 -401.943 2270.59 -413.499 2270.59 -422.223V-486.773H2304.97V-344ZM2217.96 -72L2188.76 -174.832H2187.88C2189.25 -157.319 2189.93 -143.712 2189.93 -134.012V-72H2155.75V-214.773H2207.12L2236.9 -113.406H2237.68L2266.88 -214.773H2318.35L2318.35 -72H2282.9V-134.598C2282.9 -137.853 2282.93 -141.466 2283 -145.438C2283.13 -149.409 2283.58 -159.142 2284.36 -174.637H2283.48L2254.68 -72H2217.96ZM2282.31 200H2197.55V57.2266H2282.31V88.1836H2236.12V110.645H2278.89V141.602H2236.12V168.555H2282.31V200ZM2304.97 472H2254.38L2202.23 371.414H2201.36C2202.59 387.234 2203.21 399.311 2203.21 407.645V472H2169.03V329.227H2219.42L2271.38 428.445H2271.96C2271.05 414.057 2270.59 402.501 2270.59 393.777V329.227H2304.97V472ZM2256.34 744H2217.76V632.77H2182.9V601.227H2291.1V632.77H2256.34V744Z" fill="#D9C404" fill-opacity="0.15"/>
</g>
<defs>
<clipPath id="clip0">
<rect width="2600" height="4366" fill="white"/>
</clipPath>
<clipPath id="clip1">
<rect width="499.33" height="499.33" fill="white" transform="translate(519.88 456.576) rotate(90.5881)"/>
</clipPath>
<clipPath id="clip2">
<rect width="499.33" height="499.33" fill="white" transform="translate(2041.43 3261.13) rotate(90.5881)"/>
</clipPath>
</defs>
</svg>
