<svg width="2600" height="4366" viewBox="0 0 2600 4366" fill="none" xmlns="http://www.w3.org/2000/svg">
<g clip-path="url(#clip0)">
<rect width="2600" height="4366" fill="white"/>
<rect width="1440" height="24000" fill="white"/>
<g opacity="0.5">
<g opacity="0.5">
<path d="M2334.86 2259.6C2332.99 2247.11 2301.25 2239.58 2298.72 2250.91C2295.09 2267.14 2308.62 2273.35 2315.61 2276.82C2322.59 2280.28 2336.73 2272.09 2334.86 2259.6Z" fill="#2FAD00" fill-opacity="0.6"/>
<path d="M2331.33 2272.44C2338.38 2261.97 2320.06 2234.98 2310.54 2241.63C2296.91 2251.15 2302.69 2264.87 2305.5 2272.15C2308.32 2279.42 2324.28 2282.92 2331.33 2272.44Z" fill="#2FAD00" fill-opacity="0.7"/>
</g>
<g opacity="0.5">
<path d="M2256.72 1798.75C2266.78 1791.12 2258.18 1759.66 2247.02 1762.87C2231.04 1767.46 2232.07 1782.32 2232.38 1790.11C2232.69 1797.9 2246.66 1806.38 2256.72 1798.75Z" fill="#2FAD00" fill-opacity="0.6"/>
<path d="M2243.76 1801.81C2256.33 1802.98 2271.23 1773.96 2260.83 1768.79C2245.94 1761.39 2236.67 1773.05 2231.64 1779C2226.6 1784.96 2231.19 1800.65 2243.76 1801.81Z" fill="#2FAD00" fill-opacity="0.7"/>
</g>
<g opacity="0.5">
<path d="M2136.52 2210.8C2134.65 2198.31 2102.92 2190.77 2100.38 2202.1C2096.75 2218.33 2110.28 2224.55 2117.27 2228.01C2124.25 2231.48 2138.39 2223.28 2136.52 2210.8Z" fill="#2FAD00" fill-opacity="0.6"/>
<path d="M2132.99 2223.64C2140.05 2213.16 2121.72 2186.18 2112.2 2192.82C2098.57 2202.34 2104.35 2216.07 2107.17 2223.34C2109.98 2230.61 2125.94 2234.11 2132.99 2223.64Z" fill="#2FAD00" fill-opacity="0.7"/>
</g>
<g opacity="0.5">
<path d="M2204.47 1601.29C2214.53 1593.67 2205.93 1562.2 2194.77 1565.41C2178.79 1570 2179.82 1584.86 2180.13 1592.65C2180.44 1600.44 2194.41 1608.92 2204.47 1601.29Z" fill="#2FAD00" fill-opacity="0.6"/>
<path d="M2191.51 1604.35C2204.08 1605.52 2218.98 1576.5 2208.58 1571.34C2193.69 1563.93 2184.42 1575.59 2179.39 1581.55C2174.35 1587.5 2178.94 1603.19 2191.51 1604.35Z" fill="#2FAD00" fill-opacity="0.7"/>
</g>
<g opacity="0.5">
<path d="M2472.97 2011.2C2471.1 1998.72 2439.36 1991.18 2436.83 2002.51C2433.2 2018.74 2446.73 2024.96 2453.72 2028.42C2460.7 2031.89 2474.84 2023.69 2472.97 2011.2Z" fill="#2FAD00" fill-opacity="0.6"/>
<path d="M2469.44 2024.05C2476.49 2013.57 2458.17 1986.58 2448.65 1993.23C2435.01 2002.75 2440.8 2016.47 2443.61 2023.75C2446.43 2031.02 2462.39 2034.52 2469.44 2024.05Z" fill="#2FAD00" fill-opacity="0.7"/>
</g>
<g opacity="0.5">
<path d="M2540.92 1800.87C2550.99 1793.25 2542.39 1761.78 2531.23 1764.99C2515.24 1769.58 2516.28 1784.44 2516.58 1792.23C2516.89 1800.02 2530.86 1808.5 2540.92 1800.87Z" fill="#2FAD00" fill-opacity="0.6"/>
<path d="M2527.96 1803.94C2540.54 1805.1 2555.43 1776.08 2545.04 1770.92C2530.14 1763.51 2520.88 1775.17 2515.84 1781.13C2510.81 1787.08 2515.39 1802.77 2527.96 1803.94Z" fill="#2FAD00" fill-opacity="0.7"/>
</g>
<g opacity="0.5">
<path d="M2305.78 1974.86C2303.91 1962.37 2272.18 1954.83 2269.64 1966.17C2266.01 1982.4 2279.54 1988.61 2286.53 1992.08C2293.52 1995.54 2307.66 1987.35 2305.78 1974.86Z" fill="#2FAD00" fill-opacity="0.6"/>
<path d="M2302.26 1987.7C2309.31 1977.23 2290.99 1950.24 2281.46 1956.89C2267.83 1966.41 2273.61 1980.13 2276.43 1987.4C2279.24 1994.68 2295.21 1998.18 2302.26 1987.7Z" fill="#2FAD00" fill-opacity="0.7"/>
</g>
<g opacity="0.5">
<path d="M2492.67 1636.73C2502.73 1629.1 2494.13 1597.64 2482.97 1600.84C2466.99 1605.44 2468.02 1620.29 2468.33 1628.09C2468.64 1635.88 2482.61 1644.36 2492.67 1636.73Z" fill="#2FAD00" fill-opacity="0.6"/>
<path d="M2479.71 1639.79C2492.28 1640.96 2507.18 1611.94 2496.78 1606.77C2481.89 1599.37 2472.62 1611.02 2467.59 1616.98C2462.56 1622.94 2467.14 1638.62 2479.71 1639.79Z" fill="#2FAD00" fill-opacity="0.7"/>
</g>
<g opacity="0.5">
<path d="M2107.45 1926.05C2105.58 1913.57 2073.84 1906.03 2071.3 1917.36C2067.67 1933.59 2081.21 1939.81 2088.19 1943.27C2095.18 1946.74 2109.32 1938.54 2107.45 1926.05Z" fill="#2FAD00" fill-opacity="0.6"/>
<path d="M2103.92 1938.9C2110.97 1928.42 2092.65 1901.43 2083.13 1908.08C2069.49 1917.6 2075.28 1931.32 2078.09 1938.6C2080.9 1945.87 2096.87 1949.37 2103.92 1938.9Z" fill="#2FAD00" fill-opacity="0.7"/>
</g>
<g opacity="0.5">
<path d="M2440.42 1439.27C2450.48 1431.64 2441.88 1400.18 2430.72 1403.39C2414.74 1407.98 2415.77 1422.84 2416.08 1430.63C2416.39 1438.42 2430.36 1446.9 2440.42 1439.27Z" fill="#2FAD00" fill-opacity="0.6"/>
<path d="M2427.46 1442.33C2440.03 1443.5 2454.93 1414.48 2444.53 1409.31C2429.64 1401.91 2420.37 1413.57 2415.34 1419.52C2410.3 1425.48 2414.89 1441.17 2427.46 1442.33Z" fill="#2FAD00" fill-opacity="0.7"/>
</g>
<g opacity="0.5">
<path d="M2366.29 2163.3C2363.03 2141.55 2307.77 2128.43 2303.35 2148.16C2297.03 2176.42 2320.6 2187.25 2332.76 2193.28C2344.93 2199.32 2369.55 2185.04 2366.29 2163.3Z" fill="#2FAD00" fill-opacity="0.6"/>
<path d="M2360.15 2185.66C2372.43 2167.42 2340.52 2120.43 2323.94 2132C2300.2 2148.58 2310.27 2172.48 2315.17 2185.14C2320.07 2197.81 2347.87 2203.9 2360.15 2185.66Z" fill="#2FAD00" fill-opacity="0.7"/>
</g>
<g opacity="0.5">
<path d="M2356.3 1780.17C2373.83 1766.89 2358.85 1712.09 2339.41 1717.68C2311.58 1725.68 2313.38 1751.55 2313.92 1765.12C2314.45 1778.69 2338.78 1793.45 2356.3 1780.17Z" fill="#2FAD00" fill-opacity="0.6"/>
<path d="M2333.73 1785.5C2355.63 1787.53 2381.57 1737 2363.46 1728C2337.53 1715.11 2321.39 1735.41 2312.63 1745.78C2303.86 1756.15 2311.84 1783.47 2333.73 1785.5Z" fill="#2FAD00" fill-opacity="0.7"/>
</g>
<g opacity="0.5">
<path d="M2167.95 2114.49C2164.7 2092.75 2109.43 2079.62 2105.02 2099.36C2098.69 2127.62 2122.26 2138.44 2134.42 2144.48C2146.59 2150.51 2171.21 2136.24 2167.95 2114.49Z" fill="#2FAD00" fill-opacity="0.6"/>
<path d="M2161.81 2136.86C2174.09 2118.62 2142.18 2071.62 2125.6 2083.2C2101.86 2099.78 2111.93 2123.67 2116.83 2136.34C2121.73 2149 2149.53 2155.1 2161.81 2136.86Z" fill="#2FAD00" fill-opacity="0.7"/>
</g>
<g opacity="0.5">
<path d="M2304.05 1582.71C2321.57 1569.43 2306.6 1514.63 2287.16 1520.22C2259.33 1528.22 2261.13 1554.09 2261.67 1567.66C2262.2 1581.23 2286.53 1595.99 2304.05 1582.71Z" fill="#2FAD00" fill-opacity="0.6"/>
<path d="M2281.48 1588.04C2303.37 1590.07 2329.32 1539.54 2311.21 1530.54C2285.28 1517.65 2269.14 1537.95 2260.37 1548.32C2251.61 1558.69 2259.59 1586.01 2281.48 1588.04Z" fill="#2FAD00" fill-opacity="0.7"/>
</g>
<g opacity="0.5">
<path d="M2504.4 1914.9C2501.14 1893.16 2445.88 1880.03 2441.46 1899.77C2435.14 1928.02 2458.71 1938.85 2470.87 1944.88C2483.04 1950.92 2507.66 1936.65 2504.4 1914.9Z" fill="#2FAD00" fill-opacity="0.6"/>
<path d="M2498.26 1937.26C2510.54 1919.02 2478.63 1872.03 2462.05 1883.61C2438.31 1900.18 2448.38 1924.08 2453.28 1936.75C2458.18 1949.41 2485.98 1955.5 2498.26 1937.26Z" fill="#2FAD00" fill-opacity="0.7"/>
</g>
<g opacity="0.5">
<path d="M2640.51 1782.29C2658.03 1769.01 2643.05 1714.22 2623.62 1719.8C2595.79 1727.8 2597.58 1753.67 2598.12 1767.24C2598.66 1780.81 2622.99 1795.57 2640.51 1782.29Z" fill="#2FAD00" fill-opacity="0.6"/>
<path d="M2617.94 1787.62C2639.83 1789.65 2665.78 1739.12 2647.67 1730.12C2621.74 1717.23 2605.6 1737.53 2596.83 1747.9C2588.06 1758.27 2596.04 1785.59 2617.94 1787.62Z" fill="#2FAD00" fill-opacity="0.7"/>
</g>
<g opacity="0.5">
<path d="M2337.22 1878.56C2333.96 1856.81 2278.69 1843.69 2274.28 1863.42C2267.96 1891.68 2291.52 1902.5 2303.69 1908.54C2315.85 1914.57 2340.47 1900.3 2337.22 1878.56Z" fill="#2FAD00" fill-opacity="0.6"/>
<path d="M2331.07 1900.92C2343.35 1882.68 2311.44 1835.69 2294.86 1847.26C2271.12 1863.84 2281.2 1887.74 2286.1 1900.4C2291 1913.07 2318.79 1919.16 2331.07 1900.92Z" fill="#2FAD00" fill-opacity="0.7"/>
</g>
<g opacity="0.5">
<path d="M2592.25 1618.15C2609.78 1604.86 2594.8 1550.07 2575.37 1555.66C2547.53 1563.66 2549.33 1589.53 2549.87 1603.1C2550.4 1616.67 2574.73 1631.43 2592.25 1618.15Z" fill="#2FAD00" fill-opacity="0.6"/>
<path d="M2569.68 1623.48C2591.58 1625.51 2617.52 1574.98 2599.41 1565.98C2573.48 1553.09 2557.34 1573.38 2548.58 1583.76C2539.81 1594.13 2547.79 1621.44 2569.68 1623.48Z" fill="#2FAD00" fill-opacity="0.7"/>
</g>
<g opacity="0.5">
<path d="M2138.88 1829.75C2135.62 1808 2080.36 1794.88 2075.94 1814.61C2069.62 1842.87 2093.18 1853.7 2105.35 1859.73C2117.52 1865.77 2142.13 1851.5 2138.88 1829.75Z" fill="#2FAD00" fill-opacity="0.6"/>
<path d="M2132.73 1852.11C2145.01 1833.87 2113.11 1786.88 2096.53 1798.46C2072.78 1815.03 2082.86 1838.93 2087.76 1851.6C2092.66 1864.26 2120.46 1870.35 2132.73 1852.11Z" fill="#2FAD00" fill-opacity="0.7"/>
</g>
<g opacity="0.5">
<path d="M2540 1420.69C2557.52 1407.4 2542.55 1352.61 2523.11 1358.2C2495.28 1366.2 2497.08 1392.07 2497.62 1405.64C2498.15 1419.21 2522.48 1433.97 2540 1420.69Z" fill="#2FAD00" fill-opacity="0.6"/>
<path d="M2517.43 1426.02C2539.32 1428.05 2565.27 1377.52 2547.16 1368.52C2521.23 1355.63 2505.09 1375.93 2496.32 1386.3C2487.56 1396.67 2495.54 1423.99 2517.43 1426.02Z" fill="#2FAD00" fill-opacity="0.7"/>
</g>
<g opacity="0.5">
<path d="M2253.08 2208.2C2252 2201 2233.71 2196.66 2232.25 2203.19C2230.16 2212.54 2237.96 2216.13 2241.99 2218.12C2246.01 2220.12 2254.16 2215.4 2253.08 2208.2Z" fill="#2FAD00" fill-opacity="0.6"/>
<path d="M2251.05 2215.6C2255.11 2209.56 2244.55 2194.01 2239.06 2197.84C2231.21 2203.33 2234.54 2211.24 2236.16 2215.43C2237.78 2219.62 2246.98 2221.64 2251.05 2215.6Z" fill="#2FAD00" fill-opacity="0.7"/>
</g>
<g opacity="0.5">
<path d="M2262.63 1702.34C2268.43 1697.95 2263.47 1679.81 2257.04 1681.66C2247.83 1684.31 2248.42 1692.87 2248.6 1697.36C2248.78 1701.85 2256.83 1706.74 2262.63 1702.34Z" fill="#2FAD00" fill-opacity="0.6"/>
<path d="M2255.16 1704.11C2262.4 1704.78 2270.99 1688.05 2265 1685.08C2256.41 1680.81 2251.07 1687.53 2248.17 1690.96C2245.27 1694.39 2247.91 1703.43 2255.16 1704.11Z" fill="#2FAD00" fill-opacity="0.7"/>
</g>
<g opacity="0.5">
<path d="M2589.53 2008.61C2588.45 2001.41 2570.16 1997.07 2568.7 2003.6C2566.61 2012.95 2574.41 2016.53 2578.43 2018.53C2582.46 2020.53 2590.61 2015.81 2589.53 2008.61Z" fill="#2FAD00" fill-opacity="0.6"/>
<path d="M2587.5 2016.01C2591.56 2009.97 2581 1994.42 2575.51 1998.25C2567.65 2003.74 2570.99 2011.65 2572.61 2015.84C2574.23 2020.03 2583.43 2022.05 2587.5 2016.01Z" fill="#2FAD00" fill-opacity="0.7"/>
</g>
<g opacity="0.5">
<path d="M2599.08 1901.92C2604.88 1897.53 2599.92 1879.39 2593.49 1881.24C2584.28 1883.89 2584.87 1892.45 2585.05 1896.94C2585.23 1901.43 2593.28 1906.32 2599.08 1901.92Z" fill="#2FAD00" fill-opacity="0.6"/>
<path d="M2591.61 1903.69C2598.86 1904.36 2607.44 1887.64 2601.45 1884.66C2592.87 1880.39 2587.53 1887.11 2584.62 1890.54C2581.72 1893.97 2584.36 1903.01 2591.61 1903.69Z" fill="#2FAD00" fill-opacity="0.7"/>
</g>
<g opacity="0.5">
<path d="M2054.74 2159.39C2053.67 2152.2 2035.37 2147.85 2033.91 2154.39C2031.82 2163.74 2039.62 2167.32 2043.65 2169.32C2047.67 2171.32 2055.82 2166.59 2054.74 2159.39Z" fill="#2FAD00" fill-opacity="0.6"/>
<path d="M2052.71 2166.8C2056.77 2160.76 2046.21 2145.21 2040.73 2149.04C2032.87 2154.52 2036.2 2162.43 2037.82 2166.62C2039.45 2170.82 2048.65 2172.83 2052.71 2166.8Z" fill="#2FAD00" fill-opacity="0.7"/>
</g>
<g opacity="0.5">
<path d="M2210.37 1504.88C2216.17 1500.49 2211.22 1482.35 2204.78 1484.2C2195.57 1486.85 2196.17 1495.41 2196.34 1499.9C2196.52 1504.39 2204.57 1509.28 2210.37 1504.88Z" fill="#2FAD00" fill-opacity="0.6"/>
<path d="M2202.9 1506.65C2210.15 1507.32 2218.74 1490.6 2212.74 1487.62C2204.16 1483.35 2198.82 1490.07 2195.92 1493.5C2193.02 1496.93 2195.66 1505.98 2202.9 1506.65Z" fill="#2FAD00" fill-opacity="0.7"/>
</g>
<g opacity="0.5">
<path d="M2391.19 1959.8C2390.11 1952.61 2371.82 1948.26 2370.36 1954.79C2368.27 1964.15 2376.07 1967.73 2380.1 1969.73C2384.12 1971.72 2392.27 1967 2391.19 1959.8Z" fill="#2FAD00" fill-opacity="0.6"/>
<path d="M2389.16 1967.2C2393.22 1961.17 2382.66 1945.61 2377.17 1949.45C2369.32 1954.93 2372.65 1962.84 2374.27 1967.03C2375.89 1971.22 2385.09 1973.24 2389.16 1967.2Z" fill="#2FAD00" fill-opacity="0.7"/>
</g>
<g opacity="0.5">
<path d="M2546.83 1704.46C2552.63 1700.07 2547.67 1681.93 2541.24 1683.78C2532.03 1686.43 2532.62 1694.99 2532.8 1699.48C2532.98 1703.97 2541.03 1708.86 2546.83 1704.46Z" fill="#2FAD00" fill-opacity="0.6"/>
<path d="M2539.36 1706.23C2546.6 1706.9 2555.19 1690.18 2549.2 1687.2C2540.62 1682.93 2535.27 1689.65 2532.37 1693.08C2529.47 1696.52 2532.11 1705.56 2539.36 1706.23Z" fill="#2FAD00" fill-opacity="0.7"/>
</g>
<g opacity="0.5">
<path d="M2224.01 1923.46C2222.93 1916.26 2204.64 1911.92 2203.18 1918.45C2201.08 1927.8 2208.88 1931.38 2212.91 1933.38C2216.94 1935.38 2225.08 1930.65 2224.01 1923.46Z" fill="#2FAD00" fill-opacity="0.6"/>
<path d="M2221.97 1930.86C2226.04 1924.82 2215.48 1909.27 2209.99 1913.1C2202.13 1918.59 2205.47 1926.5 2207.09 1930.69C2208.71 1934.88 2217.91 1936.9 2221.97 1930.86Z" fill="#2FAD00" fill-opacity="0.7"/>
</g>
<g opacity="0.5">
<path d="M2498.58 1540.32C2504.38 1535.92 2499.42 1517.79 2492.99 1519.64C2483.78 1522.29 2484.37 1530.85 2484.55 1535.34C2484.73 1539.83 2492.78 1544.72 2498.58 1540.32Z" fill="#2FAD00" fill-opacity="0.6"/>
<path d="M2491.11 1542.08C2498.35 1542.76 2506.94 1526.03 2500.95 1523.05C2492.36 1518.79 2487.02 1525.5 2484.12 1528.94C2481.22 1532.37 2483.86 1541.41 2491.11 1542.08Z" fill="#2FAD00" fill-opacity="0.7"/>
</g>
<g opacity="0.5">
<path d="M2025.67 1874.65C2024.59 1867.45 2006.3 1863.11 2004.84 1869.64C2002.75 1879 2010.55 1882.58 2014.57 1884.58C2018.6 1886.57 2026.75 1881.85 2025.67 1874.65Z" fill="#2FAD00" fill-opacity="0.6"/>
<path d="M2023.64 1882.05C2027.7 1876.02 2017.14 1860.46 2011.65 1864.29C2003.79 1869.78 2007.13 1877.69 2008.75 1881.88C2010.37 1886.07 2019.57 1888.09 2023.64 1882.05Z" fill="#2FAD00" fill-opacity="0.7"/>
</g>
<g opacity="0.5">
<path d="M2446.32 1342.86C2452.12 1338.47 2447.17 1320.33 2440.74 1322.18C2431.52 1324.83 2432.12 1333.39 2432.3 1337.88C2432.47 1342.37 2440.53 1347.26 2446.32 1342.86Z" fill="#2FAD00" fill-opacity="0.6"/>
<path d="M2438.85 1344.63C2446.1 1345.3 2454.69 1328.57 2448.69 1325.59C2440.11 1321.33 2434.77 1328.05 2431.87 1331.48C2428.97 1334.91 2431.61 1343.95 2438.85 1344.63Z" fill="#2FAD00" fill-opacity="0.7"/>
</g>
</g>
<g opacity="0.5">
<g opacity="0.5">
<path d="M2642.33 585.443C2649.38 574.969 2631.06 547.982 2621.54 554.63C2607.91 564.15 2613.69 577.872 2616.5 585.145C2619.32 592.419 2635.28 595.918 2642.33 585.443Z" fill="#2FAD00" fill-opacity="0.7"/>
</g>
<g opacity="0.5">
<path d="M2567.72 111.752C2577.78 104.124 2569.18 72.659 2558.02 75.8666C2542.04 80.4601 2543.07 95.3163 2543.38 103.109C2543.69 110.902 2557.66 119.379 2567.72 111.752Z" fill="#2FAD00" fill-opacity="0.6"/>
<path d="M2554.76 114.812C2567.33 115.979 2582.23 86.9617 2571.83 81.7928C2556.94 74.3906 2547.67 86.0465 2542.64 92.0028C2537.6 97.959 2542.19 113.645 2554.76 114.812Z" fill="#2FAD00" fill-opacity="0.7"/>
</g>
<g opacity="0.5">
<path d="M2447.52 523.795C2445.65 511.308 2413.92 503.772 2411.38 515.104C2407.75 531.332 2421.28 537.548 2428.27 541.014C2435.25 544.479 2449.39 536.283 2447.52 523.795Z" fill="#2FAD00" fill-opacity="0.6"/>
<path d="M2443.99 536.638C2451.05 526.163 2432.72 499.177 2423.2 505.824C2409.57 515.344 2415.35 529.066 2418.17 536.34C2420.98 543.613 2436.94 547.112 2443.99 536.638Z" fill="#2FAD00" fill-opacity="0.7"/>
</g>
<g opacity="0.5">
<path d="M2616.78 287.859C2614.91 275.371 2583.18 267.835 2580.64 279.167C2577.01 295.395 2590.54 301.611 2597.53 305.077C2604.52 308.543 2618.66 300.346 2616.78 287.859Z" fill="#2FAD00" fill-opacity="0.6"/>
<path d="M2613.26 300.701C2620.31 290.227 2601.99 263.24 2592.46 269.888C2578.83 279.408 2584.61 293.13 2587.43 300.403C2590.24 307.677 2606.21 311.175 2613.26 300.701Z" fill="#2FAD00" fill-opacity="0.7"/>
</g>
<g opacity="0.5">
<path d="M2418.45 239.053C2416.58 226.566 2384.84 219.029 2382.3 230.361C2378.67 246.589 2392.21 252.806 2399.19 256.271C2406.18 259.737 2420.32 251.54 2418.45 239.053Z" fill="#2FAD00" fill-opacity="0.6"/>
<path d="M2414.92 251.895C2421.97 241.421 2403.65 214.434 2394.13 221.082C2380.49 230.602 2386.28 244.324 2389.09 251.597C2391.9 258.871 2407.87 262.37 2414.92 251.895Z" fill="#2FAD00" fill-opacity="0.7"/>
</g>
<g opacity="0.5">
<path d="M2671.15 498.662C2683.43 480.422 2651.52 433.428 2634.94 445.005C2611.2 461.582 2621.27 485.478 2626.17 498.144C2631.07 510.81 2658.87 516.903 2671.15 498.662Z" fill="#2FAD00" fill-opacity="0.7"/>
</g>
<g opacity="0.5">
<path d="M2478.95 427.493C2475.7 405.747 2420.43 392.623 2416.02 412.357C2409.69 440.617 2433.26 451.441 2445.42 457.477C2457.59 463.512 2482.21 449.238 2478.95 427.493Z" fill="#2FAD00" fill-opacity="0.6"/>
<path d="M2472.81 449.857C2485.09 431.617 2453.18 384.623 2436.6 396.199C2412.86 412.776 2422.93 436.672 2427.83 449.338C2432.73 462.004 2460.53 468.097 2472.81 449.857Z" fill="#2FAD00" fill-opacity="0.7"/>
</g>
<g opacity="0.5">
<path d="M2648.22 191.556C2644.96 169.81 2589.69 156.687 2585.28 176.42C2578.96 204.68 2602.52 215.505 2614.69 221.54C2626.85 227.575 2651.47 213.301 2648.22 191.556Z" fill="#2FAD00" fill-opacity="0.6"/>
<path d="M2642.07 213.92C2654.35 195.68 2622.44 148.686 2605.86 160.262C2582.12 176.84 2592.2 200.735 2597.1 213.401C2602 226.067 2629.79 232.16 2642.07 213.92Z" fill="#2FAD00" fill-opacity="0.7"/>
</g>
<g opacity="0.5">
<path d="M2449.88 142.75C2446.62 121.005 2391.36 107.881 2386.94 127.615C2380.62 155.874 2404.18 166.699 2416.35 172.734C2428.52 178.769 2453.13 164.496 2449.88 142.75Z" fill="#2FAD00" fill-opacity="0.6"/>
<path d="M2443.73 165.114C2456.01 146.874 2424.11 99.8802 2407.53 111.456C2383.78 128.034 2393.86 151.93 2398.76 164.596C2403.66 177.262 2431.46 183.354 2443.73 165.114Z" fill="#2FAD00" fill-opacity="0.7"/>
</g>
<g opacity="0.5">
<path d="M2564.08 521.2C2563 514.003 2544.71 509.66 2543.25 516.191C2541.16 525.544 2548.96 529.127 2552.99 531.124C2557.01 533.121 2565.16 528.397 2564.08 521.2Z" fill="#2FAD00" fill-opacity="0.6"/>
<path d="M2562.05 528.602C2566.11 522.565 2555.55 507.011 2550.06 510.843C2542.21 516.329 2545.54 524.238 2547.16 528.43C2548.78 532.622 2557.98 534.639 2562.05 528.602Z" fill="#2FAD00" fill-opacity="0.7"/>
</g>
<g opacity="0.5">
<path d="M2573.63 15.3421C2579.43 10.9458 2574.47 -7.18871 2568.04 -5.33999C2558.83 -2.69256 2559.42 5.86978 2559.6 10.361C2559.78 14.8523 2567.83 19.7384 2573.63 15.3421Z" fill="#2FAD00" fill-opacity="0.6"/>
<path d="M2566.16 17.1059C2573.4 17.7784 2581.99 1.0544 2576 -1.9247C2567.41 -6.1909 2562.07 0.526956 2559.17 3.9598C2556.27 7.39265 2558.91 16.4335 2566.16 17.1059Z" fill="#2FAD00" fill-opacity="0.7"/>
</g>
<g opacity="0.5">
<path d="M2365.74 472.395C2364.67 465.197 2346.37 460.854 2344.91 467.385C2342.82 476.738 2350.62 480.321 2354.65 482.318C2358.67 484.316 2366.82 479.592 2365.74 472.395Z" fill="#2FAD00" fill-opacity="0.6"/>
<path d="M2363.71 479.796C2367.77 473.759 2357.21 458.206 2351.73 462.037C2343.87 467.524 2347.2 475.433 2348.82 479.625C2350.45 483.817 2359.65 485.833 2363.71 479.796Z" fill="#2FAD00" fill-opacity="0.7"/>
</g>
<g opacity="0.5">
<path d="M2535.01 236.458C2533.93 229.261 2515.64 224.917 2514.18 231.448C2512.08 240.801 2519.88 244.384 2523.91 246.382C2527.94 248.379 2536.08 243.655 2535.01 236.458Z" fill="#2FAD00" fill-opacity="0.6"/>
<path d="M2532.97 243.859C2537.04 237.823 2526.48 222.269 2520.99 226.1C2513.13 231.587 2516.47 239.496 2518.09 243.688C2519.71 247.88 2528.91 249.896 2532.97 243.859Z" fill="#2FAD00" fill-opacity="0.7"/>
</g>
<g opacity="0.5">
<path d="M2336.67 187.652C2335.59 180.455 2317.3 176.111 2315.84 182.643C2313.75 191.996 2321.55 195.578 2325.57 197.576C2329.6 199.573 2337.75 194.849 2336.67 187.652Z" fill="#2FAD00" fill-opacity="0.6"/>
<path d="M2334.64 195.054C2338.7 189.017 2328.14 173.463 2322.65 177.295C2314.79 182.781 2318.13 190.69 2319.75 194.882C2321.37 199.074 2330.57 201.091 2334.64 195.054Z" fill="#2FAD00" fill-opacity="0.7"/>
</g>
</g>
<g opacity="0.5">
<g opacity="0.5">
<path d="M86.861 3868.6C84.9907 3856.11 53.2544 3848.58 50.719 3859.91C47.0883 3876.14 60.6209 3882.35 67.6073 3885.82C74.5937 3889.28 88.7314 3881.09 86.861 3868.6Z" fill="#2FAD00" fill-opacity="0.6"/>
<path d="M83.3328 3881.44C90.3841 3870.97 72.0614 3843.98 62.5401 3850.63C48.9053 3860.15 54.691 3873.87 57.5047 3881.15C60.3185 3888.42 76.2815 3891.92 83.3328 3881.44Z" fill="#2FAD00" fill-opacity="0.7"/>
</g>
<g opacity="0.5">
<path d="M8.72136 3407.75C18.7836 3400.12 10.1832 3368.66 -0.97733 3371.87C-16.9597 3376.46 -15.9274 3391.32 -15.6196 3399.11C-15.3118 3406.9 -1.3409 3415.38 8.72136 3407.75Z" fill="#2FAD00" fill-opacity="0.6"/>
<path d="M-4.24067 3410.81C8.33202 3411.98 23.2314 3382.96 12.8329 3377.79C-2.05813 3370.39 -11.327 3382.05 -16.3613 3388C-21.3955 3393.96 -16.8134 3409.65 -4.24067 3410.81Z" fill="#2FAD00" fill-opacity="0.7"/>
</g>
<g opacity="0.5">
<path d="M224.97 3620.2C223.1 3607.72 191.364 3600.18 188.828 3611.51C185.198 3627.74 198.73 3633.96 205.717 3637.42C212.703 3640.89 226.841 3632.69 224.97 3620.2Z" fill="#2FAD00" fill-opacity="0.6"/>
<path d="M221.442 3633.05C228.493 3622.57 210.171 3595.58 200.649 3602.23C187.015 3611.75 192.8 3625.47 195.614 3632.75C198.428 3640.02 214.391 3643.52 221.442 3633.05Z" fill="#2FAD00" fill-opacity="0.7"/>
</g>
<g opacity="0.5">
<path d="M292.924 3409.87C302.987 3402.25 294.386 3370.78 283.226 3373.99C267.243 3378.58 268.276 3393.44 268.583 3401.23C268.891 3409.02 282.862 3417.5 292.924 3409.87Z" fill="#2FAD00" fill-opacity="0.6"/>
<path d="M279.962 3412.94C292.535 3414.1 307.435 3385.08 297.036 3379.92C282.145 3372.51 272.876 3384.17 267.842 3390.13C262.808 3396.08 267.39 3411.77 279.962 3412.94Z" fill="#2FAD00" fill-opacity="0.7"/>
</g>
<g opacity="0.5">
<path d="M57.7849 3583.86C55.9145 3571.37 24.1782 3563.83 21.6429 3575.17C18.0122 3591.4 31.5448 3597.61 38.5311 3601.08C45.5175 3604.54 59.6552 3596.35 57.7849 3583.86Z" fill="#2FAD00" fill-opacity="0.6"/>
<path d="M54.2566 3596.7C61.3079 3586.23 42.9852 3559.24 33.464 3565.89C19.8291 3575.41 25.6148 3589.13 28.4285 3596.4C31.2423 3603.68 47.2053 3607.18 54.2566 3596.7Z" fill="#2FAD00" fill-opacity="0.7"/>
</g>
<g opacity="0.5">
<path d="M244.673 3245.73C254.735 3238.1 246.134 3206.64 234.974 3209.84C218.992 3214.44 220.024 3229.29 220.332 3237.09C220.639 3244.88 234.61 3253.36 244.673 3245.73Z" fill="#2FAD00" fill-opacity="0.6"/>
<path d="M231.71 3248.79C244.283 3249.96 259.183 3220.94 248.784 3215.77C233.893 3208.37 224.624 3220.02 219.59 3225.98C214.556 3231.94 219.138 3247.62 231.71 3248.79Z" fill="#2FAD00" fill-opacity="0.7"/>
</g>
<g opacity="0.5">
<path d="M192.421 3048.27C202.483 3040.64 193.882 3009.18 182.722 3012.39C166.74 3016.98 167.772 3031.84 168.08 3039.63C168.387 3047.42 182.358 3055.9 192.421 3048.27Z" fill="#2FAD00" fill-opacity="0.6"/>
<path d="M179.459 3051.33C192.031 3052.5 206.931 3023.48 196.532 3018.31C181.641 3010.91 172.372 3022.57 167.338 3028.52C162.304 3034.48 166.886 3050.17 179.459 3051.33Z" fill="#2FAD00" fill-opacity="0.7"/>
</g>
<g opacity="0.5">
<path d="M118.292 3772.3C115.035 3750.55 59.7692 3737.43 55.3541 3757.16C49.0317 3785.42 72.5973 3796.25 84.7633 3802.28C96.9293 3808.32 121.549 3794.04 118.292 3772.3Z" fill="#2FAD00" fill-opacity="0.6"/>
<path d="M112.149 3794.66C124.428 3776.42 92.5208 3729.43 75.9405 3741C52.1968 3757.58 62.272 3781.48 67.1718 3794.14C72.0717 3806.81 99.8696 3812.9 112.149 3794.66Z" fill="#2FAD00" fill-opacity="0.7"/>
</g>
<g opacity="0.5">
<path d="M108.303 3389.17C125.826 3375.89 110.849 3321.09 91.4141 3326.68C63.5826 3334.68 65.3801 3360.55 65.9161 3374.12C66.4521 3387.69 90.781 3402.45 108.303 3389.17Z" fill="#2FAD00" fill-opacity="0.6"/>
<path d="M85.7318 3394.5C107.626 3396.53 133.571 3346 115.464 3337C89.5324 3324.11 73.3916 3344.41 64.625 3354.78C55.8585 3365.15 63.8377 3392.47 85.7318 3394.5Z" fill="#2FAD00" fill-opacity="0.7"/>
</g>
<g opacity="0.5">
<path d="M56.0524 3191.71C73.5748 3178.43 58.598 3123.63 39.1632 3129.22C11.3316 3137.22 13.1291 3163.09 13.6651 3176.66C14.2011 3190.23 38.53 3204.99 56.0524 3191.71Z" fill="#2FAD00" fill-opacity="0.6"/>
<path d="M33.4808 3197.04C55.3748 3199.07 81.3204 3148.54 63.2126 3139.54C37.2814 3126.65 21.1406 3146.95 12.3741 3157.32C3.6075 3167.69 11.5868 3195.01 33.4808 3197.04Z" fill="#2FAD00" fill-opacity="0.7"/>
</g>
<g opacity="0.5">
<path d="M256.401 3523.9C253.144 3502.16 197.879 3489.03 193.464 3508.77C187.141 3537.02 210.707 3547.85 222.873 3553.88C235.039 3559.92 259.658 3545.65 256.401 3523.9Z" fill="#2FAD00" fill-opacity="0.6"/>
<path d="M250.258 3546.26C262.537 3528.02 230.63 3481.03 214.05 3492.61C190.306 3509.18 200.381 3533.08 205.281 3545.75C210.181 3558.41 237.979 3564.5 250.258 3546.26Z" fill="#2FAD00" fill-opacity="0.7"/>
</g>
<g opacity="0.5">
<path d="M392.507 3391.29C410.03 3378.01 395.053 3323.22 375.618 3328.8C347.787 3336.8 349.584 3362.67 350.12 3376.24C350.656 3389.81 374.985 3404.57 392.507 3391.29Z" fill="#2FAD00" fill-opacity="0.6"/>
<path d="M369.936 3396.62C391.83 3398.65 417.776 3348.12 399.668 3339.12C373.737 3326.23 357.596 3346.53 348.829 3356.9C340.063 3367.27 348.042 3394.59 369.936 3396.62Z" fill="#2FAD00" fill-opacity="0.7"/>
</g>
<g opacity="0.5">
<path d="M89.2154 3487.56C85.9584 3465.81 30.693 3452.69 26.278 3472.42C19.9555 3500.68 43.5211 3511.5 55.6871 3517.54C67.8531 3523.57 92.4725 3509.3 89.2154 3487.56Z" fill="#2FAD00" fill-opacity="0.6"/>
<path d="M83.0725 3509.92C95.3516 3491.68 63.4446 3444.69 46.8643 3456.26C23.1206 3472.84 33.1958 3496.74 38.0957 3509.4C42.9955 3522.07 70.7934 3528.16 83.0725 3509.92Z" fill="#2FAD00" fill-opacity="0.7"/>
</g>
<g opacity="0.5">
<path d="M344.255 3227.15C361.777 3213.86 346.8 3159.07 327.365 3164.66C299.534 3172.66 301.331 3198.53 301.867 3212.1C302.403 3225.67 326.732 3240.43 344.255 3227.15Z" fill="#2FAD00" fill-opacity="0.6"/>
<path d="M321.683 3232.48C343.577 3234.51 369.523 3183.98 351.415 3174.98C325.484 3162.09 309.343 3182.38 300.576 3192.76C291.81 3203.13 299.789 3230.44 321.683 3232.48Z" fill="#2FAD00" fill-opacity="0.7"/>
</g>
<g opacity="0.5">
<path d="M292.003 3029.69C309.525 3016.4 294.548 2961.61 275.113 2967.2C247.282 2975.2 249.079 3001.07 249.615 3014.64C250.151 3028.21 274.48 3042.97 292.003 3029.69Z" fill="#2FAD00" fill-opacity="0.6"/>
<path d="M269.431 3035.02C291.325 3037.05 317.271 2986.52 299.163 2977.52C273.232 2964.63 257.091 2984.93 248.324 2995.3C239.558 3005.67 247.537 3032.99 269.431 3035.02Z" fill="#2FAD00" fill-opacity="0.7"/>
</g>
<g opacity="0.5">
<path d="M5.08192 3817.2C4.00395 3810 -14.2872 3805.66 -15.7484 3812.19C-17.8409 3821.54 -10.0415 3825.13 -6.01489 3827.12C-1.98833 3829.12 6.1599 3824.4 5.08192 3817.2Z" fill="#2FAD00" fill-opacity="0.6"/>
<path d="M3.04819 3824.6C7.11218 3818.56 -3.44803 3803.01 -8.93558 3806.84C-16.794 3812.33 -13.4594 3820.24 -11.8377 3824.43C-10.216 3828.62 -1.01579 3830.64 3.04819 3824.6Z" fill="#2FAD00" fill-opacity="0.7"/>
</g>
<g opacity="0.5">
<path d="M14.6266 3311.34C20.426 3306.95 15.4692 3288.81 9.03684 3290.66C-0.174518 3293.31 0.420393 3301.87 0.59779 3306.36C0.775188 3310.85 8.82729 3315.74 14.6266 3311.34Z" fill="#2FAD00" fill-opacity="0.6"/>
<path d="M7.15608 3313.11C14.4023 3313.78 22.9895 3297.05 16.9964 3294.08C8.41399 3289.81 3.07189 3296.53 0.170432 3299.96C-2.73103 3303.39 -0.0901407 3312.43 7.15608 3313.11Z" fill="#2FAD00" fill-opacity="0.7"/>
</g>
<g opacity="0.5">
<path d="M341.53 3617.61C340.452 3610.41 322.161 3606.07 320.7 3612.6C318.607 3621.95 326.407 3625.53 330.433 3627.53C334.46 3629.53 342.608 3624.81 341.53 3617.61Z" fill="#2FAD00" fill-opacity="0.6"/>
<path d="M339.496 3625.01C343.56 3618.97 333 3603.42 327.513 3607.25C319.654 3612.74 322.989 3620.65 324.611 3624.84C326.232 3629.03 335.432 3631.05 339.496 3625.01Z" fill="#2FAD00" fill-opacity="0.7"/>
</g>
<g opacity="0.5">
<path d="M351.081 3510.92C356.88 3506.53 351.923 3488.39 345.491 3490.24C336.28 3492.89 336.874 3501.45 337.052 3505.94C337.229 3510.43 345.281 3515.32 351.081 3510.92Z" fill="#2FAD00" fill-opacity="0.6"/>
<path d="M343.61 3512.69C350.856 3513.36 359.444 3496.64 353.45 3493.66C344.868 3489.39 339.526 3496.11 336.625 3499.54C333.723 3502.97 336.364 3512.01 343.61 3512.69Z" fill="#2FAD00" fill-opacity="0.7"/>
</g>
<g opacity="0.5">
<path d="M143.192 3568.8C142.114 3561.61 123.823 3557.26 122.362 3563.79C120.269 3573.15 128.069 3576.73 132.095 3578.73C136.122 3580.72 144.27 3576 143.192 3568.8Z" fill="#2FAD00" fill-opacity="0.6"/>
<path d="M141.159 3576.2C145.223 3570.17 134.662 3554.61 129.175 3558.45C121.316 3563.93 124.651 3571.84 126.273 3576.03C127.894 3580.22 137.095 3582.24 141.159 3576.2Z" fill="#2FAD00" fill-opacity="0.7"/>
</g>
<g opacity="0.5">
<path d="M298.829 3313.46C304.628 3309.07 299.671 3290.93 293.239 3292.78C284.028 3295.43 284.623 3303.99 284.8 3308.48C284.977 3312.97 293.029 3317.86 298.829 3313.46Z" fill="#2FAD00" fill-opacity="0.6"/>
<path d="M291.358 3315.23C298.604 3315.9 307.192 3299.18 301.199 3296.2C292.616 3291.93 287.274 3298.65 284.373 3302.08C281.471 3305.52 284.112 3314.56 291.358 3315.23Z" fill="#2FAD00" fill-opacity="0.7"/>
</g>
<g opacity="0.5">
<path d="M250.577 3149.32C256.376 3144.92 251.419 3126.79 244.987 3128.64C235.776 3131.29 236.371 3139.85 236.548 3144.34C236.725 3148.83 244.777 3153.72 250.577 3149.32Z" fill="#2FAD00" fill-opacity="0.6"/>
<path d="M243.106 3151.08C250.353 3151.76 258.94 3135.03 252.947 3132.05C244.364 3127.79 239.022 3134.5 236.121 3137.94C233.219 3141.37 235.86 3150.41 243.106 3151.08Z" fill="#2FAD00" fill-opacity="0.7"/>
</g>
<g opacity="0.5">
<path d="M198.325 2951.86C204.124 2947.47 199.167 2929.33 192.735 2931.18C183.524 2933.83 184.119 2942.39 184.296 2946.88C184.473 2951.37 192.526 2956.26 198.325 2951.86Z" fill="#2FAD00" fill-opacity="0.6"/>
<path d="M190.854 2953.63C198.101 2954.3 206.688 2937.57 200.695 2934.59C192.112 2930.33 186.77 2937.05 183.869 2940.48C180.967 2943.91 183.608 2952.95 190.854 2953.63Z" fill="#2FAD00" fill-opacity="0.7"/>
</g>
</g>
<g opacity="0.5">
<g opacity="0.5">
<path d="M716.721 4321.75C726.784 4314.12 718.183 4282.66 707.023 4285.87C691.04 4290.46 692.073 4305.32 692.38 4313.11C692.688 4320.9 706.659 4329.38 716.721 4321.75Z" fill="#2FAD00" fill-opacity="0.6"/>
<path d="M703.759 4324.81C716.332 4325.98 731.231 4296.96 720.833 4291.79C705.942 4284.39 696.673 4296.05 691.639 4302C686.605 4307.96 691.187 4323.65 703.759 4324.81Z" fill="#2FAD00" fill-opacity="0.7"/>
</g>
<g opacity="0.5">
<path d="M664.47 4124.29C674.533 4116.67 665.932 4085.2 654.772 4088.41C638.789 4093 639.822 4107.86 640.129 4115.65C640.437 4123.44 654.408 4131.92 664.47 4124.29Z" fill="#2FAD00" fill-opacity="0.6"/>
<path d="M651.508 4127.35C664.081 4128.52 678.98 4099.5 668.582 4094.34C653.691 4086.93 644.422 4098.59 639.388 4104.55C634.354 4110.5 638.936 4126.19 651.508 4127.35Z" fill="#2FAD00" fill-opacity="0.7"/>
</g>
<g opacity="0.5">
<path d="M1000.92 4323.87C1010.99 4316.25 1002.39 4284.78 991.226 4287.99C975.243 4292.58 976.276 4307.44 976.583 4315.23C976.891 4323.02 990.862 4331.5 1000.92 4323.87Z" fill="#2FAD00" fill-opacity="0.6"/>
<path d="M987.962 4326.94C1000.54 4328.1 1015.43 4299.08 1005.04 4293.92C990.145 4286.51 980.876 4298.17 975.842 4304.13C970.808 4310.08 975.39 4325.77 987.962 4326.94Z" fill="#2FAD00" fill-opacity="0.7"/>
</g>
<g opacity="0.5">
<path d="M952.673 4159.73C962.735 4152.1 954.134 4120.64 942.974 4123.85C926.992 4128.44 928.024 4143.29 928.332 4151.09C928.639 4158.88 942.61 4167.36 952.673 4159.73Z" fill="#2FAD00" fill-opacity="0.6"/>
<path d="M939.71 4162.79C952.283 4163.96 967.183 4134.94 956.784 4129.77C941.893 4122.37 932.624 4134.03 927.59 4139.98C922.556 4145.94 927.138 4161.62 939.71 4162.79Z" fill="#2FAD00" fill-opacity="0.7"/>
</g>
<g opacity="0.5">
<path d="M900.421 3962.27C910.483 3954.64 901.882 3923.18 890.722 3926.39C874.74 3930.98 875.772 3945.84 876.08 3953.63C876.387 3961.42 890.358 3969.9 900.421 3962.27Z" fill="#2FAD00" fill-opacity="0.6"/>
<path d="M887.459 3965.33C900.031 3966.5 914.931 3937.48 904.532 3932.31C889.641 3924.91 880.372 3936.57 875.338 3942.52C870.304 3948.48 874.886 3964.17 887.459 3965.33Z" fill="#2FAD00" fill-opacity="0.7"/>
</g>
<g opacity="0.5">
<path d="M816.303 4303.17C833.826 4289.89 818.849 4235.09 799.414 4240.68C771.583 4248.68 773.38 4274.55 773.916 4288.12C774.452 4301.69 798.781 4316.45 816.303 4303.17Z" fill="#2FAD00" fill-opacity="0.6"/>
<path d="M793.732 4308.5C815.626 4310.53 841.571 4260 823.464 4251C797.532 4238.11 781.392 4258.41 772.625 4268.78C763.858 4279.15 771.838 4306.47 793.732 4308.5Z" fill="#2FAD00" fill-opacity="0.7"/>
</g>
<g opacity="0.5">
<path d="M764.052 4105.71C781.575 4092.43 766.598 4037.63 747.163 4043.22C719.332 4051.22 721.129 4077.09 721.665 4090.66C722.201 4104.23 746.53 4118.99 764.052 4105.71Z" fill="#2FAD00" fill-opacity="0.6"/>
<path d="M741.481 4111.04C763.375 4113.07 789.32 4062.54 771.213 4053.54C745.281 4040.65 729.141 4060.95 720.374 4071.32C711.607 4081.69 719.587 4109.01 741.481 4111.04Z" fill="#2FAD00" fill-opacity="0.7"/>
</g>
<g opacity="0.5">
<path d="M1100.51 4305.29C1118.03 4292.01 1103.05 4237.22 1083.62 4242.8C1055.79 4250.8 1057.58 4276.67 1058.12 4290.24C1058.66 4303.81 1082.99 4318.57 1100.51 4305.29Z" fill="#2FAD00" fill-opacity="0.6"/>
<path d="M1077.94 4310.62C1099.83 4312.65 1125.78 4262.12 1107.67 4253.12C1081.74 4240.23 1065.6 4260.53 1056.83 4270.9C1048.06 4281.27 1056.04 4308.59 1077.94 4310.62Z" fill="#2FAD00" fill-opacity="0.7"/>
</g>
<g opacity="0.5">
<path d="M791.073 4423.92C803.352 4405.68 771.445 4358.69 754.864 4370.26C731.121 4386.84 741.196 4410.74 746.096 4423.4C750.996 4436.07 778.793 4442.16 791.073 4423.92Z" fill="#2FAD00" fill-opacity="0.7"/>
</g>
<g opacity="0.5">
<path d="M1052.25 4141.15C1069.78 4127.86 1054.8 4073.07 1035.37 4078.66C1007.53 4086.66 1009.33 4112.53 1009.87 4126.1C1010.4 4139.67 1034.73 4154.43 1052.25 4141.15Z" fill="#2FAD00" fill-opacity="0.6"/>
<path d="M1029.68 4146.48C1051.58 4148.51 1077.52 4097.98 1059.41 4088.98C1033.48 4076.09 1017.34 4096.38 1008.58 4106.76C999.81 4117.13 1007.79 4144.44 1029.68 4146.48Z" fill="#2FAD00" fill-opacity="0.7"/>
</g>
<g opacity="0.5">
<path d="M598.878 4352.75C595.621 4331 540.355 4317.88 535.94 4337.61C529.618 4365.87 553.183 4376.7 565.349 4382.73C577.515 4388.77 602.135 4374.5 598.878 4352.75Z" fill="#2FAD00" fill-opacity="0.6"/>
<path d="M592.735 4375.11C605.014 4356.87 573.107 4309.88 556.526 4321.46C532.783 4338.03 542.858 4361.93 547.758 4374.6C552.658 4387.26 580.456 4393.35 592.735 4375.11Z" fill="#2FAD00" fill-opacity="0.7"/>
</g>
<g opacity="0.5">
<path d="M1000 3943.69C1017.52 3930.4 1002.55 3875.61 983.113 3881.2C955.282 3889.2 957.079 3915.07 957.615 3928.64C958.151 3942.21 982.48 3956.97 1000 3943.69Z" fill="#2FAD00" fill-opacity="0.6"/>
<path d="M977.431 3949.02C999.325 3951.05 1025.27 3900.52 1007.16 3891.52C981.232 3878.63 965.091 3898.93 956.324 3909.3C947.558 3919.67 955.537 3946.99 977.431 3949.02Z" fill="#2FAD00" fill-opacity="0.7"/>
</g>
<g opacity="0.5">
<path d="M722.627 4225.34C728.426 4220.95 723.469 4202.81 717.037 4204.66C707.825 4207.31 708.42 4215.87 708.598 4220.36C708.775 4224.85 716.827 4229.74 722.627 4225.34Z" fill="#2FAD00" fill-opacity="0.6"/>
<path d="M715.156 4227.11C722.402 4227.78 730.99 4211.05 724.996 4208.08C716.414 4203.81 711.072 4210.53 708.17 4213.96C705.269 4217.39 707.91 4226.43 715.156 4227.11Z" fill="#2FAD00" fill-opacity="0.7"/>
</g>
<g opacity="0.5">
<path d="M670.374 4027.88C676.173 4023.49 671.216 4005.35 664.784 4007.2C655.573 4009.85 656.167 4018.41 656.345 4022.9C656.522 4027.39 664.574 4032.28 670.374 4027.88Z" fill="#2FAD00" fill-opacity="0.6"/>
<path d="M662.904 4029.65C670.15 4030.32 678.738 4013.6 672.744 4010.62C664.162 4006.35 658.82 4013.07 655.918 4016.5C653.017 4019.93 655.658 4028.98 662.904 4029.65Z" fill="#2FAD00" fill-opacity="0.7"/>
</g>
<g opacity="0.5">
<path d="M1006.83 4227.46C1012.63 4223.07 1007.67 4204.93 1001.24 4206.78C992.028 4209.43 992.623 4217.99 992.8 4222.48C992.977 4226.97 1001.03 4231.86 1006.83 4227.46Z" fill="#2FAD00" fill-opacity="0.6"/>
<path d="M999.358 4229.23C1006.6 4229.9 1015.19 4213.18 1009.2 4210.2C1000.62 4205.93 995.274 4212.65 992.373 4216.08C989.471 4219.52 992.112 4228.56 999.358 4229.23Z" fill="#2FAD00" fill-opacity="0.7"/>
</g>
<g opacity="0.5">
<path d="M958.577 4063.32C964.376 4058.92 959.419 4040.79 952.987 4042.64C943.776 4045.29 944.371 4053.85 944.548 4058.34C944.725 4062.83 952.777 4067.72 958.577 4063.32Z" fill="#2FAD00" fill-opacity="0.6"/>
<path d="M951.106 4065.08C958.353 4065.76 966.94 4049.03 960.947 4046.05C952.364 4041.79 947.022 4048.5 944.121 4051.94C941.219 4055.37 943.86 4064.41 951.106 4065.08Z" fill="#2FAD00" fill-opacity="0.7"/>
</g>
<g opacity="0.5">
<path d="M906.325 3865.86C912.124 3861.47 907.167 3843.33 900.735 3845.18C891.524 3847.83 892.119 3856.39 892.296 3860.88C892.473 3865.37 900.526 3870.26 906.325 3865.86Z" fill="#2FAD00" fill-opacity="0.6"/>
<path d="M898.854 3867.63C906.101 3868.3 914.688 3851.57 908.695 3848.59C900.112 3844.33 894.77 3851.05 891.869 3854.48C888.967 3857.91 891.608 3866.95 898.854 3867.63Z" fill="#2FAD00" fill-opacity="0.7"/>
</g>
</g>
<rect y="-2604" width="2598" height="24000" fill="#2FAD00" fill-opacity="0.3"/>
<path d="M280.871 1256L273.84 1229.24H227.453L220.227 1256H177.844L224.426 1112.64H275.891L323.059 1256H280.871ZM265.832 1197.6L259.68 1174.16C258.247 1168.96 256.49 1162.22 254.406 1153.95C252.388 1145.68 251.053 1139.76 250.402 1136.18C249.816 1139.5 248.645 1144.96 246.887 1152.58C245.194 1160.2 241.385 1175.21 235.461 1197.6H265.832ZM249.23 1444.41H310.852L310.852 1521.36C294.12 1527.09 275.728 1529.95 255.676 1529.95C233.671 1529.95 216.646 1523.57 204.602 1510.81C192.622 1498.05 186.633 1479.86 186.633 1456.22C186.633 1433.18 193.208 1415.24 206.359 1402.41C219.51 1389.59 237.935 1383.18 261.633 1383.18C270.617 1383.18 279.081 1384.02 287.023 1385.71C295.031 1387.41 301.997 1389.56 307.922 1392.16L295.715 1422.43C285.428 1417.36 274.133 1414.82 261.828 1414.82C250.565 1414.82 241.841 1418.49 235.656 1425.85C229.536 1433.14 226.477 1443.59 226.477 1457.2C226.477 1470.55 229.243 1480.73 234.777 1487.77C240.376 1494.73 248.417 1498.21 258.898 1498.21C264.628 1498.21 269.901 1497.66 274.719 1496.55V1474.19H249.23V1444.41ZM231.066 1800V1657.23H269.836V1800H231.066ZM207.727 2072L207.727 1929.23H246.301L246.301 2040.85H301.281V2072H207.727ZM231.066 2344L231.066 2201.23H269.836L269.836 2344H231.066ZM269.836 2616H231.262L231.262 2504.77H196.398V2473.23H304.602V2504.77H269.836V2616ZM250.5 2798.16L275.109 2745.23H316.906L269.934 2832.24V2888H231.066V2833.41L184.094 2745.23H226.086L250.5 2798.16Z" fill="#2FAD00" fill-opacity="0.15"/>
<path d="M2267.87 2944L2260.84 2917.24H2214.45L2207.23 2944H2164.84L2211.43 2800.64H2262.89L2310.06 2944H2267.87ZM2252.83 2885.6L2246.68 2862.16C2245.25 2856.96 2243.49 2850.22 2241.41 2841.95C2239.39 2833.68 2238.05 2827.76 2237.4 2824.18C2236.82 2827.5 2235.64 2832.96 2233.89 2840.58C2232.19 2848.2 2228.39 2863.21 2222.46 2885.6H2252.83ZM2236.23 3132.41H2297.85V3209.36C2281.12 3215.09 2262.73 3217.95 2242.68 3217.95C2220.67 3217.95 2203.65 3211.57 2191.6 3198.81C2179.62 3186.05 2173.63 3167.86 2173.63 3144.22C2173.63 3121.18 2180.21 3103.24 2193.36 3090.41C2206.51 3077.59 2224.93 3071.18 2248.63 3071.18C2257.62 3071.18 2266.08 3072.02 2274.02 3073.71C2282.03 3075.41 2289 3077.56 2294.92 3080.16L2282.71 3110.43C2272.43 3105.36 2261.13 3102.82 2248.83 3102.82C2237.57 3102.82 2228.84 3106.49 2222.66 3113.85C2216.54 3121.14 2213.48 3131.59 2213.48 3145.2C2213.48 3158.55 2216.24 3168.73 2221.78 3175.77C2227.38 3182.73 2235.42 3186.21 2245.9 3186.21C2251.63 3186.21 2256.9 3185.66 2261.72 3184.55V3162.19H2236.23V3132.41ZM2218.07 3488V3345.23H2256.84V3488H2218.07ZM2194.73 3760V3617.23H2233.3V3728.85H2288.28V3760H2194.73ZM2218.07 4032V3889.23H2256.84V4032H2218.07ZM2256.84 4304H2218.26V4192.77H2183.4V4161.23H2291.6V4192.77H2256.84V4304ZM2237.5 4486.16L2262.11 4433.23H2303.91L2256.93 4520.24V4576H2218.07V4521.41L2171.09 4433.23H2213.09L2237.5 4486.16Z" fill="#2FAD00" fill-opacity="0.15"/>
<g opacity="0.5">
<path d="M-40.5 3164.5V2410H2598V3693.5L-40.5 3164.5Z" fill="white"/>
<path d="M-40.5 3255V2500.5H2598V3784L-40.5 3255Z" fill="white"/>
</g>
<g opacity="0.5">
<g opacity="0.5">
<path d="M801.861 423.601C799.991 411.114 768.254 403.577 765.719 414.909C762.088 431.138 775.621 437.354 782.607 440.819C789.594 444.285 803.731 436.088 801.861 423.601Z" fill="#2FAD00" fill-opacity="0.6"/>
<path d="M798.333 436.443C805.384 425.969 787.061 398.982 777.54 405.63C763.905 415.15 769.691 428.872 772.505 436.145C775.318 443.419 791.281 446.918 798.333 436.443Z" fill="#2FAD00" fill-opacity="0.7"/>
</g>
<g opacity="0.5">
<path d="M603.522 374.795C601.652 362.308 569.915 354.772 567.38 366.104C563.749 382.332 577.282 388.548 584.268 392.014C591.255 395.479 605.393 387.283 603.522 374.795Z" fill="#2FAD00" fill-opacity="0.6"/>
<path d="M599.994 387.638C607.045 377.163 588.723 350.177 579.201 356.824C565.566 366.344 571.352 380.066 574.166 387.34C576.98 394.613 592.943 398.112 599.994 387.638Z" fill="#2FAD00" fill-opacity="0.7"/>
</g>
<g opacity="0.5">
<path d="M939.97 175.203C938.1 162.716 906.364 155.179 903.828 166.512C900.198 182.74 913.73 188.956 920.717 192.422C927.703 195.887 941.841 187.691 939.97 175.203Z" fill="#2FAD00" fill-opacity="0.6"/>
<path d="M936.442 188.046C943.493 177.571 925.171 150.585 915.649 157.232C902.015 166.752 907.8 180.474 910.614 187.748C913.428 195.021 929.391 198.52 936.442 188.046Z" fill="#2FAD00" fill-opacity="0.7"/>
</g>
<g opacity="0.5">
<path d="M772.785 138.859C770.914 126.371 739.178 118.835 736.643 130.167C733.012 146.395 746.545 152.611 753.531 156.077C760.517 159.543 774.655 151.346 772.785 138.859Z" fill="#2FAD00" fill-opacity="0.6"/>
<path d="M769.257 151.701C776.308 141.227 757.985 114.24 748.464 120.888C734.829 130.408 740.615 144.13 743.429 151.403C746.242 158.677 762.205 162.175 769.257 151.701Z" fill="#2FAD00" fill-opacity="0.7"/>
</g>
<g opacity="0.5">
<path d="M574.447 90.053C572.577 77.5655 540.84 70.0291 538.305 81.3613C534.674 97.5894 548.207 103.806 555.193 107.271C562.18 110.737 576.317 102.54 574.447 90.053Z" fill="#2FAD00" fill-opacity="0.6"/>
<path d="M570.919 102.895C577.97 92.4208 559.647 65.4344 550.126 72.082C536.491 81.6018 542.277 95.324 545.091 102.597C547.904 109.871 563.867 113.37 570.919 102.895Z" fill="#2FAD00" fill-opacity="0.7"/>
</g>
<g opacity="0.5">
<path d="M833.292 327.298C830.035 305.553 774.769 292.429 770.354 312.163C764.032 340.422 787.597 351.247 799.763 357.282C811.929 363.317 836.549 349.044 833.292 327.298Z" fill="#2FAD00" fill-opacity="0.6"/>
<path d="M827.149 349.662C839.428 331.422 807.521 284.428 790.94 296.005C767.197 312.582 777.272 336.478 782.172 349.144C787.072 361.81 814.87 367.903 827.149 349.662Z" fill="#2FAD00" fill-opacity="0.7"/>
</g>
<g opacity="0.5">
<path d="M634.953 278.493C631.696 256.747 576.43 243.623 572.015 263.357C565.693 291.617 589.258 302.441 601.424 308.477C613.59 314.512 638.21 300.238 634.953 278.493Z" fill="#2FAD00" fill-opacity="0.6"/>
<path d="M628.81 300.857C641.089 282.617 609.182 235.623 592.602 247.199C568.858 263.776 578.933 287.672 583.833 300.338C588.733 313.004 616.531 319.097 628.81 300.857Z" fill="#2FAD00" fill-opacity="0.7"/>
</g>
<g opacity="0.5">
<path d="M971.401 78.9007C968.144 57.1552 912.879 44.0312 908.464 63.765C902.141 92.0246 925.707 102.85 937.873 108.885C950.039 114.92 974.658 100.646 971.401 78.9007Z" fill="#2FAD00" fill-opacity="0.6"/>
<path d="M965.258 101.265C977.537 83.0247 945.63 36.0306 929.05 47.6068C905.306 64.1844 915.381 88.0802 920.281 100.746C925.181 113.412 952.979 119.505 965.258 101.265Z" fill="#2FAD00" fill-opacity="0.7"/>
</g>
<g opacity="0.5">
<path d="M804.215 42.5559C800.958 20.8104 745.693 7.68651 741.278 27.4203C734.955 55.6799 758.521 66.5048 770.687 72.5399C782.853 78.575 807.472 64.3015 804.215 42.5559Z" fill="#2FAD00" fill-opacity="0.6"/>
<path d="M798.073 64.92C810.352 46.68 778.445 -0.314148 761.864 11.2621C738.121 27.8397 748.196 51.7354 753.096 64.4014C757.996 77.0673 785.793 83.1601 798.073 64.92Z" fill="#2FAD00" fill-opacity="0.7"/>
</g>
<g opacity="0.5">
<path d="M605.878 -6.24975C602.621 -27.9953 547.355 -41.1192 542.94 -21.3854C536.618 6.8742 560.183 17.6991 572.349 23.7342C584.515 29.7693 609.135 15.4958 605.878 -6.24975Z" fill="#2FAD00" fill-opacity="0.6"/>
<path d="M599.735 16.1143C612.014 -2.12573 580.107 -49.1198 563.526 -37.5436C539.783 -20.966 549.858 2.92975 554.758 15.5957C559.658 28.2616 587.456 34.3544 599.735 16.1143Z" fill="#2FAD00" fill-opacity="0.7"/>
</g>
<g opacity="0.5">
<path d="M720.082 372.2C719.004 365.003 700.713 360.66 699.252 367.191C697.159 376.544 704.959 380.127 708.985 382.124C713.012 384.121 721.16 379.397 720.082 372.2Z" fill="#2FAD00" fill-opacity="0.6"/>
<path d="M718.048 379.602C722.112 373.565 711.552 358.011 706.064 361.843C698.206 367.329 701.541 375.238 703.162 379.43C704.784 383.622 713.984 385.639 718.048 379.602Z" fill="#2FAD00" fill-opacity="0.7"/>
</g>
<g opacity="0.5">
<path d="M1056.53 172.608C1055.45 165.411 1037.16 161.067 1035.7 167.599C1033.61 176.952 1041.41 180.534 1045.43 182.532C1049.46 184.529 1057.61 179.805 1056.53 172.608Z" fill="#2FAD00" fill-opacity="0.6"/>
<path d="M1054.5 180.01C1058.56 173.973 1048 158.419 1042.51 162.251C1034.65 167.737 1037.99 175.646 1039.61 179.838C1041.23 184.03 1050.43 186.047 1054.5 180.01Z" fill="#2FAD00" fill-opacity="0.7"/>
</g>
<g opacity="0.5">
<path d="M1066.08 65.9235C1071.88 61.5272 1066.92 43.3927 1060.49 45.2414C1051.28 47.8888 1051.87 56.4512 1052.05 60.9424C1052.23 65.4337 1060.28 70.3198 1066.08 65.9235Z" fill="#2FAD00" fill-opacity="0.6"/>
<path d="M1058.61 67.6873C1065.86 68.3598 1074.44 51.6358 1068.45 48.6567C1059.87 44.3905 1054.53 51.1084 1051.62 54.5412C1048.72 57.9741 1051.36 67.0149 1058.61 67.6873Z" fill="#2FAD00" fill-opacity="0.7"/>
</g>
<g opacity="0.5">
<path d="M521.744 323.395C520.666 316.197 502.375 311.854 500.914 318.385C498.821 327.738 506.621 331.321 510.647 333.318C514.674 335.316 522.822 330.592 521.744 323.395Z" fill="#2FAD00" fill-opacity="0.6"/>
<path d="M519.71 330.796C523.774 324.759 513.214 309.206 507.727 313.037C499.868 318.524 503.203 326.433 504.824 330.625C506.446 334.817 515.646 336.833 519.71 330.796Z" fill="#2FAD00" fill-opacity="0.7"/>
</g>
<g opacity="0.5">
<path d="M858.192 123.802C857.114 116.605 838.823 112.262 837.362 118.793C835.269 128.146 843.069 131.729 847.095 133.726C851.122 135.724 859.27 131 858.192 123.802Z" fill="#2FAD00" fill-opacity="0.6"/>
<path d="M856.159 131.204C860.223 125.167 849.662 109.614 844.175 113.445C836.316 118.932 839.651 126.841 841.273 131.033C842.894 135.225 852.095 137.241 856.159 131.204Z" fill="#2FAD00" fill-opacity="0.7"/>
</g>
<g opacity="0.5">
<path d="M691.007 87.4578C689.929 80.2607 671.638 75.9171 670.176 82.4483C668.084 91.8014 675.883 95.3841 679.91 97.3815C683.936 99.3789 692.085 94.6548 691.007 87.4578Z" fill="#2FAD00" fill-opacity="0.6"/>
<path d="M688.973 94.8595C693.037 88.8226 682.477 73.269 676.989 77.1004C669.131 82.587 672.465 90.4958 674.087 94.6878C675.709 98.8798 684.909 100.896 688.973 94.8595Z" fill="#2FAD00" fill-opacity="0.7"/>
</g>
<g opacity="0.5">
<path d="M492.669 38.6521C491.591 31.455 473.3 27.1114 471.839 33.6427C469.746 42.9957 477.545 46.5784 481.572 48.5758C485.599 50.5732 493.747 45.8492 492.669 38.6521Z" fill="#2FAD00" fill-opacity="0.6"/>
<path d="M490.635 46.0538C494.699 40.0169 484.139 24.4633 478.651 28.2947C470.793 33.7814 474.127 41.6901 475.749 45.8821C477.371 50.0741 486.571 52.0907 490.635 46.0538Z" fill="#2FAD00" fill-opacity="0.7"/>
</g>
</g>
<g clip-path="url(#clip1)">
<path d="M427.896 782.437H393.225C384.277 782.437 375.511 777.48 371.008 768.608C354.969 736.527 329.959 701.449 306.843 673.845C297.117 662.233 291.566 663.787 228.51 653.029C204.639 646.088 187.355 623.695 187.355 599.641C187.355 593.321 188.795 587.733 188.795 583.805C188.795 564.612 166.132 555.984 153.275 568.837L115.788 606.323C112.897 609.219 112.897 613.908 115.788 616.804C118.684 619.695 123.377 619.695 126.269 616.804L163.751 579.317C167.648 575.428 174.719 578.289 173.919 584.708C173.001 591.935 172.532 594.742 172.532 599.638C172.532 630.312 194.533 658.808 224.842 667.391C225.097 667.463 225.356 667.524 225.615 667.57L281.646 677.128L263.326 687.704C253.901 693.144 248.05 703.285 248.05 714.177C248.05 737.499 273.479 752.383 293.867 740.604L325.476 722.352C327.578 725.331 329.624 728.306 331.624 731.263L310.089 743.697C295.627 752.055 290.42 770.699 298.911 785.42C304.351 794.841 314.496 800.692 325.388 800.692C335.834 800.692 340.101 796.906 363.29 783.515C370.756 792.121 381.678 797.256 393.221 797.256H427.896C471.406 797.256 506.953 831.912 508.435 875.071C470.24 875.071 298.687 875.078 296.968 875.078C292.317 875.078 289.494 874.892 285.665 871.055C259.756 845.146 241.577 826.978 229.348 814.753C226.453 811.858 221.76 811.858 218.868 814.757C215.973 817.653 215.977 822.342 218.872 825.237C240.716 847.074 259.425 865.775 275.178 881.532C282.888 889.254 290.469 889.901 296.968 889.901C298.69 889.901 470.434 889.894 508.507 889.89V902.671C508.507 908.462 503.795 913.174 498.004 913.174H304.271C285.391 913.174 267.219 906.294 251.863 890.953C225.303 864.404 172.7 811.82 68.5381 707.662C60.5151 699.635 57.7913 685.281 63.8752 679.197L68.34 674.732C208.213 814.601 198.811 806.49 203.184 806.49C209.744 806.49 213.097 798.509 208.422 793.839C180.936 766.36 142.299 727.731 78.8202 664.252L105.308 637.764C108.2 634.869 108.2 630.179 105.308 627.284C102.413 624.392 97.7195 624.392 94.828 627.284C90.0013 632.111 57.0103 665.102 53.3912 668.721C40.5224 681.593 45.1091 705.194 58.0579 718.142C101.929 762.014 197.816 857.893 242.286 902.34C258.854 918.885 280.865 927.997 304.271 927.997H498.004C511.97 927.997 523.33 916.637 523.33 902.671V877.867C523.33 825.245 480.518 782.437 427.896 782.437V782.437ZM278.614 729.88C262.598 729.88 256.827 708.565 270.736 700.546L297.109 685.319C303.41 692.915 310.081 701.373 316.721 710.295C284.02 729.175 284.153 729.88 278.614 729.88ZM325.388 785.873C309.357 785.873 303.574 764.585 317.506 756.532L339.762 743.682C345.438 752.65 350.699 761.64 355.529 770.886C331.495 784.761 330.801 785.873 325.388 785.873Z" fill="#2FAD00" fill-opacity="0.15"/>
<path d="M50.6787 836.655C50.6787 840.746 53.9969 844.064 58.0922 844.064H123.308C127.4 844.064 130.718 840.746 130.718 836.655C130.718 832.559 127.4 829.241 123.308 829.241H58.0922C53.9969 829.241 50.6787 832.559 50.6787 836.655Z" fill="#2FAD00" fill-opacity="0.15"/>
<path d="M166.783 913.235H77.852C73.7605 913.235 70.4424 916.549 70.4424 920.645C70.4424 924.74 73.7605 928.054 77.852 928.054H166.783C170.878 928.054 174.196 924.74 174.196 920.645C174.196 916.549 170.878 913.235 166.783 913.235Z" fill="#2FAD00" fill-opacity="0.15"/>
<path d="M224.59 920.645C224.59 916.549 221.271 913.235 217.18 913.235H196.429C192.334 913.235 189.016 916.549 189.016 920.645C189.016 924.74 192.334 928.054 196.429 928.054H217.18C221.271 928.054 224.59 924.74 224.59 920.645Z" fill="#2FAD00" fill-opacity="0.15"/>
<path d="M88.2296 872.225C88.2296 868.133 84.9115 864.815 80.8162 864.815H31.4096C27.3181 864.815 24 868.133 24 872.225C24 876.32 27.3181 879.638 31.4096 879.638H80.8162C84.9115 879.638 88.2296 876.32 88.2296 872.225Z" fill="#2FAD00" fill-opacity="0.15"/>
<path d="M273.501 948.805H224.094C220.003 948.805 216.685 952.123 216.685 956.219C216.685 960.31 220.003 963.628 224.094 963.628H273.501C277.596 963.628 280.914 960.31 280.914 956.219C280.914 952.123 277.596 948.805 273.501 948.805V948.805Z" fill="#2FAD00" fill-opacity="0.15"/>
<path d="M44.2553 785.766H79.8293C83.9208 785.766 87.2389 782.448 87.2389 778.353C87.2389 774.261 83.9208 770.943 79.8293 770.943H44.2553C40.1639 770.943 36.8457 774.261 36.8457 778.353C36.8457 782.448 40.1639 785.766 44.2553 785.766Z" fill="#2FAD00" fill-opacity="0.15"/>
</g>
<g clip-path="url(#clip2)">
<path d="M1959.9 3584.44H1925.23C1916.28 3584.44 1907.51 3579.48 1903.01 3570.61C1886.97 3538.53 1861.96 3503.45 1838.84 3475.84C1829.12 3464.23 1823.57 3465.79 1760.51 3455.03C1736.64 3448.09 1719.36 3425.7 1719.36 3401.64C1719.36 3395.32 1720.8 3389.73 1720.8 3385.81C1720.8 3366.61 1698.13 3357.98 1685.27 3370.84L1647.79 3408.32C1644.9 3411.22 1644.9 3415.91 1647.79 3418.8C1650.68 3421.7 1655.38 3421.7 1658.27 3418.8L1695.75 3381.32C1699.65 3377.43 1706.72 3380.29 1705.92 3386.71C1705 3393.93 1704.53 3396.74 1704.53 3401.64C1704.53 3432.31 1726.53 3460.81 1756.84 3469.39C1757.1 3469.46 1757.36 3469.52 1757.61 3469.57L1813.65 3479.13L1795.33 3489.7C1785.9 3495.14 1780.05 3505.29 1780.05 3516.18C1780.05 3539.5 1805.48 3554.38 1825.87 3542.6L1857.48 3524.35C1859.58 3527.33 1861.62 3530.31 1863.62 3533.26L1842.09 3545.7C1827.63 3554.06 1822.42 3572.7 1830.91 3587.42C1836.35 3596.84 1846.5 3602.69 1857.39 3602.69C1867.83 3602.69 1872.1 3598.91 1895.29 3585.51C1902.76 3594.12 1913.68 3599.26 1925.22 3599.26H1959.9C2003.41 3599.26 2038.95 3633.91 2040.43 3677.07C2002.24 3677.07 1830.69 3677.08 1828.97 3677.08C1824.32 3677.08 1821.49 3676.89 1817.67 3673.06C1791.76 3647.15 1773.58 3628.98 1761.35 3616.75C1758.45 3613.86 1753.76 3613.86 1750.87 3616.76C1747.97 3619.65 1747.98 3624.34 1750.87 3627.24C1772.72 3649.07 1791.42 3667.78 1807.18 3683.53C1814.89 3691.25 1822.47 3691.9 1828.97 3691.9C1830.69 3691.9 2002.43 3691.89 2040.51 3691.89V3704.67C2040.51 3710.46 2035.79 3715.17 2030 3715.17H1836.27C1817.39 3715.17 1799.22 3708.29 1783.86 3692.95C1757.3 3666.4 1704.7 3613.82 1600.54 3509.66C1592.52 3501.64 1589.79 3487.28 1595.88 3481.2L1600.34 3476.73C1740.21 3616.6 1730.81 3608.49 1735.18 3608.49C1741.74 3608.49 1745.1 3600.51 1740.42 3595.84C1712.94 3568.36 1674.3 3529.73 1610.82 3466.25L1637.31 3439.76C1640.2 3436.87 1640.2 3432.18 1637.31 3429.28C1634.41 3426.39 1629.72 3426.39 1626.83 3429.28C1622 3434.11 1589.01 3467.1 1585.39 3470.72C1572.52 3483.59 1577.11 3507.19 1590.06 3520.14C1633.93 3564.01 1729.82 3659.89 1774.29 3704.34C1790.85 3720.88 1812.87 3730 1836.27 3730H2030C2043.97 3730 2055.33 3718.64 2055.33 3704.67V3679.87C2055.33 3627.25 2012.52 3584.44 1959.9 3584.44V3584.44ZM1810.61 3531.88C1794.6 3531.88 1788.83 3510.57 1802.74 3502.55L1829.11 3487.32C1835.41 3494.92 1842.08 3503.37 1848.72 3512.29C1816.02 3531.18 1816.15 3531.88 1810.61 3531.88ZM1857.39 3587.87C1841.36 3587.87 1835.57 3566.59 1849.51 3558.53L1871.76 3545.68C1877.44 3554.65 1882.7 3563.64 1887.53 3572.89C1863.49 3586.76 1862.8 3587.87 1857.39 3587.87Z" fill="#2FAD00" fill-opacity="0.15"/>
<path d="M1582.68 3638.65C1582.68 3642.75 1586 3646.06 1590.09 3646.06H1655.31C1659.4 3646.06 1662.72 3642.75 1662.72 3638.65C1662.72 3634.56 1659.4 3631.24 1655.31 3631.24H1590.09C1586 3631.24 1582.68 3634.56 1582.68 3638.65Z" fill="#2FAD00" fill-opacity="0.15"/>
<path d="M1698.78 3715.24H1609.85C1605.76 3715.24 1602.44 3718.55 1602.44 3722.64C1602.44 3726.74 1605.76 3730.05 1609.85 3730.05H1698.78C1702.88 3730.05 1706.2 3726.74 1706.2 3722.64C1706.2 3718.55 1702.88 3715.24 1698.78 3715.24Z" fill="#2FAD00" fill-opacity="0.15"/>
<path d="M1756.59 3722.64C1756.59 3718.55 1753.27 3715.24 1749.18 3715.24H1728.43C1724.33 3715.24 1721.02 3718.55 1721.02 3722.64C1721.02 3726.74 1724.33 3730.05 1728.43 3730.05H1749.18C1753.27 3730.05 1756.59 3726.74 1756.59 3722.64Z" fill="#2FAD00" fill-opacity="0.15"/>
<path d="M1620.23 3674.22C1620.23 3670.13 1616.91 3666.82 1612.82 3666.82H1563.41C1559.32 3666.82 1556 3670.13 1556 3674.22C1556 3678.32 1559.32 3681.64 1563.41 3681.64H1612.82C1616.91 3681.64 1620.23 3678.32 1620.23 3674.22Z" fill="#2FAD00" fill-opacity="0.15"/>
<path d="M1805.5 3750.81H1756.09C1752 3750.81 1748.68 3754.12 1748.68 3758.22C1748.68 3762.31 1752 3765.63 1756.09 3765.63H1805.5C1809.6 3765.63 1812.91 3762.31 1812.91 3758.22C1812.91 3754.12 1809.6 3750.81 1805.5 3750.81V3750.81Z" fill="#2FAD00" fill-opacity="0.15"/>
<path d="M1576.26 3587.77H1611.83C1615.92 3587.77 1619.24 3584.45 1619.24 3580.35C1619.24 3576.26 1615.92 3572.94 1611.83 3572.94H1576.26C1572.16 3572.94 1568.85 3576.26 1568.85 3580.35C1568.85 3584.45 1572.16 3587.77 1576.26 3587.77Z" fill="#2FAD00" fill-opacity="0.15"/>
</g>
<path d="M2267.87 -1441L2260.84 -1467.76H2214.45L2207.23 -1441H2164.84L2211.43 -1584.36H2262.89L2310.06 -1441H2267.87ZM2252.83 -1499.4L2246.68 -1522.84C2245.25 -1528.04 2243.49 -1534.78 2241.41 -1543.05C2239.39 -1551.32 2238.05 -1557.24 2237.4 -1560.82C2236.82 -1557.5 2235.64 -1552.04 2233.89 -1544.42C2232.19 -1536.8 2228.39 -1521.79 2222.46 -1499.4H2252.83ZM2236.23 -1252.59H2297.85V-1175.64C2281.12 -1169.91 2262.73 -1167.05 2242.68 -1167.05C2220.67 -1167.05 2203.65 -1173.43 2191.6 -1186.19C2179.62 -1198.95 2173.63 -1217.14 2173.63 -1240.78C2173.63 -1263.82 2180.21 -1281.76 2193.36 -1294.59C2206.51 -1307.41 2224.93 -1313.82 2248.63 -1313.82C2257.62 -1313.82 2266.08 -1312.98 2274.02 -1311.29C2282.03 -1309.59 2289 -1307.44 2294.92 -1304.84L2282.71 -1274.57C2272.43 -1279.64 2261.13 -1282.18 2248.83 -1282.18C2237.57 -1282.18 2228.84 -1278.51 2222.66 -1271.15C2216.54 -1263.86 2213.48 -1253.41 2213.48 -1239.8C2213.48 -1226.45 2216.24 -1216.27 2221.78 -1209.23C2227.38 -1202.27 2235.42 -1198.79 2245.9 -1198.79C2251.63 -1198.79 2256.9 -1199.34 2261.72 -1200.45V-1222.81H2236.23V-1252.59ZM2218.07 -897V-1039.77H2256.84V-897H2218.07ZM2194.73 -625V-767.773H2233.3V-656.152H2288.28V-625H2194.73ZM2218.07 -353V-495.773H2256.84V-353H2218.07ZM2256.84 -81H2218.26V-192.23H2183.4V-223.773H2291.6V-192.23H2256.84V-81ZM2237.5 101.156L2262.11 48.2266H2303.91L2256.93 135.238V191H2218.07V136.41L2171.09 48.2266H2213.09L2237.5 101.156Z" fill="#2FAD00" fill-opacity="0.15"/>
</g>
<defs>
<clipPath id="clip0">
<rect width="2600" height="4366" fill="white"/>
</clipPath>
<clipPath id="clip1">
<rect width="499.33" height="499.33" fill="white" transform="translate(24 513)"/>
</clipPath>
<clipPath id="clip2">
<rect width="499.33" height="499.33" fill="white" transform="translate(1556 3315)"/>
</clipPath>
</defs>
</svg>
