<svg width="2600" height="4366" viewBox="0 0 2600 4366" fill="none" xmlns="http://www.w3.org/2000/svg">
<g clip-path="url(#clip0)">
<rect width="2600" height="4366" fill="white"/>
<rect width="1440" height="24000" fill="white"/>
<g opacity="0.5">
<g opacity="0.5">
<path d="M2334.86 2259.6C2332.99 2247.11 2301.25 2239.58 2298.72 2250.91C2295.09 2267.14 2308.62 2273.35 2315.61 2276.82C2322.59 2280.28 2336.73 2272.09 2334.86 2259.6Z" fill="#3F78BD" fill-opacity="0.6"/>
<path d="M2331.33 2272.44C2338.38 2261.97 2320.06 2234.98 2310.54 2241.63C2296.91 2251.15 2302.69 2264.87 2305.5 2272.15C2308.32 2279.42 2324.28 2282.92 2331.33 2272.44Z" fill="#3F78BD" fill-opacity="0.7"/>
</g>
<g opacity="0.5">
<path d="M2256.72 1798.75C2266.78 1791.12 2258.18 1759.66 2247.02 1762.87C2231.04 1767.46 2232.07 1782.32 2232.38 1790.11C2232.69 1797.9 2246.66 1806.38 2256.72 1798.75Z" fill="#3F78BD" fill-opacity="0.6"/>
<path d="M2243.76 1801.81C2256.33 1802.98 2271.23 1773.96 2260.83 1768.79C2245.94 1761.39 2236.67 1773.05 2231.64 1779C2226.61 1784.96 2231.19 1800.65 2243.76 1801.81Z" fill="#3F78BD" fill-opacity="0.7"/>
</g>
<g opacity="0.5">
<path d="M2136.52 2210.8C2134.65 2198.31 2102.92 2190.77 2100.38 2202.1C2096.75 2218.33 2110.28 2224.55 2117.27 2228.01C2124.26 2231.48 2138.39 2223.28 2136.52 2210.8Z" fill="#3F78BD" fill-opacity="0.6"/>
<path d="M2132.99 2223.64C2140.05 2213.16 2121.72 2186.18 2112.2 2192.82C2098.57 2202.34 2104.35 2216.07 2107.17 2223.34C2109.98 2230.61 2125.94 2234.11 2132.99 2223.64Z" fill="#3F78BD" fill-opacity="0.7"/>
</g>
<g opacity="0.5">
<path d="M2204.47 1601.29C2214.53 1593.67 2205.93 1562.2 2194.77 1565.41C2178.79 1570 2179.82 1584.86 2180.13 1592.65C2180.44 1600.44 2194.41 1608.92 2204.47 1601.29Z" fill="#3F78BD" fill-opacity="0.6"/>
<path d="M2191.51 1604.35C2204.08 1605.52 2218.98 1576.5 2208.58 1571.34C2193.69 1563.93 2184.42 1575.59 2179.39 1581.55C2174.35 1587.5 2178.94 1603.19 2191.51 1604.35Z" fill="#3F78BD" fill-opacity="0.7"/>
</g>
<g opacity="0.5">
<path d="M2472.97 2011.2C2471.1 1998.72 2439.36 1991.18 2436.83 2002.51C2433.2 2018.74 2446.73 2024.96 2453.72 2028.42C2460.7 2031.89 2474.84 2023.69 2472.97 2011.2Z" fill="#3F78BD" fill-opacity="0.6"/>
<path d="M2469.44 2024.05C2476.49 2013.57 2458.17 1986.58 2448.65 1993.23C2435.01 2002.75 2440.8 2016.47 2443.61 2023.75C2446.43 2031.02 2462.39 2034.52 2469.44 2024.05Z" fill="#3F78BD" fill-opacity="0.7"/>
</g>
<g opacity="0.5">
<path d="M2540.92 1800.87C2550.99 1793.25 2542.39 1761.78 2531.23 1764.99C2515.24 1769.58 2516.28 1784.44 2516.58 1792.23C2516.89 1800.02 2530.86 1808.5 2540.92 1800.87Z" fill="#3F78BD" fill-opacity="0.6"/>
<path d="M2527.96 1803.94C2540.54 1805.1 2555.44 1776.08 2545.04 1770.92C2530.15 1763.51 2520.88 1775.17 2515.84 1781.13C2510.81 1787.08 2515.39 1802.77 2527.96 1803.94Z" fill="#3F78BD" fill-opacity="0.7"/>
</g>
<g opacity="0.5">
<path d="M2305.79 1974.86C2303.92 1962.37 2272.18 1954.83 2269.64 1966.17C2266.01 1982.4 2279.55 1988.61 2286.53 1992.08C2293.52 1995.54 2307.66 1987.35 2305.79 1974.86Z" fill="#3F78BD" fill-opacity="0.6"/>
<path d="M2302.26 1987.7C2309.31 1977.23 2290.99 1950.24 2281.47 1956.89C2267.83 1966.41 2273.62 1980.13 2276.43 1987.4C2279.24 1994.68 2295.21 1998.18 2302.26 1987.7Z" fill="#3F78BD" fill-opacity="0.7"/>
</g>
<g opacity="0.5">
<path d="M2492.67 1636.73C2502.73 1629.1 2494.13 1597.64 2482.97 1600.84C2466.99 1605.44 2468.02 1620.29 2468.33 1628.09C2468.64 1635.88 2482.61 1644.36 2492.67 1636.73Z" fill="#3F78BD" fill-opacity="0.6"/>
<path d="M2479.71 1639.79C2492.28 1640.96 2507.18 1611.94 2496.78 1606.77C2481.89 1599.37 2472.62 1611.02 2467.59 1616.98C2462.55 1622.94 2467.14 1638.62 2479.71 1639.79Z" fill="#3F78BD" fill-opacity="0.7"/>
</g>
<g opacity="0.5">
<path d="M2107.45 1926.05C2105.58 1913.57 2073.84 1906.03 2071.3 1917.36C2067.67 1933.59 2081.21 1939.81 2088.19 1943.27C2095.18 1946.74 2109.32 1938.54 2107.45 1926.05Z" fill="#3F78BD" fill-opacity="0.6"/>
<path d="M2103.92 1938.9C2110.97 1928.42 2092.65 1901.43 2083.13 1908.08C2069.49 1917.6 2075.28 1931.32 2078.09 1938.6C2080.9 1945.87 2096.87 1949.37 2103.92 1938.9Z" fill="#3F78BD" fill-opacity="0.7"/>
</g>
<g opacity="0.5">
<path d="M2440.42 1439.27C2450.48 1431.64 2441.88 1400.18 2430.72 1403.39C2414.74 1407.98 2415.77 1422.84 2416.08 1430.63C2416.39 1438.42 2430.36 1446.9 2440.42 1439.27Z" fill="#3F78BD" fill-opacity="0.6"/>
<path d="M2427.46 1442.33C2440.03 1443.5 2454.93 1414.48 2444.53 1409.31C2429.64 1401.91 2420.37 1413.57 2415.34 1419.52C2410.3 1425.48 2414.88 1441.17 2427.46 1442.33Z" fill="#3F78BD" fill-opacity="0.7"/>
</g>
<g opacity="0.5">
<path d="M2366.29 2163.3C2363.04 2141.55 2307.77 2128.43 2303.36 2148.16C2297.03 2176.42 2320.6 2187.25 2332.76 2193.28C2344.93 2199.32 2369.55 2185.04 2366.29 2163.3Z" fill="#3F78BD" fill-opacity="0.6"/>
<path d="M2360.15 2185.66C2372.43 2167.42 2340.52 2120.43 2323.94 2132C2300.2 2148.58 2310.27 2172.48 2315.17 2185.14C2320.07 2197.81 2347.87 2203.9 2360.15 2185.66Z" fill="#3F78BD" fill-opacity="0.7"/>
</g>
<g opacity="0.5">
<path d="M2356.3 1780.17C2373.83 1766.89 2358.85 1712.09 2339.41 1717.68C2311.58 1725.68 2313.38 1751.55 2313.92 1765.12C2314.45 1778.69 2338.78 1793.45 2356.3 1780.17Z" fill="#3F78BD" fill-opacity="0.6"/>
<path d="M2333.73 1785.5C2355.63 1787.53 2381.57 1737 2363.46 1728C2337.53 1715.11 2321.39 1735.41 2312.63 1745.78C2303.86 1756.15 2311.84 1783.47 2333.73 1785.5Z" fill="#3F78BD" fill-opacity="0.7"/>
</g>
<g opacity="0.5">
<path d="M2167.95 2114.49C2164.7 2092.75 2109.43 2079.62 2105.02 2099.36C2098.69 2127.62 2122.26 2138.44 2134.43 2144.48C2146.59 2150.51 2171.21 2136.24 2167.95 2114.49Z" fill="#3F78BD" fill-opacity="0.6"/>
<path d="M2161.81 2136.86C2174.09 2118.62 2142.18 2071.62 2125.6 2083.2C2101.86 2099.78 2111.93 2123.67 2116.83 2136.34C2121.73 2149 2149.53 2155.1 2161.81 2136.86Z" fill="#3F78BD" fill-opacity="0.7"/>
</g>
<g opacity="0.5">
<path d="M2304.05 1582.71C2321.57 1569.43 2306.6 1514.63 2287.16 1520.22C2259.33 1528.22 2261.13 1554.09 2261.66 1567.66C2262.2 1581.23 2286.53 1595.99 2304.05 1582.71Z" fill="#3F78BD" fill-opacity="0.6"/>
<path d="M2281.48 1588.04C2303.37 1590.07 2329.32 1539.54 2311.21 1530.54C2285.28 1517.65 2269.14 1537.95 2260.37 1548.32C2251.61 1558.69 2259.59 1586.01 2281.48 1588.04Z" fill="#3F78BD" fill-opacity="0.7"/>
</g>
<g opacity="0.5">
<path d="M2504.4 1914.9C2501.14 1893.16 2445.88 1880.03 2441.46 1899.77C2435.14 1928.02 2458.71 1938.85 2470.87 1944.88C2483.04 1950.92 2507.66 1936.65 2504.4 1914.9Z" fill="#3F78BD" fill-opacity="0.6"/>
<path d="M2498.26 1937.26C2510.54 1919.02 2478.63 1872.03 2462.05 1883.61C2438.31 1900.18 2448.38 1924.08 2453.28 1936.75C2458.18 1949.41 2485.98 1955.5 2498.26 1937.26Z" fill="#3F78BD" fill-opacity="0.7"/>
</g>
<g opacity="0.5">
<path d="M2640.51 1782.29C2658.03 1769.01 2643.05 1714.22 2623.62 1719.8C2595.79 1727.8 2597.58 1753.67 2598.12 1767.24C2598.66 1780.81 2622.98 1795.57 2640.51 1782.29Z" fill="#3F78BD" fill-opacity="0.6"/>
<path d="M2617.93 1787.62C2639.83 1789.65 2665.77 1739.12 2647.67 1730.12C2621.74 1717.23 2605.59 1737.53 2596.83 1747.9C2588.06 1758.27 2596.04 1785.59 2617.93 1787.62Z" fill="#3F78BD" fill-opacity="0.7"/>
</g>
<g opacity="0.5">
<path d="M2337.22 1878.56C2333.96 1856.81 2278.69 1843.69 2274.28 1863.42C2267.96 1891.68 2291.52 1902.5 2303.69 1908.54C2315.85 1914.57 2340.47 1900.3 2337.22 1878.56Z" fill="#3F78BD" fill-opacity="0.6"/>
<path d="M2331.07 1900.92C2343.35 1882.68 2311.44 1835.69 2294.86 1847.26C2271.12 1863.84 2281.19 1887.74 2286.09 1900.4C2290.99 1913.07 2318.79 1919.16 2331.07 1900.92Z" fill="#3F78BD" fill-opacity="0.7"/>
</g>
<g opacity="0.5">
<path d="M2592.25 1618.15C2609.78 1604.86 2594.8 1550.07 2575.37 1555.66C2547.53 1563.66 2549.33 1589.53 2549.87 1603.1C2550.4 1616.67 2574.73 1631.43 2592.25 1618.15Z" fill="#3F78BD" fill-opacity="0.6"/>
<path d="M2569.68 1623.48C2591.58 1625.51 2617.52 1574.98 2599.41 1565.98C2573.48 1553.09 2557.34 1573.38 2548.58 1583.76C2539.81 1594.13 2547.79 1621.44 2569.68 1623.48Z" fill="#3F78BD" fill-opacity="0.7"/>
</g>
<g opacity="0.5">
<path d="M2138.88 1829.75C2135.62 1808 2080.36 1794.88 2075.94 1814.61C2069.62 1842.87 2093.18 1853.7 2105.35 1859.73C2117.52 1865.77 2142.14 1851.5 2138.88 1829.75Z" fill="#3F78BD" fill-opacity="0.6"/>
<path d="M2132.73 1852.11C2145.01 1833.87 2113.11 1786.88 2096.53 1798.46C2072.78 1815.03 2082.86 1838.93 2087.76 1851.6C2092.66 1864.26 2120.45 1870.35 2132.73 1852.11Z" fill="#3F78BD" fill-opacity="0.7"/>
</g>
<g opacity="0.5">
<path d="M2540 1420.69C2557.52 1407.4 2542.55 1352.61 2523.11 1358.2C2495.28 1366.2 2497.08 1392.07 2497.62 1405.64C2498.15 1419.21 2522.48 1433.97 2540 1420.69Z" fill="#3F78BD" fill-opacity="0.6"/>
<path d="M2517.43 1426.02C2539.32 1428.05 2565.27 1377.52 2547.16 1368.52C2521.23 1355.63 2505.09 1375.93 2496.32 1386.3C2487.56 1396.67 2495.54 1423.99 2517.43 1426.02Z" fill="#3F78BD" fill-opacity="0.7"/>
</g>
<g opacity="0.5">
<path d="M2253.08 2208.2C2252 2201 2233.71 2196.66 2232.25 2203.19C2230.16 2212.54 2237.96 2216.13 2241.99 2218.12C2246.01 2220.12 2254.16 2215.4 2253.08 2208.2Z" fill="#3F78BD" fill-opacity="0.6"/>
<path d="M2251.05 2215.6C2255.11 2209.56 2244.55 2194.01 2239.07 2197.84C2231.21 2203.33 2234.54 2211.24 2236.16 2215.43C2237.79 2219.62 2246.99 2221.64 2251.05 2215.6Z" fill="#3F78BD" fill-opacity="0.7"/>
</g>
<g opacity="0.5">
<path d="M2262.63 1702.34C2268.43 1697.95 2263.47 1679.81 2257.04 1681.66C2247.82 1684.31 2248.42 1692.87 2248.6 1697.36C2248.77 1701.85 2256.83 1706.74 2262.63 1702.34Z" fill="#3F78BD" fill-opacity="0.6"/>
<path d="M2255.15 1704.11C2262.4 1704.78 2270.99 1688.05 2264.99 1685.08C2256.41 1680.81 2251.07 1687.53 2248.17 1690.96C2245.27 1694.39 2247.91 1703.43 2255.15 1704.11Z" fill="#3F78BD" fill-opacity="0.7"/>
</g>
<g opacity="0.5">
<path d="M2589.53 2008.61C2588.45 2001.41 2570.16 1997.07 2568.7 2003.6C2566.61 2012.95 2574.41 2016.53 2578.43 2018.53C2582.46 2020.53 2590.61 2015.81 2589.53 2008.61Z" fill="#3F78BD" fill-opacity="0.6"/>
<path d="M2587.5 2016.01C2591.56 2009.97 2581 1994.42 2575.51 1998.25C2567.66 2003.74 2570.99 2011.65 2572.61 2015.84C2574.23 2020.03 2583.43 2022.05 2587.5 2016.01Z" fill="#3F78BD" fill-opacity="0.7"/>
</g>
<g opacity="0.5">
<path d="M2599.08 1901.92C2604.88 1897.53 2599.92 1879.39 2593.49 1881.24C2584.28 1883.89 2584.87 1892.45 2585.05 1896.94C2585.23 1901.43 2593.28 1906.32 2599.08 1901.92Z" fill="#3F78BD" fill-opacity="0.6"/>
<path d="M2591.61 1903.69C2598.86 1904.36 2607.44 1887.64 2601.45 1884.66C2592.87 1880.39 2587.53 1887.11 2584.62 1890.54C2581.72 1893.97 2584.36 1903.01 2591.61 1903.69Z" fill="#3F78BD" fill-opacity="0.7"/>
</g>
<g opacity="0.5">
<path d="M2054.75 2159.39C2053.67 2152.2 2035.38 2147.85 2033.91 2154.39C2031.82 2163.74 2039.62 2167.32 2043.65 2169.32C2047.67 2171.32 2055.82 2166.59 2054.75 2159.39Z" fill="#3F78BD" fill-opacity="0.6"/>
<path d="M2052.71 2166.8C2056.78 2160.76 2046.22 2145.21 2040.73 2149.04C2032.87 2154.52 2036.2 2162.43 2037.83 2166.62C2039.45 2170.82 2048.65 2172.83 2052.71 2166.8Z" fill="#3F78BD" fill-opacity="0.7"/>
</g>
<g opacity="0.5">
<path d="M2210.38 1504.88C2216.18 1500.49 2211.22 1482.35 2204.79 1484.2C2195.57 1486.85 2196.17 1495.41 2196.35 1499.9C2196.52 1504.39 2204.58 1509.28 2210.38 1504.88Z" fill="#3F78BD" fill-opacity="0.6"/>
<path d="M2202.9 1506.65C2210.15 1507.32 2218.74 1490.6 2212.74 1487.62C2204.16 1483.35 2198.82 1490.07 2195.92 1493.5C2193.02 1496.93 2195.66 1505.98 2202.9 1506.65Z" fill="#3F78BD" fill-opacity="0.7"/>
</g>
<g opacity="0.5">
<path d="M2391.19 1959.8C2390.11 1952.61 2371.82 1948.26 2370.36 1954.79C2368.27 1964.15 2376.07 1967.73 2380.1 1969.73C2384.12 1971.72 2392.27 1967 2391.19 1959.8Z" fill="#3F78BD" fill-opacity="0.6"/>
<path d="M2389.16 1967.2C2393.22 1961.17 2382.66 1945.61 2377.18 1949.45C2369.32 1954.93 2372.65 1962.84 2374.27 1967.03C2375.9 1971.22 2385.1 1973.24 2389.16 1967.2Z" fill="#3F78BD" fill-opacity="0.7"/>
</g>
<g opacity="0.5">
<path d="M2546.83 1704.46C2552.63 1700.07 2547.67 1681.93 2541.24 1683.78C2532.03 1686.43 2532.62 1694.99 2532.8 1699.48C2532.98 1703.97 2541.03 1708.86 2546.83 1704.46Z" fill="#3F78BD" fill-opacity="0.6"/>
<path d="M2539.36 1706.23C2546.6 1706.9 2555.19 1690.18 2549.2 1687.2C2540.62 1682.93 2535.27 1689.65 2532.37 1693.08C2529.47 1696.52 2532.11 1705.56 2539.36 1706.23Z" fill="#3F78BD" fill-opacity="0.7"/>
</g>
<g opacity="0.5">
<path d="M2224.01 1923.46C2222.93 1916.26 2204.64 1911.92 2203.18 1918.45C2201.08 1927.8 2208.88 1931.38 2212.91 1933.38C2216.94 1935.38 2225.08 1930.65 2224.01 1923.46Z" fill="#3F78BD" fill-opacity="0.6"/>
<path d="M2221.97 1930.86C2226.04 1924.82 2215.48 1909.27 2209.99 1913.1C2202.13 1918.59 2205.47 1926.5 2207.09 1930.69C2208.71 1934.88 2217.91 1936.9 2221.97 1930.86Z" fill="#3F78BD" fill-opacity="0.7"/>
</g>
<g opacity="0.5">
<path d="M2498.58 1540.32C2504.38 1535.92 2499.42 1517.79 2492.99 1519.64C2483.78 1522.29 2484.37 1530.85 2484.55 1535.34C2484.73 1539.83 2492.78 1544.72 2498.58 1540.32Z" fill="#3F78BD" fill-opacity="0.6"/>
<path d="M2491.11 1542.08C2498.35 1542.76 2506.94 1526.03 2500.95 1523.05C2492.36 1518.79 2487.02 1525.5 2484.12 1528.94C2481.22 1532.37 2483.86 1541.41 2491.11 1542.08Z" fill="#3F78BD" fill-opacity="0.7"/>
</g>
<g opacity="0.5">
<path d="M2025.67 1874.65C2024.59 1867.45 2006.3 1863.11 2004.84 1869.64C2002.75 1879 2010.55 1882.58 2014.57 1884.58C2018.6 1886.57 2026.75 1881.85 2025.67 1874.65Z" fill="#3F78BD" fill-opacity="0.6"/>
<path d="M2023.64 1882.05C2027.7 1876.02 2017.14 1860.46 2011.65 1864.29C2003.79 1869.78 2007.13 1877.69 2008.75 1881.88C2010.37 1886.07 2019.57 1888.09 2023.64 1882.05Z" fill="#3F78BD" fill-opacity="0.7"/>
</g>
<g opacity="0.5">
<path d="M2446.32 1342.86C2452.12 1338.47 2447.17 1320.33 2440.74 1322.18C2431.52 1324.83 2432.12 1333.39 2432.3 1337.88C2432.47 1342.37 2440.53 1347.26 2446.32 1342.86Z" fill="#3F78BD" fill-opacity="0.6"/>
<path d="M2438.85 1344.63C2446.1 1345.3 2454.69 1328.57 2448.69 1325.59C2440.11 1321.33 2434.77 1328.05 2431.87 1331.48C2428.97 1334.91 2431.61 1343.95 2438.85 1344.63Z" fill="#3F78BD" fill-opacity="0.7"/>
</g>
</g>
<g opacity="0.5">
<g opacity="0.5">
<path d="M2615.86 572.601C2613.99 560.114 2582.25 552.577 2579.72 563.909C2576.09 580.138 2589.62 586.354 2596.61 589.819C2603.59 593.285 2617.73 585.088 2615.86 572.601Z" fill="#3F78BD" fill-opacity="0.6"/>
<path d="M2612.33 585.443C2619.38 574.969 2601.06 547.982 2591.54 554.63C2577.91 564.15 2583.69 577.872 2586.5 585.145C2589.32 592.419 2605.28 595.918 2612.33 585.443Z" fill="#3F78BD" fill-opacity="0.7"/>
</g>
<g opacity="0.5">
<path d="M2537.72 111.752C2547.78 104.124 2539.18 72.659 2528.02 75.8666C2512.04 80.4601 2513.07 95.3163 2513.38 103.109C2513.69 110.902 2527.66 119.379 2537.72 111.752Z" fill="#3F78BD" fill-opacity="0.6"/>
<path d="M2524.76 114.812C2537.33 115.979 2552.23 86.9617 2541.83 81.7928C2526.94 74.3906 2517.67 86.0465 2512.64 92.0028C2507.61 97.959 2512.19 113.645 2524.76 114.812Z" fill="#3F78BD" fill-opacity="0.7"/>
</g>
<g opacity="0.5">
<path d="M2417.52 523.795C2415.65 511.308 2383.92 503.772 2381.38 515.104C2377.75 531.332 2391.28 537.548 2398.27 541.014C2405.26 544.479 2419.39 536.283 2417.52 523.795Z" fill="#3F78BD" fill-opacity="0.6"/>
<path d="M2413.99 536.638C2421.05 526.163 2402.72 499.177 2393.2 505.824C2379.57 515.344 2385.35 529.066 2388.17 536.34C2390.98 543.613 2406.94 547.112 2413.99 536.638Z" fill="#3F78BD" fill-opacity="0.7"/>
</g>
<g opacity="0.5">
<path d="M2586.79 287.859C2584.92 275.371 2553.18 267.835 2550.64 279.167C2547.01 295.395 2560.55 301.611 2567.53 305.077C2574.52 308.543 2588.66 300.346 2586.79 287.859Z" fill="#3F78BD" fill-opacity="0.6"/>
<path d="M2583.26 300.701C2590.31 290.227 2571.99 263.24 2562.47 269.888C2548.83 279.408 2554.62 293.13 2557.43 300.403C2560.24 307.677 2576.21 311.175 2583.26 300.701Z" fill="#3F78BD" fill-opacity="0.7"/>
</g>
<g opacity="0.5">
<path d="M2388.45 239.053C2386.58 226.566 2354.84 219.029 2352.3 230.361C2348.67 246.589 2362.21 252.806 2369.19 256.271C2376.18 259.737 2390.32 251.54 2388.45 239.053Z" fill="#3F78BD" fill-opacity="0.6"/>
<path d="M2384.92 251.895C2391.97 241.421 2373.65 214.434 2364.13 221.082C2350.49 230.602 2356.28 244.324 2359.09 251.597C2361.9 258.871 2377.87 262.37 2384.92 251.895Z" fill="#3F78BD" fill-opacity="0.7"/>
</g>
<g opacity="0.5">
<path d="M2647.29 476.298C2644.04 454.553 2588.77 441.429 2584.36 461.163C2578.03 489.422 2601.6 500.247 2613.76 506.282C2625.93 512.317 2650.55 498.044 2647.29 476.298Z" fill="#3F78BD" fill-opacity="0.6"/>
<path d="M2641.15 498.662C2653.43 480.422 2621.52 433.428 2604.94 445.005C2581.2 461.582 2591.27 485.478 2596.17 498.144C2601.07 510.81 2628.87 516.903 2641.15 498.662Z" fill="#3F78BD" fill-opacity="0.7"/>
</g>
<g opacity="0.5">
<path d="M2637.3 93.1685C2654.83 79.8853 2639.85 25.093 2620.41 30.6787C2592.58 38.6778 2594.38 64.5484 2594.92 78.1184C2595.45 91.6885 2619.78 106.452 2637.3 93.1685Z" fill="#3F78BD" fill-opacity="0.6"/>
<path d="M2614.73 98.498C2636.63 100.53 2662.57 49.9993 2644.46 40.9981C2618.53 28.1081 2602.39 48.4057 2593.63 58.7778C2584.86 69.1499 2592.84 96.4662 2614.73 98.498Z" fill="#3F78BD" fill-opacity="0.7"/>
</g>
<g opacity="0.5">
<path d="M2448.95 427.493C2445.7 405.747 2390.43 392.623 2386.02 412.357C2379.69 440.617 2403.26 451.441 2415.43 457.477C2427.59 463.512 2452.21 449.238 2448.95 427.493Z" fill="#3F78BD" fill-opacity="0.6"/>
<path d="M2442.81 449.857C2455.09 431.617 2423.18 384.623 2406.6 396.199C2382.86 412.776 2392.93 436.672 2397.83 449.338C2402.73 462.004 2430.53 468.097 2442.81 449.857Z" fill="#3F78BD" fill-opacity="0.7"/>
</g>
<g opacity="0.5">
<path d="M2618.22 191.556C2614.96 169.81 2559.69 156.687 2555.28 176.42C2548.96 204.68 2572.52 215.505 2584.69 221.54C2596.85 227.575 2621.47 213.301 2618.22 191.556Z" fill="#3F78BD" fill-opacity="0.6"/>
<path d="M2612.07 213.92C2624.35 195.68 2592.44 148.686 2575.86 160.262C2552.12 176.84 2562.19 200.735 2567.09 213.401C2571.99 226.067 2599.79 232.16 2612.07 213.92Z" fill="#3F78BD" fill-opacity="0.7"/>
</g>
<g opacity="0.5">
<path d="M2419.88 142.75C2416.62 121.005 2361.36 107.881 2356.94 127.615C2350.62 155.874 2374.18 166.699 2386.35 172.734C2398.52 178.769 2423.14 164.496 2419.88 142.75Z" fill="#3F78BD" fill-opacity="0.6"/>
<path d="M2413.73 165.114C2426.01 146.874 2394.11 99.8802 2377.53 111.456C2353.78 128.034 2363.86 151.93 2368.76 164.596C2373.66 177.262 2401.45 183.354 2413.73 165.114Z" fill="#3F78BD" fill-opacity="0.7"/>
</g>
<g opacity="0.5">
<path d="M2534.08 521.2C2533 514.003 2514.71 509.66 2513.25 516.191C2511.16 525.544 2518.96 529.127 2522.99 531.124C2527.01 533.121 2535.16 528.397 2534.08 521.2Z" fill="#3F78BD" fill-opacity="0.6"/>
<path d="M2532.05 528.602C2536.11 522.565 2525.55 507.011 2520.07 510.843C2512.21 516.329 2515.54 524.238 2517.16 528.43C2518.79 532.622 2527.99 534.639 2532.05 528.602Z" fill="#3F78BD" fill-opacity="0.7"/>
</g>
<g opacity="0.5">
<path d="M2543.63 15.3421C2549.43 10.9458 2544.47 -7.18871 2538.04 -5.33999C2528.82 -2.69256 2529.42 5.86978 2529.6 10.361C2529.77 14.8523 2537.83 19.7384 2543.63 15.3421Z" fill="#3F78BD" fill-opacity="0.6"/>
<path d="M2536.15 17.1059C2543.4 17.7784 2551.99 1.0544 2545.99 -1.9247C2537.41 -6.1909 2532.07 0.526956 2529.17 3.9598C2526.27 7.39265 2528.91 16.4335 2536.15 17.1059Z" fill="#3F78BD" fill-opacity="0.7"/>
</g>
<g opacity="0.5">
<path d="M2335.75 472.395C2334.67 465.197 2316.38 460.854 2314.91 467.385C2312.82 476.738 2320.62 480.321 2324.65 482.318C2328.67 484.316 2336.82 479.592 2335.75 472.395Z" fill="#3F78BD" fill-opacity="0.6"/>
<path d="M2333.71 479.796C2337.78 473.759 2327.22 458.206 2321.73 462.037C2313.87 467.524 2317.2 475.433 2318.83 479.625C2320.45 483.817 2329.65 485.833 2333.71 479.796Z" fill="#3F78BD" fill-opacity="0.7"/>
</g>
<g opacity="0.5">
<path d="M2505.01 236.458C2503.93 229.261 2485.64 224.917 2484.18 231.448C2482.08 240.801 2489.88 244.384 2493.91 246.382C2497.94 248.379 2506.08 243.655 2505.01 236.458Z" fill="#3F78BD" fill-opacity="0.6"/>
<path d="M2502.97 243.859C2507.04 237.823 2496.48 222.269 2490.99 226.1C2483.13 231.587 2486.47 239.496 2488.09 243.688C2489.71 247.88 2498.91 249.896 2502.97 243.859Z" fill="#3F78BD" fill-opacity="0.7"/>
</g>
<g opacity="0.5">
<path d="M2306.67 187.652C2305.59 180.455 2287.3 176.111 2285.84 182.643C2283.75 191.996 2291.55 195.578 2295.57 197.576C2299.6 199.573 2307.75 194.849 2306.67 187.652Z" fill="#3F78BD" fill-opacity="0.6"/>
<path d="M2304.64 195.054C2308.7 189.017 2298.14 173.463 2292.65 177.295C2284.79 182.781 2288.13 190.69 2289.75 194.882C2291.37 199.074 2300.57 201.091 2304.64 195.054Z" fill="#3F78BD" fill-opacity="0.7"/>
</g>
</g>
<g opacity="0.5">
<g opacity="0.5">
<path d="M86.861 3868.6C84.9907 3856.11 53.2544 3848.58 50.719 3859.91C47.0883 3876.14 60.6209 3882.35 67.6073 3885.82C74.5937 3889.28 88.7314 3881.09 86.861 3868.6Z" fill="#3F78BD" fill-opacity="0.6"/>
<path d="M83.3328 3881.44C90.3841 3870.97 72.0614 3843.98 62.5401 3850.63C48.9053 3860.15 54.691 3873.87 57.5047 3881.15C60.3185 3888.42 76.2815 3891.92 83.3328 3881.44Z" fill="#3F78BD" fill-opacity="0.7"/>
</g>
<g opacity="0.5">
<path d="M8.72136 3407.75C18.7836 3400.12 10.1832 3368.66 -0.97733 3371.87C-16.9597 3376.46 -15.9274 3391.32 -15.6196 3399.11C-15.3118 3406.9 -1.3409 3415.38 8.72136 3407.75Z" fill="#3F78BD" fill-opacity="0.6"/>
<path d="M-4.24067 3410.81C8.33202 3411.98 23.2314 3382.96 12.8329 3377.79C-2.05813 3370.39 -11.327 3382.05 -16.3613 3388C-21.3955 3393.96 -16.8134 3409.65 -4.24067 3410.81Z" fill="#3F78BD" fill-opacity="0.7"/>
</g>
<g opacity="0.5">
<path d="M224.97 3620.2C223.1 3607.72 191.364 3600.18 188.828 3611.51C185.198 3627.74 198.73 3633.96 205.717 3637.42C212.703 3640.89 226.841 3632.69 224.97 3620.2Z" fill="#3F78BD" fill-opacity="0.6"/>
<path d="M221.442 3633.05C228.493 3622.57 210.171 3595.58 200.649 3602.23C187.015 3611.75 192.8 3625.47 195.614 3632.75C198.428 3640.02 214.391 3643.52 221.442 3633.05Z" fill="#3F78BD" fill-opacity="0.7"/>
</g>
<g opacity="0.5">
<path d="M292.924 3409.87C302.987 3402.25 294.386 3370.78 283.226 3373.99C267.243 3378.58 268.276 3393.44 268.583 3401.23C268.891 3409.02 282.862 3417.5 292.924 3409.87Z" fill="#3F78BD" fill-opacity="0.6"/>
<path d="M279.962 3412.94C292.535 3414.1 307.435 3385.08 297.036 3379.92C282.145 3372.51 272.876 3384.17 267.842 3390.13C262.808 3396.08 267.39 3411.77 279.962 3412.94Z" fill="#3F78BD" fill-opacity="0.7"/>
</g>
<g opacity="0.5">
<path d="M57.7849 3583.86C55.9145 3571.37 24.1782 3563.83 21.6429 3575.17C18.0122 3591.4 31.5448 3597.61 38.5311 3601.08C45.5175 3604.54 59.6552 3596.35 57.7849 3583.86Z" fill="#3F78BD" fill-opacity="0.6"/>
<path d="M54.2566 3596.7C61.3079 3586.23 42.9852 3559.24 33.464 3565.89C19.8291 3575.41 25.6148 3589.13 28.4285 3596.4C31.2423 3603.68 47.2053 3607.18 54.2566 3596.7Z" fill="#3F78BD" fill-opacity="0.7"/>
</g>
<g opacity="0.5">
<path d="M244.673 3245.73C254.735 3238.1 246.134 3206.64 234.974 3209.84C218.992 3214.44 220.024 3229.29 220.332 3237.09C220.639 3244.88 234.61 3253.36 244.673 3245.73Z" fill="#3F78BD" fill-opacity="0.6"/>
<path d="M231.71 3248.79C244.283 3249.96 259.183 3220.94 248.784 3215.77C233.893 3208.37 224.624 3220.02 219.59 3225.98C214.556 3231.94 219.138 3247.62 231.71 3248.79Z" fill="#3F78BD" fill-opacity="0.7"/>
</g>
<g opacity="0.5">
<path d="M192.421 3048.27C202.483 3040.64 193.882 3009.18 182.722 3012.39C166.74 3016.98 167.772 3031.84 168.08 3039.63C168.387 3047.42 182.358 3055.9 192.421 3048.27Z" fill="#3F78BD" fill-opacity="0.6"/>
<path d="M179.459 3051.33C192.031 3052.5 206.931 3023.48 196.532 3018.31C181.641 3010.91 172.372 3022.57 167.338 3028.52C162.304 3034.48 166.886 3050.17 179.459 3051.33Z" fill="#3F78BD" fill-opacity="0.7"/>
</g>
<g opacity="0.5">
<path d="M118.292 3772.3C115.035 3750.55 59.7692 3737.43 55.3541 3757.16C49.0317 3785.42 72.5973 3796.25 84.7633 3802.28C96.9293 3808.32 121.549 3794.04 118.292 3772.3Z" fill="#3F78BD" fill-opacity="0.6"/>
<path d="M112.149 3794.66C124.428 3776.42 92.5208 3729.43 75.9405 3741C52.1968 3757.58 62.272 3781.48 67.1718 3794.14C72.0717 3806.81 99.8696 3812.9 112.149 3794.66Z" fill="#3F78BD" fill-opacity="0.7"/>
</g>
<g opacity="0.5">
<path d="M108.303 3389.17C125.826 3375.89 110.849 3321.09 91.4141 3326.68C63.5826 3334.68 65.3801 3360.55 65.9161 3374.12C66.4521 3387.69 90.781 3402.45 108.303 3389.17Z" fill="#3F78BD" fill-opacity="0.6"/>
<path d="M85.7318 3394.5C107.626 3396.53 133.571 3346 115.464 3337C89.5324 3324.11 73.3916 3344.41 64.625 3354.78C55.8585 3365.15 63.8377 3392.47 85.7318 3394.5Z" fill="#3F78BD" fill-opacity="0.7"/>
</g>
<g opacity="0.5">
<path d="M56.0524 3191.71C73.5748 3178.43 58.598 3123.63 39.1632 3129.22C11.3316 3137.22 13.1291 3163.09 13.6651 3176.66C14.2011 3190.23 38.53 3204.99 56.0524 3191.71Z" fill="#3F78BD" fill-opacity="0.6"/>
<path d="M33.4808 3197.04C55.3748 3199.07 81.3204 3148.54 63.2126 3139.54C37.2814 3126.65 21.1406 3146.95 12.3741 3157.32C3.6075 3167.69 11.5868 3195.01 33.4808 3197.04Z" fill="#3F78BD" fill-opacity="0.7"/>
</g>
<g opacity="0.5">
<path d="M256.401 3523.9C253.144 3502.16 197.879 3489.03 193.464 3508.77C187.141 3537.02 210.707 3547.85 222.873 3553.88C235.039 3559.92 259.658 3545.65 256.401 3523.9Z" fill="#3F78BD" fill-opacity="0.6"/>
<path d="M250.258 3546.26C262.537 3528.02 230.63 3481.03 214.05 3492.61C190.306 3509.18 200.381 3533.08 205.281 3545.75C210.181 3558.41 237.979 3564.5 250.258 3546.26Z" fill="#3F78BD" fill-opacity="0.7"/>
</g>
<g opacity="0.5">
<path d="M392.507 3391.29C410.03 3378.01 395.053 3323.22 375.618 3328.8C347.787 3336.8 349.584 3362.67 350.12 3376.24C350.656 3389.81 374.985 3404.57 392.507 3391.29Z" fill="#3F78BD" fill-opacity="0.6"/>
<path d="M369.936 3396.62C391.83 3398.65 417.776 3348.12 399.668 3339.12C373.737 3326.23 357.596 3346.53 348.829 3356.9C340.063 3367.27 348.042 3394.59 369.936 3396.62Z" fill="#3F78BD" fill-opacity="0.7"/>
</g>
<g opacity="0.5">
<path d="M89.2154 3487.56C85.9584 3465.81 30.693 3452.69 26.278 3472.42C19.9555 3500.68 43.5211 3511.5 55.6871 3517.54C67.8531 3523.57 92.4725 3509.3 89.2154 3487.56Z" fill="#3F78BD" fill-opacity="0.6"/>
<path d="M83.0725 3509.92C95.3516 3491.68 63.4446 3444.69 46.8643 3456.26C23.1206 3472.84 33.1958 3496.74 38.0957 3509.4C42.9955 3522.07 70.7934 3528.16 83.0725 3509.92Z" fill="#3F78BD" fill-opacity="0.7"/>
</g>
<g opacity="0.5">
<path d="M344.255 3227.15C361.777 3213.86 346.8 3159.07 327.365 3164.66C299.534 3172.66 301.331 3198.53 301.867 3212.1C302.403 3225.67 326.732 3240.43 344.255 3227.15Z" fill="#3F78BD" fill-opacity="0.6"/>
<path d="M321.683 3232.48C343.577 3234.51 369.523 3183.98 351.415 3174.98C325.484 3162.09 309.343 3182.38 300.576 3192.76C291.81 3203.13 299.789 3230.44 321.683 3232.48Z" fill="#3F78BD" fill-opacity="0.7"/>
</g>
<g opacity="0.5">
<path d="M292.003 3029.69C309.525 3016.4 294.548 2961.61 275.113 2967.2C247.282 2975.2 249.079 3001.07 249.615 3014.64C250.151 3028.21 274.48 3042.97 292.003 3029.69Z" fill="#3F78BD" fill-opacity="0.6"/>
<path d="M269.431 3035.02C291.325 3037.05 317.271 2986.52 299.163 2977.52C273.232 2964.63 257.091 2984.93 248.324 2995.3C239.558 3005.67 247.537 3032.99 269.431 3035.02Z" fill="#3F78BD" fill-opacity="0.7"/>
</g>
<g opacity="0.5">
<path d="M5.08192 3817.2C4.00395 3810 -14.2872 3805.66 -15.7484 3812.19C-17.8409 3821.54 -10.0415 3825.13 -6.01489 3827.12C-1.98833 3829.12 6.1599 3824.4 5.08192 3817.2Z" fill="#3F78BD" fill-opacity="0.6"/>
<path d="M3.04819 3824.6C7.11218 3818.56 -3.44803 3803.01 -8.93558 3806.84C-16.794 3812.33 -13.4594 3820.24 -11.8377 3824.43C-10.216 3828.62 -1.01579 3830.64 3.04819 3824.6Z" fill="#3F78BD" fill-opacity="0.7"/>
</g>
<g opacity="0.5">
<path d="M14.6266 3311.34C20.426 3306.95 15.4692 3288.81 9.03684 3290.66C-0.174518 3293.31 0.420393 3301.87 0.59779 3306.36C0.775188 3310.85 8.82729 3315.74 14.6266 3311.34Z" fill="#3F78BD" fill-opacity="0.6"/>
<path d="M7.15608 3313.11C14.4023 3313.78 22.9895 3297.05 16.9964 3294.08C8.41399 3289.81 3.07189 3296.53 0.170432 3299.96C-2.73103 3303.39 -0.0901407 3312.43 7.15608 3313.11Z" fill="#3F78BD" fill-opacity="0.7"/>
</g>
<g opacity="0.5">
<path d="M341.53 3617.61C340.452 3610.41 322.161 3606.07 320.7 3612.6C318.607 3621.95 326.407 3625.53 330.433 3627.53C334.46 3629.53 342.608 3624.81 341.53 3617.61Z" fill="#3F78BD" fill-opacity="0.6"/>
<path d="M339.496 3625.01C343.56 3618.97 333 3603.42 327.513 3607.25C319.654 3612.74 322.989 3620.65 324.611 3624.84C326.232 3629.03 335.432 3631.05 339.496 3625.01Z" fill="#3F78BD" fill-opacity="0.7"/>
</g>
<g opacity="0.5">
<path d="M351.081 3510.92C356.88 3506.53 351.923 3488.39 345.491 3490.24C336.28 3492.89 336.874 3501.45 337.052 3505.94C337.229 3510.43 345.281 3515.32 351.081 3510.92Z" fill="#3F78BD" fill-opacity="0.6"/>
<path d="M343.61 3512.69C350.856 3513.36 359.444 3496.64 353.45 3493.66C344.868 3489.39 339.526 3496.11 336.625 3499.54C333.723 3502.97 336.364 3512.01 343.61 3512.69Z" fill="#3F78BD" fill-opacity="0.7"/>
</g>
<g opacity="0.5">
<path d="M143.192 3568.8C142.114 3561.61 123.823 3557.26 122.362 3563.79C120.269 3573.15 128.069 3576.73 132.095 3578.73C136.122 3580.72 144.27 3576 143.192 3568.8Z" fill="#3F78BD" fill-opacity="0.6"/>
<path d="M141.159 3576.2C145.223 3570.17 134.662 3554.61 129.175 3558.45C121.316 3563.93 124.651 3571.84 126.273 3576.03C127.894 3580.22 137.095 3582.24 141.159 3576.2Z" fill="#3F78BD" fill-opacity="0.7"/>
</g>
<g opacity="0.5">
<path d="M298.829 3313.46C304.628 3309.07 299.671 3290.93 293.239 3292.78C284.028 3295.43 284.623 3303.99 284.8 3308.48C284.977 3312.97 293.029 3317.86 298.829 3313.46Z" fill="#3F78BD" fill-opacity="0.6"/>
<path d="M291.358 3315.23C298.604 3315.9 307.192 3299.18 301.199 3296.2C292.616 3291.93 287.274 3298.65 284.373 3302.08C281.471 3305.52 284.112 3314.56 291.358 3315.23Z" fill="#3F78BD" fill-opacity="0.7"/>
</g>
<g opacity="0.5">
<path d="M250.577 3149.32C256.376 3144.92 251.419 3126.79 244.987 3128.64C235.776 3131.29 236.371 3139.85 236.548 3144.34C236.725 3148.83 244.777 3153.72 250.577 3149.32Z" fill="#3F78BD" fill-opacity="0.6"/>
<path d="M243.106 3151.08C250.353 3151.76 258.94 3135.03 252.947 3132.05C244.364 3127.79 239.022 3134.5 236.121 3137.94C233.219 3141.37 235.86 3150.41 243.106 3151.08Z" fill="#3F78BD" fill-opacity="0.7"/>
</g>
<g opacity="0.5">
<path d="M198.325 2951.86C204.124 2947.47 199.167 2929.33 192.735 2931.18C183.524 2933.83 184.119 2942.39 184.296 2946.88C184.473 2951.37 192.526 2956.26 198.325 2951.86Z" fill="#3F78BD" fill-opacity="0.6"/>
<path d="M190.854 2953.63C198.101 2954.3 206.688 2937.57 200.695 2934.59C192.112 2930.33 186.77 2937.05 183.869 2940.48C180.967 2943.91 183.608 2952.95 190.854 2953.63Z" fill="#3F78BD" fill-opacity="0.7"/>
</g>
</g>
<g opacity="0.5">
<g opacity="0.5">
<path d="M716.721 4321.75C726.784 4314.12 718.183 4282.66 707.023 4285.87C691.04 4290.46 692.073 4305.32 692.38 4313.11C692.688 4320.9 706.659 4329.38 716.721 4321.75Z" fill="#3F78BD" fill-opacity="0.6"/>
<path d="M703.759 4324.81C716.332 4325.98 731.231 4296.96 720.833 4291.79C705.942 4284.39 696.673 4296.05 691.639 4302C686.605 4307.96 691.187 4323.65 703.759 4324.81Z" fill="#3F78BD" fill-opacity="0.7"/>
</g>
<g opacity="0.5">
<path d="M664.47 4124.29C674.533 4116.67 665.932 4085.2 654.772 4088.41C638.789 4093 639.822 4107.86 640.129 4115.65C640.437 4123.44 654.408 4131.92 664.47 4124.29Z" fill="#3F78BD" fill-opacity="0.6"/>
<path d="M651.508 4127.35C664.081 4128.52 678.98 4099.5 668.582 4094.34C653.691 4086.93 644.422 4098.59 639.388 4104.55C634.354 4110.5 638.936 4126.19 651.508 4127.35Z" fill="#3F78BD" fill-opacity="0.7"/>
</g>
<g opacity="0.5">
<path d="M1000.92 4323.87C1010.99 4316.25 1002.39 4284.78 991.226 4287.99C975.243 4292.58 976.276 4307.44 976.583 4315.23C976.891 4323.02 990.862 4331.5 1000.92 4323.87Z" fill="#3F78BD" fill-opacity="0.6"/>
<path d="M987.962 4326.94C1000.54 4328.1 1015.43 4299.08 1005.04 4293.92C990.145 4286.51 980.876 4298.17 975.842 4304.13C970.808 4310.08 975.39 4325.77 987.962 4326.94Z" fill="#3F78BD" fill-opacity="0.7"/>
</g>
<g opacity="0.5">
<path d="M952.673 4159.73C962.735 4152.1 954.134 4120.64 942.974 4123.85C926.992 4128.44 928.024 4143.29 928.332 4151.09C928.639 4158.88 942.61 4167.36 952.673 4159.73Z" fill="#3F78BD" fill-opacity="0.6"/>
<path d="M939.71 4162.79C952.283 4163.96 967.183 4134.94 956.784 4129.77C941.893 4122.37 932.624 4134.03 927.59 4139.98C922.556 4145.94 927.138 4161.62 939.71 4162.79Z" fill="#3F78BD" fill-opacity="0.7"/>
</g>
<g opacity="0.5">
<path d="M900.421 3962.27C910.483 3954.64 901.882 3923.18 890.722 3926.39C874.74 3930.98 875.772 3945.84 876.08 3953.63C876.387 3961.42 890.358 3969.9 900.421 3962.27Z" fill="#3F78BD" fill-opacity="0.6"/>
<path d="M887.459 3965.33C900.031 3966.5 914.931 3937.48 904.532 3932.31C889.641 3924.91 880.372 3936.57 875.338 3942.52C870.304 3948.48 874.886 3964.17 887.459 3965.33Z" fill="#3F78BD" fill-opacity="0.7"/>
</g>
<g opacity="0.5">
<path d="M816.303 4303.17C833.826 4289.89 818.849 4235.09 799.414 4240.68C771.583 4248.68 773.38 4274.55 773.916 4288.12C774.452 4301.69 798.781 4316.45 816.303 4303.17Z" fill="#3F78BD" fill-opacity="0.6"/>
<path d="M793.732 4308.5C815.626 4310.53 841.571 4260 823.464 4251C797.532 4238.11 781.392 4258.41 772.625 4268.78C763.858 4279.15 771.838 4306.47 793.732 4308.5Z" fill="#3F78BD" fill-opacity="0.7"/>
</g>
<g opacity="0.5">
<path d="M764.052 4105.71C781.575 4092.43 766.598 4037.63 747.163 4043.22C719.332 4051.22 721.129 4077.09 721.665 4090.66C722.201 4104.23 746.53 4118.99 764.052 4105.71Z" fill="#3F78BD" fill-opacity="0.6"/>
<path d="M741.481 4111.04C763.375 4113.07 789.32 4062.54 771.213 4053.54C745.281 4040.65 729.141 4060.95 720.374 4071.32C711.607 4081.69 719.587 4109.01 741.481 4111.04Z" fill="#3F78BD" fill-opacity="0.7"/>
</g>
<g opacity="0.5">
<path d="M1100.51 4305.29C1118.03 4292.01 1103.05 4237.22 1083.62 4242.8C1055.79 4250.8 1057.58 4276.67 1058.12 4290.24C1058.66 4303.81 1082.99 4318.57 1100.51 4305.29Z" fill="#3F78BD" fill-opacity="0.6"/>
<path d="M1077.94 4310.62C1099.83 4312.65 1125.78 4262.12 1107.67 4253.12C1081.74 4240.23 1065.6 4260.53 1056.83 4270.9C1048.06 4281.27 1056.04 4308.59 1077.94 4310.62Z" fill="#3F78BD" fill-opacity="0.7"/>
</g>
<g opacity="0.5">
<path d="M791.073 4423.92C803.352 4405.68 771.445 4358.69 754.864 4370.26C731.121 4386.84 741.196 4410.74 746.096 4423.4C750.996 4436.07 778.793 4442.16 791.073 4423.92Z" fill="#3F78BD" fill-opacity="0.7"/>
</g>
<g opacity="0.5">
<path d="M1052.25 4141.15C1069.78 4127.86 1054.8 4073.07 1035.37 4078.66C1007.53 4086.66 1009.33 4112.53 1009.87 4126.1C1010.4 4139.67 1034.73 4154.43 1052.25 4141.15Z" fill="#3F78BD" fill-opacity="0.6"/>
<path d="M1029.68 4146.48C1051.58 4148.51 1077.52 4097.98 1059.41 4088.98C1033.48 4076.09 1017.34 4096.38 1008.58 4106.76C999.81 4117.13 1007.79 4144.44 1029.68 4146.48Z" fill="#3F78BD" fill-opacity="0.7"/>
</g>
<g opacity="0.5">
<path d="M598.878 4352.75C595.621 4331 540.355 4317.88 535.94 4337.61C529.618 4365.87 553.183 4376.7 565.349 4382.73C577.515 4388.77 602.135 4374.5 598.878 4352.75Z" fill="#3F78BD" fill-opacity="0.6"/>
<path d="M592.735 4375.11C605.014 4356.87 573.107 4309.88 556.526 4321.46C532.783 4338.03 542.858 4361.93 547.758 4374.6C552.658 4387.26 580.456 4393.35 592.735 4375.11Z" fill="#3F78BD" fill-opacity="0.7"/>
</g>
<g opacity="0.5">
<path d="M1000 3943.69C1017.52 3930.4 1002.55 3875.61 983.113 3881.2C955.282 3889.2 957.079 3915.07 957.615 3928.64C958.151 3942.21 982.48 3956.97 1000 3943.69Z" fill="#3F78BD" fill-opacity="0.6"/>
<path d="M977.431 3949.02C999.325 3951.05 1025.27 3900.52 1007.16 3891.52C981.232 3878.63 965.091 3898.93 956.324 3909.3C947.558 3919.67 955.537 3946.99 977.431 3949.02Z" fill="#3F78BD" fill-opacity="0.7"/>
</g>
<g opacity="0.5">
<path d="M722.627 4225.34C728.426 4220.95 723.469 4202.81 717.037 4204.66C707.825 4207.31 708.42 4215.87 708.598 4220.36C708.775 4224.85 716.827 4229.74 722.627 4225.34Z" fill="#3F78BD" fill-opacity="0.6"/>
<path d="M715.156 4227.11C722.402 4227.78 730.99 4211.05 724.996 4208.08C716.414 4203.81 711.072 4210.53 708.17 4213.96C705.269 4217.39 707.91 4226.43 715.156 4227.11Z" fill="#3F78BD" fill-opacity="0.7"/>
</g>
<g opacity="0.5">
<path d="M670.374 4027.88C676.173 4023.49 671.216 4005.35 664.784 4007.2C655.573 4009.85 656.167 4018.41 656.345 4022.9C656.522 4027.39 664.574 4032.28 670.374 4027.88Z" fill="#3F78BD" fill-opacity="0.6"/>
<path d="M662.904 4029.65C670.15 4030.32 678.738 4013.6 672.744 4010.62C664.162 4006.35 658.82 4013.07 655.918 4016.5C653.017 4019.93 655.658 4028.98 662.904 4029.65Z" fill="#3F78BD" fill-opacity="0.7"/>
</g>
<g opacity="0.5">
<path d="M1006.83 4227.46C1012.63 4223.07 1007.67 4204.93 1001.24 4206.78C992.028 4209.43 992.623 4217.99 992.8 4222.48C992.977 4226.97 1001.03 4231.86 1006.83 4227.46Z" fill="#3F78BD" fill-opacity="0.6"/>
<path d="M999.358 4229.23C1006.6 4229.9 1015.19 4213.18 1009.2 4210.2C1000.62 4205.93 995.274 4212.65 992.373 4216.08C989.471 4219.52 992.112 4228.56 999.358 4229.23Z" fill="#3F78BD" fill-opacity="0.7"/>
</g>
<g opacity="0.5">
<path d="M958.577 4063.32C964.376 4058.92 959.419 4040.79 952.987 4042.64C943.776 4045.29 944.371 4053.85 944.548 4058.34C944.725 4062.83 952.777 4067.72 958.577 4063.32Z" fill="#3F78BD" fill-opacity="0.6"/>
<path d="M951.106 4065.08C958.353 4065.76 966.94 4049.03 960.947 4046.05C952.364 4041.79 947.022 4048.5 944.121 4051.94C941.219 4055.37 943.86 4064.41 951.106 4065.08Z" fill="#3F78BD" fill-opacity="0.7"/>
</g>
<g opacity="0.5">
<path d="M906.325 3865.86C912.124 3861.47 907.167 3843.33 900.735 3845.18C891.524 3847.83 892.119 3856.39 892.296 3860.88C892.473 3865.37 900.526 3870.26 906.325 3865.86Z" fill="#3F78BD" fill-opacity="0.6"/>
<path d="M898.854 3867.63C906.101 3868.3 914.688 3851.57 908.695 3848.59C900.112 3844.33 894.77 3851.05 891.869 3854.48C888.967 3857.91 891.608 3866.95 898.854 3867.63Z" fill="#3F78BD" fill-opacity="0.7"/>
</g>
</g>
<rect y="-2604" width="2598" height="24000" fill="#3F78BD" fill-opacity="0.3"/>
<path d="M319.336 1184.42C319.336 1208.44 313.444 1226.7 301.66 1239.2C289.876 1251.7 272.624 1257.95 249.902 1257.95C227.507 1257.95 210.319 1251.67 198.34 1239.11C186.426 1226.54 180.469 1208.25 180.469 1184.22C180.469 1160.46 186.393 1142.33 198.242 1129.83C210.156 1117.26 227.441 1110.98 250.098 1110.98C272.819 1110.98 290.039 1117.2 301.758 1129.63C313.477 1142.07 319.336 1160.33 319.336 1184.42ZM221.094 1184.42C221.094 1212.02 230.697 1225.82 249.902 1225.82C259.668 1225.82 266.895 1222.47 271.582 1215.77C276.335 1209.06 278.711 1198.61 278.711 1184.42C278.711 1170.16 276.302 1159.65 271.484 1152.88C266.732 1146.04 259.603 1142.62 250.098 1142.62C230.762 1142.62 221.094 1156.55 221.094 1184.42ZM317.969 1528H267.383L215.234 1427.41H214.355C215.592 1443.23 216.211 1455.31 216.211 1463.64V1528H182.031L182.031 1385.23H232.422L284.375 1484.45H284.961C284.049 1470.06 283.594 1458.5 283.594 1449.78V1385.23H317.969L317.969 1528ZM295.313 1800H210.547V1657.23H295.313V1688.18H249.121V1710.64H291.895V1741.6H249.121V1768.55H295.313V1800ZM311.133 2201.23V2287.16C311.133 2305.85 305.827 2320.33 295.215 2330.62C284.668 2340.84 269.434 2345.95 249.512 2345.95C230.046 2345.95 215.072 2340.97 204.59 2331.01C194.173 2321.05 188.965 2306.73 188.965 2288.04L188.965 2201.23H227.734L227.734 2285.02C227.734 2295.11 229.622 2302.43 233.398 2306.99C237.174 2311.55 242.741 2313.82 250.098 2313.82C257.975 2313.82 263.672 2311.58 267.188 2307.09C270.768 2302.53 272.559 2295.11 272.559 2284.82L272.559 2201.23H311.133ZM315.723 2616H270.117L256.445 2553.79C255.794 2551.19 254.753 2546.01 253.32 2538.27C251.953 2530.52 250.944 2524.04 250.293 2518.83C249.772 2523.06 248.926 2528.34 247.754 2534.65C246.582 2540.9 245.41 2546.66 244.238 2551.94C243.132 2557.21 238.411 2578.57 230.078 2616H184.473L149.121 2473.23H186.328L201.855 2544.81C205.371 2560.63 207.78 2573.23 209.082 2582.6C209.928 2575.96 211.426 2566.94 213.574 2555.55C215.788 2544.16 217.839 2534.72 219.727 2527.23L232.324 2473.23H268.066L280.273 2527.23C282.357 2535.89 284.473 2545.88 286.621 2557.21C288.77 2568.54 290.202 2577 290.918 2582.6C291.764 2575.38 294.076 2562.84 297.852 2545L313.672 2473.23H350.879L315.723 2616ZM230.566 2888V2745.23H269.336V2888H230.566Z" fill="#3F78BD" fill-opacity="0.15"/>
<path d="M2306.34 2872.42C2306.34 2896.44 2300.44 2914.7 2288.66 2927.2C2276.88 2939.7 2259.62 2945.95 2236.9 2945.95C2214.51 2945.95 2197.32 2939.67 2185.34 2927.11C2173.43 2914.54 2167.47 2896.25 2167.47 2872.22C2167.47 2848.46 2173.39 2830.33 2185.24 2817.83C2197.16 2805.26 2214.44 2798.98 2237.1 2798.98C2259.82 2798.98 2277.04 2805.2 2288.76 2817.63C2300.48 2830.07 2306.34 2848.33 2306.34 2872.42ZM2208.09 2872.42C2208.09 2900.02 2217.7 2913.82 2236.9 2913.82C2246.67 2913.82 2253.89 2910.47 2258.58 2903.77C2263.33 2897.06 2265.71 2886.61 2265.71 2872.42C2265.71 2858.16 2263.3 2847.65 2258.48 2840.88C2253.73 2834.04 2246.6 2830.62 2237.1 2830.62C2217.76 2830.62 2208.09 2844.55 2208.09 2872.42ZM2304.97 3216H2254.38L2202.23 3115.41H2201.36C2202.59 3131.23 2203.21 3143.31 2203.21 3151.64V3216H2169.03V3073.23H2219.42L2271.38 3172.45H2271.96C2271.05 3158.06 2270.59 3146.5 2270.59 3137.78V3073.23H2304.97V3216ZM2282.31 3488H2197.55V3345.23H2282.31V3376.18H2236.12V3398.64H2278.89V3429.6H2236.12V3456.55H2282.31V3488ZM2298.13 3889.23V3975.16C2298.13 3993.85 2292.83 4008.33 2282.21 4018.62C2271.67 4028.84 2256.43 4033.95 2236.51 4033.95C2217.05 4033.95 2202.07 4028.97 2191.59 4019.01C2181.17 4009.05 2175.96 3994.73 2175.96 3976.04V3889.23H2214.73V3973.02C2214.73 3983.11 2216.62 3990.43 2220.4 3994.99C2224.17 3999.55 2229.74 4001.82 2237.1 4001.82C2244.98 4001.82 2250.67 3999.58 2254.19 3995.09C2257.77 3990.53 2259.56 3983.11 2259.56 3972.82V3889.23H2298.13ZM2302.72 4304H2257.12L2243.45 4241.79C2242.79 4239.19 2241.75 4234.01 2240.32 4226.27C2238.95 4218.52 2237.94 4212.04 2237.29 4206.83C2236.77 4211.06 2235.93 4216.34 2234.75 4222.65C2233.58 4228.9 2232.41 4234.66 2231.24 4239.94C2230.13 4245.21 2225.41 4266.57 2217.08 4304H2171.47L2136.12 4161.23H2173.33L2188.86 4232.81C2192.37 4248.63 2194.78 4261.23 2196.08 4270.6C2196.93 4263.96 2198.43 4254.94 2200.57 4243.55C2202.79 4232.16 2204.84 4222.72 2206.73 4215.23L2219.32 4161.23H2255.07L2267.27 4215.23C2269.36 4223.89 2271.47 4233.88 2273.62 4245.21C2275.77 4256.54 2277.2 4265 2277.92 4270.6C2278.76 4263.38 2281.08 4250.84 2284.85 4233L2300.67 4161.23H2337.88L2302.72 4304ZM2217.57 4576V4433.23H2256.34V4576H2217.57Z" fill="#3F78BD" fill-opacity="0.15"/>
<g opacity="0.5">
<path d="M-40.5 3164.5V2410H2598V3693.5L-40.5 3164.5Z" fill="white"/>
<path d="M-40.5 3255V2500.5H2598V3784L-40.5 3255Z" fill="white"/>
</g>
<g opacity="0.5">
<g opacity="0.5">
<path d="M801.861 423.601C799.991 411.114 768.254 403.577 765.719 414.909C762.088 431.138 775.621 437.354 782.607 440.819C789.594 444.285 803.731 436.088 801.861 423.601Z" fill="#3F78BD" fill-opacity="0.6"/>
<path d="M798.333 436.443C805.384 425.969 787.061 398.982 777.54 405.63C763.905 415.15 769.691 428.872 772.505 436.145C775.318 443.419 791.281 446.918 798.333 436.443Z" fill="#3F78BD" fill-opacity="0.7"/>
</g>
<g opacity="0.5">
<path d="M603.522 374.795C601.652 362.308 569.915 354.772 567.38 366.104C563.749 382.332 577.282 388.548 584.268 392.014C591.255 395.479 605.393 387.283 603.522 374.795Z" fill="#3F78BD" fill-opacity="0.6"/>
<path d="M599.994 387.638C607.045 377.163 588.723 350.177 579.201 356.824C565.566 366.344 571.352 380.066 574.166 387.34C576.98 394.613 592.943 398.112 599.994 387.638Z" fill="#3F78BD" fill-opacity="0.7"/>
</g>
<g opacity="0.5">
<path d="M939.97 175.203C938.1 162.716 906.364 155.179 903.828 166.512C900.198 182.74 913.73 188.956 920.717 192.422C927.703 195.887 941.841 187.691 939.97 175.203Z" fill="#3F78BD" fill-opacity="0.6"/>
<path d="M936.442 188.046C943.493 177.571 925.171 150.585 915.649 157.232C902.015 166.752 907.8 180.474 910.614 187.748C913.428 195.021 929.391 198.52 936.442 188.046Z" fill="#3F78BD" fill-opacity="0.7"/>
</g>
<g opacity="0.5">
<path d="M772.785 138.859C770.914 126.371 739.178 118.835 736.643 130.167C733.012 146.395 746.545 152.611 753.531 156.077C760.517 159.543 774.655 151.346 772.785 138.859Z" fill="#3F78BD" fill-opacity="0.6"/>
<path d="M769.257 151.701C776.308 141.227 757.985 114.24 748.464 120.888C734.829 130.408 740.615 144.13 743.429 151.403C746.242 158.677 762.205 162.175 769.257 151.701Z" fill="#3F78BD" fill-opacity="0.7"/>
</g>
<g opacity="0.5">
<path d="M574.447 90.053C572.577 77.5655 540.84 70.0291 538.305 81.3613C534.674 97.5894 548.207 103.806 555.193 107.271C562.18 110.737 576.317 102.54 574.447 90.053Z" fill="#3F78BD" fill-opacity="0.6"/>
<path d="M570.919 102.895C577.97 92.4208 559.647 65.4344 550.126 72.082C536.491 81.6018 542.277 95.324 545.091 102.597C547.904 109.871 563.867 113.37 570.919 102.895Z" fill="#3F78BD" fill-opacity="0.7"/>
</g>
<g opacity="0.5">
<path d="M833.292 327.298C830.035 305.553 774.769 292.429 770.354 312.163C764.032 340.422 787.597 351.247 799.763 357.282C811.929 363.317 836.549 349.044 833.292 327.298Z" fill="#3F78BD" fill-opacity="0.6"/>
<path d="M827.149 349.662C839.428 331.422 807.521 284.428 790.94 296.005C767.197 312.582 777.272 336.478 782.172 349.144C787.072 361.81 814.87 367.903 827.149 349.662Z" fill="#3F78BD" fill-opacity="0.7"/>
</g>
<g opacity="0.5">
<path d="M634.953 278.493C631.696 256.747 576.43 243.623 572.015 263.357C565.693 291.617 589.258 302.441 601.424 308.477C613.59 314.512 638.21 300.238 634.953 278.493Z" fill="#3F78BD" fill-opacity="0.6"/>
<path d="M628.81 300.857C641.089 282.617 609.182 235.623 592.602 247.199C568.858 263.776 578.933 287.672 583.833 300.338C588.733 313.004 616.531 319.097 628.81 300.857Z" fill="#3F78BD" fill-opacity="0.7"/>
</g>
<g opacity="0.5">
<path d="M971.401 78.9007C968.144 57.1552 912.879 44.0312 908.464 63.765C902.141 92.0246 925.707 102.85 937.873 108.885C950.039 114.92 974.658 100.646 971.401 78.9007Z" fill="#3F78BD" fill-opacity="0.6"/>
<path d="M965.258 101.265C977.537 83.0247 945.63 36.0306 929.05 47.6068C905.306 64.1844 915.381 88.0802 920.281 100.746C925.181 113.412 952.979 119.505 965.258 101.265Z" fill="#3F78BD" fill-opacity="0.7"/>
</g>
<g opacity="0.5">
<path d="M804.215 42.5559C800.958 20.8104 745.693 7.68651 741.278 27.4203C734.955 55.6799 758.521 66.5048 770.687 72.5399C782.853 78.575 807.472 64.3015 804.215 42.5559Z" fill="#3F78BD" fill-opacity="0.6"/>
<path d="M798.073 64.92C810.352 46.68 778.445 -0.314148 761.864 11.2621C738.121 27.8397 748.196 51.7354 753.096 64.4014C757.996 77.0673 785.793 83.1601 798.073 64.92Z" fill="#3F78BD" fill-opacity="0.7"/>
</g>
<g opacity="0.5">
<path d="M605.878 -6.24975C602.621 -27.9953 547.355 -41.1192 542.94 -21.3854C536.618 6.8742 560.183 17.6991 572.349 23.7342C584.515 29.7693 609.135 15.4958 605.878 -6.24975Z" fill="#3F78BD" fill-opacity="0.6"/>
<path d="M599.735 16.1143C612.014 -2.12573 580.107 -49.1198 563.526 -37.5436C539.783 -20.966 549.858 2.92975 554.758 15.5957C559.658 28.2616 587.456 34.3544 599.735 16.1143Z" fill="#3F78BD" fill-opacity="0.7"/>
</g>
<g opacity="0.5">
<path d="M720.082 372.2C719.004 365.003 700.713 360.66 699.252 367.191C697.159 376.544 704.959 380.127 708.985 382.124C713.012 384.121 721.16 379.397 720.082 372.2Z" fill="#3F78BD" fill-opacity="0.6"/>
<path d="M718.048 379.602C722.112 373.565 711.552 358.011 706.064 361.843C698.206 367.329 701.541 375.238 703.162 379.43C704.784 383.622 713.984 385.639 718.048 379.602Z" fill="#3F78BD" fill-opacity="0.7"/>
</g>
<g opacity="0.5">
<path d="M1056.53 172.608C1055.45 165.411 1037.16 161.067 1035.7 167.599C1033.61 176.952 1041.41 180.534 1045.43 182.532C1049.46 184.529 1057.61 179.805 1056.53 172.608Z" fill="#3F78BD" fill-opacity="0.6"/>
<path d="M1054.5 180.01C1058.56 173.973 1048 158.419 1042.51 162.251C1034.65 167.737 1037.99 175.646 1039.61 179.838C1041.23 184.03 1050.43 186.047 1054.5 180.01Z" fill="#3F78BD" fill-opacity="0.7"/>
</g>
<g opacity="0.5">
<path d="M1066.08 65.9235C1071.88 61.5272 1066.92 43.3927 1060.49 45.2414C1051.28 47.8888 1051.87 56.4512 1052.05 60.9424C1052.23 65.4337 1060.28 70.3198 1066.08 65.9235Z" fill="#3F78BD" fill-opacity="0.6"/>
<path d="M1058.61 67.6873C1065.86 68.3598 1074.44 51.6358 1068.45 48.6567C1059.87 44.3905 1054.53 51.1084 1051.62 54.5412C1048.72 57.9741 1051.36 67.0149 1058.61 67.6873Z" fill="#3F78BD" fill-opacity="0.7"/>
</g>
<g opacity="0.5">
<path d="M521.744 323.395C520.666 316.197 502.375 311.854 500.914 318.385C498.821 327.738 506.621 331.321 510.647 333.318C514.674 335.316 522.822 330.592 521.744 323.395Z" fill="#3F78BD" fill-opacity="0.6"/>
<path d="M519.71 330.796C523.774 324.759 513.214 309.206 507.727 313.037C499.868 318.524 503.203 326.433 504.824 330.625C506.446 334.817 515.646 336.833 519.71 330.796Z" fill="#3F78BD" fill-opacity="0.7"/>
</g>
<g opacity="0.5">
<path d="M858.192 123.802C857.114 116.605 838.823 112.262 837.362 118.793C835.269 128.146 843.069 131.729 847.095 133.726C851.122 135.724 859.27 131 858.192 123.802Z" fill="#3F78BD" fill-opacity="0.6"/>
<path d="M856.159 131.204C860.223 125.167 849.662 109.614 844.175 113.445C836.316 118.932 839.651 126.841 841.273 131.033C842.894 135.225 852.095 137.241 856.159 131.204Z" fill="#3F78BD" fill-opacity="0.7"/>
</g>
<g opacity="0.5">
<path d="M691.007 87.4578C689.929 80.2607 671.638 75.9171 670.176 82.4483C668.084 91.8014 675.883 95.3841 679.91 97.3815C683.936 99.3789 692.085 94.6548 691.007 87.4578Z" fill="#3F78BD" fill-opacity="0.6"/>
<path d="M688.973 94.8595C693.037 88.8226 682.477 73.269 676.989 77.1004C669.131 82.587 672.465 90.4958 674.087 94.6878C675.709 98.8798 684.909 100.896 688.973 94.8595Z" fill="#3F78BD" fill-opacity="0.7"/>
</g>
<g opacity="0.5">
<path d="M492.669 38.6521C491.591 31.455 473.3 27.1114 471.839 33.6427C469.746 42.9957 477.545 46.5784 481.572 48.5758C485.599 50.5732 493.747 45.8492 492.669 38.6521Z" fill="#3F78BD" fill-opacity="0.6"/>
<path d="M490.635 46.0538C494.699 40.0169 484.139 24.4633 478.651 28.2947C470.793 33.7814 474.127 41.6901 475.749 45.8821C477.371 50.0741 486.571 52.0907 490.635 46.0538Z" fill="#3F78BD" fill-opacity="0.7"/>
</g>
</g>
<path d="M2306.34 -1496.58C2306.34 -1472.56 2300.44 -1454.3 2288.66 -1441.8C2276.88 -1429.3 2259.62 -1423.05 2236.9 -1423.05C2214.51 -1423.05 2197.32 -1429.33 2185.34 -1441.89C2173.43 -1454.46 2167.47 -1472.75 2167.47 -1496.78C2167.47 -1520.54 2173.39 -1538.67 2185.24 -1551.17C2197.16 -1563.74 2214.44 -1570.02 2237.1 -1570.02C2259.82 -1570.02 2277.04 -1563.8 2288.76 -1551.37C2300.48 -1538.93 2306.34 -1520.67 2306.34 -1496.58ZM2208.09 -1496.58C2208.09 -1468.98 2217.7 -1455.18 2236.9 -1455.18C2246.67 -1455.18 2253.89 -1458.53 2258.58 -1465.23C2263.33 -1471.94 2265.71 -1482.39 2265.71 -1496.58C2265.71 -1510.84 2263.3 -1521.35 2258.48 -1528.12C2253.73 -1534.96 2246.6 -1538.38 2237.1 -1538.38C2217.76 -1538.38 2208.09 -1524.45 2208.09 -1496.58ZM2304.97 -1153H2254.38L2202.23 -1253.59H2201.36C2202.59 -1237.77 2203.21 -1225.69 2203.21 -1217.36V-1153H2169.03V-1295.77H2219.42L2271.38 -1196.55H2271.96C2271.05 -1210.94 2270.59 -1222.5 2270.59 -1231.22V-1295.77H2304.97V-1153ZM2282.31 -881H2197.55V-1023.77H2282.31V-992.816H2236.12V-970.355H2278.89V-939.398H2236.12V-912.445H2282.31V-881ZM2298.13 -479.773V-393.836C2298.13 -375.151 2292.83 -360.665 2282.21 -350.379C2271.67 -340.158 2256.43 -335.047 2236.51 -335.047C2217.05 -335.047 2202.07 -340.027 2191.59 -349.988C2181.17 -359.949 2175.96 -374.272 2175.96 -392.957V-479.773H2214.73V-395.984C2214.73 -385.893 2216.62 -378.569 2220.4 -374.012C2224.17 -369.454 2229.74 -367.176 2237.1 -367.176C2244.98 -367.176 2250.67 -369.422 2254.19 -373.914C2257.77 -378.471 2259.56 -385.893 2259.56 -396.18V-479.773H2298.13ZM2302.72 -65H2257.12L2243.45 -127.207C2242.79 -129.811 2241.75 -134.987 2240.32 -142.734C2238.95 -150.482 2237.94 -156.96 2237.29 -162.168C2236.77 -157.936 2235.93 -152.663 2234.75 -146.348C2233.58 -140.098 2232.41 -134.336 2231.24 -129.062C2230.13 -123.789 2225.41 -102.435 2217.08 -65H2171.47L2136.12 -207.773H2173.33L2188.86 -136.191C2192.37 -120.371 2194.78 -107.773 2196.08 -98.3984C2196.93 -105.039 2198.43 -114.056 2200.57 -125.449C2202.79 -136.842 2204.84 -146.283 2206.73 -153.77L2219.32 -207.773H2255.07L2267.27 -153.77C2269.36 -145.111 2271.47 -135.117 2273.62 -123.789C2275.77 -112.461 2277.2 -103.997 2277.92 -98.3984C2278.76 -105.625 2281.08 -118.158 2284.85 -135.996L2300.67 -207.773H2337.88L2302.72 -65ZM2217.57 207V64.2266H2256.34V207H2217.57Z" fill="#3F78BD" fill-opacity="0.15"/>
</g>
<defs>
<clipPath id="clip0">
<rect width="2600" height="4366" fill="white"/>
</clipPath>
</defs>
</svg>
