<svg width="2600" height="4366" viewBox="0 0 2600 4366" fill="none" xmlns="http://www.w3.org/2000/svg">
<g clip-path="url(#clip0)">
<rect width="2600" height="4366" fill="white"/>
<rect width="1440" height="24000" fill="white"/>
<g opacity="0.5">
<g opacity="0.5">
<path d="M2334.86 2259.6C2332.99 2247.11 2301.25 2239.58 2298.72 2250.91C2295.09 2267.14 2308.62 2273.35 2315.61 2276.82C2322.59 2280.28 2336.73 2272.09 2334.86 2259.6Z" fill="#3F78BD" fill-opacity="0.6"/>
<path d="M2331.33 2272.44C2338.38 2261.97 2320.06 2234.98 2310.54 2241.63C2296.91 2251.15 2302.69 2264.87 2305.5 2272.15C2308.32 2279.42 2324.28 2282.92 2331.33 2272.44Z" fill="#3F78BD" fill-opacity="0.7"/>
</g>
<g opacity="0.5">
<path d="M2256.72 1798.75C2266.78 1791.12 2258.18 1759.66 2247.02 1762.87C2231.04 1767.46 2232.07 1782.32 2232.38 1790.11C2232.69 1797.9 2246.66 1806.38 2256.72 1798.75Z" fill="#3F78BD" fill-opacity="0.6"/>
<path d="M2243.76 1801.81C2256.33 1802.98 2271.23 1773.96 2260.83 1768.79C2245.94 1761.39 2236.67 1773.05 2231.64 1779C2226.61 1784.96 2231.19 1800.65 2243.76 1801.81Z" fill="#3F78BD" fill-opacity="0.7"/>
</g>
<g opacity="0.5">
<path d="M2136.52 2210.8C2134.65 2198.31 2102.92 2190.77 2100.38 2202.1C2096.75 2218.33 2110.28 2224.55 2117.27 2228.01C2124.26 2231.48 2138.39 2223.28 2136.52 2210.8Z" fill="#3F78BD" fill-opacity="0.6"/>
<path d="M2132.99 2223.64C2140.05 2213.16 2121.72 2186.18 2112.2 2192.82C2098.57 2202.34 2104.35 2216.07 2107.17 2223.34C2109.98 2230.61 2125.94 2234.11 2132.99 2223.64Z" fill="#3F78BD" fill-opacity="0.7"/>
</g>
<g opacity="0.5">
<path d="M2204.47 1601.29C2214.53 1593.67 2205.93 1562.2 2194.77 1565.41C2178.79 1570 2179.82 1584.86 2180.13 1592.65C2180.44 1600.44 2194.41 1608.92 2204.47 1601.29Z" fill="#3F78BD" fill-opacity="0.6"/>
<path d="M2191.51 1604.35C2204.08 1605.52 2218.98 1576.5 2208.58 1571.34C2193.69 1563.93 2184.42 1575.59 2179.39 1581.55C2174.35 1587.5 2178.94 1603.19 2191.51 1604.35Z" fill="#3F78BD" fill-opacity="0.7"/>
</g>
<g opacity="0.5">
<path d="M2472.97 2011.2C2471.1 1998.72 2439.36 1991.18 2436.83 2002.51C2433.2 2018.74 2446.73 2024.96 2453.72 2028.42C2460.7 2031.89 2474.84 2023.69 2472.97 2011.2Z" fill="#3F78BD" fill-opacity="0.6"/>
<path d="M2469.44 2024.05C2476.49 2013.57 2458.17 1986.58 2448.65 1993.23C2435.01 2002.75 2440.8 2016.47 2443.61 2023.75C2446.43 2031.02 2462.39 2034.52 2469.44 2024.05Z" fill="#3F78BD" fill-opacity="0.7"/>
</g>
<g opacity="0.5">
<path d="M2540.92 1800.87C2550.99 1793.25 2542.39 1761.78 2531.23 1764.99C2515.24 1769.58 2516.28 1784.44 2516.58 1792.23C2516.89 1800.02 2530.86 1808.5 2540.92 1800.87Z" fill="#3F78BD" fill-opacity="0.6"/>
<path d="M2527.96 1803.94C2540.54 1805.1 2555.44 1776.08 2545.04 1770.92C2530.15 1763.51 2520.88 1775.17 2515.84 1781.13C2510.81 1787.08 2515.39 1802.77 2527.96 1803.94Z" fill="#3F78BD" fill-opacity="0.7"/>
</g>
<g opacity="0.5">
<path d="M2305.79 1974.86C2303.92 1962.37 2272.18 1954.83 2269.64 1966.17C2266.01 1982.4 2279.55 1988.61 2286.53 1992.08C2293.52 1995.54 2307.66 1987.35 2305.79 1974.86Z" fill="#3F78BD" fill-opacity="0.6"/>
<path d="M2302.26 1987.7C2309.31 1977.23 2290.99 1950.24 2281.47 1956.89C2267.83 1966.41 2273.62 1980.13 2276.43 1987.4C2279.24 1994.68 2295.21 1998.18 2302.26 1987.7Z" fill="#3F78BD" fill-opacity="0.7"/>
</g>
<g opacity="0.5">
<path d="M2492.67 1636.73C2502.73 1629.1 2494.13 1597.64 2482.97 1600.85C2466.99 1605.44 2468.02 1620.29 2468.33 1628.09C2468.64 1635.88 2482.61 1644.36 2492.67 1636.73Z" fill="#3F78BD" fill-opacity="0.6"/>
<path d="M2479.71 1639.79C2492.28 1640.96 2507.18 1611.94 2496.78 1606.77C2481.89 1599.37 2472.62 1611.02 2467.59 1616.98C2462.55 1622.94 2467.14 1638.62 2479.71 1639.79Z" fill="#3F78BD" fill-opacity="0.7"/>
</g>
<g opacity="0.5">
<path d="M2107.45 1926.05C2105.58 1913.57 2073.84 1906.03 2071.3 1917.36C2067.67 1933.59 2081.21 1939.81 2088.19 1943.27C2095.18 1946.74 2109.32 1938.54 2107.45 1926.05Z" fill="#3F78BD" fill-opacity="0.6"/>
<path d="M2103.92 1938.9C2110.97 1928.42 2092.65 1901.43 2083.13 1908.08C2069.49 1917.6 2075.28 1931.32 2078.09 1938.6C2080.9 1945.87 2096.87 1949.37 2103.92 1938.9Z" fill="#3F78BD" fill-opacity="0.7"/>
</g>
<g opacity="0.5">
<path d="M2440.42 1439.27C2450.48 1431.64 2441.88 1400.18 2430.72 1403.39C2414.74 1407.98 2415.77 1422.84 2416.08 1430.63C2416.39 1438.42 2430.36 1446.9 2440.42 1439.27Z" fill="#3F78BD" fill-opacity="0.6"/>
<path d="M2427.46 1442.33C2440.03 1443.5 2454.93 1414.48 2444.53 1409.31C2429.64 1401.91 2420.37 1413.57 2415.34 1419.52C2410.3 1425.48 2414.88 1441.17 2427.46 1442.33Z" fill="#3F78BD" fill-opacity="0.7"/>
</g>
<g opacity="0.5">
<path d="M2366.29 2163.3C2363.04 2141.55 2307.77 2128.43 2303.36 2148.16C2297.03 2176.42 2320.6 2187.25 2332.76 2193.28C2344.93 2199.32 2369.55 2185.04 2366.29 2163.3Z" fill="#3F78BD" fill-opacity="0.6"/>
<path d="M2360.15 2185.66C2372.43 2167.42 2340.52 2120.43 2323.94 2132C2300.2 2148.58 2310.27 2172.48 2315.17 2185.14C2320.07 2197.81 2347.87 2203.9 2360.15 2185.66Z" fill="#3F78BD" fill-opacity="0.7"/>
</g>
<g opacity="0.5">
<path d="M2356.3 1780.17C2373.83 1766.89 2358.85 1712.09 2339.41 1717.68C2311.58 1725.68 2313.38 1751.55 2313.92 1765.12C2314.45 1778.69 2338.78 1793.45 2356.3 1780.17Z" fill="#3F78BD" fill-opacity="0.6"/>
<path d="M2333.73 1785.5C2355.63 1787.53 2381.57 1737 2363.46 1728C2337.53 1715.11 2321.39 1735.41 2312.63 1745.78C2303.86 1756.15 2311.84 1783.47 2333.73 1785.5Z" fill="#3F78BD" fill-opacity="0.7"/>
</g>
<g opacity="0.5">
<path d="M2167.95 2114.49C2164.7 2092.75 2109.43 2079.62 2105.02 2099.36C2098.69 2127.62 2122.26 2138.44 2134.43 2144.48C2146.59 2150.51 2171.21 2136.24 2167.95 2114.49Z" fill="#3F78BD" fill-opacity="0.6"/>
<path d="M2161.81 2136.86C2174.09 2118.62 2142.18 2071.62 2125.6 2083.2C2101.86 2099.78 2111.93 2123.67 2116.83 2136.34C2121.73 2149 2149.53 2155.1 2161.81 2136.86Z" fill="#3F78BD" fill-opacity="0.7"/>
</g>
<g opacity="0.5">
<path d="M2304.05 1582.71C2321.57 1569.43 2306.6 1514.63 2287.16 1520.22C2259.33 1528.22 2261.13 1554.09 2261.66 1567.66C2262.2 1581.23 2286.53 1595.99 2304.05 1582.71Z" fill="#3F78BD" fill-opacity="0.6"/>
<path d="M2281.48 1588.04C2303.37 1590.07 2329.32 1539.54 2311.21 1530.54C2285.28 1517.65 2269.14 1537.95 2260.37 1548.32C2251.61 1558.69 2259.59 1586.01 2281.48 1588.04Z" fill="#3F78BD" fill-opacity="0.7"/>
</g>
<g opacity="0.5">
<path d="M2504.4 1914.9C2501.14 1893.16 2445.88 1880.03 2441.46 1899.77C2435.14 1928.02 2458.71 1938.85 2470.87 1944.88C2483.04 1950.92 2507.66 1936.65 2504.4 1914.9Z" fill="#3F78BD" fill-opacity="0.6"/>
<path d="M2498.26 1937.26C2510.54 1919.02 2478.63 1872.03 2462.05 1883.61C2438.31 1900.18 2448.38 1924.08 2453.28 1936.75C2458.18 1949.41 2485.98 1955.5 2498.26 1937.26Z" fill="#3F78BD" fill-opacity="0.7"/>
</g>
<g opacity="0.5">
<path d="M2640.51 1782.29C2658.03 1769.01 2643.05 1714.22 2623.62 1719.8C2595.79 1727.8 2597.58 1753.67 2598.12 1767.24C2598.66 1780.81 2622.98 1795.57 2640.51 1782.29Z" fill="#3F78BD" fill-opacity="0.6"/>
<path d="M2617.93 1787.62C2639.83 1789.65 2665.77 1739.12 2647.67 1730.12C2621.74 1717.23 2605.59 1737.53 2596.83 1747.9C2588.06 1758.27 2596.04 1785.59 2617.93 1787.62Z" fill="#3F78BD" fill-opacity="0.7"/>
</g>
<g opacity="0.5">
<path d="M2337.22 1878.56C2333.96 1856.81 2278.69 1843.69 2274.28 1863.42C2267.96 1891.68 2291.52 1902.5 2303.69 1908.54C2315.85 1914.57 2340.47 1900.3 2337.22 1878.56Z" fill="#3F78BD" fill-opacity="0.6"/>
<path d="M2331.07 1900.92C2343.35 1882.68 2311.44 1835.69 2294.86 1847.26C2271.12 1863.84 2281.19 1887.74 2286.09 1900.4C2290.99 1913.07 2318.79 1919.16 2331.07 1900.92Z" fill="#3F78BD" fill-opacity="0.7"/>
</g>
<g opacity="0.5">
<path d="M2592.25 1618.15C2609.78 1604.86 2594.8 1550.07 2575.37 1555.66C2547.53 1563.66 2549.33 1589.53 2549.87 1603.1C2550.4 1616.67 2574.73 1631.43 2592.25 1618.15Z" fill="#3F78BD" fill-opacity="0.6"/>
<path d="M2569.68 1623.48C2591.58 1625.51 2617.52 1574.98 2599.41 1565.98C2573.48 1553.09 2557.34 1573.38 2548.58 1583.76C2539.81 1594.13 2547.79 1621.44 2569.68 1623.48Z" fill="#3F78BD" fill-opacity="0.7"/>
</g>
<g opacity="0.5">
<path d="M2138.88 1829.75C2135.62 1808 2080.36 1794.88 2075.94 1814.61C2069.62 1842.87 2093.18 1853.7 2105.35 1859.73C2117.52 1865.77 2142.14 1851.5 2138.88 1829.75Z" fill="#3F78BD" fill-opacity="0.6"/>
<path d="M2132.73 1852.11C2145.01 1833.87 2113.11 1786.88 2096.53 1798.46C2072.78 1815.03 2082.86 1838.93 2087.76 1851.6C2092.66 1864.26 2120.45 1870.35 2132.73 1852.11Z" fill="#3F78BD" fill-opacity="0.7"/>
</g>
<g opacity="0.5">
<path d="M2540 1420.69C2557.52 1407.4 2542.55 1352.61 2523.11 1358.2C2495.28 1366.2 2497.08 1392.07 2497.62 1405.64C2498.15 1419.21 2522.48 1433.97 2540 1420.69Z" fill="#3F78BD" fill-opacity="0.6"/>
<path d="M2517.43 1426.02C2539.32 1428.05 2565.27 1377.52 2547.16 1368.52C2521.23 1355.63 2505.09 1375.93 2496.32 1386.3C2487.56 1396.67 2495.54 1423.99 2517.43 1426.02Z" fill="#3F78BD" fill-opacity="0.7"/>
</g>
<g opacity="0.5">
<path d="M2253.08 2208.2C2252 2201 2233.71 2196.66 2232.25 2203.19C2230.16 2212.54 2237.96 2216.13 2241.99 2218.12C2246.01 2220.12 2254.16 2215.4 2253.08 2208.2Z" fill="#3F78BD" fill-opacity="0.6"/>
<path d="M2251.05 2215.6C2255.11 2209.56 2244.55 2194.01 2239.07 2197.84C2231.21 2203.33 2234.54 2211.24 2236.16 2215.43C2237.79 2219.62 2246.99 2221.64 2251.05 2215.6Z" fill="#3F78BD" fill-opacity="0.7"/>
</g>
<g opacity="0.5">
<path d="M2262.63 1702.34C2268.43 1697.95 2263.47 1679.81 2257.04 1681.66C2247.82 1684.31 2248.42 1692.87 2248.6 1697.36C2248.77 1701.85 2256.83 1706.74 2262.63 1702.34Z" fill="#3F78BD" fill-opacity="0.6"/>
<path d="M2255.15 1704.11C2262.4 1704.78 2270.99 1688.05 2264.99 1685.08C2256.41 1680.81 2251.07 1687.53 2248.17 1690.96C2245.27 1694.39 2247.91 1703.43 2255.15 1704.11Z" fill="#3F78BD" fill-opacity="0.7"/>
</g>
<g opacity="0.5">
<path d="M2589.53 2008.61C2588.45 2001.41 2570.16 1997.07 2568.7 2003.6C2566.61 2012.95 2574.41 2016.53 2578.43 2018.53C2582.46 2020.53 2590.61 2015.81 2589.53 2008.61Z" fill="#3F78BD" fill-opacity="0.6"/>
<path d="M2587.5 2016.01C2591.56 2009.97 2581 1994.42 2575.51 1998.25C2567.66 2003.74 2570.99 2011.65 2572.61 2015.84C2574.23 2020.03 2583.43 2022.05 2587.5 2016.01Z" fill="#3F78BD" fill-opacity="0.7"/>
</g>
<g opacity="0.5">
<path d="M2599.08 1901.92C2604.88 1897.53 2599.92 1879.39 2593.49 1881.24C2584.28 1883.89 2584.87 1892.45 2585.05 1896.94C2585.23 1901.43 2593.28 1906.32 2599.08 1901.92Z" fill="#3F78BD" fill-opacity="0.6"/>
<path d="M2591.61 1903.69C2598.86 1904.36 2607.44 1887.64 2601.45 1884.66C2592.87 1880.39 2587.53 1887.11 2584.62 1890.54C2581.72 1893.97 2584.36 1903.01 2591.61 1903.69Z" fill="#3F78BD" fill-opacity="0.7"/>
</g>
<g opacity="0.5">
<path d="M2054.75 2159.39C2053.67 2152.2 2035.38 2147.85 2033.91 2154.39C2031.82 2163.74 2039.62 2167.32 2043.65 2169.32C2047.67 2171.32 2055.82 2166.59 2054.75 2159.39Z" fill="#3F78BD" fill-opacity="0.6"/>
<path d="M2052.71 2166.8C2056.78 2160.76 2046.22 2145.21 2040.73 2149.04C2032.87 2154.52 2036.2 2162.43 2037.83 2166.62C2039.45 2170.82 2048.65 2172.83 2052.71 2166.8Z" fill="#3F78BD" fill-opacity="0.7"/>
</g>
<g opacity="0.5">
<path d="M2210.38 1504.88C2216.18 1500.49 2211.22 1482.35 2204.79 1484.2C2195.57 1486.85 2196.17 1495.41 2196.35 1499.9C2196.52 1504.39 2204.58 1509.28 2210.38 1504.88Z" fill="#3F78BD" fill-opacity="0.6"/>
<path d="M2202.9 1506.65C2210.15 1507.32 2218.74 1490.6 2212.74 1487.62C2204.16 1483.35 2198.82 1490.07 2195.92 1493.5C2193.02 1496.93 2195.66 1505.98 2202.9 1506.65Z" fill="#3F78BD" fill-opacity="0.7"/>
</g>
<g opacity="0.5">
<path d="M2391.19 1959.8C2390.11 1952.61 2371.82 1948.26 2370.36 1954.79C2368.27 1964.15 2376.07 1967.73 2380.1 1969.73C2384.12 1971.72 2392.27 1967 2391.19 1959.8Z" fill="#3F78BD" fill-opacity="0.6"/>
<path d="M2389.16 1967.2C2393.22 1961.17 2382.66 1945.61 2377.18 1949.45C2369.32 1954.93 2372.65 1962.84 2374.27 1967.03C2375.9 1971.22 2385.1 1973.24 2389.16 1967.2Z" fill="#3F78BD" fill-opacity="0.7"/>
</g>
<g opacity="0.5">
<path d="M2546.83 1704.46C2552.63 1700.07 2547.67 1681.93 2541.24 1683.78C2532.03 1686.43 2532.62 1694.99 2532.8 1699.48C2532.98 1703.97 2541.03 1708.86 2546.83 1704.46Z" fill="#3F78BD" fill-opacity="0.6"/>
<path d="M2539.36 1706.23C2546.6 1706.9 2555.19 1690.18 2549.2 1687.2C2540.62 1682.93 2535.27 1689.65 2532.37 1693.08C2529.47 1696.52 2532.11 1705.56 2539.36 1706.23Z" fill="#3F78BD" fill-opacity="0.7"/>
</g>
<g opacity="0.5">
<path d="M2224.01 1923.46C2222.93 1916.26 2204.64 1911.92 2203.18 1918.45C2201.08 1927.8 2208.88 1931.38 2212.91 1933.38C2216.94 1935.38 2225.08 1930.65 2224.01 1923.46Z" fill="#3F78BD" fill-opacity="0.6"/>
<path d="M2221.97 1930.86C2226.04 1924.82 2215.48 1909.27 2209.99 1913.1C2202.13 1918.59 2205.47 1926.5 2207.09 1930.69C2208.71 1934.88 2217.91 1936.9 2221.97 1930.86Z" fill="#3F78BD" fill-opacity="0.7"/>
</g>
<g opacity="0.5">
<path d="M2498.58 1540.32C2504.38 1535.92 2499.42 1517.79 2492.99 1519.64C2483.78 1522.29 2484.37 1530.85 2484.55 1535.34C2484.73 1539.83 2492.78 1544.72 2498.58 1540.32Z" fill="#3F78BD" fill-opacity="0.6"/>
<path d="M2491.11 1542.08C2498.35 1542.76 2506.94 1526.03 2500.95 1523.05C2492.36 1518.79 2487.02 1525.5 2484.12 1528.94C2481.22 1532.37 2483.86 1541.41 2491.11 1542.08Z" fill="#3F78BD" fill-opacity="0.7"/>
</g>
<g opacity="0.5">
<path d="M2025.67 1874.65C2024.59 1867.45 2006.3 1863.11 2004.84 1869.64C2002.75 1879 2010.55 1882.58 2014.57 1884.58C2018.6 1886.57 2026.75 1881.85 2025.67 1874.65Z" fill="#3F78BD" fill-opacity="0.6"/>
<path d="M2023.64 1882.05C2027.7 1876.02 2017.14 1860.46 2011.65 1864.29C2003.79 1869.78 2007.13 1877.69 2008.75 1881.88C2010.37 1886.07 2019.57 1888.09 2023.64 1882.05Z" fill="#3F78BD" fill-opacity="0.7"/>
</g>
<g opacity="0.5">
<path d="M2446.32 1342.86C2452.12 1338.47 2447.17 1320.33 2440.74 1322.18C2431.52 1324.83 2432.12 1333.39 2432.3 1337.88C2432.47 1342.37 2440.53 1347.26 2446.32 1342.86Z" fill="#3F78BD" fill-opacity="0.6"/>
<path d="M2438.85 1344.63C2446.1 1345.3 2454.69 1328.57 2448.69 1325.59C2440.11 1321.33 2434.77 1328.05 2431.87 1331.48C2428.97 1334.91 2431.61 1343.95 2438.85 1344.63Z" fill="#3F78BD" fill-opacity="0.7"/>
</g>
</g>
<g opacity="0.5">
<g opacity="0.5">
<path d="M2622.72 111.752C2632.78 104.124 2624.18 72.659 2613.02 75.8666C2597.04 80.4601 2598.07 95.3163 2598.38 103.109C2598.69 110.902 2612.66 119.379 2622.72 111.752Z" fill="#3F78BD" fill-opacity="0.6"/>
<path d="M2609.76 114.812C2622.33 115.979 2637.23 86.9617 2626.83 81.7928C2611.94 74.3906 2602.67 86.0465 2597.64 92.0028C2592.61 97.959 2597.19 113.645 2609.76 114.812Z" fill="#3F78BD" fill-opacity="0.7"/>
</g>
<g opacity="0.5">
<path d="M2502.52 523.795C2500.65 511.308 2468.92 503.772 2466.38 515.104C2462.75 531.332 2476.28 537.548 2483.27 541.014C2490.26 544.479 2504.39 536.283 2502.52 523.795Z" fill="#3F78BD" fill-opacity="0.6"/>
<path d="M2498.99 536.638C2506.05 526.163 2487.72 499.177 2478.2 505.824C2464.57 515.344 2470.35 529.066 2473.17 536.34C2475.98 543.613 2491.94 547.112 2498.99 536.638Z" fill="#3F78BD" fill-opacity="0.7"/>
</g>
<g opacity="0.5">
<path d="M2473.45 239.053C2471.58 226.566 2439.84 219.029 2437.3 230.361C2433.67 246.589 2447.21 252.806 2454.19 256.271C2461.18 259.737 2475.32 251.54 2473.45 239.053Z" fill="#3F78BD" fill-opacity="0.6"/>
<path d="M2469.92 251.895C2476.97 241.421 2458.65 214.434 2449.13 221.082C2435.49 230.602 2441.28 244.324 2444.09 251.597C2446.9 258.871 2462.87 262.37 2469.92 251.895Z" fill="#3F78BD" fill-opacity="0.7"/>
</g>
<g opacity="0.5">
<path d="M2533.95 427.493C2530.7 405.747 2475.43 392.623 2471.02 412.357C2464.69 440.617 2488.26 451.441 2500.43 457.477C2512.59 463.512 2537.21 449.238 2533.95 427.493Z" fill="#3F78BD" fill-opacity="0.6"/>
<path d="M2527.81 449.857C2540.09 431.617 2508.18 384.623 2491.6 396.199C2467.86 412.776 2477.93 436.672 2482.83 449.338C2487.73 462.004 2515.53 468.097 2527.81 449.857Z" fill="#3F78BD" fill-opacity="0.7"/>
</g>
<g opacity="0.5">
<path d="M2504.88 142.75C2501.62 121.005 2446.36 107.881 2441.94 127.615C2435.62 155.874 2459.18 166.699 2471.35 172.734C2483.52 178.769 2508.14 164.496 2504.88 142.75Z" fill="#3F78BD" fill-opacity="0.6"/>
<path d="M2498.73 165.114C2511.01 146.874 2479.11 99.8802 2462.53 111.456C2438.78 128.034 2448.86 151.93 2453.76 164.596C2458.66 177.262 2486.45 183.354 2498.73 165.114Z" fill="#3F78BD" fill-opacity="0.7"/>
</g>
<g opacity="0.5">
<path d="M2619.08 521.2C2618 514.003 2599.71 509.66 2598.25 516.191C2596.16 525.544 2603.96 529.127 2607.99 531.124C2612.01 533.121 2620.16 528.397 2619.08 521.2Z" fill="#3F78BD" fill-opacity="0.6"/>
<path d="M2617.05 528.602C2621.11 522.565 2610.55 507.011 2605.07 510.843C2597.21 516.329 2600.54 524.238 2602.16 528.43C2603.79 532.622 2612.99 534.639 2617.05 528.602Z" fill="#3F78BD" fill-opacity="0.7"/>
</g>
<g opacity="0.5">
<path d="M2420.75 472.395C2419.67 465.197 2401.38 460.854 2399.91 467.385C2397.82 476.738 2405.62 480.321 2409.65 482.318C2413.67 484.316 2421.82 479.592 2420.75 472.395Z" fill="#3F78BD" fill-opacity="0.6"/>
<path d="M2418.71 479.796C2422.78 473.759 2412.22 458.206 2406.73 462.037C2398.87 467.524 2402.2 475.433 2403.83 479.625C2405.45 483.817 2414.65 485.833 2418.71 479.796Z" fill="#3F78BD" fill-opacity="0.7"/>
</g>
<g opacity="0.5">
<path d="M2590.01 236.458C2588.93 229.261 2570.64 224.917 2569.18 231.448C2567.08 240.801 2574.88 244.384 2578.91 246.382C2582.94 248.379 2591.08 243.655 2590.01 236.458Z" fill="#3F78BD" fill-opacity="0.6"/>
<path d="M2587.97 243.859C2592.04 237.823 2581.48 222.269 2575.99 226.1C2568.13 231.587 2571.47 239.496 2573.09 243.688C2574.71 247.88 2583.91 249.896 2587.97 243.859Z" fill="#3F78BD" fill-opacity="0.7"/>
</g>
<g opacity="0.5">
<path d="M2391.67 187.652C2390.59 180.455 2372.3 176.111 2370.84 182.643C2368.75 191.996 2376.55 195.578 2380.57 197.576C2384.6 199.573 2392.75 194.849 2391.67 187.652Z" fill="#3F78BD" fill-opacity="0.6"/>
<path d="M2389.64 195.054C2393.7 189.017 2383.14 173.463 2377.65 177.295C2369.79 182.781 2373.13 190.69 2374.75 194.882C2376.37 199.074 2385.57 201.091 2389.64 195.054Z" fill="#3F78BD" fill-opacity="0.7"/>
</g>
</g>
<g opacity="0.5">
<g opacity="0.5">
<path d="M86.861 3868.6C84.9907 3856.11 53.2544 3848.58 50.719 3859.91C47.0883 3876.14 60.6209 3882.35 67.6073 3885.82C74.5937 3889.28 88.7314 3881.09 86.861 3868.6Z" fill="#3F78BD" fill-opacity="0.6"/>
<path d="M83.3328 3881.44C90.3841 3870.97 72.0614 3843.98 62.5401 3850.63C48.9053 3860.15 54.691 3873.87 57.5047 3881.15C60.3185 3888.42 76.2815 3891.92 83.3328 3881.44Z" fill="#3F78BD" fill-opacity="0.7"/>
</g>
<g opacity="0.5">
<path d="M8.72136 3407.75C18.7836 3400.12 10.1832 3368.66 -0.97733 3371.87C-16.9597 3376.46 -15.9274 3391.32 -15.6196 3399.11C-15.3118 3406.9 -1.3409 3415.38 8.72136 3407.75Z" fill="#3F78BD" fill-opacity="0.6"/>
<path d="M-4.2397 3410.81C8.333 3411.98 23.2324 3382.96 12.8339 3377.79C-2.05715 3370.39 -11.3261 3382.05 -16.3603 3388C-21.3945 3393.96 -16.8124 3409.65 -4.2397 3410.81Z" fill="#3F78BD" fill-opacity="0.7"/>
</g>
<g opacity="0.5">
<path d="M224.97 3620.2C223.1 3607.72 191.364 3600.18 188.828 3611.51C185.198 3627.74 198.73 3633.96 205.717 3637.42C212.703 3640.89 226.841 3632.69 224.97 3620.2Z" fill="#3F78BD" fill-opacity="0.6"/>
<path d="M221.442 3633.05C228.493 3622.57 210.171 3595.58 200.649 3602.23C187.015 3611.75 192.8 3625.47 195.614 3632.75C198.428 3640.02 214.391 3643.52 221.442 3633.05Z" fill="#3F78BD" fill-opacity="0.7"/>
</g>
<g opacity="0.5">
<path d="M292.924 3409.87C302.987 3402.25 294.386 3370.78 283.226 3373.99C267.243 3378.58 268.276 3393.44 268.583 3401.23C268.891 3409.02 282.862 3417.5 292.924 3409.87Z" fill="#3F78BD" fill-opacity="0.6"/>
<path d="M279.963 3412.94C292.536 3414.1 307.435 3385.08 297.037 3379.92C282.146 3372.51 272.877 3384.17 267.843 3390.13C262.809 3396.08 267.391 3411.77 279.963 3412.94Z" fill="#3F78BD" fill-opacity="0.7"/>
</g>
<g opacity="0.5">
<path d="M57.7868 3583.86C55.9164 3571.37 24.1801 3563.83 21.6448 3575.17C18.0141 3591.4 31.5467 3597.61 38.5331 3601.08C45.5194 3604.54 59.6572 3596.35 57.7868 3583.86Z" fill="#3F78BD" fill-opacity="0.6"/>
<path d="M54.2586 3596.7C61.3098 3586.23 42.9872 3559.24 33.4659 3565.89C19.831 3575.41 25.6167 3589.13 28.4305 3596.4C31.2442 3603.68 47.2073 3607.18 54.2586 3596.7Z" fill="#3F78BD" fill-opacity="0.7"/>
</g>
<g opacity="0.5">
<path d="M244.671 3245.73C254.733 3238.1 246.132 3206.64 234.972 3209.85C218.99 3214.44 220.022 3229.29 220.33 3237.09C220.637 3244.88 234.608 3253.36 244.671 3245.73Z" fill="#3F78BD" fill-opacity="0.6"/>
<path d="M231.71 3248.79C244.282 3249.96 259.182 3220.94 248.783 3215.77C233.892 3208.37 224.623 3220.03 219.589 3225.98C214.555 3231.94 219.137 3247.62 231.71 3248.79Z" fill="#3F78BD" fill-opacity="0.7"/>
</g>
<g opacity="0.5">
<path d="M192.419 3048.27C202.481 3040.64 193.88 3009.18 182.72 3012.39C166.738 3016.98 167.77 3031.84 168.078 3039.63C168.385 3047.42 182.356 3055.9 192.419 3048.27Z" fill="#3F78BD" fill-opacity="0.6"/>
<path d="M179.458 3051.33C192.03 3052.5 206.93 3023.48 196.531 3018.31C181.64 3010.91 172.371 3022.57 167.337 3028.52C162.303 3034.48 166.885 3050.17 179.458 3051.33Z" fill="#3F78BD" fill-opacity="0.7"/>
</g>
<g opacity="0.5">
<path d="M118.293 3772.3C115.036 3750.55 59.7701 3737.43 55.3551 3757.16C49.0326 3785.42 72.5983 3796.25 84.7643 3802.28C96.9302 3808.32 121.55 3794.04 118.293 3772.3Z" fill="#3F78BD" fill-opacity="0.6"/>
<path d="M112.148 3794.66C124.427 3776.42 92.5198 3729.43 75.9395 3741C52.1958 3757.58 62.271 3781.48 67.1709 3794.14C72.0707 3806.81 99.8686 3812.9 112.148 3794.66Z" fill="#3F78BD" fill-opacity="0.7"/>
</g>
<g opacity="0.5">
<path d="M108.303 3389.17C125.826 3375.89 110.849 3321.09 91.4141 3326.68C63.5826 3334.68 65.3801 3360.55 65.9161 3374.12C66.4521 3387.69 90.781 3402.45 108.303 3389.17Z" fill="#3F78BD" fill-opacity="0.6"/>
<path d="M85.7318 3394.5C107.626 3396.53 133.571 3346 115.464 3337C89.5324 3324.11 73.3916 3344.41 64.625 3354.78C55.8585 3365.15 63.8377 3392.47 85.7318 3394.5Z" fill="#3F78BD" fill-opacity="0.7"/>
</g>
<g opacity="0.5">
<path d="M56.0514 3191.71C73.5738 3178.43 58.5971 3123.63 39.1622 3129.22C11.3307 3137.22 13.1282 3163.09 13.6641 3176.66C14.2001 3190.23 38.5291 3204.99 56.0514 3191.71Z" fill="#3F78BD" fill-opacity="0.6"/>
<path d="M33.4798 3197.04C55.3738 3199.07 81.3195 3148.54 63.2116 3139.54C37.2805 3126.65 21.1397 3146.95 12.3731 3157.32C3.60652 3167.69 11.5858 3195.01 33.4798 3197.04Z" fill="#3F78BD" fill-opacity="0.7"/>
</g>
<g opacity="0.5">
<path d="M256.402 3523.9C253.145 3502.16 197.88 3489.03 193.464 3508.77C187.142 3537.02 210.708 3547.85 222.874 3553.88C235.04 3559.92 259.659 3545.65 256.402 3523.9Z" fill="#3F78BD" fill-opacity="0.6"/>
<path d="M250.257 3546.26C262.536 3528.02 230.629 3481.03 214.049 3492.61C190.305 3509.18 200.38 3533.08 205.28 3545.75C210.18 3558.41 237.978 3564.5 250.257 3546.26Z" fill="#3F78BD" fill-opacity="0.7"/>
</g>
<g opacity="0.5">
<path d="M392.507 3391.29C410.029 3378.01 395.052 3323.22 375.617 3328.8C347.786 3336.8 349.583 3362.67 350.119 3376.24C350.655 3389.81 374.984 3404.57 392.507 3391.29Z" fill="#3F78BD" fill-opacity="0.6"/>
<path d="M369.935 3396.62C391.829 3398.65 417.775 3348.12 399.667 3339.12C373.736 3326.23 357.595 3346.53 348.828 3356.9C340.062 3367.27 348.041 3394.59 369.935 3396.62Z" fill="#3F78BD" fill-opacity="0.7"/>
</g>
<g opacity="0.5">
<path d="M89.2164 3487.56C85.9594 3465.81 30.694 3452.69 26.2789 3472.42C19.9565 3500.68 43.5221 3511.5 55.6881 3517.54C67.8541 3523.57 92.4734 3509.3 89.2164 3487.56Z" fill="#3F78BD" fill-opacity="0.6"/>
<path d="M83.0715 3509.92C95.3506 3491.68 63.4436 3444.69 46.8633 3456.26C23.1197 3472.84 33.1948 3496.74 38.0947 3509.4C42.9945 3522.07 70.7925 3528.16 83.0715 3509.92Z" fill="#3F78BD" fill-opacity="0.7"/>
</g>
<g opacity="0.5">
<path d="M344.255 3227.15C361.777 3213.86 346.8 3159.07 327.365 3164.66C299.534 3172.66 301.331 3198.53 301.867 3212.1C302.403 3225.67 326.732 3240.43 344.255 3227.15Z" fill="#3F78BD" fill-opacity="0.6"/>
<path d="M321.683 3232.48C343.577 3234.51 369.523 3183.98 351.415 3174.98C325.484 3162.09 309.343 3182.38 300.576 3192.76C291.81 3203.13 299.789 3230.44 321.683 3232.48Z" fill="#3F78BD" fill-opacity="0.7"/>
</g>
<g opacity="0.5">
<path d="M292.003 3029.69C309.525 3016.4 294.548 2961.61 275.113 2967.2C247.282 2975.2 249.079 3001.07 249.615 3014.64C250.151 3028.21 274.48 3042.97 292.003 3029.69Z" fill="#3F78BD" fill-opacity="0.6"/>
<path d="M269.431 3035.02C291.325 3037.05 317.271 2986.52 299.163 2977.52C273.232 2964.63 257.091 2984.93 248.324 2995.3C239.558 3005.67 247.537 3032.99 269.431 3035.02Z" fill="#3F78BD" fill-opacity="0.7"/>
</g>
<g opacity="0.5">
<path d="M5.0829 3817.2C4.00492 3810 -14.2862 3805.66 -15.7474 3812.19C-17.84 3821.54 -10.0405 3825.13 -6.01392 3827.12C-1.98736 3829.12 6.16088 3824.4 5.0829 3817.2Z" fill="#3F78BD" fill-opacity="0.6"/>
<path d="M3.05014 3824.6C7.11413 3818.56 -3.44607 3803.01 -8.93363 3806.84C-16.792 3812.33 -13.4575 3820.24 -11.8358 3824.43C-10.2141 3828.62 -1.01384 3830.64 3.05014 3824.6Z" fill="#3F78BD" fill-opacity="0.7"/>
</g>
<g opacity="0.5">
<path d="M14.6257 3311.34C20.425 3306.95 15.4682 3288.81 9.03586 3290.66C-0.175495 3293.31 0.419417 3301.87 0.596813 3306.36C0.774211 3310.85 8.82631 3315.74 14.6257 3311.34Z" fill="#3F78BD" fill-opacity="0.6"/>
<path d="M7.15413 3313.11C14.4004 3313.78 22.9876 3297.05 16.9944 3294.08C8.41203 3289.81 3.06994 3296.53 0.168478 3299.96C-2.73298 3303.39 -0.0920938 3312.43 7.15413 3313.11Z" fill="#3F78BD" fill-opacity="0.7"/>
</g>
<g opacity="0.5">
<path d="M341.53 3617.61C340.452 3610.41 322.161 3606.07 320.7 3612.6C318.607 3621.95 326.407 3625.53 330.433 3627.53C334.46 3629.53 342.608 3624.81 341.53 3617.61Z" fill="#3F78BD" fill-opacity="0.6"/>
<path d="M339.497 3625.01C343.561 3618.97 333.001 3603.42 327.514 3607.25C319.655 3612.74 322.99 3620.65 324.611 3624.84C326.233 3629.03 335.433 3631.05 339.497 3625.01Z" fill="#3F78BD" fill-opacity="0.7"/>
</g>
<g opacity="0.5">
<path d="M351.081 3510.92C356.88 3506.53 351.923 3488.39 345.491 3490.24C336.28 3492.89 336.874 3501.45 337.052 3505.94C337.229 3510.43 345.281 3515.32 351.081 3510.92Z" fill="#3F78BD" fill-opacity="0.6"/>
<path d="M343.609 3512.69C350.855 3513.36 359.443 3496.64 353.45 3493.66C344.867 3489.39 339.525 3496.11 336.624 3499.54C333.722 3502.97 336.363 3512.01 343.609 3512.69Z" fill="#3F78BD" fill-opacity="0.7"/>
</g>
<g opacity="0.5">
<path d="M143.192 3568.8C142.114 3561.61 123.823 3557.26 122.362 3563.79C120.269 3573.15 128.069 3576.73 132.095 3578.73C136.122 3580.72 144.27 3576 143.192 3568.8Z" fill="#3F78BD" fill-opacity="0.6"/>
<path d="M141.16 3576.2C145.224 3570.17 134.663 3554.61 129.176 3558.45C121.317 3563.93 124.652 3571.84 126.274 3576.03C127.895 3580.22 137.096 3582.24 141.16 3576.2Z" fill="#3F78BD" fill-opacity="0.7"/>
</g>
<g opacity="0.5">
<path d="M298.829 3313.46C304.628 3309.07 299.671 3290.93 293.239 3292.78C284.028 3295.43 284.623 3303.99 284.8 3308.48C284.977 3312.97 293.029 3317.86 298.829 3313.46Z" fill="#3F78BD" fill-opacity="0.6"/>
<path d="M291.357 3315.23C298.603 3315.9 307.191 3299.18 301.198 3296.2C292.615 3291.93 287.273 3298.65 284.372 3302.08C281.47 3305.52 284.111 3314.56 291.357 3315.23Z" fill="#3F78BD" fill-opacity="0.7"/>
</g>
<g opacity="0.5">
<path d="M250.577 3149.32C256.376 3144.92 251.419 3126.79 244.987 3128.64C235.776 3131.29 236.371 3139.85 236.548 3144.34C236.725 3148.83 244.777 3153.72 250.577 3149.32Z" fill="#3F78BD" fill-opacity="0.6"/>
<path d="M243.105 3151.08C250.352 3151.76 258.939 3135.03 252.946 3132.05C244.363 3127.79 239.021 3134.5 236.12 3137.94C233.218 3141.37 235.859 3150.41 243.105 3151.08Z" fill="#3F78BD" fill-opacity="0.7"/>
</g>
<g opacity="0.5">
<path d="M198.325 2951.86C204.124 2947.47 199.167 2929.33 192.735 2931.18C183.524 2933.83 184.119 2942.39 184.296 2946.88C184.473 2951.37 192.526 2956.26 198.325 2951.86Z" fill="#3F78BD" fill-opacity="0.6"/>
<path d="M190.853 2953.63C198.1 2954.3 206.687 2937.57 200.694 2934.59C192.111 2930.33 186.769 2937.05 183.868 2940.48C180.966 2943.91 183.607 2952.95 190.853 2953.63Z" fill="#3F78BD" fill-opacity="0.7"/>
</g>
</g>
<g opacity="0.5">
<g opacity="0.5">
<path d="M716.721 4321.75C726.784 4314.12 718.183 4282.66 707.023 4285.87C691.04 4290.46 692.073 4305.32 692.38 4313.11C692.688 4320.9 706.659 4329.38 716.721 4321.75Z" fill="#3F78BD" fill-opacity="0.6"/>
<path d="M703.76 4324.81C716.333 4325.98 731.232 4296.96 720.834 4291.79C705.943 4284.39 696.674 4296.05 691.64 4302C686.605 4307.96 691.188 4323.65 703.76 4324.81Z" fill="#3F78BD" fill-opacity="0.7"/>
</g>
<g opacity="0.5">
<path d="M664.469 4124.29C674.532 4116.67 665.931 4085.2 654.771 4088.41C638.788 4093 639.821 4107.86 640.128 4115.65C640.436 4123.44 654.407 4131.92 664.469 4124.29Z" fill="#3F78BD" fill-opacity="0.6"/>
<path d="M651.508 4127.35C664.081 4128.52 678.98 4099.5 668.582 4094.34C653.691 4086.93 644.422 4098.59 639.388 4104.55C634.354 4110.5 638.936 4126.19 651.508 4127.35Z" fill="#3F78BD" fill-opacity="0.7"/>
</g>
<g opacity="0.5">
<path d="M1000.92 4323.87C1010.99 4316.25 1002.39 4284.78 991.226 4287.99C975.243 4292.58 976.276 4307.44 976.583 4315.23C976.891 4323.02 990.862 4331.5 1000.92 4323.87Z" fill="#3F78BD" fill-opacity="0.6"/>
<path d="M987.963 4326.94C1000.54 4328.1 1015.44 4299.08 1005.04 4293.92C990.146 4286.51 980.877 4298.17 975.843 4304.13C970.809 4310.08 975.391 4325.77 987.963 4326.94Z" fill="#3F78BD" fill-opacity="0.7"/>
</g>
<g opacity="0.5">
<path d="M952.671 4159.73C962.733 4152.1 954.132 4120.64 942.972 4123.85C926.99 4128.44 928.022 4143.29 928.33 4151.09C928.637 4158.88 942.608 4167.36 952.671 4159.73Z" fill="#3F78BD" fill-opacity="0.6"/>
<path d="M939.71 4162.79C952.282 4163.96 967.182 4134.94 956.783 4129.77C941.892 4122.37 932.623 4134.03 927.589 4139.98C922.555 4145.94 927.137 4161.62 939.71 4162.79Z" fill="#3F78BD" fill-opacity="0.7"/>
</g>
<g opacity="0.5">
<path d="M900.419 3962.27C910.481 3954.64 901.88 3923.18 890.72 3926.39C874.738 3930.98 875.77 3945.84 876.078 3953.63C876.385 3961.42 890.356 3969.9 900.419 3962.27Z" fill="#3F78BD" fill-opacity="0.6"/>
<path d="M887.458 3965.33C900.03 3966.5 914.93 3937.48 904.531 3932.31C889.64 3924.91 880.371 3936.57 875.337 3942.52C870.303 3948.48 874.885 3964.17 887.458 3965.33Z" fill="#3F78BD" fill-opacity="0.7"/>
</g>
<g opacity="0.5">
<path d="M816.303 4303.17C833.826 4289.89 818.849 4235.09 799.414 4240.68C771.583 4248.68 773.38 4274.55 773.916 4288.12C774.452 4301.69 798.781 4316.45 816.303 4303.17Z" fill="#3F78BD" fill-opacity="0.6"/>
<path d="M793.732 4308.5C815.626 4310.53 841.571 4260 823.464 4251C797.532 4238.11 781.392 4258.41 772.625 4268.78C763.858 4279.15 771.838 4306.47 793.732 4308.5Z" fill="#3F78BD" fill-opacity="0.7"/>
</g>
<g opacity="0.5">
<path d="M764.051 4105.71C781.574 4092.43 766.597 4037.63 747.162 4043.22C719.331 4051.22 721.128 4077.09 721.664 4090.66C722.2 4104.23 746.529 4118.99 764.051 4105.71Z" fill="#3F78BD" fill-opacity="0.6"/>
<path d="M741.48 4111.04C763.374 4113.07 789.319 4062.54 771.212 4053.54C745.28 4040.65 729.14 4060.95 720.373 4071.32C711.607 4081.69 719.586 4109.01 741.48 4111.04Z" fill="#3F78BD" fill-opacity="0.7"/>
</g>
<g opacity="0.5">
<path d="M1100.51 4305.29C1118.03 4292.01 1103.05 4237.22 1083.62 4242.8C1055.79 4250.8 1057.58 4276.67 1058.12 4290.24C1058.66 4303.81 1082.98 4318.57 1100.51 4305.29Z" fill="#3F78BD" fill-opacity="0.6"/>
<path d="M1077.93 4310.62C1099.83 4312.65 1125.77 4262.12 1107.67 4253.12C1081.74 4240.23 1065.59 4260.53 1056.83 4270.9C1048.06 4281.27 1056.04 4308.59 1077.93 4310.62Z" fill="#3F78BD" fill-opacity="0.7"/>
</g>
<g opacity="0.5">
<path d="M791.072 4423.92C803.351 4405.68 771.444 4358.69 754.863 4370.26C731.12 4386.84 741.195 4410.74 746.095 4423.4C750.995 4436.07 778.792 4442.16 791.072 4423.92Z" fill="#3F78BD" fill-opacity="0.7"/>
</g>
<g opacity="0.5">
<path d="M1052.25 4141.15C1069.78 4127.86 1054.8 4073.07 1035.37 4078.66C1007.53 4086.66 1009.33 4112.53 1009.87 4126.1C1010.4 4139.67 1034.73 4154.43 1052.25 4141.15Z" fill="#3F78BD" fill-opacity="0.6"/>
<path d="M1029.68 4146.48C1051.58 4148.51 1077.52 4097.98 1059.41 4088.98C1033.48 4076.09 1017.34 4096.38 1008.58 4106.76C999.81 4117.13 1007.79 4144.44 1029.68 4146.48Z" fill="#3F78BD" fill-opacity="0.7"/>
</g>
<g opacity="0.5">
<path d="M598.879 4352.75C595.621 4331 540.356 4317.88 535.941 4337.61C529.619 4365.87 553.184 4376.7 565.35 4382.73C577.516 4388.77 602.136 4374.5 598.879 4352.75Z" fill="#3F78BD" fill-opacity="0.6"/>
<path d="M592.734 4375.11C605.013 4356.87 573.106 4309.88 556.525 4321.46C532.782 4338.03 542.857 4361.93 547.757 4374.6C552.657 4387.26 580.455 4393.35 592.734 4375.11Z" fill="#3F78BD" fill-opacity="0.7"/>
</g>
<g opacity="0.5">
<path d="M1000 3943.69C1017.52 3930.4 1002.55 3875.61 983.113 3881.2C955.282 3889.2 957.079 3915.07 957.615 3928.64C958.151 3942.21 982.48 3956.97 1000 3943.69Z" fill="#3F78BD" fill-opacity="0.6"/>
<path d="M977.431 3949.02C999.325 3951.05 1025.27 3900.52 1007.16 3891.52C981.232 3878.63 965.091 3898.93 956.324 3909.3C947.558 3919.67 955.537 3946.99 977.431 3949.02Z" fill="#3F78BD" fill-opacity="0.7"/>
</g>
<g opacity="0.5">
<path d="M722.626 4225.34C728.425 4220.95 723.468 4202.81 717.036 4204.66C707.825 4207.31 708.419 4215.87 708.597 4220.36C708.774 4224.85 716.826 4229.74 722.626 4225.34Z" fill="#3F78BD" fill-opacity="0.6"/>
<path d="M715.154 4227.11C722.4 4227.78 730.988 4211.05 724.994 4208.08C716.412 4203.81 711.07 4210.53 708.168 4213.96C705.267 4217.39 707.908 4226.43 715.154 4227.11Z" fill="#3F78BD" fill-opacity="0.7"/>
</g>
<g opacity="0.5">
<path d="M670.376 4027.88C676.175 4023.49 671.218 4005.35 664.786 4007.2C655.575 4009.85 656.169 4018.41 656.347 4022.9C656.524 4027.39 664.576 4032.28 670.376 4027.88Z" fill="#3F78BD" fill-opacity="0.6"/>
<path d="M662.904 4029.65C670.15 4030.32 678.738 4013.6 672.744 4010.62C664.162 4006.35 658.82 4013.07 655.918 4016.5C653.017 4019.93 655.658 4028.98 662.904 4029.65Z" fill="#3F78BD" fill-opacity="0.7"/>
</g>
<g opacity="0.5">
<path d="M1006.83 4227.46C1012.63 4223.07 1007.67 4204.93 1001.24 4206.78C992.028 4209.43 992.623 4217.99 992.8 4222.48C992.977 4226.97 1001.03 4231.86 1006.83 4227.46Z" fill="#3F78BD" fill-opacity="0.6"/>
<path d="M999.357 4229.23C1006.6 4229.9 1015.19 4213.18 1009.2 4210.2C1000.62 4205.93 995.273 4212.65 992.372 4216.08C989.47 4219.52 992.111 4228.56 999.357 4229.23Z" fill="#3F78BD" fill-opacity="0.7"/>
</g>
<g opacity="0.5">
<path d="M958.577 4063.32C964.376 4058.92 959.419 4040.79 952.987 4042.64C943.776 4045.29 944.371 4053.85 944.548 4058.34C944.725 4062.83 952.777 4067.72 958.577 4063.32Z" fill="#3F78BD" fill-opacity="0.6"/>
<path d="M951.105 4065.08C958.352 4065.76 966.939 4049.03 960.946 4046.05C952.363 4041.79 947.021 4048.5 944.12 4051.94C941.218 4055.37 943.859 4064.41 951.105 4065.08Z" fill="#3F78BD" fill-opacity="0.7"/>
</g>
<g opacity="0.5">
<path d="M906.325 3865.86C912.124 3861.47 907.167 3843.33 900.735 3845.18C891.524 3847.83 892.119 3856.39 892.296 3860.88C892.473 3865.37 900.526 3870.26 906.325 3865.86Z" fill="#3F78BD" fill-opacity="0.6"/>
<path d="M898.853 3867.63C906.1 3868.3 914.687 3851.57 908.694 3848.59C900.111 3844.33 894.769 3851.05 891.868 3854.48C888.966 3857.91 891.607 3866.95 898.853 3867.63Z" fill="#3F78BD" fill-opacity="0.7"/>
</g>
</g>
<rect y="-2604" width="2598" height="24000" fill="#3F78BD" fill-opacity="0.3"/>
<path d="M295.812 1256H211.047L211.047 1113.23H295.812V1144.18H249.621V1166.64H292.395V1197.6H249.621V1224.55H295.812V1256ZM276.672 1385.23H319.836L273.059 1528H227.648L181.066 1385.23H224.426L243.859 1457.59C247.896 1473.67 250.109 1484.87 250.5 1491.18C250.956 1486.63 251.867 1480.93 253.234 1474.09C254.602 1467.26 255.806 1461.89 256.848 1457.98L276.672 1385.23ZM295.813 1800H211.047V1657.23H295.813V1688.18H249.621V1710.64H292.395V1741.6H249.621V1768.55H295.813V1800ZM318.469 2072H267.883L215.734 1971.41H214.855C216.092 1987.23 216.711 1999.31 216.711 2007.64V2072H182.531L182.531 1929.23H232.922L284.875 2028.45H285.461C284.549 2014.06 284.094 2002.5 284.094 1993.78L284.094 1929.23H318.469L318.469 2072ZM269.836 2344H231.262L231.262 2232.77H196.398L196.398 2201.23H304.602V2232.77H269.836L269.836 2344ZM301.574 2572.64C301.574 2581.49 299.328 2589.37 294.836 2596.27C290.344 2603.11 283.866 2608.45 275.402 2612.29C266.939 2616.07 257.01 2617.95 245.617 2617.95C236.112 2617.95 228.137 2617.3 221.691 2616C215.246 2614.63 208.54 2612.29 201.574 2608.97V2574.59C208.931 2578.37 216.581 2581.33 224.523 2583.48C232.466 2585.56 239.758 2586.61 246.398 2586.61C252.128 2586.61 256.327 2585.63 258.996 2583.68C261.665 2581.66 263 2579.09 263 2575.96C263 2574.01 262.447 2572.32 261.34 2570.88C260.298 2569.39 258.573 2567.89 256.164 2566.39C253.82 2564.89 247.505 2561.83 237.219 2557.21C227.909 2552.98 220.91 2548.88 216.223 2544.91C211.6 2540.93 208.15 2536.38 205.871 2531.23C203.658 2526.09 202.551 2520 202.551 2512.97C202.551 2499.82 207.336 2489.57 216.906 2482.21C226.477 2474.85 239.628 2471.18 256.359 2471.18C271.138 2471.18 286.21 2474.59 301.574 2481.43L289.758 2511.21C276.411 2505.1 264.888 2502.04 255.188 2502.04C250.174 2502.04 246.529 2502.91 244.25 2504.67C241.971 2506.43 240.832 2508.61 240.832 2511.21C240.832 2514.01 242.264 2516.52 245.129 2518.73C248.059 2520.95 255.936 2524.98 268.762 2530.84C281.066 2536.38 289.595 2542.33 294.348 2548.71C299.165 2555.03 301.574 2563.01 301.574 2572.64Z" fill="#3F78BD" fill-opacity="0.15"/>
<path d="M2267.37 2944L2260.34 2917.24H2213.95L2206.73 2944H2164.34L2210.93 2800.64H2262.39L2309.56 2944H2267.37ZM2252.33 2885.6L2246.18 2862.16C2244.75 2856.96 2242.99 2850.22 2240.91 2841.95C2238.89 2833.68 2237.55 2827.76 2236.9 2824.18C2236.32 2827.5 2235.14 2832.96 2233.39 2840.58C2231.69 2848.2 2227.89 2863.21 2221.96 2885.6H2252.33ZM2251.06 3102.82C2241.88 3102.82 2234.72 3106.59 2229.58 3114.14C2224.43 3121.63 2221.86 3131.98 2221.86 3145.2C2221.86 3172.67 2232.31 3186.41 2253.21 3186.41C2259.53 3186.41 2265.65 3185.53 2271.57 3183.77C2277.49 3182.02 2283.45 3179.9 2289.44 3177.43V3210.04C2277.53 3215.32 2264.05 3217.95 2249.01 3217.95C2227.46 3217.95 2210.93 3211.7 2199.4 3199.2C2187.94 3186.7 2182.21 3168.64 2182.21 3145C2182.21 3130.23 2184.98 3117.24 2190.52 3106.04C2196.11 3094.84 2204.12 3086.25 2214.54 3080.26C2225.02 3074.2 2237.33 3071.18 2251.45 3071.18C2266.88 3071.18 2281.63 3074.53 2295.69 3081.23L2283.88 3111.61C2278.6 3109.13 2273.33 3107.05 2268.05 3105.36C2262.78 3103.66 2257.12 3102.82 2251.06 3102.82ZM2298.13 3488H2259.36V3429.8H2214.54V3488H2175.77V3345.23H2214.54V3398.16H2259.36V3345.23H2298.13V3488ZM2217.57 3760V3617.23H2256.34V3760H2217.57ZM2282.31 4032H2197.55V3889.23H2282.31V3920.18H2236.12V3942.64H2278.89V3973.6H2236.12V4000.55H2282.31V4032ZM2263.17 4161.23H2306.34L2259.56 4304H2214.15L2167.57 4161.23H2210.93L2230.36 4233.59C2234.4 4249.67 2236.61 4260.87 2237 4267.18C2237.46 4262.63 2238.37 4256.93 2239.73 4250.09C2241.1 4243.26 2242.31 4237.89 2243.35 4233.98L2263.17 4161.23ZM2217.96 4576L2188.76 4473.17H2187.88C2189.25 4490.68 2189.93 4504.29 2189.93 4513.99V4576H2155.75V4433.23H2207.12L2236.9 4534.59H2237.68L2266.88 4433.23H2318.35V4576H2282.9V4513.4C2282.9 4510.15 2282.93 4506.53 2283 4502.56C2283.13 4498.59 2283.58 4488.86 2284.36 4473.36H2283.48L2254.68 4576H2217.96ZM2282.31 4848H2197.55V4705.23H2282.31V4736.18H2236.12V4758.64H2278.89V4789.6H2236.12V4816.55H2282.31V4848ZM2304.97 5120H2254.38L2202.23 5019.41H2201.36C2202.59 5035.23 2203.21 5047.31 2203.21 5055.64V5120H2169.03V4977.23H2219.42L2271.38 5076.45H2271.96C2271.05 5062.06 2270.59 5050.5 2270.59 5041.78V4977.23H2304.97V5120ZM2256.34 5392H2217.76V5280.77H2182.9V5249.23H2291.1V5280.77H2256.34V5392ZM2288.07 5620.64C2288.07 5629.49 2285.83 5637.37 2281.34 5644.27C2276.84 5651.11 2270.37 5656.45 2261.9 5660.29C2253.44 5664.07 2243.51 5665.95 2232.12 5665.95C2222.61 5665.95 2214.64 5665.3 2208.19 5664C2201.75 5662.63 2195.04 5660.29 2188.07 5656.97V5622.59C2195.43 5626.37 2203.08 5629.33 2211.02 5631.48C2218.97 5633.56 2226.26 5634.61 2232.9 5634.61C2238.63 5634.61 2242.83 5633.63 2245.5 5631.68C2248.17 5629.66 2249.5 5627.09 2249.5 5623.96C2249.5 5622.01 2248.95 5620.32 2247.84 5618.88C2246.8 5617.39 2245.07 5615.89 2242.66 5614.39C2240.32 5612.89 2234.01 5609.83 2223.72 5605.21C2214.41 5600.98 2207.41 5596.88 2202.72 5592.91C2198.1 5588.93 2194.65 5584.38 2192.37 5579.23C2190.16 5574.09 2189.05 5568 2189.05 5560.97C2189.05 5547.82 2193.84 5537.57 2203.41 5530.21C2212.98 5522.85 2226.13 5519.18 2242.86 5519.18C2257.64 5519.18 2272.71 5522.59 2288.07 5529.43L2276.26 5559.21C2262.91 5553.1 2251.39 5550.04 2241.69 5550.04C2236.67 5550.04 2233.03 5550.91 2230.75 5552.67C2228.47 5554.43 2227.33 5556.61 2227.33 5559.21C2227.33 5562.01 2228.76 5564.52 2231.63 5566.73C2234.56 5568.95 2242.44 5572.98 2255.26 5578.84C2267.57 5584.38 2276.1 5590.33 2280.85 5596.71C2285.67 5603.03 2288.07 5611.01 2288.07 5620.64Z" fill="#3F78BD" fill-opacity="0.15"/>
<path d="M2267.37 -1425L2260.34 -1451.76H2213.95L2206.73 -1425H2164.34L2210.93 -1568.36H2262.39L2309.56 -1425H2267.37ZM2252.33 -1483.4L2246.18 -1506.84C2244.75 -1512.04 2242.99 -1518.78 2240.91 -1527.05C2238.89 -1535.32 2237.55 -1541.24 2236.9 -1544.82C2236.32 -1541.5 2235.14 -1536.04 2233.39 -1528.42C2231.69 -1520.8 2227.89 -1505.79 2221.96 -1483.4H2252.33ZM2251.06 -1266.18C2241.88 -1266.18 2234.72 -1262.41 2229.58 -1254.86C2224.43 -1247.37 2221.86 -1237.02 2221.86 -1223.8C2221.86 -1196.33 2232.31 -1182.59 2253.21 -1182.59C2259.53 -1182.59 2265.65 -1183.47 2271.57 -1185.23C2277.49 -1186.98 2283.45 -1189.1 2289.44 -1191.57V-1158.96C2277.53 -1153.68 2264.05 -1151.05 2249.01 -1151.05C2227.46 -1151.05 2210.93 -1157.3 2199.4 -1169.8C2187.94 -1182.3 2182.21 -1200.36 2182.21 -1224C2182.21 -1238.77 2184.98 -1251.76 2190.52 -1262.96C2196.11 -1274.16 2204.12 -1282.75 2214.54 -1288.74C2225.02 -1294.8 2237.33 -1297.82 2251.45 -1297.82C2266.88 -1297.82 2281.63 -1294.47 2295.69 -1287.77L2283.88 -1257.39C2278.6 -1259.87 2273.33 -1261.95 2268.05 -1263.64C2262.78 -1265.34 2257.12 -1266.18 2251.06 -1266.18ZM2298.13 -881H2259.36V-939.203H2214.54V-881H2175.77V-1023.77H2214.54V-970.844H2259.36V-1023.77H2298.13V-881ZM2217.57 -609V-751.773H2256.34V-609H2217.57ZM2282.31 -337H2197.55V-479.773H2282.31V-448.816H2236.12V-426.355H2278.89V-395.398H2236.12V-368.445H2282.31V-337ZM2263.17 -207.773H2306.34L2259.56 -65H2214.15L2167.57 -207.773H2210.93L2230.36 -135.41C2234.4 -119.329 2236.61 -108.132 2237 -101.816C2237.46 -106.374 2238.37 -112.07 2239.73 -118.906C2241.1 -125.742 2242.31 -131.113 2243.35 -135.02L2263.17 -207.773ZM2217.96 207L2188.76 104.168H2187.88C2189.25 121.681 2189.93 135.288 2189.93 144.988V207H2155.75V64.2266H2207.12L2236.9 165.594H2237.68L2266.88 64.2266H2318.35V207H2282.9V144.402C2282.9 141.147 2282.93 137.534 2283 133.562C2283.13 129.591 2283.58 119.858 2284.36 104.363H2283.48L2254.68 207H2217.96ZM2282.31 479H2197.55V336.227H2282.31V367.184H2236.12V389.645H2278.89V420.602H2236.12V447.555H2282.31V479ZM2304.97 751H2254.38L2202.23 650.414H2201.36C2202.59 666.234 2203.21 678.311 2203.21 686.645V751H2169.03V608.227H2219.42L2271.38 707.445H2271.96C2271.05 693.057 2270.59 681.501 2270.59 672.777V608.227H2304.97V751ZM2256.34 1023H2217.76V911.77H2182.9V880.227H2291.1V911.77H2256.34V1023ZM2288.07 1251.64C2288.07 1260.49 2285.83 1268.37 2281.34 1275.27C2276.84 1282.11 2270.37 1287.45 2261.9 1291.29C2253.44 1295.07 2243.51 1296.95 2232.12 1296.95C2222.61 1296.95 2214.64 1296.3 2208.19 1295C2201.75 1293.63 2195.04 1291.29 2188.07 1287.97V1253.59C2195.43 1257.37 2203.08 1260.33 2211.02 1262.48C2218.97 1264.56 2226.26 1265.61 2232.9 1265.61C2238.63 1265.61 2242.83 1264.63 2245.5 1262.68C2248.17 1260.66 2249.5 1258.09 2249.5 1254.96C2249.5 1253.01 2248.95 1251.32 2247.84 1249.88C2246.8 1248.39 2245.07 1246.89 2242.66 1245.39C2240.32 1243.89 2234.01 1240.83 2223.72 1236.21C2214.41 1231.98 2207.41 1227.88 2202.72 1223.91C2198.1 1219.93 2194.65 1215.38 2192.37 1210.23C2190.16 1205.09 2189.05 1199 2189.05 1191.97C2189.05 1178.82 2193.84 1168.57 2203.41 1161.21C2212.98 1153.85 2226.13 1150.18 2242.86 1150.18C2257.64 1150.18 2272.71 1153.59 2288.07 1160.43L2276.26 1190.21C2262.91 1184.1 2251.39 1181.04 2241.69 1181.04C2236.67 1181.04 2233.03 1181.91 2230.75 1183.67C2228.47 1185.43 2227.33 1187.61 2227.33 1190.21C2227.33 1193.01 2228.76 1195.52 2231.63 1197.73C2234.56 1199.95 2242.44 1203.98 2255.26 1209.84C2267.57 1215.38 2276.1 1221.33 2280.85 1227.71C2285.67 1234.03 2288.07 1242.01 2288.07 1251.64Z" fill="#3F78BD" fill-opacity="0.15"/>
<g opacity="0.5">
<path d="M-40.5 3164.5V2410H2598V3693.5L-40.5 3164.5Z" fill="white"/>
<path d="M-40.5 3255V2500.5H2598V3784L-40.5 3255Z" fill="white"/>
</g>
<g opacity="0.5">
<g opacity="0.5">
<path d="M801.861 423.601C799.991 411.114 768.254 403.577 765.719 414.909C762.088 431.138 775.621 437.354 782.607 440.819C789.594 444.285 803.731 436.088 801.861 423.601Z" fill="#3F78BD" fill-opacity="0.6"/>
<path d="M798.333 436.443C805.384 425.969 787.061 398.982 777.54 405.63C763.905 415.15 769.691 428.872 772.505 436.145C775.318 443.419 791.281 446.918 798.333 436.443Z" fill="#3F78BD" fill-opacity="0.7"/>
</g>
<g opacity="0.5">
<path d="M603.523 374.795C601.653 362.308 569.916 354.772 567.381 366.104C563.75 382.332 577.283 388.548 584.269 392.014C591.256 395.479 605.394 387.283 603.523 374.795Z" fill="#3F78BD" fill-opacity="0.6"/>
<path d="M599.995 387.638C607.046 377.163 588.724 350.177 579.202 356.824C565.567 366.344 571.353 380.066 574.167 387.34C576.981 394.613 592.944 398.112 599.995 387.638Z" fill="#3F78BD" fill-opacity="0.7"/>
</g>
<g opacity="0.5">
<path d="M939.97 175.203C938.1 162.716 906.364 155.179 903.828 166.512C900.198 182.74 913.73 188.956 920.717 192.422C927.703 195.887 941.841 187.691 939.97 175.203Z" fill="#3F78BD" fill-opacity="0.6"/>
<path d="M936.442 188.046C943.493 177.571 925.171 150.585 915.649 157.232C902.015 166.752 907.8 180.474 910.614 187.748C913.428 195.021 929.391 198.52 936.442 188.046Z" fill="#3F78BD" fill-opacity="0.7"/>
</g>
<g opacity="0.5">
<path d="M772.787 138.859C770.916 126.371 739.18 118.835 736.645 130.167C733.014 146.395 746.547 152.611 753.533 156.077C760.519 159.543 774.657 151.346 772.787 138.859Z" fill="#3F78BD" fill-opacity="0.6"/>
<path d="M769.259 151.701C776.31 141.227 757.987 114.24 748.466 120.888C734.831 130.408 740.617 144.13 743.43 151.403C746.244 158.677 762.207 162.175 769.259 151.701Z" fill="#3F78BD" fill-opacity="0.7"/>
</g>
<g opacity="0.5">
<path d="M574.447 90.053C572.577 77.5655 540.84 70.0291 538.305 81.3613C534.674 97.5894 548.207 103.806 555.193 107.271C562.18 110.737 576.317 102.54 574.447 90.053Z" fill="#3F78BD" fill-opacity="0.6"/>
<path d="M570.919 102.895C577.97 92.4208 559.647 65.4344 550.126 72.082C536.491 81.6018 542.277 95.324 545.091 102.597C547.904 109.871 563.867 113.37 570.919 102.895Z" fill="#3F78BD" fill-opacity="0.7"/>
</g>
<g opacity="0.5">
<path d="M833.293 327.298C830.036 305.553 774.77 292.429 770.355 312.163C764.033 340.422 787.598 351.247 799.764 357.282C811.93 363.317 836.55 349.044 833.293 327.298Z" fill="#3F78BD" fill-opacity="0.6"/>
<path d="M827.148 349.662C839.427 331.422 807.52 284.428 790.939 296.005C767.196 312.582 777.271 336.478 782.171 349.144C787.071 361.81 814.869 367.903 827.148 349.662Z" fill="#3F78BD" fill-opacity="0.7"/>
</g>
<g opacity="0.5">
<path d="M634.955 278.493C631.698 256.747 576.432 243.623 572.017 263.357C565.695 291.617 589.26 302.441 601.426 308.477C613.592 314.512 638.212 300.238 634.955 278.493Z" fill="#3F78BD" fill-opacity="0.6"/>
<path d="M628.81 300.857C641.089 282.617 609.182 235.623 592.602 247.199C568.858 263.776 578.933 287.672 583.833 300.338C588.733 313.004 616.531 319.097 628.81 300.857Z" fill="#3F78BD" fill-opacity="0.7"/>
</g>
<g opacity="0.5">
<path d="M971.402 78.9007C968.145 57.1552 912.88 44.0312 908.464 63.765C902.142 92.0246 925.708 102.85 937.874 108.885C950.04 114.92 974.659 100.646 971.402 78.9007Z" fill="#3F78BD" fill-opacity="0.6"/>
<path d="M965.257 101.265C977.536 83.0247 945.629 36.0306 929.049 47.6068C905.305 64.1844 915.38 88.0802 920.28 100.746C925.18 113.412 952.978 119.505 965.257 101.265Z" fill="#3F78BD" fill-opacity="0.7"/>
</g>
<g opacity="0.5">
<path d="M804.216 42.5559C800.959 20.8104 745.694 7.68651 741.279 27.4203C734.956 55.6799 758.522 66.5048 770.688 72.5399C782.854 78.575 807.473 64.3015 804.216 42.5559Z" fill="#3F78BD" fill-opacity="0.6"/>
<path d="M798.072 64.92C810.351 46.68 778.444 -0.314148 761.863 11.2621C738.12 27.8397 748.195 51.7354 753.095 64.4014C757.995 77.0673 785.792 83.1601 798.072 64.92Z" fill="#3F78BD" fill-opacity="0.7"/>
</g>
<g opacity="0.5">
<path d="M605.879 -6.24975C602.621 -27.9953 547.356 -41.1192 542.941 -21.3854C536.619 6.8742 560.184 17.6991 572.35 23.7342C584.516 29.7693 609.136 15.4958 605.879 -6.24975Z" fill="#3F78BD" fill-opacity="0.6"/>
<path d="M599.734 16.1143C612.013 -2.12573 580.106 -49.1198 563.525 -37.5436C539.782 -20.966 549.857 2.92975 554.757 15.5957C559.657 28.2616 587.455 34.3544 599.734 16.1143Z" fill="#3F78BD" fill-opacity="0.7"/>
</g>
<g opacity="0.5">
<path d="M720.083 372.2C719.005 365.003 700.714 360.66 699.253 367.191C697.16 376.544 704.96 380.127 708.986 382.124C713.013 384.121 721.161 379.397 720.083 372.2Z" fill="#3F78BD" fill-opacity="0.6"/>
<path d="M718.05 379.602C722.114 373.565 711.554 358.011 706.066 361.843C698.208 367.329 701.543 375.238 703.164 379.43C704.786 383.622 713.986 385.639 718.05 379.602Z" fill="#3F78BD" fill-opacity="0.7"/>
</g>
<g opacity="0.5">
<path d="M1056.53 172.608C1055.45 165.411 1037.16 161.067 1035.7 167.599C1033.61 176.952 1041.41 180.534 1045.43 182.532C1049.46 184.529 1057.61 179.805 1056.53 172.608Z" fill="#3F78BD" fill-opacity="0.6"/>
<path d="M1054.5 180.01C1058.56 173.973 1048 158.419 1042.51 162.251C1034.66 167.737 1037.99 175.646 1039.61 179.838C1041.23 184.03 1050.43 186.047 1054.5 180.01Z" fill="#3F78BD" fill-opacity="0.7"/>
</g>
<g opacity="0.5">
<path d="M1066.08 65.9235C1071.88 61.5272 1066.92 43.3927 1060.49 45.2414C1051.28 47.8888 1051.87 56.4512 1052.05 60.9424C1052.23 65.4337 1060.28 70.3198 1066.08 65.9235Z" fill="#3F78BD" fill-opacity="0.6"/>
<path d="M1058.61 67.6873C1065.86 68.3598 1074.44 51.6358 1068.45 48.6567C1059.87 44.3905 1054.53 51.1084 1051.62 54.5412C1048.72 57.9741 1051.36 67.0149 1058.61 67.6873Z" fill="#3F78BD" fill-opacity="0.7"/>
</g>
<g opacity="0.5">
<path d="M521.745 323.395C520.667 316.197 502.376 311.854 500.915 318.385C498.822 327.738 506.622 331.321 510.648 333.318C514.675 335.316 522.823 330.592 521.745 323.395Z" fill="#3F78BD" fill-opacity="0.6"/>
<path d="M519.712 330.796C523.776 324.759 513.216 309.206 507.728 313.037C499.87 318.524 503.205 326.433 504.826 330.625C506.448 334.817 515.648 336.833 519.712 330.796Z" fill="#3F78BD" fill-opacity="0.7"/>
</g>
<g opacity="0.5">
<path d="M858.192 123.802C857.114 116.605 838.823 112.262 837.362 118.793C835.269 128.146 843.069 131.729 847.095 133.726C851.122 135.724 859.27 131 858.192 123.802Z" fill="#3F78BD" fill-opacity="0.6"/>
<path d="M856.16 131.204C860.224 125.167 849.663 109.614 844.176 113.445C836.317 118.932 839.652 126.841 841.274 131.033C842.895 135.225 852.096 137.241 856.16 131.204Z" fill="#3F78BD" fill-opacity="0.7"/>
</g>
<g opacity="0.5">
<path d="M691.007 87.4578C689.929 80.2607 671.638 75.9171 670.176 82.4483C668.084 91.8014 675.883 95.3841 679.91 97.3815C683.936 99.3789 692.085 94.6548 691.007 87.4578Z" fill="#3F78BD" fill-opacity="0.6"/>
<path d="M688.974 94.8595C693.038 88.8226 682.478 73.269 676.99 77.1004C669.132 82.587 672.466 90.4958 674.088 94.6878C675.71 98.8798 684.91 100.896 688.974 94.8595Z" fill="#3F78BD" fill-opacity="0.7"/>
</g>
<g opacity="0.5">
<path d="M492.669 38.6521C491.591 31.455 473.3 27.1114 471.839 33.6427C469.746 42.9957 477.545 46.5784 481.572 48.5758C485.599 50.5732 493.747 45.8492 492.669 38.6521Z" fill="#3F78BD" fill-opacity="0.6"/>
<path d="M490.636 46.0538C494.7 40.0169 484.14 24.4633 478.652 28.2947C470.794 33.7814 474.128 41.6901 475.75 45.8821C477.372 50.0741 486.572 52.0907 490.636 46.0538Z" fill="#3F78BD" fill-opacity="0.7"/>
</g>
</g>
</g>
<defs>
<clipPath id="clip0">
<rect width="2600" height="4366" fill="white"/>
</clipPath>
</defs>
</svg>
