<svg width="2600" height="4366" viewBox="0 0 2600 4366" fill="none" xmlns="http://www.w3.org/2000/svg">
<g clip-path="url(#clip0)">
<rect width="2600" height="4366" fill="white"/>
<rect width="1440" height="24000" fill="white"/>
<g opacity="0.5">
<g opacity="0.5">
<path d="M2334.86 2259.6C2332.99 2247.11 2301.25 2239.58 2298.72 2250.91C2295.09 2267.14 2308.62 2273.35 2315.61 2276.82C2322.59 2280.28 2336.73 2272.09 2334.86 2259.6Z" fill="#3F78BD" fill-opacity="0.6"/>
<path d="M2331.33 2272.44C2338.38 2261.97 2320.06 2234.98 2310.54 2241.63C2296.91 2251.15 2302.69 2264.87 2305.5 2272.15C2308.32 2279.42 2324.28 2282.92 2331.33 2272.44Z" fill="#3F78BD" fill-opacity="0.7"/>
</g>
<g opacity="0.5">
<path d="M2256.72 1798.75C2266.78 1791.12 2258.18 1759.66 2247.02 1762.87C2231.04 1767.46 2232.07 1782.32 2232.38 1790.11C2232.69 1797.9 2246.66 1806.38 2256.72 1798.75Z" fill="#3F78BD" fill-opacity="0.6"/>
<path d="M2243.76 1801.81C2256.33 1802.98 2271.23 1773.96 2260.83 1768.79C2245.94 1761.39 2236.67 1773.05 2231.64 1779C2226.61 1784.96 2231.19 1800.65 2243.76 1801.81Z" fill="#3F78BD" fill-opacity="0.7"/>
</g>
<g opacity="0.5">
<path d="M2136.52 2210.8C2134.65 2198.31 2102.92 2190.77 2100.38 2202.1C2096.75 2218.33 2110.28 2224.55 2117.27 2228.01C2124.26 2231.48 2138.39 2223.28 2136.52 2210.8Z" fill="#3F78BD" fill-opacity="0.6"/>
<path d="M2132.99 2223.64C2140.05 2213.16 2121.72 2186.18 2112.2 2192.82C2098.57 2202.34 2104.35 2216.07 2107.17 2223.34C2109.98 2230.61 2125.94 2234.11 2132.99 2223.64Z" fill="#3F78BD" fill-opacity="0.7"/>
</g>
<g opacity="0.5">
<path d="M2204.47 1601.29C2214.53 1593.67 2205.93 1562.2 2194.77 1565.41C2178.79 1570 2179.82 1584.86 2180.13 1592.65C2180.44 1600.44 2194.41 1608.92 2204.47 1601.29Z" fill="#3F78BD" fill-opacity="0.6"/>
<path d="M2191.51 1604.35C2204.08 1605.52 2218.98 1576.5 2208.58 1571.34C2193.69 1563.93 2184.42 1575.59 2179.39 1581.55C2174.35 1587.5 2178.94 1603.19 2191.51 1604.35Z" fill="#3F78BD" fill-opacity="0.7"/>
</g>
<g opacity="0.5">
<path d="M2472.97 2011.2C2471.1 1998.72 2439.36 1991.18 2436.83 2002.51C2433.2 2018.74 2446.73 2024.96 2453.72 2028.42C2460.7 2031.89 2474.84 2023.69 2472.97 2011.2Z" fill="#3F78BD" fill-opacity="0.6"/>
<path d="M2469.44 2024.05C2476.49 2013.57 2458.17 1986.58 2448.65 1993.23C2435.01 2002.75 2440.8 2016.47 2443.61 2023.75C2446.43 2031.02 2462.39 2034.52 2469.44 2024.05Z" fill="#3F78BD" fill-opacity="0.7"/>
</g>
<g opacity="0.5">
<path d="M2540.92 1800.87C2550.99 1793.25 2542.39 1761.78 2531.23 1764.99C2515.24 1769.58 2516.28 1784.44 2516.58 1792.23C2516.89 1800.02 2530.86 1808.5 2540.92 1800.87Z" fill="#3F78BD" fill-opacity="0.6"/>
<path d="M2527.96 1803.94C2540.54 1805.1 2555.44 1776.08 2545.04 1770.92C2530.15 1763.51 2520.88 1775.17 2515.84 1781.13C2510.81 1787.08 2515.39 1802.77 2527.96 1803.94Z" fill="#3F78BD" fill-opacity="0.7"/>
</g>
<g opacity="0.5">
<path d="M2305.79 1974.86C2303.92 1962.37 2272.18 1954.83 2269.64 1966.17C2266.01 1982.4 2279.55 1988.61 2286.53 1992.08C2293.52 1995.54 2307.66 1987.35 2305.79 1974.86Z" fill="#3F78BD" fill-opacity="0.6"/>
<path d="M2302.26 1987.7C2309.31 1977.23 2290.99 1950.24 2281.47 1956.89C2267.83 1966.41 2273.62 1980.13 2276.43 1987.4C2279.24 1994.68 2295.21 1998.18 2302.26 1987.7Z" fill="#3F78BD" fill-opacity="0.7"/>
</g>
<g opacity="0.5">
<path d="M2492.67 1636.73C2502.73 1629.1 2494.13 1597.64 2482.97 1600.85C2466.99 1605.44 2468.02 1620.29 2468.33 1628.09C2468.64 1635.88 2482.61 1644.36 2492.67 1636.73Z" fill="#3F78BD" fill-opacity="0.6"/>
<path d="M2479.71 1639.79C2492.28 1640.96 2507.18 1611.94 2496.78 1606.77C2481.89 1599.37 2472.62 1611.02 2467.59 1616.98C2462.55 1622.94 2467.14 1638.62 2479.71 1639.79Z" fill="#3F78BD" fill-opacity="0.7"/>
</g>
<g opacity="0.5">
<path d="M2107.45 1926.05C2105.58 1913.57 2073.84 1906.03 2071.3 1917.36C2067.67 1933.59 2081.21 1939.81 2088.19 1943.27C2095.18 1946.74 2109.32 1938.54 2107.45 1926.05Z" fill="#3F78BD" fill-opacity="0.6"/>
<path d="M2103.92 1938.9C2110.97 1928.42 2092.65 1901.43 2083.13 1908.08C2069.49 1917.6 2075.28 1931.32 2078.09 1938.6C2080.9 1945.87 2096.87 1949.37 2103.92 1938.9Z" fill="#3F78BD" fill-opacity="0.7"/>
</g>
<g opacity="0.5">
<path d="M2440.42 1439.27C2450.48 1431.64 2441.88 1400.18 2430.72 1403.39C2414.74 1407.98 2415.77 1422.84 2416.08 1430.63C2416.39 1438.42 2430.36 1446.9 2440.42 1439.27Z" fill="#3F78BD" fill-opacity="0.6"/>
<path d="M2427.46 1442.33C2440.03 1443.5 2454.93 1414.48 2444.53 1409.31C2429.64 1401.91 2420.37 1413.57 2415.34 1419.52C2410.3 1425.48 2414.88 1441.17 2427.46 1442.33Z" fill="#3F78BD" fill-opacity="0.7"/>
</g>
<g opacity="0.5">
<path d="M2366.29 2163.3C2363.04 2141.55 2307.77 2128.43 2303.36 2148.16C2297.03 2176.42 2320.6 2187.25 2332.76 2193.28C2344.93 2199.32 2369.55 2185.04 2366.29 2163.3Z" fill="#3F78BD" fill-opacity="0.6"/>
<path d="M2360.15 2185.66C2372.43 2167.42 2340.52 2120.43 2323.94 2132C2300.2 2148.58 2310.27 2172.48 2315.17 2185.14C2320.07 2197.81 2347.87 2203.9 2360.15 2185.66Z" fill="#3F78BD" fill-opacity="0.7"/>
</g>
<g opacity="0.5">
<path d="M2356.3 1780.17C2373.83 1766.89 2358.85 1712.09 2339.41 1717.68C2311.58 1725.68 2313.38 1751.55 2313.92 1765.12C2314.45 1778.69 2338.78 1793.45 2356.3 1780.17Z" fill="#3F78BD" fill-opacity="0.6"/>
<path d="M2333.73 1785.5C2355.63 1787.53 2381.57 1737 2363.46 1728C2337.53 1715.11 2321.39 1735.41 2312.63 1745.78C2303.86 1756.15 2311.84 1783.47 2333.73 1785.5Z" fill="#3F78BD" fill-opacity="0.7"/>
</g>
<g opacity="0.5">
<path d="M2167.95 2114.49C2164.7 2092.75 2109.43 2079.62 2105.02 2099.36C2098.69 2127.62 2122.26 2138.44 2134.43 2144.48C2146.59 2150.51 2171.21 2136.24 2167.95 2114.49Z" fill="#3F78BD" fill-opacity="0.6"/>
<path d="M2161.81 2136.86C2174.09 2118.62 2142.18 2071.62 2125.6 2083.2C2101.86 2099.78 2111.93 2123.67 2116.83 2136.34C2121.73 2149 2149.53 2155.1 2161.81 2136.86Z" fill="#3F78BD" fill-opacity="0.7"/>
</g>
<g opacity="0.5">
<path d="M2304.05 1582.71C2321.57 1569.43 2306.6 1514.63 2287.16 1520.22C2259.33 1528.22 2261.13 1554.09 2261.66 1567.66C2262.2 1581.23 2286.53 1595.99 2304.05 1582.71Z" fill="#3F78BD" fill-opacity="0.6"/>
<path d="M2281.48 1588.04C2303.37 1590.07 2329.32 1539.54 2311.21 1530.54C2285.28 1517.65 2269.14 1537.95 2260.37 1548.32C2251.61 1558.69 2259.59 1586.01 2281.48 1588.04Z" fill="#3F78BD" fill-opacity="0.7"/>
</g>
<g opacity="0.5">
<path d="M2504.4 1914.9C2501.14 1893.16 2445.88 1880.03 2441.46 1899.77C2435.14 1928.02 2458.71 1938.85 2470.87 1944.88C2483.04 1950.92 2507.66 1936.65 2504.4 1914.9Z" fill="#3F78BD" fill-opacity="0.6"/>
<path d="M2498.26 1937.26C2510.54 1919.02 2478.63 1872.03 2462.05 1883.61C2438.31 1900.18 2448.38 1924.08 2453.28 1936.75C2458.18 1949.41 2485.98 1955.5 2498.26 1937.26Z" fill="#3F78BD" fill-opacity="0.7"/>
</g>
<g opacity="0.5">
<path d="M2640.51 1782.29C2658.03 1769.01 2643.05 1714.22 2623.62 1719.8C2595.79 1727.8 2597.58 1753.67 2598.12 1767.24C2598.66 1780.81 2622.98 1795.57 2640.51 1782.29Z" fill="#3F78BD" fill-opacity="0.6"/>
<path d="M2617.93 1787.62C2639.83 1789.65 2665.77 1739.12 2647.67 1730.12C2621.74 1717.23 2605.59 1737.53 2596.83 1747.9C2588.06 1758.27 2596.04 1785.59 2617.93 1787.62Z" fill="#3F78BD" fill-opacity="0.7"/>
</g>
<g opacity="0.5">
<path d="M2337.22 1878.56C2333.96 1856.81 2278.69 1843.69 2274.28 1863.42C2267.96 1891.68 2291.52 1902.5 2303.69 1908.54C2315.85 1914.57 2340.47 1900.3 2337.22 1878.56Z" fill="#3F78BD" fill-opacity="0.6"/>
<path d="M2331.07 1900.92C2343.35 1882.68 2311.44 1835.69 2294.86 1847.26C2271.12 1863.84 2281.19 1887.74 2286.09 1900.4C2290.99 1913.07 2318.79 1919.16 2331.07 1900.92Z" fill="#3F78BD" fill-opacity="0.7"/>
</g>
<g opacity="0.5">
<path d="M2592.25 1618.15C2609.78 1604.86 2594.8 1550.07 2575.37 1555.66C2547.53 1563.66 2549.33 1589.53 2549.87 1603.1C2550.4 1616.67 2574.73 1631.43 2592.25 1618.15Z" fill="#3F78BD" fill-opacity="0.6"/>
<path d="M2569.68 1623.48C2591.58 1625.51 2617.52 1574.98 2599.41 1565.98C2573.48 1553.09 2557.34 1573.38 2548.58 1583.76C2539.81 1594.13 2547.79 1621.44 2569.68 1623.48Z" fill="#3F78BD" fill-opacity="0.7"/>
</g>
<g opacity="0.5">
<path d="M2138.88 1829.75C2135.62 1808 2080.36 1794.88 2075.94 1814.61C2069.62 1842.87 2093.18 1853.7 2105.35 1859.73C2117.52 1865.77 2142.14 1851.5 2138.88 1829.75Z" fill="#3F78BD" fill-opacity="0.6"/>
<path d="M2132.73 1852.11C2145.01 1833.87 2113.11 1786.88 2096.53 1798.46C2072.78 1815.03 2082.86 1838.93 2087.76 1851.6C2092.66 1864.26 2120.45 1870.35 2132.73 1852.11Z" fill="#3F78BD" fill-opacity="0.7"/>
</g>
<g opacity="0.5">
<path d="M2540 1420.69C2557.52 1407.4 2542.55 1352.61 2523.11 1358.2C2495.28 1366.2 2497.08 1392.07 2497.62 1405.64C2498.15 1419.21 2522.48 1433.97 2540 1420.69Z" fill="#3F78BD" fill-opacity="0.6"/>
<path d="M2517.43 1426.02C2539.32 1428.05 2565.27 1377.52 2547.16 1368.52C2521.23 1355.63 2505.09 1375.93 2496.32 1386.3C2487.56 1396.67 2495.54 1423.99 2517.43 1426.02Z" fill="#3F78BD" fill-opacity="0.7"/>
</g>
<g opacity="0.5">
<path d="M2253.08 2208.2C2252 2201 2233.71 2196.66 2232.25 2203.19C2230.16 2212.54 2237.96 2216.13 2241.99 2218.12C2246.01 2220.12 2254.16 2215.4 2253.08 2208.2Z" fill="#3F78BD" fill-opacity="0.6"/>
<path d="M2251.05 2215.6C2255.11 2209.56 2244.55 2194.01 2239.07 2197.84C2231.21 2203.33 2234.54 2211.24 2236.16 2215.43C2237.79 2219.62 2246.99 2221.64 2251.05 2215.6Z" fill="#3F78BD" fill-opacity="0.7"/>
</g>
<g opacity="0.5">
<path d="M2262.63 1702.34C2268.43 1697.95 2263.47 1679.81 2257.04 1681.66C2247.82 1684.31 2248.42 1692.87 2248.6 1697.36C2248.77 1701.85 2256.83 1706.74 2262.63 1702.34Z" fill="#3F78BD" fill-opacity="0.6"/>
<path d="M2255.15 1704.11C2262.4 1704.78 2270.99 1688.05 2264.99 1685.08C2256.41 1680.81 2251.07 1687.53 2248.17 1690.96C2245.27 1694.39 2247.91 1703.43 2255.15 1704.11Z" fill="#3F78BD" fill-opacity="0.7"/>
</g>
<g opacity="0.5">
<path d="M2589.53 2008.61C2588.45 2001.41 2570.16 1997.07 2568.7 2003.6C2566.61 2012.95 2574.41 2016.53 2578.43 2018.53C2582.46 2020.53 2590.61 2015.81 2589.53 2008.61Z" fill="#3F78BD" fill-opacity="0.6"/>
<path d="M2587.5 2016.01C2591.56 2009.97 2581 1994.42 2575.51 1998.25C2567.66 2003.74 2570.99 2011.65 2572.61 2015.84C2574.23 2020.03 2583.43 2022.05 2587.5 2016.01Z" fill="#3F78BD" fill-opacity="0.7"/>
</g>
<g opacity="0.5">
<path d="M2599.08 1901.92C2604.88 1897.53 2599.92 1879.39 2593.49 1881.24C2584.28 1883.89 2584.87 1892.45 2585.05 1896.94C2585.23 1901.43 2593.28 1906.32 2599.08 1901.92Z" fill="#3F78BD" fill-opacity="0.6"/>
<path d="M2591.61 1903.69C2598.86 1904.36 2607.44 1887.64 2601.45 1884.66C2592.87 1880.39 2587.53 1887.11 2584.62 1890.54C2581.72 1893.97 2584.36 1903.01 2591.61 1903.69Z" fill="#3F78BD" fill-opacity="0.7"/>
</g>
<g opacity="0.5">
<path d="M2054.75 2159.39C2053.67 2152.2 2035.38 2147.85 2033.91 2154.39C2031.82 2163.74 2039.62 2167.32 2043.65 2169.32C2047.67 2171.32 2055.82 2166.59 2054.75 2159.39Z" fill="#3F78BD" fill-opacity="0.6"/>
<path d="M2052.71 2166.8C2056.78 2160.76 2046.22 2145.21 2040.73 2149.04C2032.87 2154.52 2036.2 2162.43 2037.83 2166.62C2039.45 2170.82 2048.65 2172.83 2052.71 2166.8Z" fill="#3F78BD" fill-opacity="0.7"/>
</g>
<g opacity="0.5">
<path d="M2210.38 1504.88C2216.18 1500.49 2211.22 1482.35 2204.79 1484.2C2195.57 1486.85 2196.17 1495.41 2196.35 1499.9C2196.52 1504.39 2204.58 1509.28 2210.38 1504.88Z" fill="#3F78BD" fill-opacity="0.6"/>
<path d="M2202.9 1506.65C2210.15 1507.32 2218.74 1490.6 2212.74 1487.62C2204.16 1483.35 2198.82 1490.07 2195.92 1493.5C2193.02 1496.93 2195.66 1505.98 2202.9 1506.65Z" fill="#3F78BD" fill-opacity="0.7"/>
</g>
<g opacity="0.5">
<path d="M2391.19 1959.8C2390.11 1952.61 2371.82 1948.26 2370.36 1954.79C2368.27 1964.15 2376.07 1967.73 2380.1 1969.73C2384.12 1971.72 2392.27 1967 2391.19 1959.8Z" fill="#3F78BD" fill-opacity="0.6"/>
<path d="M2389.16 1967.2C2393.22 1961.17 2382.66 1945.61 2377.18 1949.45C2369.32 1954.93 2372.65 1962.84 2374.27 1967.03C2375.9 1971.22 2385.1 1973.24 2389.16 1967.2Z" fill="#3F78BD" fill-opacity="0.7"/>
</g>
<g opacity="0.5">
<path d="M2546.83 1704.46C2552.63 1700.07 2547.67 1681.93 2541.24 1683.78C2532.03 1686.43 2532.62 1694.99 2532.8 1699.48C2532.98 1703.97 2541.03 1708.86 2546.83 1704.46Z" fill="#3F78BD" fill-opacity="0.6"/>
<path d="M2539.36 1706.23C2546.6 1706.9 2555.19 1690.18 2549.2 1687.2C2540.62 1682.93 2535.27 1689.65 2532.37 1693.08C2529.47 1696.52 2532.11 1705.56 2539.36 1706.23Z" fill="#3F78BD" fill-opacity="0.7"/>
</g>
<g opacity="0.5">
<path d="M2224.01 1923.46C2222.93 1916.26 2204.64 1911.92 2203.18 1918.45C2201.08 1927.8 2208.88 1931.38 2212.91 1933.38C2216.94 1935.38 2225.08 1930.65 2224.01 1923.46Z" fill="#3F78BD" fill-opacity="0.6"/>
<path d="M2221.97 1930.86C2226.04 1924.82 2215.48 1909.27 2209.99 1913.1C2202.13 1918.59 2205.47 1926.5 2207.09 1930.69C2208.71 1934.88 2217.91 1936.9 2221.97 1930.86Z" fill="#3F78BD" fill-opacity="0.7"/>
</g>
<g opacity="0.5">
<path d="M2498.58 1540.32C2504.38 1535.92 2499.42 1517.79 2492.99 1519.64C2483.78 1522.29 2484.37 1530.85 2484.55 1535.34C2484.73 1539.83 2492.78 1544.72 2498.58 1540.32Z" fill="#3F78BD" fill-opacity="0.6"/>
<path d="M2491.11 1542.08C2498.35 1542.76 2506.94 1526.03 2500.95 1523.05C2492.36 1518.79 2487.02 1525.5 2484.12 1528.94C2481.22 1532.37 2483.86 1541.41 2491.11 1542.08Z" fill="#3F78BD" fill-opacity="0.7"/>
</g>
<g opacity="0.5">
<path d="M2025.67 1874.65C2024.59 1867.45 2006.3 1863.11 2004.84 1869.64C2002.75 1879 2010.55 1882.58 2014.57 1884.58C2018.6 1886.57 2026.75 1881.85 2025.67 1874.65Z" fill="#3F78BD" fill-opacity="0.6"/>
<path d="M2023.64 1882.05C2027.7 1876.02 2017.14 1860.46 2011.65 1864.29C2003.79 1869.78 2007.13 1877.69 2008.75 1881.88C2010.37 1886.07 2019.57 1888.09 2023.64 1882.05Z" fill="#3F78BD" fill-opacity="0.7"/>
</g>
<g opacity="0.5">
<path d="M2446.32 1342.86C2452.12 1338.47 2447.17 1320.33 2440.74 1322.18C2431.52 1324.83 2432.12 1333.39 2432.3 1337.88C2432.47 1342.37 2440.53 1347.26 2446.32 1342.86Z" fill="#3F78BD" fill-opacity="0.6"/>
<path d="M2438.85 1344.63C2446.1 1345.3 2454.69 1328.57 2448.69 1325.59C2440.11 1321.33 2434.77 1328.05 2431.87 1331.48C2428.97 1334.91 2431.61 1343.95 2438.85 1344.63Z" fill="#3F78BD" fill-opacity="0.7"/>
</g>
</g>
<g opacity="0.5">
<g opacity="0.5">
<path d="M2622.72 111.752C2632.78 104.124 2624.18 72.659 2613.02 75.8666C2597.04 80.4601 2598.07 95.3163 2598.38 103.109C2598.69 110.902 2612.66 119.379 2622.72 111.752Z" fill="#3F78BD" fill-opacity="0.6"/>
<path d="M2609.76 114.812C2622.33 115.979 2637.23 86.9617 2626.83 81.7928C2611.94 74.3906 2602.67 86.0465 2597.64 92.0028C2592.61 97.959 2597.19 113.645 2609.76 114.812Z" fill="#3F78BD" fill-opacity="0.7"/>
</g>
<g opacity="0.5">
<path d="M2502.52 523.795C2500.65 511.308 2468.92 503.772 2466.38 515.104C2462.75 531.332 2476.28 537.548 2483.27 541.014C2490.26 544.479 2504.39 536.283 2502.52 523.795Z" fill="#3F78BD" fill-opacity="0.6"/>
<path d="M2498.99 536.638C2506.05 526.163 2487.72 499.177 2478.2 505.824C2464.57 515.344 2470.35 529.066 2473.17 536.34C2475.98 543.613 2491.94 547.112 2498.99 536.638Z" fill="#3F78BD" fill-opacity="0.7"/>
</g>
<g opacity="0.5">
<path d="M2473.45 239.053C2471.58 226.566 2439.84 219.029 2437.3 230.361C2433.67 246.589 2447.21 252.806 2454.19 256.271C2461.18 259.737 2475.32 251.54 2473.45 239.053Z" fill="#3F78BD" fill-opacity="0.6"/>
<path d="M2469.92 251.895C2476.97 241.421 2458.65 214.434 2449.13 221.082C2435.49 230.602 2441.28 244.324 2444.09 251.597C2446.9 258.871 2462.87 262.37 2469.92 251.895Z" fill="#3F78BD" fill-opacity="0.7"/>
</g>
<g opacity="0.5">
<path d="M2533.95 427.493C2530.7 405.747 2475.43 392.623 2471.02 412.357C2464.69 440.617 2488.26 451.441 2500.43 457.477C2512.59 463.512 2537.21 449.238 2533.95 427.493Z" fill="#3F78BD" fill-opacity="0.6"/>
<path d="M2527.81 449.857C2540.09 431.617 2508.18 384.623 2491.6 396.199C2467.86 412.776 2477.93 436.672 2482.83 449.338C2487.73 462.004 2515.53 468.097 2527.81 449.857Z" fill="#3F78BD" fill-opacity="0.7"/>
</g>
<g opacity="0.5">
<path d="M2504.88 142.75C2501.62 121.005 2446.36 107.881 2441.94 127.615C2435.62 155.874 2459.18 166.699 2471.35 172.734C2483.52 178.769 2508.14 164.496 2504.88 142.75Z" fill="#3F78BD" fill-opacity="0.6"/>
<path d="M2498.73 165.114C2511.01 146.874 2479.11 99.8802 2462.53 111.456C2438.78 128.034 2448.86 151.93 2453.76 164.596C2458.66 177.262 2486.45 183.354 2498.73 165.114Z" fill="#3F78BD" fill-opacity="0.7"/>
</g>
<g opacity="0.5">
<path d="M2619.08 521.2C2618 514.003 2599.71 509.66 2598.25 516.191C2596.16 525.544 2603.96 529.127 2607.99 531.124C2612.01 533.121 2620.16 528.397 2619.08 521.2Z" fill="#3F78BD" fill-opacity="0.6"/>
<path d="M2617.05 528.602C2621.11 522.565 2610.55 507.011 2605.07 510.843C2597.21 516.329 2600.54 524.238 2602.16 528.43C2603.79 532.622 2612.99 534.639 2617.05 528.602Z" fill="#3F78BD" fill-opacity="0.7"/>
</g>
<g opacity="0.5">
<path d="M2420.75 472.395C2419.67 465.197 2401.38 460.854 2399.91 467.385C2397.82 476.738 2405.62 480.321 2409.65 482.318C2413.67 484.316 2421.82 479.592 2420.75 472.395Z" fill="#3F78BD" fill-opacity="0.6"/>
<path d="M2418.71 479.796C2422.78 473.759 2412.22 458.206 2406.73 462.037C2398.87 467.524 2402.2 475.433 2403.83 479.625C2405.45 483.817 2414.65 485.833 2418.71 479.796Z" fill="#3F78BD" fill-opacity="0.7"/>
</g>
<g opacity="0.5">
<path d="M2590.01 236.458C2588.93 229.261 2570.64 224.917 2569.18 231.448C2567.08 240.801 2574.88 244.384 2578.91 246.382C2582.94 248.379 2591.08 243.655 2590.01 236.458Z" fill="#3F78BD" fill-opacity="0.6"/>
<path d="M2587.97 243.859C2592.04 237.823 2581.48 222.269 2575.99 226.1C2568.13 231.587 2571.47 239.496 2573.09 243.688C2574.71 247.88 2583.91 249.896 2587.97 243.859Z" fill="#3F78BD" fill-opacity="0.7"/>
</g>
<g opacity="0.5">
<path d="M2391.67 187.652C2390.59 180.455 2372.3 176.111 2370.84 182.643C2368.75 191.996 2376.55 195.578 2380.57 197.576C2384.6 199.573 2392.75 194.849 2391.67 187.652Z" fill="#3F78BD" fill-opacity="0.6"/>
<path d="M2389.64 195.054C2393.7 189.017 2383.14 173.463 2377.65 177.295C2369.79 182.781 2373.13 190.69 2374.75 194.882C2376.37 199.074 2385.57 201.091 2389.64 195.054Z" fill="#3F78BD" fill-opacity="0.7"/>
</g>
</g>
<g opacity="0.5">
<g opacity="0.5">
<path d="M-13.5578 3633.05C-6.50656 3622.57 -24.8292 3595.58 -34.3505 3602.23C-47.9854 3611.75 -42.1997 3625.47 -39.3859 3632.75C-36.5722 3640.02 -20.6091 3643.52 -13.5578 3633.05Z" fill="#3F78BD" fill-opacity="0.7"/>
</g>
<g opacity="0.5">
<path d="M57.9245 3409.87C67.9867 3402.25 59.3863 3370.78 48.2258 3373.99C32.2435 3378.58 33.2757 3393.44 33.5835 3401.23C33.8913 3409.02 47.8622 3417.5 57.9245 3409.87Z" fill="#3F78BD" fill-opacity="0.6"/>
<path d="M44.9634 3412.94C57.5361 3414.1 72.4355 3385.08 62.037 3379.92C47.146 3372.51 37.8771 3384.17 32.8428 3390.13C27.8086 3396.08 32.3907 3411.77 44.9634 3412.94Z" fill="#3F78BD" fill-opacity="0.7"/>
</g>
<g opacity="0.5">
<path d="M9.67058 3245.73C19.7328 3238.1 11.1324 3206.64 -0.0281116 3209.85C-16.0104 3214.44 -14.9782 3229.29 -14.6704 3237.09C-14.3626 3244.88 -0.391684 3253.36 9.67058 3245.73Z" fill="#3F78BD" fill-opacity="0.6"/>
<path d="M-3.29048 3248.79C9.28222 3249.96 24.1816 3220.94 13.7831 3215.77C-1.10793 3208.37 -10.3768 3220.03 -15.4111 3225.98C-20.4453 3231.94 -15.8632 3247.62 -3.29048 3248.79Z" fill="#3F78BD" fill-opacity="0.7"/>
</g>
<g opacity="0.5">
<path d="M21.402 3523.9C18.1449 3502.16 -37.1205 3489.03 -41.5355 3508.77C-47.858 3537.02 -24.2924 3547.85 -12.1264 3553.88C0.0396194 3559.92 24.659 3545.65 21.402 3523.9Z" fill="#3F78BD" fill-opacity="0.6"/>
<path d="M15.2571 3546.26C27.5362 3528.02 -4.37082 3481.03 -20.9511 3492.61C-44.6948 3509.18 -34.6196 3533.08 -29.7198 3545.75C-24.8199 3558.41 2.97801 3564.5 15.2571 3546.26Z" fill="#3F78BD" fill-opacity="0.7"/>
</g>
<g opacity="0.5">
<path d="M157.507 3391.29C175.029 3378.01 160.052 3323.22 140.617 3328.8C112.786 3336.8 114.583 3362.67 115.119 3376.24C115.655 3389.81 139.984 3404.57 157.507 3391.29Z" fill="#3F78BD" fill-opacity="0.6"/>
<path d="M134.935 3396.62C156.829 3398.65 182.775 3348.12 164.667 3339.12C138.736 3326.23 122.595 3346.53 113.828 3356.9C105.062 3367.27 113.041 3394.59 134.935 3396.62Z" fill="#3F78BD" fill-opacity="0.7"/>
</g>
<g opacity="0.5">
<path d="M109.255 3227.15C126.777 3213.86 111.8 3159.07 92.3653 3164.66C64.5338 3172.66 66.3313 3198.53 66.8673 3212.1C67.4033 3225.67 91.7322 3240.43 109.255 3227.15Z" fill="#3F78BD" fill-opacity="0.6"/>
<path d="M86.6829 3232.48C108.577 3234.51 134.523 3183.98 116.415 3174.98C90.4836 3162.09 74.3428 3182.38 65.5762 3192.76C56.8096 3203.13 64.7889 3230.44 86.6829 3232.48Z" fill="#3F78BD" fill-opacity="0.7"/>
</g>
<g opacity="0.5">
<path d="M57.0026 3029.69C74.525 3016.4 59.5482 2961.61 40.1134 2967.2C12.2818 2975.2 14.0793 3001.07 14.6153 3014.64C15.1513 3028.21 39.4802 3042.97 57.0026 3029.69Z" fill="#3F78BD" fill-opacity="0.6"/>
<path d="M34.431 3035.02C56.325 3037.05 82.2706 2986.52 64.1628 2977.52C38.2316 2964.63 22.0908 2984.93 13.3243 2995.3C4.55769 3005.67 12.537 3032.99 34.431 3035.02Z" fill="#3F78BD" fill-opacity="0.7"/>
</g>
<g opacity="0.5">
<path d="M106.53 3617.61C105.452 3610.41 87.1611 3606.07 85.6999 3612.6C83.6073 3621.95 91.4068 3625.53 95.4333 3627.53C99.4599 3629.53 107.608 3624.81 106.53 3617.61Z" fill="#3F78BD" fill-opacity="0.6"/>
<path d="M104.497 3625.01C108.561 3618.97 98.0012 3603.42 92.5136 3607.25C84.6552 3612.74 87.9898 3620.65 89.6115 3624.84C91.2332 3629.03 100.433 3631.05 104.497 3625.01Z" fill="#3F78BD" fill-opacity="0.7"/>
</g>
<g opacity="0.5">
<path d="M116.081 3510.92C121.88 3506.53 116.923 3488.39 110.491 3490.24C101.28 3492.89 101.874 3501.45 102.052 3505.94C102.229 3510.43 110.281 3515.32 116.081 3510.92Z" fill="#3F78BD" fill-opacity="0.6"/>
<path d="M108.609 3512.69C115.855 3513.36 124.443 3496.64 118.45 3493.66C109.867 3489.39 104.525 3496.11 101.624 3499.54C98.7221 3502.97 101.363 3512.01 108.609 3512.69Z" fill="#3F78BD" fill-opacity="0.7"/>
</g>
<g opacity="0.5">
<path d="M63.8288 3313.46C69.6281 3309.07 64.6713 3290.93 58.239 3292.78C49.0276 3295.43 49.6225 3303.99 49.7999 3308.48C49.9773 3312.97 58.0294 3317.86 63.8288 3313.46Z" fill="#3F78BD" fill-opacity="0.6"/>
<path d="M56.3573 3315.23C63.6035 3315.9 72.1907 3299.18 66.1976 3296.2C57.6152 3291.93 52.2731 3298.65 49.3716 3302.08C46.4701 3305.52 49.111 3314.56 56.3573 3315.23Z" fill="#3F78BD" fill-opacity="0.7"/>
</g>
<g opacity="0.5">
<path d="M15.5768 3149.32C21.3762 3144.92 16.4194 3126.79 9.98703 3128.64C0.775677 3131.29 1.37059 3139.85 1.54798 3144.34C1.72538 3148.83 9.77749 3153.72 15.5768 3149.32Z" fill="#3F78BD" fill-opacity="0.6"/>
<path d="M8.1053 3151.08C15.3515 3151.76 23.9387 3135.03 17.9456 3132.05C9.3632 3127.79 4.02111 3134.5 1.11965 3137.94C-1.78181 3141.37 0.859078 3150.41 8.1053 3151.08Z" fill="#3F78BD" fill-opacity="0.7"/>
</g>
</g>
<g opacity="0.5">
<g opacity="0.5">
<path d="M716.721 4321.75C726.784 4314.12 718.183 4282.66 707.023 4285.87C691.04 4290.46 692.073 4305.32 692.38 4313.11C692.688 4320.9 706.659 4329.38 716.721 4321.75Z" fill="#3F78BD" fill-opacity="0.6"/>
<path d="M703.76 4324.81C716.333 4325.98 731.232 4296.96 720.834 4291.79C705.943 4284.39 696.674 4296.05 691.64 4302C686.605 4307.96 691.188 4323.65 703.76 4324.81Z" fill="#3F78BD" fill-opacity="0.7"/>
</g>
<g opacity="0.5">
<path d="M664.469 4124.29C674.532 4116.67 665.931 4085.2 654.771 4088.41C638.788 4093 639.821 4107.86 640.128 4115.65C640.436 4123.44 654.407 4131.92 664.469 4124.29Z" fill="#3F78BD" fill-opacity="0.6"/>
<path d="M651.508 4127.35C664.081 4128.52 678.98 4099.5 668.582 4094.34C653.691 4086.93 644.422 4098.59 639.388 4104.55C634.354 4110.5 638.936 4126.19 651.508 4127.35Z" fill="#3F78BD" fill-opacity="0.7"/>
</g>
<g opacity="0.5">
<path d="M1000.92 4323.87C1010.99 4316.25 1002.39 4284.78 991.226 4287.99C975.243 4292.58 976.276 4307.44 976.583 4315.23C976.891 4323.02 990.862 4331.5 1000.92 4323.87Z" fill="#3F78BD" fill-opacity="0.6"/>
<path d="M987.963 4326.94C1000.54 4328.1 1015.44 4299.08 1005.04 4293.92C990.146 4286.51 980.877 4298.17 975.843 4304.13C970.809 4310.08 975.391 4325.77 987.963 4326.94Z" fill="#3F78BD" fill-opacity="0.7"/>
</g>
<g opacity="0.5">
<path d="M952.673 4159.73C962.735 4152.1 954.134 4120.64 942.974 4123.85C926.992 4128.44 928.024 4143.29 928.332 4151.09C928.639 4158.88 942.61 4167.36 952.673 4159.73Z" fill="#3F78BD" fill-opacity="0.6"/>
<path d="M939.711 4162.79C952.284 4163.96 967.184 4134.94 956.785 4129.77C941.894 4122.37 932.625 4134.03 927.591 4139.98C922.557 4145.94 927.139 4161.62 939.711 4162.79Z" fill="#3F78BD" fill-opacity="0.7"/>
</g>
<g opacity="0.5">
<path d="M900.419 3962.27C910.481 3954.64 901.88 3923.18 890.72 3926.39C874.738 3930.98 875.77 3945.84 876.078 3953.63C876.385 3961.42 890.356 3969.9 900.419 3962.27Z" fill="#3F78BD" fill-opacity="0.6"/>
<path d="M887.458 3965.33C900.03 3966.5 914.93 3937.48 904.531 3932.31C889.64 3924.91 880.371 3936.57 875.337 3942.52C870.303 3948.48 874.885 3964.17 887.458 3965.33Z" fill="#3F78BD" fill-opacity="0.7"/>
</g>
<g opacity="0.5">
<path d="M816.303 4303.17C833.826 4289.89 818.849 4235.09 799.414 4240.68C771.583 4248.68 773.38 4274.55 773.916 4288.12C774.452 4301.69 798.781 4316.45 816.303 4303.17Z" fill="#3F78BD" fill-opacity="0.6"/>
<path d="M793.732 4308.5C815.626 4310.53 841.571 4260 823.464 4251C797.532 4238.11 781.392 4258.41 772.625 4268.78C763.858 4279.15 771.838 4306.47 793.732 4308.5Z" fill="#3F78BD" fill-opacity="0.7"/>
</g>
<g opacity="0.5">
<path d="M764.051 4105.71C781.574 4092.43 766.597 4037.63 747.162 4043.22C719.331 4051.22 721.128 4077.09 721.664 4090.66C722.2 4104.23 746.529 4118.99 764.051 4105.71Z" fill="#3F78BD" fill-opacity="0.6"/>
<path d="M741.48 4111.04C763.374 4113.07 789.319 4062.54 771.212 4053.54C745.28 4040.65 729.14 4060.95 720.373 4071.32C711.607 4081.69 719.586 4109.01 741.48 4111.04Z" fill="#3F78BD" fill-opacity="0.7"/>
</g>
<g opacity="0.5">
<path d="M1100.51 4305.29C1118.03 4292.01 1103.05 4237.22 1083.62 4242.8C1055.79 4250.8 1057.58 4276.67 1058.12 4290.24C1058.66 4303.81 1082.98 4318.57 1100.51 4305.29Z" fill="#3F78BD" fill-opacity="0.6"/>
<path d="M1077.93 4310.62C1099.83 4312.65 1125.77 4262.12 1107.67 4253.12C1081.74 4240.23 1065.59 4260.53 1056.83 4270.9C1048.06 4281.27 1056.04 4308.59 1077.93 4310.62Z" fill="#3F78BD" fill-opacity="0.7"/>
</g>
<g opacity="0.5">
<path d="M791.072 4423.92C803.351 4405.68 771.444 4358.69 754.863 4370.26C731.12 4386.84 741.195 4410.74 746.095 4423.4C750.995 4436.07 778.792 4442.16 791.072 4423.92Z" fill="#3F78BD" fill-opacity="0.7"/>
</g>
<g opacity="0.5">
<path d="M1052.25 4141.15C1069.78 4127.86 1054.8 4073.07 1035.37 4078.66C1007.53 4086.66 1009.33 4112.53 1009.87 4126.1C1010.4 4139.67 1034.73 4154.43 1052.25 4141.15Z" fill="#3F78BD" fill-opacity="0.6"/>
<path d="M1029.68 4146.48C1051.58 4148.51 1077.52 4097.98 1059.41 4088.98C1033.48 4076.09 1017.34 4096.38 1008.58 4106.76C999.81 4117.13 1007.79 4144.44 1029.68 4146.48Z" fill="#3F78BD" fill-opacity="0.7"/>
</g>
<g opacity="0.5">
<path d="M598.879 4352.75C595.621 4331 540.356 4317.88 535.941 4337.61C529.619 4365.87 553.184 4376.7 565.35 4382.73C577.516 4388.77 602.136 4374.5 598.879 4352.75Z" fill="#3F78BD" fill-opacity="0.6"/>
<path d="M592.734 4375.11C605.013 4356.87 573.106 4309.88 556.525 4321.46C532.782 4338.03 542.857 4361.93 547.757 4374.6C552.657 4387.26 580.455 4393.35 592.734 4375.11Z" fill="#3F78BD" fill-opacity="0.7"/>
</g>
<g opacity="0.5">
<path d="M1000 3943.69C1017.52 3930.4 1002.55 3875.61 983.113 3881.2C955.282 3889.2 957.079 3915.07 957.615 3928.64C958.151 3942.21 982.48 3956.97 1000 3943.69Z" fill="#3F78BD" fill-opacity="0.6"/>
<path d="M977.431 3949.02C999.325 3951.05 1025.27 3900.52 1007.16 3891.52C981.232 3878.63 965.091 3898.93 956.324 3909.3C947.558 3919.67 955.537 3946.99 977.431 3949.02Z" fill="#3F78BD" fill-opacity="0.7"/>
</g>
<g opacity="0.5">
<path d="M722.626 4225.34C728.425 4220.95 723.468 4202.81 717.036 4204.66C707.825 4207.31 708.419 4215.87 708.597 4220.36C708.774 4224.85 716.826 4229.74 722.626 4225.34Z" fill="#3F78BD" fill-opacity="0.6"/>
<path d="M715.154 4227.11C722.4 4227.78 730.988 4211.05 724.994 4208.08C716.412 4203.81 711.07 4210.53 708.168 4213.96C705.267 4217.39 707.908 4226.43 715.154 4227.11Z" fill="#3F78BD" fill-opacity="0.7"/>
</g>
<g opacity="0.5">
<path d="M670.376 4027.88C676.175 4023.49 671.218 4005.35 664.786 4007.2C655.575 4009.85 656.169 4018.41 656.347 4022.9C656.524 4027.39 664.576 4032.28 670.376 4027.88Z" fill="#3F78BD" fill-opacity="0.6"/>
<path d="M662.904 4029.65C670.15 4030.32 678.738 4013.6 672.744 4010.62C664.162 4006.35 658.82 4013.07 655.918 4016.5C653.017 4019.93 655.658 4028.98 662.904 4029.65Z" fill="#3F78BD" fill-opacity="0.7"/>
</g>
<g opacity="0.5">
<path d="M1006.83 4227.46C1012.63 4223.07 1007.67 4204.93 1001.24 4206.78C992.028 4209.43 992.623 4217.99 992.8 4222.48C992.977 4226.97 1001.03 4231.86 1006.83 4227.46Z" fill="#3F78BD" fill-opacity="0.6"/>
<path d="M999.357 4229.23C1006.6 4229.9 1015.19 4213.18 1009.2 4210.2C1000.62 4205.93 995.273 4212.65 992.372 4216.08C989.47 4219.52 992.111 4228.56 999.357 4229.23Z" fill="#3F78BD" fill-opacity="0.7"/>
</g>
<g opacity="0.5">
<path d="M958.577 4063.32C964.376 4058.92 959.419 4040.79 952.987 4042.64C943.776 4045.29 944.371 4053.85 944.548 4058.34C944.725 4062.83 952.777 4067.72 958.577 4063.32Z" fill="#3F78BD" fill-opacity="0.6"/>
<path d="M951.105 4065.08C958.352 4065.76 966.939 4049.03 960.946 4046.05C952.363 4041.79 947.021 4048.5 944.12 4051.94C941.218 4055.37 943.859 4064.41 951.105 4065.08Z" fill="#3F78BD" fill-opacity="0.7"/>
</g>
<g opacity="0.5">
<path d="M906.325 3865.86C912.124 3861.47 907.167 3843.33 900.735 3845.18C891.524 3847.83 892.119 3856.39 892.296 3860.88C892.473 3865.37 900.526 3870.26 906.325 3865.86Z" fill="#3F78BD" fill-opacity="0.6"/>
<path d="M898.853 3867.63C906.1 3868.3 914.687 3851.57 908.694 3848.59C900.111 3844.33 894.769 3851.05 891.868 3854.48C888.966 3857.91 891.607 3866.95 898.853 3867.63Z" fill="#3F78BD" fill-opacity="0.7"/>
</g>
</g>
<rect y="-2604" width="2598" height="24000" fill="#3F78BD" fill-opacity="0.3"/>
<path d="M315.723 1256H270.117L256.445 1193.79C255.794 1191.19 254.753 1186.01 253.32 1178.27C251.953 1170.52 250.944 1164.04 250.293 1158.83C249.772 1163.06 248.926 1168.34 247.754 1174.65C246.582 1180.9 245.41 1186.66 244.238 1191.94C243.132 1197.21 238.411 1218.57 230.078 1256H184.473L149.121 1113.23H186.328L201.855 1184.81C205.371 1200.63 207.78 1213.23 209.082 1222.6C209.928 1215.96 211.426 1206.94 213.574 1195.55C215.788 1184.16 217.839 1174.72 219.727 1167.23L232.324 1113.23H268.066L280.273 1167.23C282.357 1175.89 284.473 1185.88 286.621 1197.21C288.77 1208.54 290.202 1217 290.918 1222.6C291.764 1215.38 294.076 1202.84 297.852 1185L313.672 1113.23H350.879L315.723 1256ZM280.371 1528L273.34 1501.24H226.953L219.727 1528H177.344L223.926 1384.64H275.391L322.559 1528H280.371ZM265.332 1469.6L259.18 1446.16C257.747 1440.96 255.99 1434.22 253.906 1425.95C251.888 1417.68 250.553 1411.76 249.902 1408.18C249.316 1411.5 248.145 1416.96 246.387 1424.58C244.694 1432.2 240.885 1447.21 234.961 1469.6H265.332ZM250 1710.16L274.609 1657.23H316.406L269.434 1744.24V1800H230.566V1745.41L183.594 1657.23H225.586L250 1710.16ZM249.512 2344H211.523L211.523 2201.23H295.898V2232.18H249.512L249.512 2259.43H292.285V2290.39H249.512L249.512 2344ZM319.336 2544.42C319.336 2568.44 313.444 2586.7 301.66 2599.2C289.876 2611.7 272.624 2617.95 249.902 2617.95C227.507 2617.95 210.319 2611.67 198.34 2599.11C186.426 2586.54 180.469 2568.25 180.469 2544.22C180.469 2520.46 186.393 2502.33 198.242 2489.83C210.156 2477.26 227.441 2470.98 250.098 2470.98C272.819 2470.98 290.039 2477.2 301.758 2489.63C313.477 2502.07 319.336 2520.33 319.336 2544.42ZM221.094 2544.42C221.094 2572.02 230.697 2585.82 249.902 2585.82C259.668 2585.82 266.895 2582.47 271.582 2575.77C276.335 2569.06 278.711 2558.61 278.711 2544.42C278.711 2530.16 276.302 2519.65 271.484 2512.88C266.732 2506.04 259.603 2502.62 250.098 2502.62C230.762 2502.62 221.094 2516.55 221.094 2544.42ZM236.328 2836.05V2888H197.754V2745.23H244.531C283.333 2745.23 302.734 2759.29 302.734 2787.41C302.734 2803.95 294.661 2816.74 278.516 2825.79L320.117 2888H276.367L246.094 2836.05H236.328ZM236.328 2807.04H243.555C257.031 2807.04 263.77 2801.09 263.77 2789.17C263.77 2779.34 257.161 2774.43 243.945 2774.43H236.328V2807.04ZM315.723 3160H270.117L256.445 3097.79C255.794 3095.19 254.753 3090.01 253.32 3082.27C251.953 3074.52 250.944 3068.04 250.293 3062.83C249.772 3067.06 248.926 3072.34 247.754 3078.65C246.582 3084.9 245.41 3090.66 244.238 3095.94C243.132 3101.21 238.411 3122.57 230.078 3160H184.473L149.121 3017.23H186.328L201.855 3088.81C205.371 3104.63 207.78 3117.23 209.082 3126.6C209.928 3119.96 211.426 3110.94 213.574 3099.55C215.788 3088.16 217.839 3078.72 219.727 3071.23L232.324 3017.23H268.066L280.273 3071.23C282.357 3079.89 284.473 3089.88 286.621 3101.21C288.77 3112.54 290.202 3121 290.918 3126.6C291.764 3119.38 294.076 3106.84 297.852 3089L313.672 3017.23H350.879L315.723 3160ZM280.371 3432L273.34 3405.24H226.953L219.727 3432H177.344L223.926 3288.64H275.391L322.559 3432H280.371ZM265.332 3373.6L259.18 3350.16C257.747 3344.96 255.99 3338.22 253.906 3329.95C251.888 3321.68 250.553 3315.76 249.902 3312.18C249.316 3315.5 248.145 3320.96 246.387 3328.58C244.694 3336.2 240.885 3351.21 234.961 3373.6H265.332ZM236.328 3652.05V3704H197.754L197.754 3561.23H244.531C283.333 3561.23 302.734 3575.29 302.734 3603.41C302.734 3619.95 294.661 3632.74 278.516 3641.79L320.117 3704H276.367L246.094 3652.05H236.328ZM236.328 3623.04H243.555C257.031 3623.04 263.77 3617.09 263.77 3605.17C263.77 3595.34 257.161 3590.43 243.945 3590.43H236.328V3623.04ZM313.184 3901.59C313.184 3925.41 306.608 3943.77 293.457 3956.66C280.371 3969.55 261.947 3976 238.184 3976H191.992V3833.23H241.406C264.323 3833.23 281.999 3839.09 294.434 3850.8C306.934 3862.52 313.184 3879.45 313.184 3901.59ZM273.145 3902.95C273.145 3889.87 270.54 3880.17 265.332 3873.85C260.189 3867.54 252.344 3864.38 241.797 3864.38H230.566V3944.36H239.16C250.879 3944.36 259.473 3940.97 264.941 3934.2C270.41 3927.37 273.145 3916.95 273.145 3902.95Z" fill="#3F78BD" fill-opacity="0.15"/>
<path d="M2302.72 2944H2257.12L2243.45 2881.79C2242.79 2879.19 2241.75 2874.01 2240.32 2866.27C2238.95 2858.52 2237.94 2852.04 2237.29 2846.83C2236.77 2851.06 2235.93 2856.34 2234.75 2862.65C2233.58 2868.9 2232.41 2874.66 2231.24 2879.94C2230.13 2885.21 2225.41 2906.57 2217.08 2944H2171.47L2136.12 2801.23H2173.33L2188.86 2872.81C2192.37 2888.63 2194.78 2901.23 2196.08 2910.6C2196.93 2903.96 2198.43 2894.94 2200.57 2883.55C2202.79 2872.16 2204.84 2862.72 2206.73 2855.23L2219.32 2801.23H2255.07L2267.27 2855.23C2269.36 2863.89 2271.47 2873.88 2273.62 2885.21C2275.77 2896.54 2277.2 2905 2277.92 2910.6C2278.76 2903.38 2281.08 2890.84 2284.85 2873L2300.67 2801.23H2337.88L2302.72 2944ZM2267.37 3216L2260.34 3189.24H2213.95L2206.73 3216H2164.34L2210.93 3072.64H2262.39L2309.56 3216H2267.37ZM2252.33 3157.6L2246.18 3134.16C2244.75 3128.96 2242.99 3122.22 2240.91 3113.95C2238.89 3105.68 2237.55 3099.76 2236.9 3096.18C2236.32 3099.5 2235.14 3104.96 2233.39 3112.58C2231.69 3120.2 2227.89 3135.21 2221.96 3157.6H2252.33ZM2237 3398.16L2261.61 3345.23H2303.41L2256.43 3432.24V3488H2217.57V3433.41L2170.59 3345.23H2212.59L2237 3398.16ZM2236.51 4032H2198.52V3889.23H2282.9V3920.18H2236.51V3947.43H2279.29V3978.39H2236.51V4032ZM2306.34 4232.42C2306.34 4256.44 2300.44 4274.7 2288.66 4287.2C2276.88 4299.7 2259.62 4305.95 2236.9 4305.95C2214.51 4305.95 2197.32 4299.67 2185.34 4287.11C2173.43 4274.54 2167.47 4256.25 2167.47 4232.22C2167.47 4208.46 2173.39 4190.33 2185.24 4177.83C2197.16 4165.26 2214.44 4158.98 2237.1 4158.98C2259.82 4158.98 2277.04 4165.2 2288.76 4177.63C2300.48 4190.07 2306.34 4208.33 2306.34 4232.42ZM2208.09 4232.42C2208.09 4260.02 2217.7 4273.82 2236.9 4273.82C2246.67 4273.82 2253.89 4270.47 2258.58 4263.77C2263.33 4257.06 2265.71 4246.61 2265.71 4232.42C2265.71 4218.16 2263.3 4207.65 2258.48 4200.88C2253.73 4194.04 2246.6 4190.62 2237.1 4190.62C2217.76 4190.62 2208.09 4204.55 2208.09 4232.42ZM2223.33 4524.05V4576H2184.75V4433.23H2231.53C2270.33 4433.23 2289.73 4447.29 2289.73 4475.41C2289.73 4491.95 2281.66 4504.74 2265.52 4513.79L2307.12 4576H2263.37L2233.09 4524.05H2223.33ZM2223.33 4495.04H2230.55C2244.03 4495.04 2250.77 4489.09 2250.77 4477.17C2250.77 4467.34 2244.16 4462.43 2230.95 4462.43H2223.33V4495.04ZM2302.72 4848H2257.12L2243.45 4785.79C2242.79 4783.19 2241.75 4778.01 2240.32 4770.27C2238.95 4762.52 2237.94 4756.04 2237.29 4750.83C2236.77 4755.06 2235.93 4760.34 2234.75 4766.65C2233.58 4772.9 2232.41 4778.66 2231.24 4783.94C2230.13 4789.21 2225.41 4810.57 2217.08 4848H2171.47L2136.12 4705.23H2173.33L2188.86 4776.81C2192.37 4792.63 2194.78 4805.23 2196.08 4814.6C2196.93 4807.96 2198.43 4798.94 2200.57 4787.55C2202.79 4776.16 2204.84 4766.72 2206.73 4759.23L2219.32 4705.23H2255.07L2267.27 4759.23C2269.36 4767.89 2271.47 4777.88 2273.62 4789.21C2275.77 4800.54 2277.2 4809 2277.92 4814.6C2278.76 4807.38 2281.08 4794.84 2284.85 4777L2300.67 4705.23H2337.88L2302.72 4848ZM2267.37 5120L2260.34 5093.24H2213.95L2206.73 5120H2164.34L2210.93 4976.64H2262.39L2309.56 5120H2267.37ZM2252.33 5061.6L2246.18 5038.16C2244.75 5032.96 2242.99 5026.22 2240.91 5017.95C2238.89 5009.68 2237.55 5003.76 2236.9 5000.18C2236.32 5003.5 2235.14 5008.96 2233.39 5016.58C2231.69 5024.2 2227.89 5039.21 2221.96 5061.6H2252.33ZM2223.33 5340.05V5392H2184.75V5249.23H2231.53C2270.33 5249.23 2289.73 5263.29 2289.73 5291.41C2289.73 5307.95 2281.66 5320.74 2265.52 5329.79L2307.12 5392H2263.37L2233.09 5340.05H2223.33ZM2223.33 5311.04H2230.55C2244.03 5311.04 2250.77 5305.09 2250.77 5293.17C2250.77 5283.34 2244.16 5278.43 2230.95 5278.43H2223.33V5311.04ZM2300.18 5589.59C2300.18 5613.41 2293.61 5631.77 2280.46 5644.66C2267.37 5657.55 2248.95 5664 2225.18 5664H2178.99V5521.23H2228.41C2251.32 5521.23 2269 5527.09 2281.43 5538.8C2293.93 5550.52 2300.18 5567.45 2300.18 5589.59ZM2260.14 5590.95C2260.14 5577.87 2257.54 5568.17 2252.33 5561.85C2247.19 5555.54 2239.34 5552.38 2228.8 5552.38H2217.57V5632.36H2226.16C2237.88 5632.36 2246.47 5628.97 2251.94 5622.2C2257.41 5615.37 2260.14 5604.95 2260.14 5590.95Z" fill="#3F78BD" fill-opacity="0.15"/>
<path d="M2302.72 -1425H2257.12L2243.45 -1487.21C2242.79 -1489.81 2241.75 -1494.99 2240.32 -1502.73C2238.95 -1510.48 2237.94 -1516.96 2237.29 -1522.17C2236.77 -1517.94 2235.93 -1512.66 2234.75 -1506.35C2233.58 -1500.1 2232.41 -1494.34 2231.24 -1489.06C2230.13 -1483.79 2225.41 -1462.43 2217.08 -1425H2171.47L2136.12 -1567.77H2173.33L2188.86 -1496.19C2192.37 -1480.37 2194.78 -1467.77 2196.08 -1458.4C2196.93 -1465.04 2198.43 -1474.06 2200.57 -1485.45C2202.79 -1496.84 2204.84 -1506.28 2206.73 -1513.77L2219.32 -1567.77H2255.07L2267.27 -1513.77C2269.36 -1505.11 2271.47 -1495.12 2273.62 -1483.79C2275.77 -1472.46 2277.2 -1464 2277.92 -1458.4C2278.76 -1465.62 2281.08 -1478.16 2284.85 -1496L2300.67 -1567.77H2337.88L2302.72 -1425ZM2267.37 -1153L2260.34 -1179.76H2213.95L2206.73 -1153H2164.34L2210.93 -1296.36H2262.39L2309.56 -1153H2267.37ZM2252.33 -1211.4L2246.18 -1234.84C2244.75 -1240.04 2242.99 -1246.78 2240.91 -1255.05C2238.89 -1263.32 2237.55 -1269.24 2236.9 -1272.82C2236.32 -1269.5 2235.14 -1264.04 2233.39 -1256.42C2231.69 -1248.8 2227.89 -1233.79 2221.96 -1211.4H2252.33ZM2237 -970.844L2261.61 -1023.77H2303.41L2256.43 -936.762V-881H2217.57V-935.59L2170.59 -1023.77H2212.59L2237 -970.844ZM2236.51 -337H2198.52V-479.773H2282.9V-448.816H2236.51V-421.57H2279.29V-390.613H2236.51V-337ZM2306.34 -136.582C2306.34 -112.559 2300.44 -94.2969 2288.66 -81.7969C2276.88 -69.2969 2259.62 -63.0469 2236.9 -63.0469C2214.51 -63.0469 2197.32 -69.3294 2185.34 -81.8945C2173.43 -94.4596 2167.47 -112.754 2167.47 -136.777C2167.47 -160.54 2173.39 -178.672 2185.24 -191.172C2197.16 -203.737 2214.44 -210.02 2237.1 -210.02C2259.82 -210.02 2277.04 -203.802 2288.76 -191.367C2300.48 -178.932 2306.34 -160.671 2306.34 -136.582ZM2208.09 -136.582C2208.09 -108.978 2217.7 -95.1758 2236.9 -95.1758C2246.67 -95.1758 2253.89 -98.5286 2258.58 -105.234C2263.33 -111.94 2265.71 -122.389 2265.71 -136.582C2265.71 -150.84 2263.3 -161.354 2258.48 -168.125C2253.73 -174.961 2246.6 -178.379 2237.1 -178.379C2217.76 -178.379 2208.09 -164.447 2208.09 -136.582ZM2223.33 155.047V207H2184.75V64.2266H2231.53C2270.33 64.2266 2289.73 78.2891 2289.73 106.414C2289.73 122.951 2281.66 135.743 2265.52 144.793L2307.12 207H2263.37L2233.09 155.047H2223.33ZM2223.33 126.043H2230.55C2244.03 126.043 2250.77 120.086 2250.77 108.172C2250.77 98.3411 2244.16 93.4258 2230.95 93.4258H2223.33V126.043ZM2302.72 479H2257.12L2243.45 416.793C2242.79 414.189 2241.75 409.013 2240.32 401.266C2238.95 393.518 2237.94 387.04 2237.29 381.832C2236.77 386.064 2235.93 391.337 2234.75 397.652C2233.58 403.902 2232.41 409.664 2231.24 414.938C2230.13 420.211 2225.41 441.565 2217.08 479H2171.47L2136.12 336.227H2173.33L2188.86 407.809C2192.37 423.629 2194.78 436.227 2196.08 445.602C2196.93 438.961 2198.43 429.944 2200.57 418.551C2202.79 407.158 2204.84 397.717 2206.73 390.23L2219.32 336.227H2255.07L2267.27 390.23C2269.36 398.889 2271.47 408.883 2273.62 420.211C2275.77 431.539 2277.2 440.003 2277.92 445.602C2278.76 438.375 2281.08 425.842 2284.85 408.004L2300.67 336.227H2337.88L2302.72 479ZM2267.37 751L2260.34 724.242H2213.95L2206.73 751H2164.34L2210.93 607.641H2262.39L2309.56 751H2267.37ZM2252.33 692.602L2246.18 669.164C2244.75 663.956 2242.99 657.217 2240.91 648.949C2238.89 640.681 2237.55 634.757 2236.9 631.176C2236.32 634.496 2235.14 639.965 2233.39 647.582C2231.69 655.199 2227.89 670.206 2221.96 692.602H2252.33ZM2223.33 971.047V1023H2184.75V880.227H2231.53C2270.33 880.227 2289.73 894.289 2289.73 922.414C2289.73 938.951 2281.66 951.743 2265.52 960.793L2307.12 1023H2263.37L2233.09 971.047H2223.33ZM2223.33 942.043H2230.55C2244.03 942.043 2250.77 936.086 2250.77 924.172C2250.77 914.341 2244.16 909.426 2230.95 909.426H2223.33V942.043ZM2300.18 1220.59C2300.18 1244.41 2293.61 1262.77 2280.46 1275.66C2267.37 1288.55 2248.95 1295 2225.18 1295H2178.99V1152.23H2228.41C2251.32 1152.23 2269 1158.09 2281.43 1169.8C2293.93 1181.52 2300.18 1198.45 2300.18 1220.59ZM2260.14 1221.95C2260.14 1208.87 2257.54 1199.17 2252.33 1192.85C2247.19 1186.54 2239.34 1183.38 2228.8 1183.38H2217.57V1263.36H2226.16C2237.88 1263.36 2246.47 1259.97 2251.94 1253.2C2257.41 1246.37 2260.14 1235.95 2260.14 1221.95Z" fill="#3F78BD" fill-opacity="0.15"/>
<g opacity="0.5">
<path d="M-40.5 3164.5V2410H2598V3693.5L-40.5 3164.5Z" fill="white"/>
<path d="M-40.5 3255V2500.5H2598V3784L-40.5 3255Z" fill="white"/>
</g>
<g opacity="0.5">
<g opacity="0.5">
<path d="M801.861 423.601C799.991 411.114 768.254 403.577 765.719 414.909C762.088 431.138 775.621 437.354 782.607 440.819C789.594 444.285 803.731 436.088 801.861 423.601Z" fill="#3F78BD" fill-opacity="0.6"/>
<path d="M798.333 436.443C805.384 425.969 787.061 398.982 777.54 405.63C763.905 415.15 769.691 428.872 772.505 436.145C775.318 443.419 791.281 446.918 798.333 436.443Z" fill="#3F78BD" fill-opacity="0.7"/>
</g>
<g opacity="0.5">
<path d="M603.523 374.795C601.653 362.308 569.916 354.772 567.381 366.104C563.75 382.332 577.283 388.548 584.269 392.014C591.256 395.479 605.394 387.283 603.523 374.795Z" fill="#3F78BD" fill-opacity="0.6"/>
<path d="M599.995 387.638C607.046 377.163 588.724 350.177 579.202 356.824C565.567 366.344 571.353 380.066 574.167 387.34C576.981 394.613 592.944 398.112 599.995 387.638Z" fill="#3F78BD" fill-opacity="0.7"/>
</g>
<g opacity="0.5">
<path d="M939.97 175.203C938.1 162.716 906.364 155.179 903.828 166.512C900.198 182.74 913.73 188.956 920.717 192.422C927.703 195.887 941.841 187.691 939.97 175.203Z" fill="#3F78BD" fill-opacity="0.6"/>
<path d="M936.442 188.046C943.493 177.571 925.171 150.585 915.649 157.232C902.015 166.752 907.8 180.474 910.614 187.748C913.428 195.021 929.391 198.52 936.442 188.046Z" fill="#3F78BD" fill-opacity="0.7"/>
</g>
<g opacity="0.5">
<path d="M772.787 138.859C770.916 126.371 739.18 118.835 736.645 130.167C733.014 146.395 746.547 152.611 753.533 156.077C760.519 159.543 774.657 151.346 772.787 138.859Z" fill="#3F78BD" fill-opacity="0.6"/>
<path d="M769.259 151.701C776.31 141.227 757.987 114.24 748.466 120.888C734.831 130.408 740.617 144.13 743.43 151.403C746.244 158.677 762.207 162.175 769.259 151.701Z" fill="#3F78BD" fill-opacity="0.7"/>
</g>
<g opacity="0.5">
<path d="M574.447 90.053C572.577 77.5655 540.84 70.0291 538.305 81.3613C534.674 97.5894 548.207 103.806 555.193 107.271C562.18 110.737 576.317 102.54 574.447 90.053Z" fill="#3F78BD" fill-opacity="0.6"/>
<path d="M570.919 102.895C577.97 92.4208 559.647 65.4344 550.126 72.082C536.491 81.6018 542.277 95.324 545.091 102.597C547.904 109.871 563.867 113.37 570.919 102.895Z" fill="#3F78BD" fill-opacity="0.7"/>
</g>
<g opacity="0.5">
<path d="M833.293 327.298C830.036 305.553 774.77 292.429 770.355 312.163C764.033 340.422 787.598 351.247 799.764 357.282C811.93 363.317 836.55 349.044 833.293 327.298Z" fill="#3F78BD" fill-opacity="0.6"/>
<path d="M827.148 349.662C839.427 331.422 807.52 284.428 790.939 296.005C767.196 312.582 777.271 336.478 782.171 349.144C787.071 361.81 814.869 367.903 827.148 349.662Z" fill="#3F78BD" fill-opacity="0.7"/>
</g>
<g opacity="0.5">
<path d="M634.955 278.493C631.698 256.747 576.432 243.623 572.017 263.357C565.695 291.617 589.26 302.441 601.426 308.477C613.592 314.512 638.212 300.238 634.955 278.493Z" fill="#3F78BD" fill-opacity="0.6"/>
<path d="M628.81 300.857C641.089 282.617 609.182 235.623 592.602 247.199C568.858 263.776 578.933 287.672 583.833 300.338C588.733 313.004 616.531 319.097 628.81 300.857Z" fill="#3F78BD" fill-opacity="0.7"/>
</g>
<g opacity="0.5">
<path d="M971.402 78.9007C968.145 57.1552 912.88 44.0312 908.464 63.765C902.142 92.0246 925.708 102.85 937.874 108.885C950.04 114.92 974.659 100.646 971.402 78.9007Z" fill="#3F78BD" fill-opacity="0.6"/>
<path d="M965.257 101.265C977.536 83.0247 945.629 36.0306 929.049 47.6068C905.305 64.1844 915.38 88.0802 920.28 100.746C925.18 113.412 952.978 119.505 965.257 101.265Z" fill="#3F78BD" fill-opacity="0.7"/>
</g>
<g opacity="0.5">
<path d="M804.216 42.5559C800.959 20.8104 745.694 7.68651 741.279 27.4203C734.956 55.6799 758.522 66.5048 770.688 72.5399C782.854 78.575 807.473 64.3015 804.216 42.5559Z" fill="#3F78BD" fill-opacity="0.6"/>
<path d="M798.072 64.92C810.351 46.68 778.444 -0.314148 761.863 11.2621C738.12 27.8397 748.195 51.7354 753.095 64.4014C757.995 77.0673 785.792 83.1601 798.072 64.92Z" fill="#3F78BD" fill-opacity="0.7"/>
</g>
<g opacity="0.5">
<path d="M605.879 -6.24975C602.621 -27.9953 547.356 -41.1192 542.941 -21.3854C536.619 6.8742 560.184 17.6991 572.35 23.7342C584.516 29.7693 609.136 15.4958 605.879 -6.24975Z" fill="#3F78BD" fill-opacity="0.6"/>
<path d="M599.734 16.1143C612.013 -2.12573 580.106 -49.1198 563.525 -37.5436C539.782 -20.966 549.857 2.92975 554.757 15.5957C559.657 28.2616 587.455 34.3544 599.734 16.1143Z" fill="#3F78BD" fill-opacity="0.7"/>
</g>
<g opacity="0.5">
<path d="M720.083 372.2C719.005 365.003 700.714 360.66 699.253 367.191C697.16 376.544 704.96 380.127 708.986 382.124C713.013 384.121 721.161 379.397 720.083 372.2Z" fill="#3F78BD" fill-opacity="0.6"/>
<path d="M718.05 379.602C722.114 373.565 711.554 358.011 706.066 361.843C698.208 367.329 701.543 375.238 703.164 379.43C704.786 383.622 713.986 385.639 718.05 379.602Z" fill="#3F78BD" fill-opacity="0.7"/>
</g>
<g opacity="0.5">
<path d="M1056.53 172.608C1055.45 165.411 1037.16 161.067 1035.7 167.599C1033.61 176.952 1041.41 180.534 1045.43 182.532C1049.46 184.529 1057.61 179.805 1056.53 172.608Z" fill="#3F78BD" fill-opacity="0.6"/>
<path d="M1054.5 180.01C1058.56 173.973 1048 158.419 1042.51 162.251C1034.66 167.737 1037.99 175.646 1039.61 179.838C1041.23 184.03 1050.43 186.047 1054.5 180.01Z" fill="#3F78BD" fill-opacity="0.7"/>
</g>
<g opacity="0.5">
<path d="M1066.08 65.9235C1071.88 61.5272 1066.92 43.3927 1060.49 45.2414C1051.28 47.8888 1051.87 56.4512 1052.05 60.9424C1052.23 65.4337 1060.28 70.3198 1066.08 65.9235Z" fill="#3F78BD" fill-opacity="0.6"/>
<path d="M1058.61 67.6873C1065.86 68.3598 1074.44 51.6358 1068.45 48.6567C1059.87 44.3905 1054.53 51.1084 1051.62 54.5412C1048.72 57.9741 1051.36 67.0149 1058.61 67.6873Z" fill="#3F78BD" fill-opacity="0.7"/>
</g>
<g opacity="0.5">
<path d="M521.745 323.395C520.667 316.197 502.376 311.854 500.915 318.385C498.822 327.738 506.622 331.321 510.648 333.318C514.675 335.316 522.823 330.592 521.745 323.395Z" fill="#3F78BD" fill-opacity="0.6"/>
<path d="M519.712 330.796C523.776 324.759 513.216 309.206 507.728 313.037C499.87 318.524 503.205 326.433 504.826 330.625C506.448 334.817 515.648 336.833 519.712 330.796Z" fill="#3F78BD" fill-opacity="0.7"/>
</g>
<g opacity="0.5">
<path d="M858.192 123.802C857.114 116.605 838.823 112.262 837.362 118.793C835.269 128.146 843.069 131.729 847.095 133.726C851.122 135.724 859.27 131 858.192 123.802Z" fill="#3F78BD" fill-opacity="0.6"/>
<path d="M856.16 131.204C860.224 125.167 849.663 109.614 844.176 113.445C836.317 118.932 839.652 126.841 841.274 131.033C842.895 135.225 852.096 137.241 856.16 131.204Z" fill="#3F78BD" fill-opacity="0.7"/>
</g>
<g opacity="0.5">
<path d="M691.007 87.4578C689.929 80.2607 671.638 75.9171 670.176 82.4483C668.084 91.8014 675.883 95.3841 679.91 97.3815C683.936 99.3789 692.085 94.6548 691.007 87.4578Z" fill="#3F78BD" fill-opacity="0.6"/>
<path d="M688.974 94.8595C693.038 88.8226 682.478 73.269 676.99 77.1004C669.132 82.587 672.466 90.4958 674.088 94.6878C675.71 98.8798 684.91 100.896 688.974 94.8595Z" fill="#3F78BD" fill-opacity="0.7"/>
</g>
<g opacity="0.5">
<path d="M492.669 38.6521C491.591 31.455 473.3 27.1114 471.839 33.6427C469.746 42.9957 477.545 46.5784 481.572 48.5758C485.599 50.5732 493.747 45.8492 492.669 38.6521Z" fill="#3F78BD" fill-opacity="0.6"/>
<path d="M490.636 46.0538C494.7 40.0169 484.14 24.4633 478.652 28.2947C470.794 33.7814 474.128 41.6901 475.75 45.8821C477.372 50.0741 486.572 52.0907 490.636 46.0538Z" fill="#3F78BD" fill-opacity="0.7"/>
</g>
</g>
</g>
<defs>
<clipPath id="clip0">
<rect width="2600" height="4366" fill="white"/>
</clipPath>
</defs>
</svg>
